starting
0 
<meta message time_signature numerator=1 denominator=4 clocks_per_click=24 notated_32nd_notes_per_beat=8 time=0>
<meta message key_signature key='A' time=0>
<meta message set_tempo tempo=625000 time=0>
control_change channel=0 control=121 value=0 time=0
program_change channel=0 program=0 time=0
control_change channel=0 control=7 value=100 time=0
control_change channel=0 control=10 value=64 time=0
control_change channel=0 control=91 value=0 time=0
control_change channel=0 control=93 value=0 time=0
<meta message midi_port port=0 time=0>
note_on channel=0 note=66 velocity=80 time=0
<meta message key_signature key='A' time=0>
<meta message midi_port port=0 time=0>
note_on channel=0 note=66 velocity=0 time=0.15494791666666666
note_on channel=0 note=66 velocity=80 time=0.0013020833333333333
note_on channel=0 note=66 velocity=0 time=0.15494791666666666
note_on channel=0 note=68 velocity=80 time=0.0013020833333333333
note_on channel=0 note=68 velocity=0 time=0.15494791666666666
note_on channel=0 note=69 velocity=80 time=0.0013020833333333333
<meta message time_signature numerator=4 denominator=4 clocks_per_click=24 notated_32nd_notes_per_beat=8 time=0.15625>
note_on channel=0 note=42 velocity=64 time=0
note_on channel=0 note=42 velocity=0 time=0.07682291666666666
note_on channel=0 note=49 velocity=64 time=0.07942708333333333
note_on channel=0 note=49 velocity=0 time=0.07682291666666666
note_on channel=0 note=69 velocity=0 time=0.078125
note_on channel=0 note=68 velocity=80 time=0.0013020833333333333
note_on channel=0 note=42 velocity=64 time=0
note_on channel=0 note=42 velocity=0 time=0.07682291666666666
note_on channel=0 note=49 velocity=64 time=0.07942708333333333
note_on channel=0 note=49 velocity=0 time=0.07682291666666666
note_on channel=0 note=68 velocity=0 time=0.078125
note_on channel=0 note=66 velocity=80 time=0.0013020833333333333
note_on channel=0 note=42 velocity=64 time=0
note_on channel=0 note=42 velocity=0 time=0.07682291666666666
note_on channel=0 note=66 velocity=0 time=0.078125
note_on channel=0 note=64 velocity=80 time=0.0013020833333333333
note_on channel=0 note=49 velocity=64 time=0
note_on channel=0 note=49 velocity=0 time=0.07682291666666666
note_on channel=0 note=42 velocity=64 time=0.07942708333333333
note_on channel=0 note=42 velocity=0 time=0.07682291666666666
note_on channel=0 note=64 velocity=0 time=0.078125
note_on channel=0 note=66 velocity=80 time=0.0013020833333333333
note_on channel=0 note=49 velocity=64 time=0
note_on channel=0 note=49 velocity=0 time=0.07682291666666666
note_on channel=0 note=42 velocity=64 time=0.07942708333333333
note_on channel=0 note=42 velocity=0 time=0.07682291666666666
note_on channel=0 note=49 velocity=64 time=0.07942708333333333
note_on channel=0 note=49 velocity=0 time=0.07682291666666666
note_on channel=0 note=42 velocity=64 time=0.07942708333333333
note_on channel=0 note=42 velocity=0 time=0.07682291666666666
note_on channel=0 note=49 velocity=64 time=0.07942708333333333
note_on channel=0 note=49 velocity=0 time=0.07682291666666666
note_on channel=0 note=66 velocity=0 time=0.0390625
note_on channel=0 note=66 velocity=80 time=0.04036458333333333
note_on channel=0 note=42 velocity=64 time=0
note_on channel=0 note=42 velocity=0 time=0.07682291666666666
note_on channel=0 note=66 velocity=0 time=0.078125
note_on channel=0 note=68 velocity=80 time=0.0013020833333333333
note_on channel=0 note=49 velocity=64 time=0
note_on channel=0 note=49 velocity=0 time=0.07682291666666666
note_on channel=0 note=42 velocity=64 time=0.07942708333333333
note_on channel=0 note=42 velocity=0 time=0.07682291666666666
note_on channel=0 note=68 velocity=0 time=0.078125
note_on channel=0 note=69 velocity=80 time=0.0013020833333333333
note_on channel=0 note=49 velocity=64 time=0
note_on channel=0 note=49 velocity=0 time=0.07682291666666666
note_on channel=0 note=42 velocity=64 time=0.07942708333333333
note_on channel=0 note=42 velocity=0 time=0.07682291666666666
note_on channel=0 note=49 velocity=64 time=0.07942708333333333
note_on channel=0 note=49 velocity=0 time=0.07682291666666666
note_on channel=0 note=69 velocity=0 time=0.078125
note_on channel=0 note=68 velocity=80 time=0.0013020833333333333
note_on channel=0 note=42 velocity=64 time=0
note_on channel=0 note=42 velocity=0 time=0.07682291666666666
note_on channel=0 note=49 velocity=64 time=0.07942708333333333
note_on channel=0 note=49 velocity=0 time=0.07682291666666666
note_on channel=0 note=68 velocity=0 time=0.078125
note_on channel=0 note=66 velocity=80 time=0.0013020833333333333
note_on channel=0 note=42 velocity=64 time=0
note_on channel=0 note=42 velocity=0 time=0.07682291666666666
note_on channel=0 note=66 velocity=0 time=0.078125
note_on channel=0 note=64 velocity=80 time=0.0013020833333333333
note_on channel=0 note=49 velocity=64 time=0
note_on channel=0 note=49 velocity=0 time=0.07682291666666666
note_on channel=0 note=42 velocity=64 time=0.07942708333333333
note_on channel=0 note=42 velocity=0 time=0.07682291666666666
note_on channel=0 note=64 velocity=0 time=0.078125
note_on channel=0 note=66 velocity=80 time=0.0013020833333333333
note_on channel=0 note=49 velocity=64 time=0
note_on channel=0 note=49 velocity=0 time=0.07682291666666666
note_on channel=0 note=42 velocity=64 time=0.07942708333333333
note_on channel=0 note=42 velocity=0 time=0.07682291666666666
note_on channel=0 note=49 velocity=64 time=0.07942708333333333
note_on channel=0 note=49 velocity=0 time=0.07682291666666666
note_on channel=0 note=66 velocity=0 time=0.078125
note_on channel=0 note=64 velocity=80 time=0.0013020833333333333
note_on channel=0 note=42 velocity=64 time=0
note_on channel=0 note=42 velocity=0 time=0.07682291666666666
note_on channel=0 note=49 velocity=64 time=0.07942708333333333
note_on channel=0 note=49 velocity=0 time=0.07682291666666666
note_on channel=0 note=64 velocity=0 time=0.078125
note_on channel=0 note=61 velocity=80 time=0.0013020833333333333
note_on channel=0 note=40 velocity=64 time=0
note_on channel=0 note=40 velocity=0 time=0.07682291666666666
note_on channel=0 note=61 velocity=0 time=0.078125
note_on channel=0 note=64 velocity=80 time=0.0013020833333333333
note_on channel=0 note=47 velocity=64 time=0
note_on channel=0 note=47 velocity=0 time=0.07682291666666666
note_on channel=0 note=40 velocity=64 time=0.07942708333333333
note_on channel=0 note=40 velocity=0 time=0.07682291666666666
note_on channel=0 note=64 velocity=0 time=0.078125
note_on channel=0 note=64 velocity=80 time=0.0013020833333333333
note_on channel=0 note=47 velocity=64 time=0
note_on channel=0 note=47 velocity=0 time=0.07682291666666666
note_on channel=0 note=38 velocity=64 time=0.07942708333333333
note_on channel=0 note=38 velocity=0 time=0.07682291666666666
note_on channel=0 note=45 velocity=64 time=0.07942708333333333
note_on channel=0 note=45 velocity=0 time=0.07682291666666666
note_on channel=0 note=38 velocity=64 time=0.07942708333333333
note_on channel=0 note=38 velocity=0 time=0.07682291666666666
note_on channel=0 note=45 velocity=64 time=0.07942708333333333
note_on channel=0 note=45 velocity=0 time=0.07682291666666666
note_on channel=0 note=64 velocity=0 time=0.0390625
note_on channel=0 note=61 velocity=80 time=0.04036458333333333
note_on channel=0 note=38 velocity=64 time=0
note_on channel=0 note=38 velocity=0 time=0.07682291666666666
note_on channel=0 note=61 velocity=0 time=0.078125
note_on channel=0 note=64 velocity=80 time=0.0013020833333333333
note_on channel=0 note=45 velocity=64 time=0
note_on channel=0 note=45 velocity=0 time=0.07682291666666666
note_on channel=0 note=38 velocity=64 time=0.07942708333333333
note_on channel=0 note=38 velocity=0 time=0.07682291666666666
note_on channel=0 note=64 velocity=0 time=0.078125
note_on channel=0 note=64 velocity=80 time=0.0013020833333333333
note_on channel=0 note=45 velocity=64 time=0
note_on channel=0 note=45 velocity=0 time=0.07682291666666666
note_on channel=0 note=38 velocity=64 time=0.07942708333333333
note_on channel=0 note=38 velocity=0 time=0.07682291666666666
note_on channel=0 note=45 velocity=64 time=0.07942708333333333
note_on channel=0 note=45 velocity=0 time=0.07682291666666666
note_on channel=0 note=38 velocity=64 time=0.07942708333333333
note_on channel=0 note=38 velocity=0 time=0.07682291666666666
note_on channel=0 note=45 velocity=64 time=0.07942708333333333
note_on channel=0 note=45 velocity=0 time=0.07682291666666666
note_on channel=0 note=64 velocity=0 time=0.078125
note_on channel=0 note=61 velocity=80 time=0.0013020833333333333
note_on channel=0 note=38 velocity=64 time=0
note_on channel=0 note=38 velocity=0 time=0.07682291666666666
note_on channel=0 note=61 velocity=0 time=0.078125
note_on channel=0 note=64 velocity=80 time=0.0013020833333333333
note_on channel=0 note=45 velocity=64 time=0
note_on channel=0 note=45 velocity=0 time=0.07682291666666666
note_on channel=0 note=38 velocity=64 time=0.07942708333333333
note_on channel=0 note=38 velocity=0 time=0.07682291666666666
note_on channel=0 note=64 velocity=0 time=0.078125
note_on channel=0 note=64 velocity=80 time=0.0013020833333333333
note_on channel=0 note=45 velocity=64 time=0
note_on channel=0 note=45 velocity=0 time=0.07682291666666666
note_on channel=0 note=38 velocity=64 time=0.07942708333333333
note_on channel=0 note=38 velocity=0 time=0.07682291666666666
note_on channel=0 note=45 velocity=64 time=0.07942708333333333
note_on channel=0 note=45 velocity=0 time=0.07682291666666666
note_on channel=0 note=64 velocity=0 time=0.078125
note_on channel=0 note=61 velocity=80 time=0.0013020833333333333
note_on channel=0 note=38 velocity=64 time=0
note_on channel=0 note=38 velocity=0 time=0.07682291666666666
note_on channel=0 note=45 velocity=64 time=0.07942708333333333
note_on channel=0 note=45 velocity=0 time=0.07682291666666666
note_on channel=0 note=61 velocity=0 time=0.078125
note_on channel=0 note=66 velocity=80 time=0.0013020833333333333
note_on channel=0 note=38 velocity=64 time=0
note_on channel=0 note=38 velocity=0 time=0.07682291666666666
note_on channel=0 note=66 velocity=0 time=0.078125
note_on channel=0 note=64 velocity=80 time=0.0013020833333333333
note_on channel=0 note=45 velocity=64 time=0
note_on channel=0 note=45 velocity=0 time=0.07682291666666666
note_on channel=0 note=38 velocity=64 time=0.07942708333333333
note_on channel=0 note=38 velocity=0 time=0.07682291666666666
note_on channel=0 note=64 velocity=0 time=0.078125
note_on channel=0 note=64 velocity=80 time=0.0013020833333333333
note_on channel=0 note=45 velocity=64 time=0
note_on channel=0 note=45 velocity=0 time=0.07682291666666666
note_on channel=0 note=40 velocity=64 time=0.07942708333333333
note_on channel=0 note=40 velocity=0 time=0.07682291666666666
note_on channel=0 note=47 velocity=64 time=0.07942708333333333
note_on channel=0 note=47 velocity=0 time=0.07682291666666666
note_on channel=0 note=64 velocity=0 time=0.078125
note_on channel=0 note=61 velocity=80 time=0.0013020833333333333
note_on channel=0 note=40 velocity=64 time=0
note_on channel=0 note=40 velocity=0 time=0.07682291666666666
note_on channel=0 note=47 velocity=64 time=0.07942708333333333
note_on channel=0 note=47 velocity=0 time=0.07682291666666666
note_on channel=0 note=61 velocity=0 time=0.0625
note_on channel=0 note=66 velocity=80 time=0.016927083333333332
note_on channel=0 note=78 velocity=80 time=0
note_on channel=0 note=40 velocity=80 time=0
note_on channel=0 note=40 velocity=0 time=0.07682291666666666
note_on channel=0 note=66 velocity=0 time=0.078125
note_on channel=0 note=78 velocity=0 time=0
note_on channel=0 note=68 velocity=84 time=0.0013020833333333333
note_on channel=0 note=80 velocity=84 time=0
note_on channel=0 note=47 velocity=84 time=0
note_on channel=0 note=47 velocity=0 time=0.07682291666666666
note_on channel=0 note=40 velocity=88 time=0.07942708333333333
note_on channel=0 note=40 velocity=0 time=0.07682291666666666
note_on channel=0 note=68 velocity=0 time=0.078125
note_on channel=0 note=80 velocity=0 time=0
note_on channel=0 note=69 velocity=92 time=0.0013020833333333333
note_on channel=0 note=73 velocity=92 time=0
note_on channel=0 note=81 velocity=92 time=0
note_on channel=0 note=47 velocity=92 time=0
note_on channel=0 note=47 velocity=0 time=0.07682291666666666
note_on channel=0 note=42 velocity=80 time=0.07942708333333333
control_change channel=0 control=64 value=127 time=0.0026041666666666665
note_on channel=0 note=42 velocity=0 time=0.14453125
note_on channel=0 note=49 velocity=80 time=0.009114583333333332
note_on channel=0 note=54 velocity=80 time=0
note_on channel=0 note=49 velocity=0 time=0.14713541666666666
note_on channel=0 note=54 velocity=0 time=0
note_on channel=0 note=42 velocity=80 time=0.009114583333333332
note_on channel=0 note=42 velocity=0 time=0.14713541666666666
note_on channel=0 note=49 velocity=80 time=0.009114583333333332
note_on channel=0 note=54 velocity=80 time=0
note_on channel=0 note=49 velocity=0 time=0.14713541666666666
note_on channel=0 note=54 velocity=0 time=0
note_on channel=0 note=69 velocity=0 time=0.0078125
note_on channel=0 note=73 velocity=0 time=0
note_on channel=0 note=81 velocity=0 time=0
note_on channel=0 note=66 velocity=96 time=0.0013020833333333333
note_on channel=0 note=78 velocity=96 time=0
note_on channel=0 note=42 velocity=80 time=0
note_on channel=0 note=42 velocity=0 time=0.14713541666666666
note_on channel=0 note=66 velocity=0 time=0.0078125
note_on channel=0 note=78 velocity=0 time=0
note_on channel=0 note=73 velocity=96 time=0.0013020833333333333
note_on channel=0 note=85 velocity=96 time=0
note_on channel=0 note=49 velocity=80 time=0
note_on channel=0 note=54 velocity=80 time=0
note_on channel=0 note=49 velocity=0 time=0.14713541666666666
note_on channel=0 note=54 velocity=0 time=0
note_on channel=0 note=42 velocity=80 time=0.009114583333333332
note_on channel=0 note=42 velocity=0 time=0.14713541666666666
note_on channel=0 note=73 velocity=0 time=0.0078125
note_on channel=0 note=85 velocity=0 time=0
note_on channel=0 note=69 velocity=96 time=0.0013020833333333333
note_on channel=0 note=73 velocity=96 time=0
note_on channel=0 note=81 velocity=96 time=0
note_on channel=0 note=49 velocity=80 time=0
note_on channel=0 note=54 velocity=80 time=0
note_on channel=0 note=49 velocity=0 time=0.14713541666666666
note_on channel=0 note=54 velocity=0 time=0
note_on channel=0 note=42 velocity=80 time=0.009114583333333332
control_change channel=0 control=64 value=0 time=0.0013020833333333333
control_change channel=0 control=64 value=127 time=0.0013020833333333333
note_on channel=0 note=42 velocity=0 time=0.14453125
note_on channel=0 note=49 velocity=80 time=0.009114583333333332
note_on channel=0 note=54 velocity=80 time=0
note_on channel=0 note=49 velocity=0 time=0.14713541666666666
note_on channel=0 note=54 velocity=0 time=0
note_on channel=0 note=42 velocity=80 time=0.009114583333333332
note_on channel=0 note=42 velocity=0 time=0.14713541666666666
note_on channel=0 note=49 velocity=80 time=0.009114583333333332
note_on channel=0 note=54 velocity=80 time=0
note_on channel=0 note=69 velocity=0 time=0.11588541666666666
note_on channel=0 note=73 velocity=0 time=0
note_on channel=0 note=81 velocity=0 time=0
note_on channel=0 note=49 velocity=0 time=0.03125
note_on channel=0 note=54 velocity=0 time=0
note_on channel=0 note=66 velocity=96 time=0.009114583333333332
note_on channel=0 note=78 velocity=96 time=0
note_on channel=0 note=42 velocity=80 time=0
note_on channel=0 note=42 velocity=0 time=0.14713541666666666
note_on channel=0 note=66 velocity=0 time=0.0078125
note_on channel=0 note=78 velocity=0 time=0
note_on channel=0 note=68 velocity=96 time=0.0013020833333333333
note_on channel=0 note=80 velocity=96 time=0
note_on channel=0 note=49 velocity=80 time=0
note_on channel=0 note=54 velocity=80 time=0
note_on channel=0 note=49 velocity=0 time=0.14713541666666666
note_on channel=0 note=54 velocity=0 time=0
note_on channel=0 note=42 velocity=80 time=0.009114583333333332
note_on channel=0 note=42 velocity=0 time=0.14713541666666666
note_on channel=0 note=68 velocity=0 time=0.0078125
note_on channel=0 note=80 velocity=0 time=0
note_on channel=0 note=69 velocity=96 time=0.0013020833333333333
note_on channel=0 note=73 velocity=96 time=0
note_on channel=0 note=81 velocity=96 time=0
note_on channel=0 note=49 velocity=80 time=0
note_on channel=0 note=54 velocity=80 time=0
note_on channel=0 note=49 velocity=0 time=0.14713541666666666
note_on channel=0 note=54 velocity=0 time=0
note_on channel=0 note=42 velocity=80 time=0.009114583333333332
control_change channel=0 control=64 value=0 time=0.0013020833333333333
control_change channel=0 control=64 value=127 time=0.0013020833333333333
note_on channel=0 note=42 velocity=0 time=0.14453125
note_on channel=0 note=49 velocity=80 time=0.009114583333333332
note_on channel=0 note=54 velocity=80 time=0
note_on channel=0 note=49 velocity=0 time=0.14713541666666666
note_on channel=0 note=54 velocity=0 time=0
note_on channel=0 note=69 velocity=0 time=0.0078125
note_on channel=0 note=73 velocity=0 time=0
note_on channel=0 note=81 velocity=0 time=0
note_on channel=0 note=66 velocity=96 time=0.0013020833333333333
note_on channel=0 note=78 velocity=96 time=0
note_on channel=0 note=42 velocity=80 time=0
note_on channel=0 note=42 velocity=0 time=0.14713541666666666
note_on channel=0 note=49 velocity=80 time=0.009114583333333332
note_on channel=0 note=54 velocity=80 time=0
note_on channel=0 note=49 velocity=0 time=0.14713541666666666
note_on channel=0 note=54 velocity=0 time=0
note_on channel=0 note=66 velocity=0 time=0.0078125
note_on channel=0 note=78 velocity=0 time=0
note_on channel=0 note=69 velocity=96 time=0.0013020833333333333
note_on channel=0 note=73 velocity=96 time=0
note_on channel=0 note=81 velocity=96 time=0
note_on channel=0 note=42 velocity=80 time=0
note_on channel=0 note=42 velocity=0 time=0.14713541666666666
note_on channel=0 note=69 velocity=0 time=0.0078125
note_on channel=0 note=73 velocity=0 time=0
note_on channel=0 note=81 velocity=0 time=0
note_on channel=0 note=71 velocity=96 time=0.0013020833333333333
note_on channel=0 note=83 velocity=96 time=0
note_on channel=0 note=49 velocity=80 time=0
note_on channel=0 note=54 velocity=80 time=0
note_on channel=0 note=49 velocity=0 time=0.14713541666666666
note_on channel=0 note=54 velocity=0 time=0
note_on channel=0 note=42 velocity=80 time=0.009114583333333332
note_on channel=0 note=42 velocity=0 time=0.14713541666666666
note_on channel=0 note=71 velocity=0 time=0.0078125
note_on channel=0 note=83 velocity=0 time=0
note_on channel=0 note=69 velocity=96 time=0.0013020833333333333
note_on channel=0 note=73 velocity=96 time=0
note_on channel=0 note=81 velocity=96 time=0
note_on channel=0 note=49 velocity=80 time=0
note_on channel=0 note=54 velocity=80 time=0
note_on channel=0 note=49 velocity=0 time=0.14713541666666666
note_on channel=0 note=54 velocity=0 time=0
note_on channel=0 note=42 velocity=80 time=0.009114583333333332
control_change channel=0 control=64 value=0 time=0.0013020833333333333
control_change channel=0 control=64 value=127 time=0.0013020833333333333
note_on channel=0 note=42 velocity=0 time=0.14453125
note_on channel=0 note=49 velocity=80 time=0.009114583333333332
note_on channel=0 note=54 velocity=80 time=0
note_on channel=0 note=49 velocity=0 time=0.14713541666666666
note_on channel=0 note=54 velocity=0 time=0
note_on channel=0 note=69 velocity=0 time=0.0078125
note_on channel=0 note=73 velocity=0 time=0
note_on channel=0 note=81 velocity=0 time=0
note_on channel=0 note=66 velocity=96 time=0.0013020833333333333
note_on channel=0 note=78 velocity=96 time=0
note_on channel=0 note=42 velocity=80 time=0
note_on channel=0 note=42 velocity=0 time=0.14713541666666666
note_on channel=0 note=49 velocity=80 time=0.009114583333333332
note_on channel=0 note=54 velocity=80 time=0
note_on channel=0 note=66 velocity=0 time=0.13932291666666666
note_on channel=0 note=78 velocity=0 time=0
note_on channel=0 note=49 velocity=0 time=0.0078125
note_on channel=0 note=54 velocity=0 time=0
note_on channel=0 note=66 velocity=96 time=0.009114583333333332
note_on channel=0 note=78 velocity=96 time=0
note_on channel=0 note=40 velocity=80 time=0
control_change channel=0 control=64 value=0 time=0.0013020833333333333
control_change channel=0 control=64 value=127 time=0.0013020833333333333
note_on channel=0 note=40 velocity=0 time=0.14453125
note_on channel=0 note=66 velocity=0 time=0.0078125
note_on channel=0 note=78 velocity=0 time=0
note_on channel=0 note=64 velocity=96 time=0.0013020833333333333
note_on channel=0 note=76 velocity=96 time=0
note_on channel=0 note=47 velocity=80 time=0
note_on channel=0 note=52 velocity=80 time=0
note_on channel=0 note=47 velocity=0 time=0.14713541666666666
note_on channel=0 note=52 velocity=0 time=0
note_on channel=0 note=40 velocity=80 time=0.009114583333333332
note_on channel=0 note=40 velocity=0 time=0.14713541666666666
note_on channel=0 note=64 velocity=0 time=0.0078125
note_on channel=0 note=76 velocity=0 time=0
note_on channel=0 note=66 velocity=96 time=0.0013020833333333333
note_on channel=0 note=69 velocity=96 time=0
note_on channel=0 note=78 velocity=96 time=0
note_on channel=0 note=47 velocity=80 time=0
note_on channel=0 note=52 velocity=80 time=0
note_on channel=0 note=47 velocity=0 time=0.14713541666666666
note_on channel=0 note=52 velocity=0 time=0
note_on channel=0 note=38 velocity=80 time=0.009114583333333332
control_change channel=0 control=64 value=0 time=0.0013020833333333333
control_change channel=0 control=64 value=127 time=0.0013020833333333333
note_on channel=0 note=38 velocity=0 time=0.14453125
note_on channel=0 note=45 velocity=80 time=0.009114583333333332
note_on channel=0 note=50 velocity=80 time=0
note_on channel=0 note=45 velocity=0 time=0.14713541666666666
note_on channel=0 note=50 velocity=0 time=0
note_on channel=0 note=38 velocity=80 time=0.009114583333333332
note_on channel=0 note=38 velocity=0 time=0.14713541666666666
note_on channel=0 note=45 velocity=80 time=0.009114583333333332
note_on channel=0 note=50 velocity=80 time=0
note_on channel=0 note=45 velocity=0 time=0.14713541666666666
note_on channel=0 note=50 velocity=0 time=0
note_on channel=0 note=66 velocity=0 time=0.0078125
note_on channel=0 note=69 velocity=0 time=0
note_on channel=0 note=78 velocity=0 time=0
note_on channel=0 note=66 velocity=96 time=0.0013020833333333333
note_on channel=0 note=78 velocity=96 time=0
note_on channel=0 note=38 velocity=80 time=0
note_on channel=0 note=38 velocity=0 time=0.14713541666666666
note_on channel=0 note=66 velocity=0 time=0.0078125
note_on channel=0 note=78 velocity=0 time=0
note_on channel=0 note=64 velocity=96 time=0.0013020833333333333
note_on channel=0 note=76 velocity=96 time=0
note_on channel=0 note=45 velocity=80 time=0
note_on channel=0 note=50 velocity=80 time=0
note_on channel=0 note=45 velocity=0 time=0.14713541666666666
note_on channel=0 note=50 velocity=0 time=0
note_on channel=0 note=38 velocity=80 time=0.009114583333333332
note_on channel=0 note=38 velocity=0 time=0.14713541666666666
note_on channel=0 note=64 velocity=0 time=0.0078125
note_on channel=0 note=76 velocity=0 time=0
note_on channel=0 note=66 velocity=96 time=0.0013020833333333333
note_on channel=0 note=69 velocity=96 time=0
note_on channel=0 note=78 velocity=96 time=0
note_on channel=0 note=45 velocity=80 time=0
note_on channel=0 note=50 velocity=80 time=0
note_on channel=0 note=45 velocity=0 time=0.14713541666666666
note_on channel=0 note=50 velocity=0 time=0
note_on channel=0 note=38 velocity=80 time=0.009114583333333332
control_change channel=0 control=64 value=0 time=0.0013020833333333333
control_change channel=0 control=64 value=127 time=0.0013020833333333333
note_on channel=0 note=38 velocity=0 time=0.14453125
note_on channel=0 note=45 velocity=80 time=0.009114583333333332
note_on channel=0 note=50 velocity=80 time=0
note_on channel=0 note=45 velocity=0 time=0.14713541666666666
note_on channel=0 note=50 velocity=0 time=0
note_on channel=0 note=38 velocity=80 time=0.009114583333333332
note_on channel=0 note=38 velocity=0 time=0.14713541666666666
note_on channel=0 note=45 velocity=80 time=0.009114583333333332
note_on channel=0 note=50 velocity=80 time=0
note_on channel=0 note=66 velocity=0 time=0.11588541666666666
note_on channel=0 note=69 velocity=0 time=0
note_on channel=0 note=78 velocity=0 time=0
note_on channel=0 note=45 velocity=0 time=0.03125
note_on channel=0 note=50 velocity=0 time=0
note_on channel=0 note=66 velocity=96 time=0.009114583333333332
note_on channel=0 note=69 velocity=96 time=0
note_on channel=0 note=78 velocity=96 time=0
note_on channel=0 note=38 velocity=80 time=0
note_on channel=0 note=38 velocity=0 time=0.14713541666666666
note_on channel=0 note=66 velocity=0 time=0.0078125
note_on channel=0 note=69 velocity=0 time=0
note_on channel=0 note=78 velocity=0 time=0
note_on channel=0 note=64 velocity=96 time=0.0013020833333333333
note_on channel=0 note=76 velocity=96 time=0
note_on channel=0 note=45 velocity=80 time=0
note_on channel=0 note=50 velocity=80 time=0
note_on channel=0 note=45 velocity=0 time=0.14713541666666666
note_on channel=0 note=50 velocity=0 time=0
note_on channel=0 note=38 velocity=80 time=0.009114583333333332
note_on channel=0 note=38 velocity=0 time=0.14713541666666666
note_on channel=0 note=64 velocity=0 time=0.0078125
note_on channel=0 note=76 velocity=0 time=0
note_on channel=0 note=66 velocity=96 time=0.0013020833333333333
note_on channel=0 note=69 velocity=96 time=0
note_on channel=0 note=78 velocity=96 time=0
note_on channel=0 note=45 velocity=80 time=0
note_on channel=0 note=50 velocity=80 time=0
note_on channel=0 note=45 velocity=0 time=0.14713541666666666
note_on channel=0 note=50 velocity=0 time=0
note_on channel=0 note=38 velocity=80 time=0.009114583333333332
control_change channel=0 control=64 value=0 time=0.0013020833333333333
control_change channel=0 control=64 value=127 time=0.0013020833333333333
note_on channel=0 note=38 velocity=0 time=0.14453125
note_on channel=0 note=45 velocity=80 time=0.009114583333333332
note_on channel=0 note=50 velocity=80 time=0
note_on channel=0 note=45 velocity=0 time=0.14713541666666666
note_on channel=0 note=50 velocity=0 time=0
note_on channel=0 note=38 velocity=80 time=0.009114583333333332
note_on channel=0 note=38 velocity=0 time=0.14713541666666666
note_on channel=0 note=45 velocity=80 time=0.009114583333333332
note_on channel=0 note=50 velocity=80 time=0
note_on channel=0 note=45 velocity=0 time=0.14713541666666666
note_on channel=0 note=50 velocity=0 time=0
note_on channel=0 note=66 velocity=0 time=0.0078125
note_on channel=0 note=69 velocity=0 time=0
note_on channel=0 note=78 velocity=0 time=0
note_on channel=0 note=69 velocity=96 time=0.0013020833333333333
note_on channel=0 note=81 velocity=96 time=0
note_on channel=0 note=38 velocity=96 time=0
note_on channel=0 note=38 velocity=0 time=0.14713541666666666
note_on channel=0 note=45 velocity=97 time=0.009114583333333332
note_on channel=0 note=50 velocity=97 time=0
note_on channel=0 note=45 velocity=0 time=0.14713541666666666
note_on channel=0 note=50 velocity=0 time=0
note_on channel=0 note=38 velocity=98 time=0.009114583333333332
note_on channel=0 note=38 velocity=0 time=0.14713541666666666
note_on channel=0 note=45 velocity=100 time=0.009114583333333332
note_on channel=0 note=50 velocity=100 time=0
note_on channel=0 note=45 velocity=0 time=0.14713541666666666
note_on channel=0 note=50 velocity=0 time=0
note_on channel=0 note=69 velocity=0 time=0.0078125
note_on channel=0 note=81 velocity=0 time=0
note_on channel=0 note=69 velocity=101 time=0.0013020833333333333
note_on channel=0 note=76 velocity=101 time=0
note_on channel=0 note=81 velocity=101 time=0
note_on channel=0 note=40 velocity=101 time=0
control_change channel=0 control=64 value=0 time=0.0013020833333333333
control_change channel=0 control=64 value=127 time=0.0013020833333333333
note_on channel=0 note=40 velocity=0 time=0.14453125
note_on channel=0 note=47 velocity=102 time=0.009114583333333332
note_on channel=0 note=52 velocity=102 time=0
note_on channel=0 note=47 velocity=0 time=0.14713541666666666
note_on channel=0 note=52 velocity=0 time=0
note_on channel=0 note=40 velocity=104 time=0.009114583333333332
note_on channel=0 note=40 velocity=0 time=0.14713541666666666
note_on channel=0 note=47 velocity=105 time=0.009114583333333332
note_on channel=0 note=52 velocity=105 time=0
note_on channel=0 note=47 velocity=0 time=0.14713541666666666
note_on channel=0 note=52 velocity=0 time=0
note_on channel=0 note=69 velocity=0 time=0.0078125
note_on channel=0 note=76 velocity=0 time=0
note_on channel=0 note=81 velocity=0 time=0
note_on channel=0 note=71 velocity=106 time=0.0013020833333333333
note_on channel=0 note=76 velocity=106 time=0
note_on channel=0 note=80 velocity=106 time=0
note_on channel=0 note=83 velocity=106 time=0
note_on channel=0 note=28 velocity=106 time=0
control_change channel=0 control=64 value=0 time=0.0013020833333333333
control_change channel=0 control=64 value=127 time=0.0013020833333333333
note_on channel=0 note=28 velocity=0 time=0.14453125
note_on channel=0 note=40 velocity=108 time=0.009114583333333332
note_on channel=0 note=40 velocity=0 time=0.14713541666666666
note_on channel=0 note=71 velocity=0 time=0.0078125
note_on channel=0 note=76 velocity=0 time=0
note_on channel=0 note=80 velocity=0 time=0
note_on channel=0 note=83 velocity=0 time=0
note_on channel=0 note=73 velocity=109 time=0.0013020833333333333
note_on channel=0 note=85 velocity=109 time=0
note_on channel=0 note=28 velocity=109 time=0
note_on channel=0 note=28 velocity=0 time=0.07291666666666666
note_on channel=0 note=40 velocity=110 time=0.005208333333333333
note_on channel=0 note=40 velocity=0 time=0.07291666666666666
note_on channel=0 note=28 velocity=110 time=0.005208333333333333
note_on channel=0 note=28 velocity=0 time=0.07291666666666666
note_on channel=0 note=40 velocity=111 time=0.005208333333333333
note_on channel=0 note=73 velocity=0 time=0.061197916666666664
note_on channel=0 note=85 velocity=0 time=0
note_on channel=0 note=40 velocity=0 time=0.01171875
note_on channel=0 note=69 velocity=127 time=0.005208333333333333
note_on channel=0 note=73 velocity=127 time=0
note_on channel=0 note=81 velocity=127 time=0
note_on channel=0 note=30 velocity=96 time=0
note_on channel=0 note=42 velocity=96 time=0
control_change channel=0 control=64 value=0 time=0.0013020833333333333
control_change channel=0 control=64 value=127 time=0.0013020833333333333
note_on channel=0 note=69 velocity=0 time=0.15234375
note_on channel=0 note=73 velocity=0 time=0
note_on channel=0 note=81 velocity=0 time=0
note_on channel=0 note=68 velocity=112 time=0.0013020833333333333
note_on channel=0 note=80 velocity=112 time=0
note_on channel=0 note=30 velocity=0 time=0.13932291666666666
note_on channel=0 note=42 velocity=0 time=0
note_on channel=0 note=68 velocity=0 time=0.015625
note_on channel=0 note=80 velocity=0 time=0
note_on channel=0 note=64 velocity=112 time=0.0013020833333333333
note_on channel=0 note=76 velocity=112 time=0
note_on channel=0 note=42 velocity=96 time=0
note_on channel=0 note=42 velocity=0 time=0.14713541666666666
note_on channel=0 note=64 velocity=0 time=0.0078125
note_on channel=0 note=76 velocity=0 time=0
note_on channel=0 note=61 velocity=112 time=0.0013020833333333333
note_on channel=0 note=73 velocity=112 time=0
note_on channel=0 note=49 velocity=96 time=0
note_on channel=0 note=54 velocity=96 time=0
note_on channel=0 note=49 velocity=0 time=0.14713541666666666
note_on channel=0 note=54 velocity=0 time=0
note_on channel=0 note=61 velocity=0 time=0.0078125
note_on channel=0 note=73 velocity=0 time=0
note_on channel=0 note=64 velocity=112 time=0.0013020833333333333
note_on channel=0 note=76 velocity=112 time=0
note_on channel=0 note=42 velocity=96 time=0
note_on channel=0 note=42 velocity=0 time=0.14713541666666666
note_on channel=0 note=64 velocity=0 time=0.0078125
note_on channel=0 note=76 velocity=0 time=0
note_on channel=0 note=66 velocity=112 time=0.0013020833333333333
note_on channel=0 note=78 velocity=112 time=0
note_on channel=0 note=49 velocity=96 time=0
note_on channel=0 note=54 velocity=96 time=0
note_on channel=0 note=49 velocity=0 time=0.14713541666666666
note_on channel=0 note=54 velocity=0 time=0
note_on channel=0 note=66 velocity=0 time=0.0078125
note_on channel=0 note=78 velocity=0 time=0
note_on channel=0 note=69 velocity=127 time=0.0013020833333333333
note_on channel=0 note=81 velocity=127 time=0
note_on channel=0 note=42 velocity=96 time=0
note_on channel=0 note=42 velocity=0 time=0.14713541666666666
note_on channel=0 note=69 velocity=0 time=0.0078125
note_on channel=0 note=81 velocity=0 time=0
note_on channel=0 note=68 velocity=112 time=0.0013020833333333333
note_on channel=0 note=80 velocity=112 time=0
note_on channel=0 note=49 velocity=96 time=0
note_on channel=0 note=54 velocity=96 time=0
note_on channel=0 note=49 velocity=0 time=0.14713541666666666
note_on channel=0 note=54 velocity=0 time=0
note_on channel=0 note=68 velocity=0 time=0.0078125
note_on channel=0 note=80 velocity=0 time=0
note_on channel=0 note=64 velocity=112 time=0.0013020833333333333
note_on channel=0 note=76 velocity=112 time=0
note_on channel=0 note=42 velocity=96 time=0
control_change channel=0 control=64 value=0 time=0.0013020833333333333
control_change channel=0 control=64 value=127 time=0.0013020833333333333
note_on channel=0 note=42 velocity=0 time=0.14453125
note_on channel=0 note=64 velocity=0 time=0.0078125
note_on channel=0 note=76 velocity=0 time=0
note_on channel=0 note=71 velocity=127 time=0.0013020833333333333
note_on channel=0 note=83 velocity=127 time=0
note_on channel=0 note=49 velocity=96 time=0
note_on channel=0 note=54 velocity=96 time=0
note_on channel=0 note=49 velocity=0 time=0.14713541666666666
note_on channel=0 note=54 velocity=0 time=0
note_on channel=0 note=71 velocity=0 time=0.0078125
note_on channel=0 note=83 velocity=0 time=0
note_on channel=0 note=69 velocity=112 time=0.0013020833333333333
note_on channel=0 note=81 velocity=112 time=0
note_on channel=0 note=42 velocity=96 time=0
note_on channel=0 note=42 velocity=0 time=0.14713541666666666
note_on channel=0 note=69 velocity=0 time=0.0078125
note_on channel=0 note=81 velocity=0 time=0
note_on channel=0 note=68 velocity=112 time=0.0013020833333333333
note_on channel=0 note=80 velocity=112 time=0
note_on channel=0 note=49 velocity=96 time=0
note_on channel=0 note=54 velocity=96 time=0
note_on channel=0 note=49 velocity=0 time=0.14713541666666666
note_on channel=0 note=54 velocity=0 time=0
note_on channel=0 note=68 velocity=0 time=0.0078125
note_on channel=0 note=80 velocity=0 time=0
note_on channel=0 note=69 velocity=127 time=0.0013020833333333333
note_on channel=0 note=81 velocity=127 time=0
note_on channel=0 note=42 velocity=96 time=0
note_on channel=0 note=42 velocity=0 time=0.14713541666666666
note_on channel=0 note=69 velocity=0 time=0.0078125
note_on channel=0 note=81 velocity=0 time=0
note_on channel=0 note=68 velocity=112 time=0.0013020833333333333
note_on channel=0 note=80 velocity=112 time=0
note_on channel=0 note=49 velocity=96 time=0
note_on channel=0 note=54 velocity=96 time=0
note_on channel=0 note=49 velocity=0 time=0.14713541666666666
note_on channel=0 note=54 velocity=0 time=0
note_on channel=0 note=68 velocity=0 time=0.0078125
note_on channel=0 note=80 velocity=0 time=0
note_on channel=0 note=64 velocity=112 time=0.0013020833333333333
note_on channel=0 note=76 velocity=112 time=0
note_on channel=0 note=42 velocity=96 time=0
note_on channel=0 note=42 velocity=0 time=0.14713541666666666
note_on channel=0 note=64 velocity=0 time=0.0078125
note_on channel=0 note=76 velocity=0 time=0
note_on channel=0 note=66 velocity=112 time=0.0013020833333333333
note_on channel=0 note=78 velocity=112 time=0
note_on channel=0 note=49 velocity=96 time=0
note_on channel=0 note=54 velocity=96 time=0
note_on channel=0 note=66 velocity=0 time=0.14713541666666666
note_on channel=0 note=78 velocity=0 time=0
note_on channel=0 note=49 velocity=0 time=0
note_on channel=0 note=54 velocity=0 time=0
note_on channel=0 note=69 velocity=127 time=0.009114583333333332
note_on channel=0 note=81 velocity=127 time=0
note_on channel=0 note=42 velocity=96 time=0
control_change channel=0 control=64 value=0 time=0.0013020833333333333
control_change channel=0 control=64 value=127 time=0.0013020833333333333
note_on channel=0 note=42 velocity=0 time=0.14453125
note_on channel=0 note=69 velocity=0 time=0.0078125
note_on channel=0 note=81 velocity=0 time=0
note_on channel=0 note=68 velocity=112 time=0.0013020833333333333
note_on channel=0 note=80 velocity=112 time=0
note_on channel=0 note=49 velocity=96 time=0
note_on channel=0 note=54 velocity=96 time=0
note_on channel=0 note=49 velocity=0 time=0.14713541666666666
note_on channel=0 note=54 velocity=0 time=0
note_on channel=0 note=68 velocity=0 time=0.0078125
note_on channel=0 note=80 velocity=0 time=0
note_on channel=0 note=64 velocity=112 time=0.0013020833333333333
note_on channel=0 note=76 velocity=112 time=0
note_on channel=0 note=42 velocity=96 time=0
note_on channel=0 note=42 velocity=0 time=0.14713541666666666
note_on channel=0 note=64 velocity=0 time=0.0078125
note_on channel=0 note=76 velocity=0 time=0
note_on channel=0 note=61 velocity=112 time=0.0013020833333333333
note_on channel=0 note=73 velocity=112 time=0
note_on channel=0 note=49 velocity=96 time=0
note_on channel=0 note=54 velocity=96 time=0
note_on channel=0 note=49 velocity=0 time=0.14713541666666666
note_on channel=0 note=54 velocity=0 time=0
note_on channel=0 note=61 velocity=0 time=0.0078125
note_on channel=0 note=73 velocity=0 time=0
note_on channel=0 note=64 velocity=112 time=0.0013020833333333333
note_on channel=0 note=76 velocity=112 time=0
note_on channel=0 note=42 velocity=96 time=0
note_on channel=0 note=42 velocity=0 time=0.14713541666666666
note_on channel=0 note=64 velocity=0 time=0.0078125
note_on channel=0 note=76 velocity=0 time=0
note_on channel=0 note=66 velocity=112 time=0.0013020833333333333
note_on channel=0 note=78 velocity=112 time=0
note_on channel=0 note=49 velocity=96 time=0
note_on channel=0 note=54 velocity=96 time=0
note_on channel=0 note=49 velocity=0 time=0.14713541666666666
note_on channel=0 note=54 velocity=0 time=0
note_on channel=0 note=66 velocity=0 time=0.0078125
note_on channel=0 note=78 velocity=0 time=0
note_on channel=0 note=69 velocity=127 time=0.0013020833333333333
note_on channel=0 note=81 velocity=127 time=0
note_on channel=0 note=42 velocity=96 time=0
note_on channel=0 note=42 velocity=0 time=0.14713541666666666
note_on channel=0 note=69 velocity=0 time=0.0078125
note_on channel=0 note=81 velocity=0 time=0
note_on channel=0 note=68 velocity=112 time=0.0013020833333333333
note_on channel=0 note=80 velocity=112 time=0
note_on channel=0 note=49 velocity=96 time=0
note_on channel=0 note=54 velocity=96 time=0
note_on channel=0 note=49 velocity=0 time=0.14713541666666666
note_on channel=0 note=54 velocity=0 time=0
note_on channel=0 note=68 velocity=0 time=0.0078125
note_on channel=0 note=80 velocity=0 time=0
note_on channel=0 note=64 velocity=112 time=0.0013020833333333333
note_on channel=0 note=76 velocity=112 time=0
note_on channel=0 note=42 velocity=96 time=0
control_change channel=0 control=64 value=0 time=0.0013020833333333333
control_change channel=0 control=64 value=127 time=0.0013020833333333333
note_on channel=0 note=42 velocity=0 time=0.14453125
note_on channel=0 note=64 velocity=0 time=0.0078125
note_on channel=0 note=76 velocity=0 time=0
note_on channel=0 note=71 velocity=127 time=0.0013020833333333333
note_on channel=0 note=83 velocity=127 time=0
note_on channel=0 note=49 velocity=96 time=0
note_on channel=0 note=54 velocity=96 time=0
note_on channel=0 note=49 velocity=0 time=0.14713541666666666
note_on channel=0 note=54 velocity=0 time=0
note_on channel=0 note=71 velocity=0 time=0.0078125
note_on channel=0 note=83 velocity=0 time=0
note_on channel=0 note=69 velocity=112 time=0.0013020833333333333
note_on channel=0 note=81 velocity=112 time=0
note_on channel=0 note=42 velocity=96 time=0
note_on channel=0 note=42 velocity=0 time=0.14713541666666666
note_on channel=0 note=69 velocity=0 time=0.0078125
note_on channel=0 note=81 velocity=0 time=0
note_on channel=0 note=68 velocity=112 time=0.0013020833333333333
note_on channel=0 note=80 velocity=112 time=0
note_on channel=0 note=49 velocity=96 time=0
note_on channel=0 note=54 velocity=96 time=0
note_on channel=0 note=49 velocity=0 time=0.14713541666666666
note_on channel=0 note=54 velocity=0 time=0
note_on channel=0 note=68 velocity=0 time=0.0078125
note_on channel=0 note=80 velocity=0 time=0
note_on channel=0 note=69 velocity=127 time=0.0013020833333333333
note_on channel=0 note=81 velocity=127 time=0
note_on channel=0 note=42 velocity=96 time=0
note_on channel=0 note=42 velocity=0 time=0.14713541666666666
note_on channel=0 note=69 velocity=0 time=0.0078125
note_on channel=0 note=81 velocity=0 time=0
note_on channel=0 note=68 velocity=112 time=0.0013020833333333333
note_on channel=0 note=80 velocity=112 time=0
note_on channel=0 note=49 velocity=96 time=0
note_on channel=0 note=54 velocity=96 time=0
note_on channel=0 note=49 velocity=0 time=0.14713541666666666
note_on channel=0 note=54 velocity=0 time=0
note_on channel=0 note=68 velocity=0 time=0.0078125
note_on channel=0 note=80 velocity=0 time=0
note_on channel=0 note=64 velocity=112 time=0.0013020833333333333
note_on channel=0 note=76 velocity=112 time=0
note_on channel=0 note=40 velocity=96 time=0
control_change channel=0 control=64 value=0 time=0.0013020833333333333
control_change channel=0 control=64 value=127 time=0.0013020833333333333
note_on channel=0 note=40 velocity=0 time=0.14453125
note_on channel=0 note=64 velocity=0 time=0.0078125
note_on channel=0 note=76 velocity=0 time=0
note_on channel=0 note=66 velocity=112 time=0.0013020833333333333
note_on channel=0 note=78 velocity=112 time=0
note_on channel=0 note=47 velocity=96 time=0
note_on channel=0 note=52 velocity=96 time=0
note_on channel=0 note=66 velocity=0 time=0.14713541666666666
note_on channel=0 note=78 velocity=0 time=0
note_on channel=0 note=47 velocity=0 time=0
note_on channel=0 note=52 velocity=0 time=0
note_on channel=0 note=69 velocity=127 time=0.009114583333333332
note_on channel=0 note=81 velocity=127 time=0
note_on channel=0 note=38 velocity=96 time=0
control_change channel=0 control=64 value=0 time=0.0013020833333333333
control_change channel=0 control=64 value=127 time=0.0013020833333333333
note_on channel=0 note=38 velocity=0 time=0.14453125
note_on channel=0 note=69 velocity=0 time=0.0078125
note_on channel=0 note=81 velocity=0 time=0
note_on channel=0 note=68 velocity=112 time=0.0013020833333333333
note_on channel=0 note=80 velocity=112 time=0
note_on channel=0 note=45 velocity=96 time=0
note_on channel=0 note=50 velocity=96 time=0
note_on channel=0 note=45 velocity=0 time=0.14713541666666666
note_on channel=0 note=50 velocity=0 time=0
note_on channel=0 note=68 velocity=0 time=0.0078125
note_on channel=0 note=80 velocity=0 time=0
note_on channel=0 note=64 velocity=112 time=0.0013020833333333333
note_on channel=0 note=76 velocity=112 time=0
note_on channel=0 note=38 velocity=96 time=0
note_on channel=0 note=38 velocity=0 time=0.14713541666666666
note_on channel=0 note=64 velocity=0 time=0.0078125
note_on channel=0 note=76 velocity=0 time=0
note_on channel=0 note=61 velocity=112 time=0.0013020833333333333
note_on channel=0 note=73 velocity=112 time=0
note_on channel=0 note=45 velocity=96 time=0
note_on channel=0 note=50 velocity=96 time=0
note_on channel=0 note=45 velocity=0 time=0.14713541666666666
note_on channel=0 note=50 velocity=0 time=0
note_on channel=0 note=61 velocity=0 time=0.0078125
note_on channel=0 note=73 velocity=0 time=0
note_on channel=0 note=64 velocity=112 time=0.0013020833333333333
note_on channel=0 note=76 velocity=112 time=0
note_on channel=0 note=38 velocity=96 time=0
note_on channel=0 note=38 velocity=0 time=0.14713541666666666
note_on channel=0 note=64 velocity=0 time=0.0078125
note_on channel=0 note=76 velocity=0 time=0
note_on channel=0 note=66 velocity=112 time=0.0013020833333333333
note_on channel=0 note=78 velocity=112 time=0
note_on channel=0 note=45 velocity=96 time=0
note_on channel=0 note=50 velocity=96 time=0
note_on channel=0 note=45 velocity=0 time=0.14713541666666666
note_on channel=0 note=50 velocity=0 time=0
note_on channel=0 note=66 velocity=0 time=0.0078125
note_on channel=0 note=78 velocity=0 time=0
note_on channel=0 note=69 velocity=127 time=0.0013020833333333333
note_on channel=0 note=81 velocity=127 time=0
note_on channel=0 note=38 velocity=96 time=0
note_on channel=0 note=38 velocity=0 time=0.14713541666666666
note_on channel=0 note=69 velocity=0 time=0.0078125
note_on channel=0 note=81 velocity=0 time=0
note_on channel=0 note=68 velocity=112 time=0.0013020833333333333
note_on channel=0 note=80 velocity=112 time=0
note_on channel=0 note=45 velocity=96 time=0
note_on channel=0 note=50 velocity=96 time=0
note_on channel=0 note=45 velocity=0 time=0.14713541666666666
note_on channel=0 note=50 velocity=0 time=0
note_on channel=0 note=68 velocity=0 time=0.0078125
note_on channel=0 note=80 velocity=0 time=0
note_on channel=0 note=64 velocity=112 time=0.0013020833333333333
note_on channel=0 note=76 velocity=112 time=0
note_on channel=0 note=38 velocity=96 time=0
control_change channel=0 control=64 value=0 time=0.0013020833333333333
control_change channel=0 control=64 value=127 time=0.0013020833333333333
note_on channel=0 note=38 velocity=0 time=0.14453125
note_on channel=0 note=64 velocity=0 time=0.0078125
note_on channel=0 note=76 velocity=0 time=0
note_on channel=0 note=71 velocity=127 time=0.0013020833333333333
note_on channel=0 note=83 velocity=127 time=0
note_on channel=0 note=45 velocity=96 time=0
note_on channel=0 note=50 velocity=96 time=0
note_on channel=0 note=45 velocity=0 time=0.14713541666666666
note_on channel=0 note=50 velocity=0 time=0
note_on channel=0 note=71 velocity=0 time=0.0078125
note_on channel=0 note=83 velocity=0 time=0
note_on channel=0 note=69 velocity=112 time=0.0013020833333333333
note_on channel=0 note=81 velocity=112 time=0
note_on channel=0 note=38 velocity=96 time=0
note_on channel=0 note=38 velocity=0 time=0.14713541666666666
note_on channel=0 note=69 velocity=0 time=0.0078125
note_on channel=0 note=81 velocity=0 time=0
note_on channel=0 note=68 velocity=112 time=0.0013020833333333333
note_on channel=0 note=80 velocity=112 time=0
note_on channel=0 note=45 velocity=96 time=0
note_on channel=0 note=50 velocity=96 time=0
note_on channel=0 note=45 velocity=0 time=0.14713541666666666
note_on channel=0 note=50 velocity=0 time=0
note_on channel=0 note=68 velocity=0 time=0.0078125
note_on channel=0 note=80 velocity=0 time=0
note_on channel=0 note=69 velocity=127 time=0.0013020833333333333
note_on channel=0 note=81 velocity=127 time=0
note_on channel=0 note=38 velocity=96 time=0
note_on channel=0 note=38 velocity=0 time=0.14713541666666666
note_on channel=0 note=69 velocity=0 time=0.0078125
note_on channel=0 note=81 velocity=0 time=0
note_on channel=0 note=68 velocity=112 time=0.0013020833333333333
note_on channel=0 note=80 velocity=112 time=0
note_on channel=0 note=45 velocity=96 time=0
note_on channel=0 note=50 velocity=96 time=0
note_on channel=0 note=45 velocity=0 time=0.14713541666666666
note_on channel=0 note=50 velocity=0 time=0
note_on channel=0 note=68 velocity=0 time=0.0078125
note_on channel=0 note=80 velocity=0 time=0
note_on channel=0 note=64 velocity=112 time=0.0013020833333333333
note_on channel=0 note=76 velocity=112 time=0
note_on channel=0 note=38 velocity=96 time=0
note_on channel=0 note=38 velocity=0 time=0.14713541666666666
note_on channel=0 note=64 velocity=0 time=0.0078125
note_on channel=0 note=76 velocity=0 time=0
note_on channel=0 note=66 velocity=112 time=0.0013020833333333333
note_on channel=0 note=78 velocity=112 time=0
note_on channel=0 note=45 velocity=96 time=0
note_on channel=0 note=50 velocity=96 time=0
note_on channel=0 note=66 velocity=0 time=0.14713541666666666
note_on channel=0 note=78 velocity=0 time=0
note_on channel=0 note=45 velocity=0 time=0
note_on channel=0 note=50 velocity=0 time=0
<meta message time_signature numerator=3 denominator=4 clocks_per_click=24 notated_32nd_notes_per_beat=8 time=0.009114583333333332>
note_on channel=0 note=69 velocity=127 time=0
note_on channel=0 note=81 velocity=127 time=0
note_on channel=0 note=40 velocity=96 time=0
control_change channel=0 control=64 value=0 time=0.0013020833333333333
control_change channel=0 control=64 value=127 time=0.0013020833333333333
note_on channel=0 note=40 velocity=0 time=0.14453125
note_on channel=0 note=69 velocity=0 time=0.0078125
note_on channel=0 note=81 velocity=0 time=0
note_on channel=0 note=68 velocity=112 time=0.0013020833333333333
note_on channel=0 note=80 velocity=112 time=0
note_on channel=0 note=47 velocity=96 time=0
note_on channel=0 note=52 velocity=96 time=0
note_on channel=0 note=47 velocity=0 time=0.14713541666666666
note_on channel=0 note=52 velocity=0 time=0
note_on channel=0 note=68 velocity=0 time=0.0078125
note_on channel=0 note=80 velocity=0 time=0
note_on channel=0 note=64 velocity=112 time=0.0013020833333333333
note_on channel=0 note=76 velocity=112 time=0
note_on channel=0 note=40 velocity=96 time=0
note_on channel=0 note=40 velocity=0 time=0.14713541666666666
note_on channel=0 note=64 velocity=0 time=0.0078125
note_on channel=0 note=76 velocity=0 time=0
note_on channel=0 note=61 velocity=112 time=0.0013020833333333333
note_on channel=0 note=73 velocity=112 time=0
note_on channel=0 note=47 velocity=96 time=0
note_on channel=0 note=52 velocity=96 time=0
note_on channel=0 note=47 velocity=0 time=0.14713541666666666
note_on channel=0 note=52 velocity=0 time=0
note_on channel=0 note=61 velocity=0 time=0.0078125
note_on channel=0 note=73 velocity=0 time=0
note_on channel=0 note=64 velocity=112 time=0.0013020833333333333
note_on channel=0 note=76 velocity=112 time=0
note_on channel=0 note=40 velocity=96 time=0
note_on channel=0 note=40 velocity=0 time=0.14713541666666666
note_on channel=0 note=64 velocity=0 time=0.0078125
note_on channel=0 note=76 velocity=0 time=0
note_on channel=0 note=66 velocity=112 time=0.0013020833333333333
note_on channel=0 note=78 velocity=112 time=0
note_on channel=0 note=47 velocity=96 time=0
note_on channel=0 note=52 velocity=96 time=0
note_on channel=0 note=47 velocity=0 time=0.14713541666666666
note_on channel=0 note=52 velocity=0 time=0
note_on channel=0 note=66 velocity=0 time=0.0078125
note_on channel=0 note=78 velocity=0 time=0
note_on channel=0 note=69 velocity=127 time=0.0013020833333333333
note_on channel=0 note=81 velocity=127 time=0
note_on channel=0 note=40 velocity=96 time=0
note_on channel=0 note=40 velocity=0 time=0.14713541666666666
note_on channel=0 note=69 velocity=0 time=0.0078125
note_on channel=0 note=81 velocity=0 time=0
note_on channel=0 note=68 velocity=112 time=0.0013020833333333333
note_on channel=0 note=80 velocity=112 time=0
note_on channel=0 note=47 velocity=96 time=0
note_on channel=0 note=52 velocity=96 time=0
note_on channel=0 note=47 velocity=0 time=0.14713541666666666
note_on channel=0 note=52 velocity=0 time=0
note_on channel=0 note=68 velocity=0 time=0.0078125
note_on channel=0 note=80 velocity=0 time=0
note_on channel=0 note=64 velocity=112 time=0.0013020833333333333
note_on channel=0 note=76 velocity=112 time=0
note_on channel=0 note=40 velocity=96 time=0
control_change channel=0 control=64 value=0 time=0.0013020833333333333
control_change channel=0 control=64 value=127 time=0.0013020833333333333
note_on channel=0 note=40 velocity=0 time=0.14453125
note_on channel=0 note=64 velocity=0 time=0.0078125
note_on channel=0 note=76 velocity=0 time=0
note_on channel=0 note=71 velocity=127 time=0.0013020833333333333
note_on channel=0 note=83 velocity=127 time=0
note_on channel=0 note=47 velocity=96 time=0
note_on channel=0 note=52 velocity=96 time=0
note_on channel=0 note=47 velocity=0 time=0.14713541666666666
note_on channel=0 note=52 velocity=0 time=0
note_on channel=0 note=71 velocity=0 time=0.0078125
note_on channel=0 note=83 velocity=0 time=0
note_on channel=0 note=69 velocity=112 time=0.0013020833333333333
note_on channel=0 note=81 velocity=112 time=0
note_on channel=0 note=40 velocity=96 time=0
note_on channel=0 note=47 velocity=96 time=0
note_on channel=0 note=52 velocity=96 time=0
note_on channel=0 note=69 velocity=0 time=0.29557291666666663
note_on channel=0 note=81 velocity=0 time=0
note_on channel=0 note=40 velocity=0 time=0
note_on channel=0 note=47 velocity=0 time=0
note_on channel=0 note=52 velocity=0 time=0
<meta message time_signature numerator=3 denominator=8 clocks_per_click=24 notated_32nd_notes_per_beat=8 time=0.016927083333333332>
note_on channel=0 note=66 velocity=112 time=0
note_on channel=0 note=78 velocity=112 time=0
control_change channel=0 control=64 value=0 time=0.0013020833333333333
control_change channel=0 control=64 value=127 time=0.0013020833333333333
note_on channel=0 note=66 velocity=0 time=0.30859375
note_on channel=0 note=78 velocity=0 time=0
note_on channel=0 note=66 velocity=106 time=0.0013020833333333333
note_on channel=0 note=78 velocity=106 time=0
note_on channel=0 note=66 velocity=0 time=0.15494791666666666
note_on channel=0 note=78 velocity=0 time=0
note_on channel=0 note=68 velocity=103 time=0.0013020833333333333
note_on channel=0 note=80 velocity=103 time=0
note_on channel=0 note=68 velocity=0 time=0.31119791666666663
note_on channel=0 note=80 velocity=0 time=0
note_on channel=0 note=69 velocity=96 time=0.0013020833333333333
note_on channel=0 note=73 velocity=96 time=0
note_on channel=0 note=78 velocity=96 time=0
note_on channel=0 note=81 velocity=96 time=0
<meta message time_signature numerator=4 denominator=4 clocks_per_click=24 notated_32nd_notes_per_beat=8 time=0.15625>
note_on channel=0 note=30 velocity=115 time=0
note_on channel=0 note=42 velocity=115 time=0
control_change channel=0 control=64 value=0 time=0.0013020833333333333
control_change channel=0 control=64 value=127 time=0.0013020833333333333
note_on channel=0 note=69 velocity=0 time=0.30859375
note_on channel=0 note=73 velocity=0 time=0
note_on channel=0 note=78 velocity=0 time=0
note_on channel=0 note=81 velocity=0 time=0
note_on channel=0 note=30 velocity=0 time=0
note_on channel=0 note=42 velocity=0 time=0
note_on channel=0 note=68 velocity=96 time=0.0013020833333333333
note_on channel=0 note=80 velocity=96 time=0
note_on channel=0 note=42 velocity=80 time=0
note_on channel=0 note=42 velocity=0 time=0.14713541666666666
note_on channel=0 note=49 velocity=80 time=0.009114583333333332
note_on channel=0 note=54 velocity=80 time=0
note_on channel=0 note=49 velocity=0 time=0.14713541666666666
note_on channel=0 note=54 velocity=0 time=0
note_on channel=0 note=68 velocity=0 time=0.0078125
note_on channel=0 note=80 velocity=0 time=0
note_on channel=0 note=66 velocity=96 time=0.0013020833333333333
note_on channel=0 note=78 velocity=96 time=0
note_on channel=0 note=42 velocity=80 time=0
note_on channel=0 note=42 velocity=0 time=0.14713541666666666
note_on channel=0 note=66 velocity=0 time=0.0078125
note_on channel=0 note=78 velocity=0 time=0
note_on channel=0 note=64 velocity=96 time=0.0013020833333333333
note_on channel=0 note=76 velocity=96 time=0
note_on channel=0 note=49 velocity=80 time=0
note_on channel=0 note=54 velocity=80 time=0
note_on channel=0 note=49 velocity=0 time=0.14713541666666666
note_on channel=0 note=54 velocity=0 time=0
note_on channel=0 note=42 velocity=80 time=0.009114583333333332
note_on channel=0 note=42 velocity=0 time=0.14713541666666666
note_on channel=0 note=64 velocity=0 time=0.0078125
note_on channel=0 note=76 velocity=0 time=0
note_on channel=0 note=66 velocity=96 time=0.0013020833333333333
note_on channel=0 note=69 velocity=96 time=0
note_on channel=0 note=73 velocity=96 time=0
note_on channel=0 note=78 velocity=96 time=0
note_on channel=0 note=49 velocity=80 time=0
note_on channel=0 note=54 velocity=80 time=0
note_on channel=0 note=49 velocity=0 time=0.14713541666666666
note_on channel=0 note=54 velocity=0 time=0
note_on channel=0 note=42 velocity=80 time=0.009114583333333332
control_change channel=0 control=64 value=0 time=0.0013020833333333333
control_change channel=0 control=64 value=127 time=0.0013020833333333333
note_on channel=0 note=42 velocity=0 time=0.14453125
note_on channel=0 note=49 velocity=80 time=0.009114583333333332
note_on channel=0 note=54 velocity=80 time=0
note_on channel=0 note=49 velocity=0 time=0.14713541666666666
note_on channel=0 note=54 velocity=0 time=0
note_on channel=0 note=42 velocity=80 time=0.009114583333333332
note_on channel=0 note=42 velocity=0 time=0.14713541666666666
note_on channel=0 note=49 velocity=80 time=0.009114583333333332
note_on channel=0 note=54 velocity=80 time=0
note_on channel=0 note=66 velocity=0 time=0.11588541666666666
note_on channel=0 note=69 velocity=0 time=0
note_on channel=0 note=73 velocity=0 time=0
note_on channel=0 note=78 velocity=0 time=0
note_on channel=0 note=49 velocity=0 time=0.03125
note_on channel=0 note=54 velocity=0 time=0
note_on channel=0 note=66 velocity=96 time=0.009114583333333332
note_on channel=0 note=69 velocity=96 time=0
note_on channel=0 note=73 velocity=96 time=0
note_on channel=0 note=78 velocity=96 time=0
note_on channel=0 note=42 velocity=80 time=0
note_on channel=0 note=42 velocity=0 time=0.14713541666666666
note_on channel=0 note=66 velocity=0 time=0.0078125
note_on channel=0 note=69 velocity=0 time=0
note_on channel=0 note=73 velocity=0 time=0
note_on channel=0 note=78 velocity=0 time=0
note_on channel=0 note=68 velocity=96 time=0.0013020833333333333
note_on channel=0 note=80 velocity=96 time=0
note_on channel=0 note=49 velocity=80 time=0
note_on channel=0 note=54 velocity=80 time=0
note_on channel=0 note=49 velocity=0 time=0.14713541666666666
note_on channel=0 note=54 velocity=0 time=0
note_on channel=0 note=42 velocity=80 time=0.009114583333333332
note_on channel=0 note=42 velocity=0 time=0.14713541666666666
note_on channel=0 note=68 velocity=0 time=0.0078125
note_on channel=0 note=80 velocity=0 time=0
note_on channel=0 note=69 velocity=96 time=0.0013020833333333333
note_on channel=0 note=73 velocity=96 time=0
note_on channel=0 note=78 velocity=96 time=0
note_on channel=0 note=81 velocity=96 time=0
note_on channel=0 note=49 velocity=80 time=0
note_on channel=0 note=54 velocity=80 time=0
note_on channel=0 note=49 velocity=0 time=0.14713541666666666
note_on channel=0 note=54 velocity=0 time=0
note_on channel=0 note=42 velocity=80 time=0.009114583333333332
control_change channel=0 control=64 value=0 time=0.0013020833333333333
control_change channel=0 control=64 value=127 time=0.0013020833333333333
note_on channel=0 note=42 velocity=0 time=0.14453125
note_on channel=0 note=49 velocity=80 time=0.009114583333333332
note_on channel=0 note=54 velocity=80 time=0
note_on channel=0 note=49 velocity=0 time=0.14713541666666666
note_on channel=0 note=54 velocity=0 time=0
note_on channel=0 note=69 velocity=0 time=0.0078125
note_on channel=0 note=73 velocity=0 time=0
note_on channel=0 note=78 velocity=0 time=0
note_on channel=0 note=81 velocity=0 time=0
note_on channel=0 note=68 velocity=96 time=0.0013020833333333333
note_on channel=0 note=80 velocity=96 time=0
note_on channel=0 note=42 velocity=80 time=0
note_on channel=0 note=42 velocity=0 time=0.14713541666666666
note_on channel=0 note=49 velocity=80 time=0.009114583333333332
note_on channel=0 note=54 velocity=80 time=0
note_on channel=0 note=49 velocity=0 time=0.14713541666666666
note_on channel=0 note=54 velocity=0 time=0
note_on channel=0 note=68 velocity=0 time=0.0078125
note_on channel=0 note=80 velocity=0 time=0
note_on channel=0 note=66 velocity=96 time=0.0013020833333333333
note_on channel=0 note=78 velocity=96 time=0
note_on channel=0 note=42 velocity=80 time=0
note_on channel=0 note=42 velocity=0 time=0.14713541666666666
note_on channel=0 note=66 velocity=0 time=0.0078125
note_on channel=0 note=78 velocity=0 time=0
note_on channel=0 note=64 velocity=96 time=0.0013020833333333333
note_on channel=0 note=76 velocity=96 time=0
note_on channel=0 note=49 velocity=80 time=0
note_on channel=0 note=54 velocity=80 time=0
note_on channel=0 note=49 velocity=0 time=0.14713541666666666
note_on channel=0 note=54 velocity=0 time=0
note_on channel=0 note=42 velocity=80 time=0.009114583333333332
note_on channel=0 note=42 velocity=0 time=0.14713541666666666
note_on channel=0 note=64 velocity=0 time=0.0078125
note_on channel=0 note=76 velocity=0 time=0
note_on channel=0 note=66 velocity=96 time=0.0013020833333333333
note_on channel=0 note=69 velocity=96 time=0
note_on channel=0 note=73 velocity=96 time=0
note_on channel=0 note=78 velocity=96 time=0
note_on channel=0 note=49 velocity=80 time=0
note_on channel=0 note=54 velocity=80 time=0
note_on channel=0 note=49 velocity=0 time=0.14713541666666666
note_on channel=0 note=54 velocity=0 time=0
note_on channel=0 note=42 velocity=80 time=0.009114583333333332
control_change channel=0 control=64 value=0 time=0.0013020833333333333
control_change channel=0 control=64 value=127 time=0.0013020833333333333
note_on channel=0 note=42 velocity=0 time=0.14453125
note_on channel=0 note=49 velocity=80 time=0.009114583333333332
note_on channel=0 note=54 velocity=80 time=0
note_on channel=0 note=49 velocity=0 time=0.14713541666666666
note_on channel=0 note=54 velocity=0 time=0
note_on channel=0 note=66 velocity=0 time=0.0078125
note_on channel=0 note=69 velocity=0 time=0
note_on channel=0 note=73 velocity=0 time=0
note_on channel=0 note=78 velocity=0 time=0
note_on channel=0 note=64 velocity=96 time=0.0013020833333333333
note_on channel=0 note=76 velocity=96 time=0
note_on channel=0 note=42 velocity=80 time=0
note_on channel=0 note=42 velocity=0 time=0.14713541666666666
note_on channel=0 note=49 velocity=80 time=0.009114583333333332
note_on channel=0 note=54 velocity=80 time=0
note_on channel=0 note=64 velocity=0 time=0.13932291666666666
note_on channel=0 note=76 velocity=0 time=0
note_on channel=0 note=49 velocity=0 time=0.0078125
note_on channel=0 note=54 velocity=0 time=0
note_on channel=0 note=61 velocity=96 time=0.009114583333333332
note_on channel=0 note=73 velocity=96 time=0
note_on channel=0 note=40 velocity=80 time=0
control_change channel=0 control=64 value=0 time=0.0013020833333333333
control_change channel=0 control=64 value=127 time=0.0013020833333333333
note_on channel=0 note=40 velocity=0 time=0.14453125
note_on channel=0 note=61 velocity=0 time=0.0078125
note_on channel=0 note=73 velocity=0 time=0
note_on channel=0 note=64 velocity=96 time=0.0013020833333333333
note_on channel=0 note=76 velocity=96 time=0
note_on channel=0 note=47 velocity=80 time=0
note_on channel=0 note=52 velocity=80 time=0
note_on channel=0 note=47 velocity=0 time=0.14713541666666666
note_on channel=0 note=52 velocity=0 time=0
note_on channel=0 note=40 velocity=80 time=0.009114583333333332
note_on channel=0 note=40 velocity=0 time=0.14713541666666666
note_on channel=0 note=64 velocity=0 time=0.0078125
note_on channel=0 note=76 velocity=0 time=0
note_on channel=0 note=64 velocity=96 time=0.0013020833333333333
note_on channel=0 note=69 velocity=96 time=0
note_on channel=0 note=76 velocity=96 time=0
note_on channel=0 note=47 velocity=80 time=0
note_on channel=0 note=52 velocity=80 time=0
note_on channel=0 note=47 velocity=0 time=0.14713541666666666
note_on channel=0 note=52 velocity=0 time=0
note_on channel=0 note=38 velocity=80 time=0.009114583333333332
control_change channel=0 control=64 value=0 time=0.0013020833333333333
control_change channel=0 control=64 value=127 time=0.0013020833333333333
note_on channel=0 note=38 velocity=0 time=0.14453125
note_on channel=0 note=45 velocity=80 time=0.009114583333333332
note_on channel=0 note=50 velocity=80 time=0
note_on channel=0 note=45 velocity=0 time=0.14713541666666666
note_on channel=0 note=50 velocity=0 time=0
note_on channel=0 note=38 velocity=80 time=0.009114583333333332
note_on channel=0 note=38 velocity=0 time=0.14713541666666666
note_on channel=0 note=45 velocity=80 time=0.009114583333333332
note_on channel=0 note=50 velocity=80 time=0
note_on channel=0 note=45 velocity=0 time=0.14713541666666666
note_on channel=0 note=50 velocity=0 time=0
note_on channel=0 note=64 velocity=0 time=0.0078125
note_on channel=0 note=69 velocity=0 time=0
note_on channel=0 note=76 velocity=0 time=0
note_on channel=0 note=61 velocity=96 time=0.0013020833333333333
note_on channel=0 note=73 velocity=96 time=0
note_on channel=0 note=38 velocity=80 time=0
note_on channel=0 note=38 velocity=0 time=0.14713541666666666
note_on channel=0 note=61 velocity=0 time=0.0078125
note_on channel=0 note=73 velocity=0 time=0
note_on channel=0 note=64 velocity=96 time=0.0013020833333333333
note_on channel=0 note=76 velocity=96 time=0
note_on channel=0 note=45 velocity=80 time=0
note_on channel=0 note=50 velocity=80 time=0
note_on channel=0 note=45 velocity=0 time=0.14713541666666666
note_on channel=0 note=50 velocity=0 time=0
note_on channel=0 note=38 velocity=80 time=0.009114583333333332
note_on channel=0 note=38 velocity=0 time=0.14713541666666666
note_on channel=0 note=64 velocity=0 time=0.0078125
note_on channel=0 note=76 velocity=0 time=0
note_on channel=0 note=64 velocity=96 time=0.0013020833333333333
note_on channel=0 note=69 velocity=96 time=0
note_on channel=0 note=76 velocity=96 time=0
note_on channel=0 note=45 velocity=80 time=0
note_on channel=0 note=50 velocity=80 time=0
note_on channel=0 note=45 velocity=0 time=0.14713541666666666
note_on channel=0 note=50 velocity=0 time=0
note_on channel=0 note=38 velocity=80 time=0.009114583333333332
control_change channel=0 control=64 value=0 time=0.0013020833333333333
control_change channel=0 control=64 value=127 time=0.0013020833333333333
note_on channel=0 note=38 velocity=0 time=0.14453125
note_on channel=0 note=45 velocity=80 time=0.009114583333333332
note_on channel=0 note=50 velocity=80 time=0
note_on channel=0 note=45 velocity=0 time=0.14713541666666666
note_on channel=0 note=50 velocity=0 time=0
note_on channel=0 note=38 velocity=80 time=0.009114583333333332
note_on channel=0 note=38 velocity=0 time=0.14713541666666666
note_on channel=0 note=45 velocity=80 time=0.009114583333333332
note_on channel=0 note=50 velocity=80 time=0
note_on channel=0 note=64 velocity=0 time=0.11588541666666666
note_on channel=0 note=69 velocity=0 time=0
note_on channel=0 note=76 velocity=0 time=0
note_on channel=0 note=45 velocity=0 time=0.03125
note_on channel=0 note=50 velocity=0 time=0
note_on channel=0 note=61 velocity=96 time=0.009114583333333332
note_on channel=0 note=73 velocity=96 time=0
note_on channel=0 note=38 velocity=80 time=0
note_on channel=0 note=38 velocity=0 time=0.14713541666666666
note_on channel=0 note=61 velocity=0 time=0.0078125
note_on channel=0 note=73 velocity=0 time=0
note_on channel=0 note=64 velocity=96 time=0.0013020833333333333
note_on channel=0 note=76 velocity=96 time=0
note_on channel=0 note=45 velocity=80 time=0
note_on channel=0 note=50 velocity=80 time=0
note_on channel=0 note=45 velocity=0 time=0.14713541666666666
note_on channel=0 note=50 velocity=0 time=0
note_on channel=0 note=38 velocity=80 time=0.009114583333333332
note_on channel=0 note=38 velocity=0 time=0.14713541666666666
note_on channel=0 note=64 velocity=0 time=0.0078125
note_on channel=0 note=76 velocity=0 time=0
note_on channel=0 note=64 velocity=96 time=0.0013020833333333333
note_on channel=0 note=69 velocity=96 time=0
note_on channel=0 note=76 velocity=96 time=0
note_on channel=0 note=45 velocity=80 time=0
note_on channel=0 note=50 velocity=80 time=0
note_on channel=0 note=45 velocity=0 time=0.14713541666666666
note_on channel=0 note=50 velocity=0 time=0
note_on channel=0 note=38 velocity=80 time=0.009114583333333332
control_change channel=0 control=64 value=0 time=0.0013020833333333333
control_change channel=0 control=64 value=127 time=0.0013020833333333333
note_on channel=0 note=38 velocity=0 time=0.14453125
note_on channel=0 note=45 velocity=80 time=0.009114583333333332
note_on channel=0 note=50 velocity=80 time=0
note_on channel=0 note=45 velocity=0 time=0.14713541666666666
note_on channel=0 note=50 velocity=0 time=0
note_on channel=0 note=64 velocity=0 time=0.0078125
note_on channel=0 note=69 velocity=0 time=0
note_on channel=0 note=76 velocity=0 time=0
note_on channel=0 note=61 velocity=96 time=0.0013020833333333333
note_on channel=0 note=73 velocity=96 time=0
note_on channel=0 note=38 velocity=80 time=0
note_on channel=0 note=38 velocity=0 time=0.14713541666666666
note_on channel=0 note=45 velocity=80 time=0.009114583333333332
note_on channel=0 note=50 velocity=80 time=0
note_on channel=0 note=45 velocity=0 time=0.14713541666666666
note_on channel=0 note=50 velocity=0 time=0
note_on channel=0 note=61 velocity=0 time=0.0078125
note_on channel=0 note=73 velocity=0 time=0
note_on channel=0 note=66 velocity=96 time=0.0013020833333333333
note_on channel=0 note=78 velocity=96 time=0
note_on channel=0 note=38 velocity=80 time=0
note_on channel=0 note=38 velocity=0 time=0.14713541666666666
note_on channel=0 note=66 velocity=0 time=0.0078125
note_on channel=0 note=78 velocity=0 time=0
note_on channel=0 note=64 velocity=96 time=0.0013020833333333333
note_on channel=0 note=76 velocity=96 time=0
note_on channel=0 note=45 velocity=80 time=0
note_on channel=0 note=50 velocity=80 time=0
note_on channel=0 note=45 velocity=0 time=0.14713541666666666
note_on channel=0 note=50 velocity=0 time=0
note_on channel=0 note=38 velocity=80 time=0.009114583333333332
note_on channel=0 note=38 velocity=0 time=0.14713541666666666
note_on channel=0 note=64 velocity=0 time=0.0078125
note_on channel=0 note=76 velocity=0 time=0
note_on channel=0 note=64 velocity=96 time=0.0013020833333333333
note_on channel=0 note=68 velocity=96 time=0
note_on channel=0 note=71 velocity=96 time=0
note_on channel=0 note=76 velocity=96 time=0
note_on channel=0 note=45 velocity=80 time=0
note_on channel=0 note=50 velocity=80 time=0
note_on channel=0 note=45 velocity=0 time=0.14713541666666666
note_on channel=0 note=50 velocity=0 time=0
note_on channel=0 note=40 velocity=80 time=0.009114583333333332
control_change channel=0 control=64 value=0 time=0.0013020833333333333
control_change channel=0 control=64 value=127 time=0.0013020833333333333
note_on channel=0 note=40 velocity=0 time=0.14453125
note_on channel=0 note=47 velocity=80 time=0.009114583333333332
note_on channel=0 note=52 velocity=80 time=0
note_on channel=0 note=47 velocity=0 time=0.14713541666666666
note_on channel=0 note=52 velocity=0 time=0
note_on channel=0 note=64 velocity=0 time=0.0078125
note_on channel=0 note=68 velocity=0 time=0
note_on channel=0 note=71 velocity=0 time=0
note_on channel=0 note=76 velocity=0 time=0
note_on channel=0 note=61 velocity=96 time=0.0013020833333333333
note_on channel=0 note=73 velocity=96 time=0
note_on channel=0 note=40 velocity=80 time=0
note_on channel=0 note=40 velocity=0 time=0.14713541666666666
note_on channel=0 note=47 velocity=80 time=0.009114583333333332
note_on channel=0 note=52 velocity=80 time=0
note_on channel=0 note=61 velocity=0 time=0.13932291666666666
note_on channel=0 note=73 velocity=0 time=0
note_on channel=0 note=47 velocity=0 time=0.0078125
note_on channel=0 note=52 velocity=0 time=0
note_on channel=0 note=66 velocity=96 time=0.009114583333333332
note_on channel=0 note=78 velocity=96 time=0
note_on channel=0 note=40 velocity=80 time=0
note_on channel=0 note=40 velocity=0 time=0.14713541666666666
note_on channel=0 note=66 velocity=0 time=0.0078125
note_on channel=0 note=78 velocity=0 time=0
note_on channel=0 note=68 velocity=96 time=0.0013020833333333333
note_on channel=0 note=80 velocity=96 time=0
note_on channel=0 note=47 velocity=80 time=0
note_on channel=0 note=52 velocity=80 time=0
note_on channel=0 note=47 velocity=0 time=0.14713541666666666
note_on channel=0 note=52 velocity=0 time=0
note_on channel=0 note=40 velocity=80 time=0.009114583333333332
note_on channel=0 note=40 velocity=0 time=0.14713541666666666
note_on channel=0 note=68 velocity=0 time=0.0078125
note_on channel=0 note=80 velocity=0 time=0
note_on channel=0 note=69 velocity=96 time=0.0013020833333333333
note_on channel=0 note=73 velocity=96 time=0
note_on channel=0 note=78 velocity=96 time=0
note_on channel=0 note=81 velocity=96 time=0
note_on channel=0 note=47 velocity=80 time=0
note_on channel=0 note=52 velocity=80 time=0
note_on channel=0 note=47 velocity=0 time=0.14713541666666666
note_on channel=0 note=52 velocity=0 time=0
note_on channel=0 note=30 velocity=115 time=0.009114583333333332
note_on channel=0 note=42 velocity=115 time=0
control_change channel=0 control=64 value=0 time=0.0013020833333333333
control_change channel=0 control=64 value=127 time=0.0013020833333333333
note_on channel=0 note=30 velocity=0 time=0.30859375
note_on channel=0 note=42 velocity=0 time=0
note_on channel=0 note=42 velocity=96 time=0.0013020833333333333
note_on channel=0 note=42 velocity=0 time=0.14713541666666666
note_on channel=0 note=49 velocity=96 time=0.009114583333333332
note_on channel=0 note=57 velocity=96 time=0
note_on channel=0 note=49 velocity=0 time=0.14713541666666666
note_on channel=0 note=57 velocity=0 time=0
note_on channel=0 note=69 velocity=0 time=0.0078125
note_on channel=0 note=73 velocity=0 time=0
note_on channel=0 note=78 velocity=0 time=0
note_on channel=0 note=81 velocity=0 time=0
note_on channel=0 note=66 velocity=96 time=0.0013020833333333333
note_on channel=0 note=78 velocity=96 time=0
note_on channel=0 note=42 velocity=96 time=0
note_on channel=0 note=42 velocity=0 time=0.14713541666666666
note_on channel=0 note=66 velocity=0 time=0.0078125
note_on channel=0 note=78 velocity=0 time=0
note_on channel=0 note=73 velocity=96 time=0.0013020833333333333
note_on channel=0 note=85 velocity=96 time=0
note_on channel=0 note=49 velocity=96 time=0
note_on channel=0 note=57 velocity=96 time=0
note_on channel=0 note=49 velocity=0 time=0.14713541666666666
note_on channel=0 note=57 velocity=0 time=0
note_on channel=0 note=42 velocity=96 time=0.009114583333333332
note_on channel=0 note=42 velocity=0 time=0.14713541666666666
note_on channel=0 note=73 velocity=0 time=0.0078125
note_on channel=0 note=85 velocity=0 time=0
note_on channel=0 note=69 velocity=96 time=0.0013020833333333333
note_on channel=0 note=73 velocity=96 time=0
note_on channel=0 note=78 velocity=96 time=0
note_on channel=0 note=81 velocity=96 time=0
note_on channel=0 note=49 velocity=96 time=0
note_on channel=0 note=57 velocity=96 time=0
note_on channel=0 note=49 velocity=0 time=0.14713541666666666
note_on channel=0 note=57 velocity=0 time=0
note_on channel=0 note=42 velocity=96 time=0.009114583333333332
control_change channel=0 control=64 value=0 time=0.0013020833333333333
control_change channel=0 control=64 value=127 time=0.0013020833333333333
note_on channel=0 note=42 velocity=0 time=0.14453125
note_on channel=0 note=49 velocity=96 time=0.009114583333333332
note_on channel=0 note=57 velocity=96 time=0
note_on channel=0 note=49 velocity=0 time=0.14713541666666666
note_on channel=0 note=57 velocity=0 time=0
note_on channel=0 note=42 velocity=96 time=0.009114583333333332
note_on channel=0 note=42 velocity=0 time=0.14713541666666666
note_on channel=0 note=49 velocity=96 time=0.009114583333333332
note_on channel=0 note=57 velocity=96 time=0
note_on channel=0 note=69 velocity=0 time=0.11588541666666666
note_on channel=0 note=73 velocity=0 time=0
note_on channel=0 note=78 velocity=0 time=0
note_on channel=0 note=81 velocity=0 time=0
note_on channel=0 note=49 velocity=0 time=0.03125
note_on channel=0 note=57 velocity=0 time=0
note_on channel=0 note=66 velocity=96 time=0.009114583333333332
note_on channel=0 note=78 velocity=96 time=0
note_on channel=0 note=42 velocity=96 time=0
note_on channel=0 note=42 velocity=0 time=0.14713541666666666
note_on channel=0 note=66 velocity=0 time=0.0078125
note_on channel=0 note=78 velocity=0 time=0
note_on channel=0 note=68 velocity=96 time=0.0013020833333333333
note_on channel=0 note=80 velocity=96 time=0
note_on channel=0 note=49 velocity=96 time=0
note_on channel=0 note=57 velocity=96 time=0
note_on channel=0 note=49 velocity=0 time=0.14713541666666666
note_on channel=0 note=57 velocity=0 time=0
note_on channel=0 note=42 velocity=96 time=0.009114583333333332
note_on channel=0 note=42 velocity=0 time=0.14713541666666666
note_on channel=0 note=68 velocity=0 time=0.0078125
note_on channel=0 note=80 velocity=0 time=0
note_on channel=0 note=69 velocity=96 time=0.0013020833333333333
note_on channel=0 note=74 velocity=96 time=0
note_on channel=0 note=78 velocity=96 time=0
note_on channel=0 note=81 velocity=96 time=0
note_on channel=0 note=49 velocity=96 time=0
note_on channel=0 note=57 velocity=96 time=0
note_on channel=0 note=49 velocity=0 time=0.14713541666666666
note_on channel=0 note=57 velocity=0 time=0
note_on channel=0 note=26 velocity=115 time=0.009114583333333332
note_on channel=0 note=38 velocity=115 time=0
control_change channel=0 control=64 value=0 time=0.0013020833333333333
control_change channel=0 control=64 value=127 time=0.0013020833333333333
note_on channel=0 note=69 velocity=0 time=0.30859375
note_on channel=0 note=74 velocity=0 time=0
note_on channel=0 note=78 velocity=0 time=0
note_on channel=0 note=81 velocity=0 time=0
note_on channel=0 note=26 velocity=0 time=0
note_on channel=0 note=38 velocity=0 time=0
note_on channel=0 note=66 velocity=96 time=0.0013020833333333333
note_on channel=0 note=78 velocity=96 time=0
note_on channel=0 note=38 velocity=96 time=0
note_on channel=0 note=38 velocity=0 time=0.14713541666666666
note_on channel=0 note=45 velocity=96 time=0.009114583333333332
note_on channel=0 note=54 velocity=96 time=0
note_on channel=0 note=45 velocity=0 time=0.14713541666666666
note_on channel=0 note=54 velocity=0 time=0
note_on channel=0 note=66 velocity=0 time=0.0078125
note_on channel=0 note=78 velocity=0 time=0
note_on channel=0 note=69 velocity=96 time=0.0013020833333333333
note_on channel=0 note=74 velocity=96 time=0
note_on channel=0 note=78 velocity=96 time=0
note_on channel=0 note=81 velocity=96 time=0
note_on channel=0 note=38 velocity=96 time=0
note_on channel=0 note=38 velocity=0 time=0.14713541666666666
note_on channel=0 note=69 velocity=0 time=0.0078125
note_on channel=0 note=74 velocity=0 time=0
note_on channel=0 note=78 velocity=0 time=0
note_on channel=0 note=81 velocity=0 time=0
note_on channel=0 note=71 velocity=96 time=0.0013020833333333333
note_on channel=0 note=83 velocity=96 time=0
note_on channel=0 note=45 velocity=96 time=0
note_on channel=0 note=54 velocity=96 time=0
note_on channel=0 note=45 velocity=0 time=0.14713541666666666
note_on channel=0 note=54 velocity=0 time=0
note_on channel=0 note=38 velocity=96 time=0.009114583333333332
note_on channel=0 note=38 velocity=0 time=0.14713541666666666
note_on channel=0 note=71 velocity=0 time=0.0078125
note_on channel=0 note=83 velocity=0 time=0
note_on channel=0 note=73 velocity=96 time=0.0013020833333333333
note_on channel=0 note=85 velocity=96 time=0
note_on channel=0 note=45 velocity=96 time=0
note_on channel=0 note=54 velocity=96 time=0
note_on channel=0 note=45 velocity=0 time=0.14713541666666666
note_on channel=0 note=54 velocity=0 time=0
note_on channel=0 note=38 velocity=96 time=0.009114583333333332
control_change channel=0 control=64 value=0 time=0.0013020833333333333
control_change channel=0 control=64 value=127 time=0.0013020833333333333
note_on channel=0 note=38 velocity=0 time=0.14453125
note_on channel=0 note=45 velocity=96 time=0.009114583333333332
note_on channel=0 note=54 velocity=96 time=0
note_on channel=0 note=45 velocity=0 time=0.14713541666666666
note_on channel=0 note=54 velocity=0 time=0
note_on channel=0 note=38 velocity=96 time=0.009114583333333332
note_on channel=0 note=38 velocity=0 time=0.14713541666666666
note_on channel=0 note=45 velocity=96 time=0.009114583333333332
note_on channel=0 note=54 velocity=96 time=0
note_on channel=0 note=45 velocity=0 time=0.14713541666666666
note_on channel=0 note=54 velocity=0 time=0
note_on channel=0 note=38 velocity=96 time=0.009114583333333332
note_on channel=0 note=38 velocity=0 time=0.14713541666666666
note_on channel=0 note=45 velocity=96 time=0.009114583333333332
note_on channel=0 note=54 velocity=96 time=0
note_on channel=0 note=45 velocity=0 time=0.14713541666666666
note_on channel=0 note=54 velocity=0 time=0
note_on channel=0 note=73 velocity=0 time=0.0078125
note_on channel=0 note=85 velocity=0 time=0
note_on channel=0 note=69 velocity=96 time=0.0013020833333333333
note_on channel=0 note=74 velocity=96 time=0
note_on channel=0 note=78 velocity=96 time=0
note_on channel=0 note=81 velocity=96 time=0
note_on channel=0 note=38 velocity=96 time=0
note_on channel=0 note=38 velocity=0 time=0.14713541666666666
note_on channel=0 note=45 velocity=96 time=0.009114583333333332
note_on channel=0 note=54 velocity=96 time=0
note_on channel=0 note=45 velocity=0 time=0.14713541666666666
note_on channel=0 note=54 velocity=0 time=0
note_on channel=0 note=33 velocity=115 time=0.009114583333333332
note_on channel=0 note=45 velocity=115 time=0
control_change channel=0 control=64 value=0 time=0.0013020833333333333
control_change channel=0 control=64 value=127 time=0.0013020833333333333
note_on channel=0 note=69 velocity=0 time=0.27734375
note_on channel=0 note=74 velocity=0 time=0
note_on channel=0 note=78 velocity=0 time=0
note_on channel=0 note=81 velocity=0 time=0
note_on channel=0 note=33 velocity=0 time=0.03125
note_on channel=0 note=45 velocity=0 time=0
note_on channel=0 note=69 velocity=96 time=0.0013020833333333333
note_on channel=0 note=73 velocity=96 time=0
note_on channel=0 note=76 velocity=96 time=0
note_on channel=0 note=81 velocity=96 time=0
note_on channel=0 note=45 velocity=96 time=0
note_on channel=0 note=45 velocity=0 time=0.14713541666666666
note_on channel=0 note=52 velocity=96 time=0.009114583333333332
note_on channel=0 note=61 velocity=96 time=0
note_on channel=0 note=52 velocity=0 time=0.14713541666666666
note_on channel=0 note=61 velocity=0 time=0
note_on channel=0 note=69 velocity=0 time=0.0078125
note_on channel=0 note=73 velocity=0 time=0
note_on channel=0 note=76 velocity=0 time=0
note_on channel=0 note=81 velocity=0 time=0
note_on channel=0 note=76 velocity=96 time=0.0013020833333333333
note_on channel=0 note=81 velocity=96 time=0
note_on channel=0 note=88 velocity=96 time=0
note_on channel=0 note=45 velocity=96 time=0
note_on channel=0 note=45 velocity=0 time=0.14713541666666666
note_on channel=0 note=52 velocity=96 time=0.009114583333333332
note_on channel=0 note=61 velocity=96 time=0
note_on channel=0 note=52 velocity=0 time=0.14713541666666666
note_on channel=0 note=61 velocity=0 time=0
note_on channel=0 note=76 velocity=0 time=0.0078125
note_on channel=0 note=81 velocity=0 time=0
note_on channel=0 note=88 velocity=0 time=0
note_on channel=0 note=78 velocity=96 time=0.0013020833333333333
note_on channel=0 note=90 velocity=96 time=0
note_on channel=0 note=45 velocity=96 time=0
note_on channel=0 note=45 velocity=0 time=0.14713541666666666
note_on channel=0 note=52 velocity=96 time=0.009114583333333332
note_on channel=0 note=61 velocity=96 time=0
note_on channel=0 note=52 velocity=0 time=0.14713541666666666
note_on channel=0 note=61 velocity=0 time=0
note_on channel=0 note=78 velocity=0 time=0.0078125
note_on channel=0 note=90 velocity=0 time=0
note_on channel=0 note=76 velocity=96 time=0.0013020833333333333
note_on channel=0 note=81 velocity=96 time=0
note_on channel=0 note=85 velocity=96 time=0
note_on channel=0 note=88 velocity=96 time=0
note_on channel=0 note=45 velocity=96 time=0
control_change channel=0 control=64 value=0 time=0.0013020833333333333
control_change channel=0 control=64 value=127 time=0.0013020833333333333
note_on channel=0 note=45 velocity=0 time=0.14453125
note_on channel=0 note=52 velocity=96 time=0.009114583333333332
note_on channel=0 note=61 velocity=96 time=0
note_on channel=0 note=52 velocity=0 time=0.14713541666666666
note_on channel=0 note=61 velocity=0 time=0
note_on channel=0 note=45 velocity=96 time=0.009114583333333332
note_on channel=0 note=45 velocity=0 time=0.14713541666666666
note_on channel=0 note=76 velocity=0 time=0.0078125
note_on channel=0 note=81 velocity=0 time=0
note_on channel=0 note=85 velocity=0 time=0
note_on channel=0 note=88 velocity=0 time=0
note_on channel=0 note=69 velocity=96 time=0.0013020833333333333
note_on channel=0 note=73 velocity=96 time=0
note_on channel=0 note=81 velocity=96 time=0
note_on channel=0 note=52 velocity=96 time=0
note_on channel=0 note=61 velocity=96 time=0
note_on channel=0 note=52 velocity=0 time=0.14713541666666666
note_on channel=0 note=61 velocity=0 time=0
note_on channel=0 note=45 velocity=96 time=0.009114583333333332
note_on channel=0 note=45 velocity=0 time=0.14713541666666666
note_on channel=0 note=52 velocity=96 time=0.009114583333333332
note_on channel=0 note=61 velocity=96 time=0
note_on channel=0 note=52 velocity=0 time=0.14713541666666666
note_on channel=0 note=61 velocity=0 time=0
note_on channel=0 note=69 velocity=0 time=0.0078125
note_on channel=0 note=73 velocity=0 time=0
note_on channel=0 note=81 velocity=0 time=0
note_on channel=0 note=73 velocity=96 time=0.0013020833333333333
note_on channel=0 note=85 velocity=96 time=0
note_on channel=0 note=45 velocity=96 time=0
note_on channel=0 note=45 velocity=0 time=0.14713541666666666
note_on channel=0 note=52 velocity=96 time=0.009114583333333332
note_on channel=0 note=61 velocity=96 time=0
note_on channel=0 note=52 velocity=0 time=0.14713541666666666
note_on channel=0 note=61 velocity=0 time=0
note_on channel=0 note=73 velocity=0 time=0.0078125
note_on channel=0 note=85 velocity=0 time=0
note_on channel=0 note=71 velocity=96 time=0.0013020833333333333
note_on channel=0 note=76 velocity=96 time=0
note_on channel=0 note=80 velocity=96 time=0
note_on channel=0 note=83 velocity=96 time=0
note_on channel=0 note=28 velocity=115 time=0
note_on channel=0 note=40 velocity=115 time=0
control_change channel=0 control=64 value=0 time=0.0013020833333333333
control_change channel=0 control=64 value=127 time=0.0013020833333333333
note_on channel=0 note=28 velocity=0 time=0.30859375
note_on channel=0 note=40 velocity=0 time=0
note_on channel=0 note=40 velocity=96 time=0.0013020833333333333
note_on channel=0 note=40 velocity=0 time=0.14713541666666666
note_on channel=0 note=71 velocity=0 time=0.0078125
note_on channel=0 note=76 velocity=0 time=0
note_on channel=0 note=80 velocity=0 time=0
note_on channel=0 note=83 velocity=0 time=0
note_on channel=0 note=56 velocity=96 time=0.0013020833333333333
note_on channel=0 note=59 velocity=96 time=0
note_on channel=0 note=64 velocity=96 time=0
note_on channel=0 note=68 velocity=96 time=0
note_on channel=0 note=44 velocity=96 time=0
note_on channel=0 note=47 velocity=96 time=0
note_on channel=0 note=52 velocity=96 time=0
note_on channel=0 note=56 velocity=0 time=0.31119791666666663
note_on channel=0 note=59 velocity=0 time=0
note_on channel=0 note=64 velocity=0 time=0
note_on channel=0 note=68 velocity=0 time=0
note_on channel=0 note=69 velocity=96 time=0.0013020833333333333
note_on channel=0 note=81 velocity=96 time=0
note_on channel=0 note=44 velocity=0 time=0.13151041666666666
note_on channel=0 note=47 velocity=0 time=0
note_on channel=0 note=52 velocity=0 time=0
note_on channel=0 note=69 velocity=0 time=0.0234375
note_on channel=0 note=81 velocity=0 time=0
note_on channel=0 note=68 velocity=96 time=0.0013020833333333333
note_on channel=0 note=80 velocity=96 time=0
note_on channel=0 note=52 velocity=96 time=0
note_on channel=0 note=56 velocity=96 time=0
note_on channel=0 note=59 velocity=96 time=0
note_on channel=0 note=64 velocity=96 time=0
note_on channel=0 note=52 velocity=0 time=0.29557291666666663
note_on channel=0 note=56 velocity=0 time=0
note_on channel=0 note=59 velocity=0 time=0
note_on channel=0 note=64 velocity=0 time=0
note_on channel=0 note=68 velocity=0 time=0.015625
note_on channel=0 note=80 velocity=0 time=0
note_on channel=0 note=71 velocity=96 time=0.0013020833333333333
note_on channel=0 note=73 velocity=96 time=0
note_on channel=0 note=77 velocity=96 time=0
note_on channel=0 note=83 velocity=96 time=0
note_on channel=0 note=25 velocity=115 time=0
note_on channel=0 note=37 velocity=115 time=0
control_change channel=0 control=64 value=0 time=0.0013020833333333333
control_change channel=0 control=64 value=127 time=0.0013020833333333333
note_on channel=0 note=25 velocity=0 time=0.30859375
note_on channel=0 note=37 velocity=0 time=0
note_on channel=0 note=37 velocity=92 time=0.0013020833333333333
note_on channel=0 note=37 velocity=0 time=0.15494791666666666
note_on channel=0 note=41 velocity=90 time=0.0013020833333333333
note_on channel=0 note=71 velocity=0 time=0.15494791666666666
note_on channel=0 note=73 velocity=0 time=0
note_on channel=0 note=77 velocity=0 time=0
note_on channel=0 note=83 velocity=0 time=0
note_on channel=0 note=41 velocity=0 time=0
note_on channel=0 note=73 velocity=88 time=0.0013020833333333333
note_on channel=0 note=85 velocity=88 time=0
note_on channel=0 note=44 velocity=88 time=0
note_on channel=0 note=44 velocity=0 time=0.15494791666666666
note_on channel=0 note=49 velocity=86 time=0.0013020833333333333
note_on channel=0 note=49 velocity=0 time=0.15494791666666666
note_on channel=0 note=51 velocity=84 time=0.0013020833333333333
note_on channel=0 note=51 velocity=0 time=0.15494791666666666
note_on channel=0 note=53 velocity=82 time=0.0013020833333333333
note_on channel=0 note=73 velocity=0 time=0.12369791666666666
note_on channel=0 note=85 velocity=0 time=0
note_on channel=0 note=53 velocity=0 time=0.0234375
note_on channel=0 note=26 velocity=96 time=0.009114583333333332
note_on channel=0 note=38 velocity=96 time=0
control_change channel=0 control=64 value=0 time=0.0013020833333333333
control_change channel=0 control=64 value=127 time=0.0013020833333333333
note_on channel=0 note=26 velocity=0 time=0.30859375
note_on channel=0 note=38 velocity=0 time=0
note_on channel=0 note=66 velocity=80 time=0.0013020833333333333
note_on channel=0 note=38 velocity=80 time=0
note_on channel=0 note=38 velocity=0 time=0.15494791666666666
note_on channel=0 note=42 velocity=80 time=0.0013020833333333333
note_on channel=0 note=66 velocity=0 time=0.15494791666666666
note_on channel=0 note=42 velocity=0 time=0
note_on channel=0 note=66 velocity=80 time=0.0013020833333333333
note_on channel=0 note=45 velocity=80 time=0
note_on channel=0 note=45 velocity=0 time=0.15494791666666666
note_on channel=0 note=50 velocity=80 time=0.0013020833333333333
note_on channel=0 note=66 velocity=0 time=0.15494791666666666
note_on channel=0 note=50 velocity=0 time=0
note_on channel=0 note=64 velocity=80 time=0.0013020833333333333
note_on channel=0 note=54 velocity=80 time=0
note_on channel=0 note=54 velocity=0 time=0.15494791666666666
note_on channel=0 note=57 velocity=80 time=0.0013020833333333333
note_on channel=0 note=64 velocity=0 time=0.15494791666666666
note_on channel=0 note=57 velocity=0 time=0
note_on channel=0 note=66 velocity=80 time=0.0013020833333333333
note_on channel=0 note=62 velocity=80 time=0
note_on channel=0 note=62 velocity=0 time=0.15494791666666666
note_on channel=0 note=57 velocity=80 time=0.0013020833333333333
note_on channel=0 note=57 velocity=0 time=0.15494791666666666
note_on channel=0 note=54 velocity=80 time=0.0013020833333333333
note_on channel=0 note=66 velocity=0 time=0.15494791666666666
note_on channel=0 note=54 velocity=0 time=0
note_on channel=0 note=66 velocity=80 time=0.0013020833333333333
note_on channel=0 note=50 velocity=80 time=0
note_on channel=0 note=50 velocity=0 time=0.15494791666666666
note_on channel=0 note=45 velocity=80 time=0.0013020833333333333
note_on channel=0 note=45 velocity=0 time=0.15494791666666666
note_on channel=0 note=42 velocity=80 time=0.0013020833333333333
note_on channel=0 note=66 velocity=0 time=0.15494791666666666
note_on channel=0 note=42 velocity=0 time=0
note_on channel=0 note=69 velocity=80 time=0.0013020833333333333
note_on channel=0 note=38 velocity=80 time=0
note_on channel=0 note=38 velocity=0 time=0.29557291666666663
note_on channel=0 note=69 velocity=0 time=0.015625
note_on channel=0 note=68 velocity=80 time=0.0013020833333333333
note_on channel=0 note=28 velocity=96 time=0
note_on channel=0 note=40 velocity=96 time=0
control_change channel=0 control=64 value=0 time=0.0013020833333333333
control_change channel=0 control=64 value=127 time=0.0013020833333333333
note_on channel=0 note=28 velocity=0 time=0.30859375
note_on channel=0 note=40 velocity=0 time=0
note_on channel=0 note=40 velocity=80 time=0.0013020833333333333
note_on channel=0 note=68 velocity=0 time=0.15494791666666666
note_on channel=0 note=40 velocity=0 time=0
note_on channel=0 note=66 velocity=80 time=0.0013020833333333333
note_on channel=0 note=44 velocity=80 time=0
note_on channel=0 note=66 velocity=0 time=0.15494791666666666
note_on channel=0 note=44 velocity=0 time=0
note_on channel=0 note=64 velocity=80 time=0.0013020833333333333
note_on channel=0 note=47 velocity=80 time=0
note_on channel=0 note=47 velocity=0 time=0.15494791666666666
note_on channel=0 note=52 velocity=80 time=0.0013020833333333333
note_on channel=0 note=64 velocity=0 time=0.13932291666666666
note_on channel=0 note=52 velocity=0 time=0.015625
note_on channel=0 note=56 velocity=80 time=0.0013020833333333333
note_on channel=0 note=56 velocity=0 time=0.15494791666666666
note_on channel=0 note=59 velocity=80 time=0.0013020833333333333
note_on channel=0 note=59 velocity=0 time=0.15494791666666666
note_on channel=0 note=80 velocity=80 time=0.0013020833333333333
note_on channel=0 note=64 velocity=80 time=0
note_on channel=0 note=64 velocity=0 time=0.15494791666666666
note_on channel=0 note=59 velocity=80 time=0.0013020833333333333
note_on channel=0 note=59 velocity=0 time=0.15494791666666666
note_on channel=0 note=56 velocity=80 time=0.0013020833333333333
note_on channel=0 note=80 velocity=0 time=0.15494791666666666
note_on channel=0 note=56 velocity=0 time=0
note_on channel=0 note=78 velocity=80 time=0.0013020833333333333
note_on channel=0 note=52 velocity=80 time=0
note_on channel=0 note=78 velocity=0 time=0.15494791666666666
note_on channel=0 note=52 velocity=0 time=0
note_on channel=0 note=76 velocity=80 time=0.0013020833333333333
note_on channel=0 note=47 velocity=80 time=0
note_on channel=0 note=47 velocity=0 time=0.15494791666666666
note_on channel=0 note=44 velocity=80 time=0.0013020833333333333
note_on channel=0 note=76 velocity=0 time=0.15494791666666666
note_on channel=0 note=44 velocity=0 time=0
note_on channel=0 note=64 velocity=80 time=0.0013020833333333333
note_on channel=0 note=76 velocity=80 time=0
note_on channel=0 note=40 velocity=80 time=0
note_on channel=0 note=40 velocity=0 time=0.29557291666666663
note_on channel=0 note=64 velocity=0 time=0.015625
note_on channel=0 note=76 velocity=0 time=0
note_on channel=0 note=66 velocity=80 time=0.0013020833333333333
note_on channel=0 note=69 velocity=80 time=0
note_on channel=0 note=74 velocity=80 time=0
note_on channel=0 note=78 velocity=80 time=0
note_on channel=0 note=26 velocity=96 time=0
note_on channel=0 note=38 velocity=96 time=0
control_change channel=0 control=64 value=0 time=0.0013020833333333333
control_change channel=0 control=64 value=127 time=0.0013020833333333333
note_on channel=0 note=26 velocity=0 time=0.09244791666666666
note_on channel=0 note=38 velocity=0 time=0
note_on channel=0 note=38 velocity=81 time=0.0013020833333333333
note_on channel=0 note=38 velocity=0 time=0.08984375
note_on channel=0 note=42 velocity=82 time=0.006510416666666666
note_on channel=0 note=42 velocity=0 time=0.08984375
note_on channel=0 note=45 velocity=83 time=0.006510416666666666
note_on channel=0 note=45 velocity=0 time=0.08984375
note_on channel=0 note=50 velocity=84 time=0.005208333333333333
note_on channel=0 note=66 velocity=0 time=0.08333333333333333
note_on channel=0 note=69 velocity=0 time=0
note_on channel=0 note=74 velocity=0 time=0
note_on channel=0 note=78 velocity=0 time=0
note_on channel=0 note=64 velocity=86 time=0.0013020833333333333
note_on channel=0 note=76 velocity=86 time=0
note_on channel=0 note=50 velocity=0 time=0.005208333333333333
note_on channel=0 note=54 velocity=86 time=0.006510416666666666
note_on channel=0 note=54 velocity=0 time=0.08984375
note_on channel=0 note=57 velocity=87 time=0.006510416666666666
note_on channel=0 note=57 velocity=0 time=0.08984375
note_on channel=0 note=62 velocity=88 time=0.006510416666666666
note_on channel=0 note=62 velocity=0 time=0.08984375
note_on channel=0 note=57 velocity=89 time=0.006510416666666666
note_on channel=0 note=57 velocity=0 time=0.08984375
note_on channel=0 note=54 velocity=91 time=0.006510416666666666
note_on channel=0 note=64 velocity=0 time=0.0703125
note_on channel=0 note=76 velocity=0 time=0
note_on channel=0 note=69 velocity=92 time=0.0013020833333333333
note_on channel=0 note=81 velocity=92 time=0
note_on channel=0 note=54 velocity=0 time=0.018229166666666664
note_on channel=0 note=50 velocity=92 time=0.005208333333333333
note_on channel=0 note=50 velocity=0 time=0.08984375
note_on channel=0 note=45 velocity=93 time=0.006510416666666666
note_on channel=0 note=45 velocity=0 time=0.08984375
note_on channel=0 note=42 velocity=94 time=0.006510416666666666
note_on channel=0 note=69 velocity=0 time=0.07942708333333333
note_on channel=0 note=81 velocity=0 time=0
note_on channel=0 note=42 velocity=0 time=0.010416666666666666
note_on channel=0 note=68 velocity=96 time=0.006510416666666666
note_on channel=0 note=71 velocity=96 time=0
note_on channel=0 note=76 velocity=96 time=0
note_on channel=0 note=80 velocity=96 time=0
note_on channel=0 note=28 velocity=115 time=0
note_on channel=0 note=40 velocity=115 time=0
control_change channel=0 control=64 value=0 time=0.0013020833333333333
control_change channel=0 control=64 value=127 time=0.0013020833333333333
note_on channel=0 note=68 velocity=0 time=0.15234375
note_on channel=0 note=71 velocity=0 time=0
note_on channel=0 note=76 velocity=0 time=0
note_on channel=0 note=80 velocity=0 time=0
note_on channel=0 note=28 velocity=0 time=0
note_on channel=0 note=40 velocity=0 time=0
note_on channel=0 note=68 velocity=98 time=0.0013020833333333333
note_on channel=0 note=52 velocity=98 time=0
note_on channel=0 note=68 velocity=0 time=0.07682291666666666
note_on channel=0 note=52 velocity=0 time=0
note_on channel=0 note=71 velocity=99 time=0.0013020833333333333
note_on channel=0 note=47 velocity=99 time=0
note_on channel=0 note=71 velocity=0 time=0.07682291666666666
note_on channel=0 note=47 velocity=0 time=0
note_on channel=0 note=76 velocity=100 time=0.0013020833333333333
note_on channel=0 note=44 velocity=100 time=0
note_on channel=0 note=76 velocity=0 time=0.07682291666666666
note_on channel=0 note=44 velocity=0 time=0
note_on channel=0 note=80 velocity=101 time=0.0013020833333333333
note_on channel=0 note=40 velocity=101 time=0
note_on channel=0 note=80 velocity=0 time=0.07682291666666666
note_on channel=0 note=40 velocity=0 time=0
note_on channel=0 note=83 velocity=102 time=0.0013020833333333333
note_on channel=0 note=35 velocity=102 time=0
note_on channel=0 note=83 velocity=0 time=0.07682291666666666
note_on channel=0 note=35 velocity=0 time=0
note_on channel=0 note=88 velocity=103 time=0.0013020833333333333
note_on channel=0 note=32 velocity=103 time=0
note_on channel=0 note=88 velocity=0 time=0.07682291666666666
note_on channel=0 note=32 velocity=0 time=0
note_on channel=0 note=80 velocity=104 time=0.0013020833333333333
note_on channel=0 note=92 velocity=104 time=0
note_on channel=0 note=28 velocity=104 time=0
note_on channel=0 note=40 velocity=104 time=0
note_on channel=0 note=80 velocity=0 time=0.5924479166666666
note_on channel=0 note=92 velocity=0 time=0
note_on channel=0 note=28 velocity=0 time=0
note_on channel=0 note=40 velocity=0 time=0
note_on channel=0 note=76 velocity=127 time=0.03255208333333333
note_on channel=0 note=81 velocity=127 time=0
note_on channel=0 note=88 velocity=127 time=0
note_on channel=0 note=26 velocity=115 time=0
note_on channel=0 note=38 velocity=115 time=0
control_change channel=0 control=64 value=0 time=0.0013020833333333333
control_change channel=0 control=64 value=127 time=0.0013020833333333333
note_on channel=0 note=26 velocity=0 time=0.30859375
note_on channel=0 note=38 velocity=0 time=0
note_on channel=0 note=38 velocity=96 time=0.0013020833333333333
note_on channel=0 note=38 velocity=0 time=0.14713541666666666
note_on channel=0 note=76 velocity=0 time=0.0078125
note_on channel=0 note=81 velocity=0 time=0
note_on channel=0 note=88 velocity=0 time=0
note_on channel=0 note=54 velocity=112 time=0.0013020833333333333
note_on channel=0 note=57 velocity=112 time=0
note_on channel=0 note=62 velocity=112 time=0
note_on channel=0 note=66 velocity=112 time=0
note_on channel=0 note=42 velocity=96 time=0
note_on channel=0 note=45 velocity=96 time=0
note_on channel=0 note=50 velocity=96 time=0
note_on channel=0 note=42 velocity=0 time=0.29557291666666663
note_on channel=0 note=45 velocity=0 time=0
note_on channel=0 note=50 velocity=0 time=0
note_on channel=0 note=50 velocity=96 time=0.016927083333333332
note_on channel=0 note=50 velocity=0 time=0.14713541666666666
note_on channel=0 note=54 velocity=0 time=0.0078125
note_on channel=0 note=57 velocity=0 time=0
note_on channel=0 note=62 velocity=0 time=0
note_on channel=0 note=66 velocity=0 time=0
note_on channel=0 note=66 velocity=112 time=0.0013020833333333333
note_on channel=0 note=69 velocity=112 time=0
note_on channel=0 note=74 velocity=112 time=0
note_on channel=0 note=78 velocity=112 time=0
note_on channel=0 note=50 velocity=96 time=0
note_on channel=0 note=54 velocity=96 time=0
note_on channel=0 note=57 velocity=96 time=0
note_on channel=0 note=62 velocity=96 time=0
note_on channel=0 note=50 velocity=0 time=0.29557291666666663
note_on channel=0 note=54 velocity=0 time=0
note_on channel=0 note=57 velocity=0 time=0
note_on channel=0 note=62 velocity=0 time=0
note_on channel=0 note=66 velocity=0 time=0.015625
note_on channel=0 note=69 velocity=0 time=0
note_on channel=0 note=74 velocity=0 time=0
note_on channel=0 note=78 velocity=0 time=0
note_on channel=0 note=76 velocity=112 time=0.0013020833333333333
note_on channel=0 note=80 velocity=112 time=0
note_on channel=0 note=83 velocity=112 time=0
note_on channel=0 note=88 velocity=112 time=0
note_on channel=0 note=28 velocity=115 time=0
note_on channel=0 note=40 velocity=115 time=0
control_change channel=0 control=64 value=0 time=0.0013020833333333333
control_change channel=0 control=64 value=127 time=0.0013020833333333333
note_on channel=0 note=28 velocity=0 time=0.30859375
note_on channel=0 note=40 velocity=0 time=0
note_on channel=0 note=40 velocity=96 time=0.0013020833333333333
note_on channel=0 note=40 velocity=0 time=0.14713541666666666
note_on channel=0 note=76 velocity=0 time=0.0078125
note_on channel=0 note=80 velocity=0 time=0
note_on channel=0 note=83 velocity=0 time=0
note_on channel=0 note=88 velocity=0 time=0
note_on channel=0 note=74 velocity=112 time=0.0013020833333333333
note_on channel=0 note=80 velocity=112 time=0
note_on channel=0 note=83 velocity=112 time=0
note_on channel=0 note=86 velocity=112 time=0
note_on channel=0 note=44 velocity=96 time=0
note_on channel=0 note=47 velocity=96 time=0
note_on channel=0 note=52 velocity=96 time=0
note_on channel=0 note=44 velocity=0 time=0.29557291666666663
note_on channel=0 note=47 velocity=0 time=0
note_on channel=0 note=52 velocity=0 time=0
note_on channel=0 note=52 velocity=96 time=0.016927083333333332
note_on channel=0 note=52 velocity=0 time=0.14713541666666666
note_on channel=0 note=74 velocity=0 time=0.0078125
note_on channel=0 note=80 velocity=0 time=0
note_on channel=0 note=83 velocity=0 time=0
note_on channel=0 note=86 velocity=0 time=0
note_on channel=0 note=73 velocity=112 time=0.0013020833333333333
note_on channel=0 note=85 velocity=112 time=0
note_on channel=0 note=56 velocity=96 time=0
note_on channel=0 note=59 velocity=96 time=0
note_on channel=0 note=64 velocity=96 time=0
note_on channel=0 note=56 velocity=0 time=0.14713541666666666
note_on channel=0 note=59 velocity=0 time=0
note_on channel=0 note=64 velocity=0 time=0
note_on channel=0 note=52 velocity=96 time=0.009114583333333332
note_on channel=0 note=52 velocity=0 time=0.14713541666666666
note_on channel=0 note=73 velocity=0 time=0.0078125
note_on channel=0 note=85 velocity=0 time=0
note_on channel=0 note=71 velocity=112 time=0.0013020833333333333
note_on channel=0 note=73 velocity=112 time=0
note_on channel=0 note=78 velocity=112 time=0
note_on channel=0 note=83 velocity=112 time=0
note_on channel=0 note=30 velocity=115 time=0
note_on channel=0 note=42 velocity=115 time=0
control_change channel=0 control=64 value=0 time=0.0013020833333333333
control_change channel=0 control=64 value=127 time=0.0013020833333333333
note_on channel=0 note=30 velocity=0 time=0.30859375
note_on channel=0 note=42 velocity=0 time=0
note_on channel=0 note=42 velocity=96 time=0.0013020833333333333
note_on channel=0 note=42 velocity=0 time=0.14713541666666666
note_on channel=0 note=71 velocity=0 time=0.0078125
note_on channel=0 note=73 velocity=0 time=0
note_on channel=0 note=78 velocity=0 time=0
note_on channel=0 note=83 velocity=0 time=0
note_on channel=0 note=69 velocity=112 time=0.0013020833333333333
note_on channel=0 note=73 velocity=112 time=0
note_on channel=0 note=76 velocity=112 time=0
note_on channel=0 note=81 velocity=112 time=0
note_on channel=0 note=49 velocity=96 time=0
note_on channel=0 note=54 velocity=96 time=0
note_on channel=0 note=49 velocity=0 time=0.29557291666666663
note_on channel=0 note=54 velocity=0 time=0
note_on channel=0 note=54 velocity=96 time=0.016927083333333332
note_on channel=0 note=54 velocity=0 time=0.14713541666666666
note_on channel=0 note=69 velocity=0 time=0.0078125
note_on channel=0 note=73 velocity=0 time=0
note_on channel=0 note=76 velocity=0 time=0
note_on channel=0 note=81 velocity=0 time=0
note_on channel=0 note=71 velocity=112 time=0.0013020833333333333
note_on channel=0 note=83 velocity=112 time=0
note_on channel=0 note=54 velocity=96 time=0
note_on channel=0 note=61 velocity=96 time=0
note_on channel=0 note=66 velocity=96 time=0
note_on channel=0 note=71 velocity=0 time=0.15494791666666666
note_on channel=0 note=83 velocity=0 time=0
note_on channel=0 note=73 velocity=112 time=0.0013020833333333333
note_on channel=0 note=76 velocity=112 time=0
note_on channel=0 note=81 velocity=112 time=0
note_on channel=0 note=85 velocity=112 time=0
note_on channel=0 note=54 velocity=0 time=0.13932291666666666
note_on channel=0 note=61 velocity=0 time=0
note_on channel=0 note=66 velocity=0 time=0
note_on channel=0 note=33 velocity=115 time=0.016927083333333332
note_on channel=0 note=45 velocity=115 time=0
control_change channel=0 control=64 value=0 time=0.0013020833333333333
control_change channel=0 control=64 value=127 time=0.0013020833333333333
note_on channel=0 note=33 velocity=0 time=0.30859375
note_on channel=0 note=45 velocity=0 time=0
note_on channel=0 note=45 velocity=96 time=0.0013020833333333333
note_on channel=0 note=45 velocity=0 time=0.14713541666666666
note_on channel=0 note=49 velocity=96 time=0.009114583333333332
note_on channel=0 note=52 velocity=96 time=0
note_on channel=0 note=57 velocity=96 time=0
note_on channel=0 note=73 velocity=0 time=0.26432291666666663
note_on channel=0 note=76 velocity=0 time=0
note_on channel=0 note=81 velocity=0 time=0
note_on channel=0 note=85 velocity=0 time=0
note_on channel=0 note=49 velocity=0 time=0.03125
note_on channel=0 note=52 velocity=0 time=0
note_on channel=0 note=57 velocity=0 time=0
note_on channel=0 note=57 velocity=96 time=0.016927083333333332
note_on channel=0 note=57 velocity=0 time=0.14713541666666666
note_on channel=0 note=66 velocity=112 time=0.009114583333333332
note_on channel=0 note=78 velocity=112 time=0
note_on channel=0 note=61 velocity=96 time=0
note_on channel=0 note=64 velocity=96 time=0
note_on channel=0 note=61 velocity=0 time=0.14713541666666666
note_on channel=0 note=64 velocity=0 time=0
note_on channel=0 note=66 velocity=0 time=0.0078125
note_on channel=0 note=78 velocity=0 time=0
note_on channel=0 note=68 velocity=112 time=0.0013020833333333333
note_on channel=0 note=80 velocity=112 time=0
note_on channel=0 note=57 velocity=96 time=0
note_on channel=0 note=57 velocity=0 time=0.14713541666666666
note_on channel=0 note=68 velocity=0 time=0.0078125
note_on channel=0 note=80 velocity=0 time=0
note_on channel=0 note=69 velocity=112 time=0.0013020833333333333
note_on channel=0 note=74 velocity=112 time=0
note_on channel=0 note=78 velocity=112 time=0
note_on channel=0 note=81 velocity=112 time=0
note_on channel=0 note=26 velocity=115 time=0
note_on channel=0 note=38 velocity=115 time=0
control_change channel=0 control=64 value=0 time=0.0013020833333333333
control_change channel=0 control=64 value=127 time=0.0013020833333333333
note_on channel=0 note=26 velocity=0 time=0.30859375
note_on channel=0 note=38 velocity=0 time=0
note_on channel=0 note=38 velocity=96 time=0.0013020833333333333
note_on channel=0 note=38 velocity=0 time=0.14713541666666666
note_on channel=0 note=69 velocity=0 time=0.0078125
note_on channel=0 note=74 velocity=0 time=0
note_on channel=0 note=78 velocity=0 time=0
note_on channel=0 note=81 velocity=0 time=0
note_on channel=0 note=71 velocity=112 time=0.0013020833333333333
note_on channel=0 note=83 velocity=112 time=0
note_on channel=0 note=42 velocity=96 time=0
note_on channel=0 note=45 velocity=96 time=0
note_on channel=0 note=50 velocity=96 time=0
note_on channel=0 note=42 velocity=0 time=0.29557291666666663
note_on channel=0 note=45 velocity=0 time=0
note_on channel=0 note=50 velocity=0 time=0
note_on channel=0 note=50 velocity=96 time=0.016927083333333332
note_on channel=0 note=50 velocity=0 time=0.14713541666666666
note_on channel=0 note=71 velocity=0 time=0.0078125
note_on channel=0 note=83 velocity=0 time=0
note_on channel=0 note=73 velocity=112 time=0.0013020833333333333
note_on channel=0 note=85 velocity=112 time=0
note_on channel=0 note=57 velocity=96 time=0
note_on channel=0 note=62 velocity=96 time=0
note_on channel=0 note=57 velocity=0 time=0.14713541666666666
note_on channel=0 note=62 velocity=0 time=0
note_on channel=0 note=50 velocity=96 time=0.009114583333333332
note_on channel=0 note=50 velocity=0 time=0.14713541666666666
note_on channel=0 note=73 velocity=0 time=0.0078125
note_on channel=0 note=85 velocity=0 time=0
note_on channel=0 note=71 velocity=112 time=0.0013020833333333333
note_on channel=0 note=76 velocity=112 time=0
note_on channel=0 note=80 velocity=112 time=0
note_on channel=0 note=83 velocity=112 time=0
note_on channel=0 note=28 velocity=115 time=0
note_on channel=0 note=40 velocity=115 time=0
control_change channel=0 control=64 value=0 time=0.0013020833333333333
control_change channel=0 control=64 value=127 time=0.0013020833333333333
note_on channel=0 note=71 velocity=0 time=0.30859375
note_on channel=0 note=76 velocity=0 time=0
note_on channel=0 note=80 velocity=0 time=0
note_on channel=0 note=83 velocity=0 time=0
note_on channel=0 note=28 velocity=0 time=0
note_on channel=0 note=40 velocity=0 time=0
note_on channel=0 note=64 velocity=112 time=0.0013020833333333333
note_on channel=0 note=68 velocity=112 time=0
note_on channel=0 note=71 velocity=112 time=0
note_on channel=0 note=76 velocity=112 time=0
note_on channel=0 note=40 velocity=96 time=0
note_on channel=0 note=40 velocity=0 time=0.14713541666666666
note_on channel=0 note=44 velocity=96 time=0.009114583333333332
note_on channel=0 note=47 velocity=96 time=0
note_on channel=0 note=52 velocity=96 time=0
note_on channel=0 note=64 velocity=0 time=0.15494791666666666
note_on channel=0 note=68 velocity=0 time=0
note_on channel=0 note=71 velocity=0 time=0
note_on channel=0 note=76 velocity=0 time=0
note_on channel=0 note=76 velocity=112 time=0.0013020833333333333
note_on channel=0 note=88 velocity=112 time=0
note_on channel=0 note=44 velocity=0 time=0.13932291666666666
note_on channel=0 note=47 velocity=0 time=0
note_on channel=0 note=52 velocity=0 time=0
note_on channel=0 note=52 velocity=96 time=0.016927083333333332
note_on channel=0 note=52 velocity=0 time=0.14713541666666666
note_on channel=0 note=76 velocity=0 time=0.0078125
note_on channel=0 note=88 velocity=0 time=0
note_on channel=0 note=74 velocity=112 time=0.0013020833333333333
note_on channel=0 note=86 velocity=112 time=0
note_on channel=0 note=59 velocity=96 time=0
note_on channel=0 note=64 velocity=96 time=0
note_on channel=0 note=59 velocity=0 time=0.14713541666666666
note_on channel=0 note=64 velocity=0 time=0
note_on channel=0 note=52 velocity=96 time=0.009114583333333332
note_on channel=0 note=52 velocity=0 time=0.14713541666666666
note_on channel=0 note=74 velocity=0 time=0.0078125
note_on channel=0 note=86 velocity=0 time=0
note_on channel=0 note=74 velocity=112 time=0.0013020833333333333
note_on channel=0 note=78 velocity=112 time=0
note_on channel=0 note=81 velocity=112 time=0
note_on channel=0 note=86 velocity=112 time=0
note_on channel=0 note=30 velocity=115 time=0
note_on channel=0 note=42 velocity=115 time=0
control_change channel=0 control=64 value=0 time=0.0013020833333333333
control_change channel=0 control=64 value=127 time=0.0013020833333333333
note_on channel=0 note=30 velocity=0 time=0.30859375
note_on channel=0 note=42 velocity=0 time=0
note_on channel=0 note=42 velocity=96 time=0.0013020833333333333
note_on channel=0 note=42 velocity=0 time=0.14713541666666666
note_on channel=0 note=74 velocity=0 time=0.0078125
note_on channel=0 note=78 velocity=0 time=0
note_on channel=0 note=81 velocity=0 time=0
note_on channel=0 note=86 velocity=0 time=0
note_on channel=0 note=73 velocity=112 time=0.0013020833333333333
note_on channel=0 note=78 velocity=112 time=0
note_on channel=0 note=85 velocity=112 time=0
note_on channel=0 note=45 velocity=96 time=0
note_on channel=0 note=49 velocity=96 time=0
note_on channel=0 note=54 velocity=96 time=0
note_on channel=0 note=45 velocity=0 time=0.29557291666666663
note_on channel=0 note=49 velocity=0 time=0
note_on channel=0 note=54 velocity=0 time=0
note_on channel=0 note=54 velocity=96 time=0.016927083333333332
note_on channel=0 note=54 velocity=0 time=0.14713541666666666
note_on channel=0 note=57 velocity=96 time=0.009114583333333332
note_on channel=0 note=61 velocity=96 time=0
note_on channel=0 note=66 velocity=96 time=0
note_on channel=0 note=57 velocity=0 time=0.14713541666666666
note_on channel=0 note=61 velocity=0 time=0
note_on channel=0 note=66 velocity=0 time=0
note_on channel=0 note=73 velocity=0 time=0.0078125
note_on channel=0 note=78 velocity=0 time=0
note_on channel=0 note=85 velocity=0 time=0
note_on channel=0 note=54 velocity=96 time=0.0013020833333333333
note_on channel=0 note=54 velocity=0 time=0.14713541666666666
note_on channel=0 note=71 velocity=112 time=0.009114583333333332
note_on channel=0 note=73 velocity=112 time=0
note_on channel=0 note=83 velocity=112 time=0
note_on channel=0 note=33 velocity=115 time=0
note_on channel=0 note=45 velocity=115 time=0
control_change channel=0 control=64 value=0 time=0.0013020833333333333
control_change channel=0 control=64 value=127 time=0.0013020833333333333
note_on channel=0 note=33 velocity=0 time=0.30859375
note_on channel=0 note=45 velocity=0 time=0
note_on channel=0 note=45 velocity=96 time=0.0013020833333333333
note_on channel=0 note=45 velocity=0 time=0.09765625
note_on channel=0 note=49 velocity=96 time=0.006510416666666666
note_on channel=0 note=49 velocity=0 time=0.09765625
note_on channel=0 note=57 velocity=96 time=0.006510416666666666
note_on channel=0 note=57 velocity=0 time=0.09765625
note_on channel=0 note=71 velocity=0 time=0.005208333333333333
note_on channel=0 note=73 velocity=0 time=0
note_on channel=0 note=83 velocity=0 time=0
note_on channel=0 note=73 velocity=112 time=0.0013020833333333333
note_on channel=0 note=85 velocity=112 time=0
note_on channel=0 note=57 velocity=96 time=0
note_on channel=0 note=57 velocity=0 time=0.09765625
note_on channel=0 note=61 velocity=96 time=0.006510416666666666
note_on channel=0 note=61 velocity=0 time=0.09765625
note_on channel=0 note=64 velocity=96 time=0.006510416666666666
note_on channel=0 note=64 velocity=0 time=0.09765625
note_on channel=0 note=73 velocity=0 time=0.005208333333333333
note_on channel=0 note=85 velocity=0 time=0
note_on channel=0 note=69 velocity=112 time=0.0013020833333333333
note_on channel=0 note=73 velocity=112 time=0
note_on channel=0 note=76 velocity=112 time=0
note_on channel=0 note=81 velocity=112 time=0
note_on channel=0 note=69 velocity=0 time=0.29557291666666663
note_on channel=0 note=73 velocity=0 time=0
note_on channel=0 note=76 velocity=0 time=0
note_on channel=0 note=81 velocity=0 time=0
note_on channel=0 note=26 velocity=115 time=0.016927083333333332
note_on channel=0 note=38 velocity=115 time=0
control_change channel=0 control=64 value=0 time=0.0013020833333333333
control_change channel=0 control=64 value=127 time=0.0013020833333333333
note_on channel=0 note=26 velocity=0 time=0.30859375
note_on channel=0 note=38 velocity=0 time=0
note_on channel=0 note=73 velocity=112 time=0.0013020833333333333
note_on channel=0 note=85 velocity=112 time=0
note_on channel=0 note=38 velocity=96 time=0
note_on channel=0 note=38 velocity=0 time=0.14713541666666666
note_on channel=0 note=73 velocity=0 time=0.0078125
note_on channel=0 note=85 velocity=0 time=0
note_on channel=0 note=74 velocity=112 time=0.0013020833333333333
note_on channel=0 note=86 velocity=112 time=0
note_on channel=0 note=42 velocity=96 time=0
note_on channel=0 note=45 velocity=96 time=0
note_on channel=0 note=50 velocity=96 time=0
note_on channel=0 note=74 velocity=0 time=0.15494791666666666
note_on channel=0 note=86 velocity=0 time=0
note_on channel=0 note=76 velocity=112 time=0.0013020833333333333
note_on channel=0 note=81 velocity=112 time=0
note_on channel=0 note=85 velocity=112 time=0
note_on channel=0 note=88 velocity=112 time=0
note_on channel=0 note=42 velocity=0 time=0.13932291666666666
note_on channel=0 note=45 velocity=0 time=0
note_on channel=0 note=50 velocity=0 time=0
note_on channel=0 note=50 velocity=96 time=0.016927083333333332
note_on channel=0 note=50 velocity=0 time=0.14713541666666666
note_on channel=0 note=57 velocity=96 time=0.009114583333333332
note_on channel=0 note=62 velocity=96 time=0
note_on channel=0 note=57 velocity=0 time=0.14713541666666666
note_on channel=0 note=62 velocity=0 time=0
note_on channel=0 note=50 velocity=96 time=0.009114583333333332
note_on channel=0 note=50 velocity=0 time=0.14713541666666666
note_on channel=0 note=76 velocity=0 time=0.0078125
note_on channel=0 note=81 velocity=0 time=0
note_on channel=0 note=85 velocity=0 time=0
note_on channel=0 note=88 velocity=0 time=0
note_on channel=0 note=68 velocity=112 time=0.0013020833333333333
note_on channel=0 note=71 velocity=112 time=0
note_on channel=0 note=76 velocity=112 time=0
note_on channel=0 note=80 velocity=112 time=0
note_on channel=0 note=28 velocity=115 time=0
note_on channel=0 note=40 velocity=115 time=0
control_change channel=0 control=64 value=0 time=0.0013020833333333333
control_change channel=0 control=64 value=127 time=0.0013020833333333333
note_on channel=0 note=28 velocity=0 time=0.30859375
note_on channel=0 note=40 velocity=0 time=0
note_on channel=0 note=40 velocity=96 time=0.0013020833333333333
note_on channel=0 note=40 velocity=0 time=0.14713541666666666
note_on channel=0 note=68 velocity=0 time=0.0078125
note_on channel=0 note=71 velocity=0 time=0
note_on channel=0 note=76 velocity=0 time=0
note_on channel=0 note=80 velocity=0 time=0
note_on channel=0 note=69 velocity=112 time=0.0013020833333333333
note_on channel=0 note=81 velocity=112 time=0
note_on channel=0 note=44 velocity=96 time=0
note_on channel=0 note=47 velocity=96 time=0
note_on channel=0 note=52 velocity=96 time=0
note_on channel=0 note=44 velocity=0 time=0.29557291666666663
note_on channel=0 note=47 velocity=0 time=0
note_on channel=0 note=52 velocity=0 time=0
note_on channel=0 note=52 velocity=96 time=0.016927083333333332
note_on channel=0 note=52 velocity=0 time=0.14713541666666666
note_on channel=0 note=69 velocity=0 time=0.0078125
note_on channel=0 note=81 velocity=0 time=0
note_on channel=0 note=78 velocity=112 time=0.0013020833333333333
note_on channel=0 note=90 velocity=112 time=0
note_on channel=0 note=59 velocity=96 time=0
note_on channel=0 note=64 velocity=96 time=0
note_on channel=0 note=59 velocity=0 time=0.14713541666666666
note_on channel=0 note=64 velocity=0 time=0
note_on channel=0 note=52 velocity=96 time=0.009114583333333332
note_on channel=0 note=52 velocity=0 time=0.14713541666666666
note_on channel=0 note=78 velocity=0 time=0.0078125
note_on channel=0 note=90 velocity=0 time=0
note_on channel=0 note=76 velocity=112 time=0.0013020833333333333
note_on channel=0 note=81 velocity=112 time=0
note_on channel=0 note=85 velocity=112 time=0
note_on channel=0 note=88 velocity=112 time=0
note_on channel=0 note=30 velocity=115 time=0
note_on channel=0 note=42 velocity=115 time=0
control_change channel=0 control=64 value=0 time=0.0013020833333333333
control_change channel=0 control=64 value=127 time=0.0013020833333333333
note_on channel=0 note=30 velocity=0 time=0.30859375
note_on channel=0 note=42 velocity=0 time=0
note_on channel=0 note=42 velocity=96 time=0.0013020833333333333
note_on channel=0 note=42 velocity=0 time=0.14713541666666666
note_on channel=0 note=76 velocity=0 time=0.0078125
note_on channel=0 note=81 velocity=0 time=0
note_on channel=0 note=85 velocity=0 time=0
note_on channel=0 note=88 velocity=0 time=0
note_on channel=0 note=74 velocity=112 time=0.0013020833333333333
note_on channel=0 note=78 velocity=112 time=0
note_on channel=0 note=81 velocity=112 time=0
note_on channel=0 note=86 velocity=112 time=0
note_on channel=0 note=49 velocity=96 time=0
note_on channel=0 note=54 velocity=96 time=0
note_on channel=0 note=49 velocity=0 time=0.29557291666666663
note_on channel=0 note=54 velocity=0 time=0
note_on channel=0 note=54 velocity=96 time=0.016927083333333332
note_on channel=0 note=54 velocity=0 time=0.14713541666666666
note_on channel=0 note=74 velocity=0 time=0.0078125
note_on channel=0 note=78 velocity=0 time=0
note_on channel=0 note=81 velocity=0 time=0
note_on channel=0 note=86 velocity=0 time=0
note_on channel=0 note=73 velocity=112 time=0.0013020833333333333
note_on channel=0 note=85 velocity=112 time=0
note_on channel=0 note=57 velocity=96 time=0
note_on channel=0 note=61 velocity=96 time=0
note_on channel=0 note=66 velocity=96 time=0
note_on channel=0 note=57 velocity=0 time=0.14713541666666666
note_on channel=0 note=61 velocity=0 time=0
note_on channel=0 note=66 velocity=0 time=0
note_on channel=0 note=54 velocity=96 time=0.009114583333333332
note_on channel=0 note=54 velocity=0 time=0.14713541666666666
note_on channel=0 note=73 velocity=0 time=0.0078125
note_on channel=0 note=85 velocity=0 time=0
note_on channel=0 note=71 velocity=112 time=0.0013020833333333333
note_on channel=0 note=73 velocity=112 time=0
note_on channel=0 note=83 velocity=112 time=0
note_on channel=0 note=33 velocity=115 time=0
note_on channel=0 note=45 velocity=115 time=0
control_change channel=0 control=64 value=0 time=0.0013020833333333333
control_change channel=0 control=64 value=127 time=0.0013020833333333333
note_on channel=0 note=33 velocity=0 time=0.30859375
note_on channel=0 note=45 velocity=0 time=0
note_on channel=0 note=45 velocity=96 time=0.0013020833333333333
note_on channel=0 note=45 velocity=0 time=0.14713541666666666
note_on channel=0 note=71 velocity=0 time=0.0078125
note_on channel=0 note=73 velocity=0 time=0
note_on channel=0 note=83 velocity=0 time=0
note_on channel=0 note=73 velocity=112 time=0.0013020833333333333
note_on channel=0 note=85 velocity=112 time=0
note_on channel=0 note=49 velocity=96 time=0
note_on channel=0 note=52 velocity=96 time=0
note_on channel=0 note=57 velocity=96 time=0
note_on channel=0 note=49 velocity=0 time=0.29557291666666663
note_on channel=0 note=52 velocity=0 time=0
note_on channel=0 note=57 velocity=0 time=0
note_on channel=0 note=57 velocity=96 time=0.016927083333333332
note_on channel=0 note=57 velocity=0 time=0.14713541666666666
note_on channel=0 note=73 velocity=0 time=0.0078125
note_on channel=0 note=85 velocity=0 time=0
note_on channel=0 note=74 velocity=112 time=0.0013020833333333333
note_on channel=0 note=86 velocity=112 time=0
note_on channel=0 note=61 velocity=96 time=0
note_on channel=0 note=64 velocity=96 time=0
note_on channel=0 note=61 velocity=0 time=0.14713541666666666
note_on channel=0 note=64 velocity=0 time=0
note_on channel=0 note=57 velocity=96 time=0.009114583333333332
note_on channel=0 note=74 velocity=0 time=0.13932291666666666
note_on channel=0 note=86 velocity=0 time=0
note_on channel=0 note=57 velocity=0 time=0.0078125
note_on channel=0 note=73 velocity=112 time=0.009114583333333332
note_on channel=0 note=76 velocity=112 time=0
note_on channel=0 note=85 velocity=112 time=0
note_on channel=0 note=26 velocity=115 time=0
note_on channel=0 note=38 velocity=115 time=0
control_change channel=0 control=64 value=0 time=0.0013020833333333333
control_change channel=0 control=64 value=127 time=0.0013020833333333333
note_on channel=0 note=26 velocity=0 time=0.30859375
note_on channel=0 note=38 velocity=0 time=0
note_on channel=0 note=38 velocity=96 time=0.0013020833333333333
note_on channel=0 note=38 velocity=0 time=0.14713541666666666
note_on channel=0 note=73 velocity=0 time=0.0078125
note_on channel=0 note=76 velocity=0 time=0
note_on channel=0 note=85 velocity=0 time=0
note_on channel=0 note=54 velocity=112 time=0.0013020833333333333
note_on channel=0 note=57 velocity=112 time=0
note_on channel=0 note=62 velocity=112 time=0
note_on channel=0 note=66 velocity=112 time=0
note_on channel=0 note=42 velocity=96 time=0
note_on channel=0 note=45 velocity=96 time=0
note_on channel=0 note=50 velocity=96 time=0
note_on channel=0 note=42 velocity=0 time=0.29557291666666663
note_on channel=0 note=45 velocity=0 time=0
note_on channel=0 note=50 velocity=0 time=0
note_on channel=0 note=50 velocity=96 time=0.016927083333333332
note_on channel=0 note=50 velocity=0 time=0.14713541666666666
note_on channel=0 note=54 velocity=0 time=0.0078125
note_on channel=0 note=57 velocity=0 time=0
note_on channel=0 note=62 velocity=0 time=0
note_on channel=0 note=66 velocity=0 time=0
note_on channel=0 note=66 velocity=112 time=0.0013020833333333333
note_on channel=0 note=69 velocity=112 time=0
note_on channel=0 note=74 velocity=112 time=0
note_on channel=0 note=78 velocity=112 time=0
note_on channel=0 note=57 velocity=96 time=0
note_on channel=0 note=64 velocity=96 time=0
note_on channel=0 note=57 velocity=0 time=0.14713541666666666
note_on channel=0 note=64 velocity=0 time=0
note_on channel=0 note=50 velocity=96 time=0.009114583333333332
note_on channel=0 note=50 velocity=0 time=0.14713541666666666
note_on channel=0 note=66 velocity=0 time=0.0078125
note_on channel=0 note=69 velocity=0 time=0
note_on channel=0 note=74 velocity=0 time=0
note_on channel=0 note=78 velocity=0 time=0
note_on channel=0 note=76 velocity=112 time=0.0013020833333333333
note_on channel=0 note=80 velocity=112 time=0
note_on channel=0 note=83 velocity=112 time=0
note_on channel=0 note=88 velocity=112 time=0
note_on channel=0 note=28 velocity=115 time=0
note_on channel=0 note=40 velocity=115 time=0
control_change channel=0 control=64 value=0 time=0.0013020833333333333
control_change channel=0 control=64 value=127 time=0.0013020833333333333
note_on channel=0 note=28 velocity=0 time=0.30859375
note_on channel=0 note=40 velocity=0 time=0
note_on channel=0 note=40 velocity=96 time=0.0013020833333333333
note_on channel=0 note=40 velocity=0 time=0.14713541666666666
note_on channel=0 note=76 velocity=0 time=0.0078125
note_on channel=0 note=80 velocity=0 time=0
note_on channel=0 note=83 velocity=0 time=0
note_on channel=0 note=88 velocity=0 time=0
note_on channel=0 note=68 velocity=112 time=0.0013020833333333333
note_on channel=0 note=71 velocity=112 time=0
note_on channel=0 note=76 velocity=112 time=0
note_on channel=0 note=80 velocity=112 time=0
note_on channel=0 note=47 velocity=96 time=0
note_on channel=0 note=52 velocity=96 time=0
note_on channel=0 note=47 velocity=0 time=0.29557291666666663
note_on channel=0 note=52 velocity=0 time=0
note_on channel=0 note=52 velocity=96 time=0.016927083333333332
note_on channel=0 note=52 velocity=0 time=0.14713541666666666
note_on channel=0 note=68 velocity=0 time=0.0078125
note_on channel=0 note=71 velocity=0 time=0
note_on channel=0 note=76 velocity=0 time=0
note_on channel=0 note=80 velocity=0 time=0
note_on channel=0 note=69 velocity=112 time=0.0013020833333333333
note_on channel=0 note=81 velocity=112 time=0
note_on channel=0 note=56 velocity=96 time=0
note_on channel=0 note=59 velocity=96 time=0
note_on channel=0 note=64 velocity=96 time=0
note_on channel=0 note=56 velocity=0 time=0.14713541666666666
note_on channel=0 note=59 velocity=0 time=0
note_on channel=0 note=64 velocity=0 time=0
note_on channel=0 note=52 velocity=96 time=0.009114583333333332
note_on channel=0 note=52 velocity=0 time=0.14713541666666666
note_on channel=0 note=69 velocity=0 time=0.0078125
note_on channel=0 note=81 velocity=0 time=0
note_on channel=0 note=78 velocity=112 time=0.0013020833333333333
note_on channel=0 note=81 velocity=112 time=0
note_on channel=0 note=86 velocity=112 time=0
note_on channel=0 note=90 velocity=112 time=0
note_on channel=0 note=26 velocity=115 time=0
note_on channel=0 note=38 velocity=115 time=0
control_change channel=0 control=64 value=0 time=0.0013020833333333333
control_change channel=0 control=64 value=127 time=0.0013020833333333333
note_on channel=0 note=26 velocity=0 time=0.30859375
note_on channel=0 note=38 velocity=0 time=0
note_on channel=0 note=38 velocity=96 time=0.0013020833333333333
note_on channel=0 note=38 velocity=0 time=0.14713541666666666
note_on channel=0 note=78 velocity=0 time=0.0078125
note_on channel=0 note=81 velocity=0 time=0
note_on channel=0 note=86 velocity=0 time=0
note_on channel=0 note=90 velocity=0 time=0
note_on channel=0 note=76 velocity=112 time=0.0013020833333333333
note_on channel=0 note=81 velocity=112 time=0
note_on channel=0 note=88 velocity=112 time=0
note_on channel=0 note=42 velocity=96 time=0
note_on channel=0 note=45 velocity=96 time=0
note_on channel=0 note=50 velocity=96 time=0
note_on channel=0 note=42 velocity=0 time=0.29557291666666663
note_on channel=0 note=45 velocity=0 time=0
note_on channel=0 note=50 velocity=0 time=0
note_on channel=0 note=50 velocity=96 time=0.016927083333333332
note_on channel=0 note=50 velocity=0 time=0.14713541666666666
note_on channel=0 note=76 velocity=0 time=0.0078125
note_on channel=0 note=81 velocity=0 time=0
note_on channel=0 note=88 velocity=0 time=0
note_on channel=0 note=81 velocity=112 time=0.0013020833333333333
note_on channel=0 note=93 velocity=112 time=0
note_on channel=0 note=50 velocity=96 time=0
note_on channel=0 note=54 velocity=96 time=0
note_on channel=0 note=57 velocity=96 time=0
note_on channel=0 note=62 velocity=96 time=0
note_on channel=0 note=50 velocity=0 time=0.29557291666666663
note_on channel=0 note=54 velocity=0 time=0
note_on channel=0 note=57 velocity=0 time=0
note_on channel=0 note=62 velocity=0 time=0
note_on channel=0 note=81 velocity=0 time=0.015625
note_on channel=0 note=93 velocity=0 time=0
note_on channel=0 note=80 velocity=112 time=0.0013020833333333333
note_on channel=0 note=85 velocity=112 time=0
note_on channel=0 note=89 velocity=112 time=0
note_on channel=0 note=92 velocity=112 time=0
note_on channel=0 note=25 velocity=115 time=0
note_on channel=0 note=37 velocity=115 time=0
control_change channel=0 control=64 value=0 time=0.0013020833333333333
control_change channel=0 control=64 value=127 time=0.0013020833333333333
note_on channel=0 note=80 velocity=0 time=0.29296875
note_on channel=0 note=85 velocity=0 time=0
note_on channel=0 note=89 velocity=0 time=0
note_on channel=0 note=92 velocity=0 time=0
note_on channel=0 note=25 velocity=0 time=0.015625
note_on channel=0 note=37 velocity=0 time=0
note_on channel=0 note=53 velocity=112 time=0.0013020833333333333
note_on channel=0 note=37 velocity=96 time=0
note_on channel=0 note=53 velocity=0 time=0.10286458333333333
note_on channel=0 note=37 velocity=0 time=0
note_on channel=0 note=56 velocity=112 time=0.0013020833333333333
note_on channel=0 note=41 velocity=96 time=0
note_on channel=0 note=56 velocity=0 time=0.10286458333333333
note_on channel=0 note=41 velocity=0 time=0
note_on channel=0 note=61 velocity=112 time=0.0013020833333333333
note_on channel=0 note=44 velocity=96 time=0
note_on channel=0 note=61 velocity=0 time=0.10286458333333333
note_on channel=0 note=44 velocity=0 time=0
note_on channel=0 note=65 velocity=112 time=0.0013020833333333333
note_on channel=0 note=49 velocity=96 time=0
note_on channel=0 note=65 velocity=0 time=0.10286458333333333
note_on channel=0 note=49 velocity=0 time=0
note_on channel=0 note=68 velocity=112 time=0.0013020833333333333
note_on channel=0 note=53 velocity=96 time=0
note_on channel=0 note=68 velocity=0 time=0.10286458333333333
note_on channel=0 note=53 velocity=0 time=0
note_on channel=0 note=73 velocity=112 time=0.0013020833333333333
note_on channel=0 note=56 velocity=96 time=0
note_on channel=0 note=73 velocity=0 time=0.10286458333333333
note_on channel=0 note=56 velocity=0 time=0
note_on channel=0 note=77 velocity=112 time=0.0013020833333333333
note_on channel=0 note=61 velocity=96 time=0
note_on channel=0 note=77 velocity=0 time=0.10286458333333333
note_on channel=0 note=61 velocity=0 time=0
note_on channel=0 note=80 velocity=112 time=0.0013020833333333333
note_on channel=0 note=65 velocity=96 time=0
note_on channel=0 note=80 velocity=0 time=0.10286458333333333
note_on channel=0 note=65 velocity=0 time=0
note_on channel=0 note=85 velocity=112 time=0.0013020833333333333
note_on channel=0 note=68 velocity=96 time=0
note_on channel=0 note=85 velocity=0 time=0.10286458333333333
note_on channel=0 note=68 velocity=0 time=0
note_on channel=0 note=89 velocity=112 time=0.0013020833333333333
note_on channel=0 note=73 velocity=96 time=0
note_on channel=0 note=89 velocity=0 time=0.10286458333333333
note_on channel=0 note=73 velocity=0 time=0
note_on channel=0 note=92 velocity=112 time=0.0013020833333333333
note_on channel=0 note=77 velocity=96 time=0
note_on channel=0 note=92 velocity=0 time=0.10286458333333333
note_on channel=0 note=77 velocity=0 time=0
note_on channel=0 note=97 velocity=112 time=0.0013020833333333333
note_on channel=0 note=80 velocity=96 time=0
note_on channel=0 note=97 velocity=0 time=0.10286458333333333
note_on channel=0 note=80 velocity=0 time=0
note_on channel=0 note=89 velocity=112 time=0.0013020833333333333
note_on channel=0 note=92 velocity=112 time=0
note_on channel=0 note=97 velocity=112 time=0
note_on channel=0 note=101 velocity=112 time=0
note_on channel=0 note=77 velocity=96 time=0
note_on channel=0 note=80 velocity=96 time=0
note_on channel=0 note=85 velocity=96 time=0
note_on channel=0 note=89 velocity=0 time=2.0768229166666665
note_on channel=0 note=92 velocity=0 time=0
note_on channel=0 note=97 velocity=0 time=0
note_on channel=0 note=101 velocity=0 time=0
note_on channel=0 note=77 velocity=0 time=0
note_on channel=0 note=80 velocity=0 time=0
note_on channel=0 note=85 velocity=0 time=0
note_on channel=0 note=88 velocity=76 time=0.11067708333333333
note_on channel=0 note=50 velocity=64 time=0
note_on channel=0 note=57 velocity=64 time=0
note_on channel=0 note=62 velocity=64 time=0
control_change channel=0 control=64 value=0 time=0.0013020833333333333
control_change channel=0 control=64 value=127 time=0.0013020833333333333
note_on channel=0 note=88 velocity=0 time=0.15234375
note_on channel=0 note=76 velocity=64 time=0.0013020833333333333
note_on channel=0 note=76 velocity=0 time=0.15494791666666666
note_on channel=0 note=81 velocity=64 time=0.0013020833333333333
note_on channel=0 note=81 velocity=0 time=0.15494791666666666
note_on channel=0 note=88 velocity=76 time=0.0013020833333333333
note_on channel=0 note=88 velocity=0 time=0.15494791666666666
note_on channel=0 note=76 velocity=64 time=0.0013020833333333333
note_on channel=0 note=76 velocity=0 time=0.15494791666666666
note_on channel=0 note=81 velocity=64 time=0.0013020833333333333
note_on channel=0 note=81 velocity=0 time=0.15494791666666666
note_on channel=0 note=88 velocity=76 time=0.0013020833333333333
note_on channel=0 note=88 velocity=0 time=0.15494791666666666
note_on channel=0 note=76 velocity=64 time=0.0013020833333333333
note_on channel=0 note=50 velocity=0 time=0.09244791666666666
note_on channel=0 note=57 velocity=0 time=0
note_on channel=0 note=62 velocity=0 time=0
note_on channel=0 note=76 velocity=0 time=0.0625
note_on channel=0 note=88 velocity=76 time=0.0013020833333333333
note_on channel=0 note=52 velocity=64 time=0
note_on channel=0 note=59 velocity=64 time=0
note_on channel=0 note=64 velocity=64 time=0
control_change channel=0 control=64 value=0 time=0.0013020833333333333
control_change channel=0 control=64 value=127 time=0.0013020833333333333
note_on channel=0 note=88 velocity=0 time=0.15234375
note_on channel=0 note=76 velocity=64 time=0.0013020833333333333
note_on channel=0 note=76 velocity=0 time=0.15494791666666666
note_on channel=0 note=81 velocity=64 time=0.0013020833333333333
note_on channel=0 note=81 velocity=0 time=0.15494791666666666
note_on channel=0 note=86 velocity=76 time=0.0013020833333333333
note_on channel=0 note=86 velocity=0 time=0.15494791666666666
note_on channel=0 note=76 velocity=64 time=0.0013020833333333333
note_on channel=0 note=76 velocity=0 time=0.15494791666666666
note_on channel=0 note=81 velocity=64 time=0.0013020833333333333
note_on channel=0 note=81 velocity=0 time=0.15494791666666666
note_on channel=0 note=85 velocity=76 time=0.0013020833333333333
note_on channel=0 note=85 velocity=0 time=0.15494791666666666
note_on channel=0 note=76 velocity=64 time=0.0013020833333333333
note_on channel=0 note=52 velocity=0 time=0.09244791666666666
note_on channel=0 note=59 velocity=0 time=0
note_on channel=0 note=64 velocity=0 time=0
note_on channel=0 note=76 velocity=0 time=0.0546875
note_on channel=0 note=83 velocity=76 time=0.009114583333333332
note_on channel=0 note=54 velocity=64 time=0
note_on channel=0 note=61 velocity=64 time=0
note_on channel=0 note=66 velocity=64 time=0
control_change channel=0 control=64 value=0 time=0.0013020833333333333
control_change channel=0 control=64 value=127 time=0.0013020833333333333
note_on channel=0 note=83 velocity=0 time=0.15234375
note_on channel=0 note=76 velocity=64 time=0.0013020833333333333
note_on channel=0 note=76 velocity=0 time=0.15494791666666666
note_on channel=0 note=80 velocity=64 time=0.0013020833333333333
note_on channel=0 note=80 velocity=0 time=0.15494791666666666
note_on channel=0 note=81 velocity=76 time=0.0013020833333333333
note_on channel=0 note=81 velocity=0 time=0.15494791666666666
note_on channel=0 note=76 velocity=64 time=0.0013020833333333333
note_on channel=0 note=76 velocity=0 time=0.15494791666666666
note_on channel=0 note=81 velocity=64 time=0.0013020833333333333
note_on channel=0 note=81 velocity=0 time=0.15494791666666666
note_on channel=0 note=83 velocity=76 time=0.0013020833333333333
note_on channel=0 note=83 velocity=0 time=0.15494791666666666
note_on channel=0 note=76 velocity=64 time=0.0013020833333333333
note_on channel=0 note=54 velocity=0 time=0.09244791666666666
note_on channel=0 note=61 velocity=0 time=0
note_on channel=0 note=66 velocity=0 time=0
note_on channel=0 note=76 velocity=0 time=0.0625
note_on channel=0 note=85 velocity=76 time=0.0013020833333333333
note_on channel=0 note=57 velocity=64 time=0
note_on channel=0 note=64 velocity=64 time=0
note_on channel=0 note=69 velocity=64 time=0
control_change channel=0 control=64 value=0 time=0.0013020833333333333
control_change channel=0 control=64 value=127 time=0.0013020833333333333
note_on channel=0 note=85 velocity=0 time=0.15234375
note_on channel=0 note=76 velocity=64 time=0.0013020833333333333
note_on channel=0 note=76 velocity=0 time=0.15494791666666666
note_on channel=0 note=81 velocity=64 time=0.0013020833333333333
note_on channel=0 note=81 velocity=0 time=0.15494791666666666
note_on channel=0 note=85 velocity=76 time=0.0013020833333333333
note_on channel=0 note=85 velocity=0 time=0.15494791666666666
note_on channel=0 note=76 velocity=64 time=0.0013020833333333333
note_on channel=0 note=76 velocity=0 time=0.15494791666666666
note_on channel=0 note=81 velocity=64 time=0.0013020833333333333
note_on channel=0 note=81 velocity=0 time=0.15494791666666666
note_on channel=0 note=83 velocity=76 time=0.0013020833333333333
note_on channel=0 note=83 velocity=0 time=0.15494791666666666
note_on channel=0 note=80 velocity=64 time=0.0013020833333333333
note_on channel=0 note=57 velocity=0 time=0.09244791666666666
note_on channel=0 note=64 velocity=0 time=0
note_on channel=0 note=69 velocity=0 time=0
note_on channel=0 note=80 velocity=0 time=0.0546875
note_on channel=0 note=81 velocity=76 time=0.009114583333333332
note_on channel=0 note=50 velocity=64 time=0
note_on channel=0 note=57 velocity=64 time=0
note_on channel=0 note=62 velocity=64 time=0
control_change channel=0 control=64 value=0 time=0.0013020833333333333
control_change channel=0 control=64 value=127 time=0.0013020833333333333
note_on channel=0 note=81 velocity=0 time=0.15234375
note_on channel=0 note=76 velocity=64 time=0.0013020833333333333
note_on channel=0 note=76 velocity=0 time=0.15494791666666666
note_on channel=0 note=81 velocity=64 time=0.0013020833333333333
note_on channel=0 note=81 velocity=0 time=0.15494791666666666
note_on channel=0 note=83 velocity=76 time=0.0013020833333333333
note_on channel=0 note=83 velocity=0 time=0.15494791666666666
note_on channel=0 note=76 velocity=64 time=0.0013020833333333333
note_on channel=0 note=76 velocity=0 time=0.15494791666666666
note_on channel=0 note=81 velocity=64 time=0.0013020833333333333
note_on channel=0 note=81 velocity=0 time=0.15494791666666666
note_on channel=0 note=85 velocity=76 time=0.0013020833333333333
note_on channel=0 note=85 velocity=0 time=0.15494791666666666
note_on channel=0 note=76 velocity=64 time=0.0013020833333333333
note_on channel=0 note=50 velocity=0 time=0.09244791666666666
note_on channel=0 note=57 velocity=0 time=0
note_on channel=0 note=62 velocity=0 time=0
note_on channel=0 note=76 velocity=0 time=0.0625
note_on channel=0 note=83 velocity=76 time=0.0013020833333333333
note_on channel=0 note=52 velocity=64 time=0
note_on channel=0 note=59 velocity=64 time=0
note_on channel=0 note=64 velocity=64 time=0
control_change channel=0 control=64 value=0 time=0.0013020833333333333
control_change channel=0 control=64 value=127 time=0.0013020833333333333
note_on channel=0 note=83 velocity=0 time=0.15234375
note_on channel=0 note=76 velocity=64 time=0.0013020833333333333
note_on channel=0 note=76 velocity=0 time=0.15494791666666666
note_on channel=0 note=80 velocity=64 time=0.0013020833333333333
note_on channel=0 note=80 velocity=0 time=0.15494791666666666
note_on channel=0 note=81 velocity=64 time=0.0013020833333333333
note_on channel=0 note=81 velocity=0 time=0.15494791666666666
note_on channel=0 note=88 velocity=76 time=0.0013020833333333333
note_on channel=0 note=88 velocity=0 time=0.15494791666666666
note_on channel=0 note=76 velocity=64 time=0.0013020833333333333
note_on channel=0 note=76 velocity=0 time=0.15494791666666666
note_on channel=0 note=86 velocity=76 time=0.0013020833333333333
note_on channel=0 note=86 velocity=0 time=0.15494791666666666
note_on channel=0 note=76 velocity=64 time=0.0013020833333333333
note_on channel=0 note=52 velocity=0 time=0.09244791666666666
note_on channel=0 note=59 velocity=0 time=0
note_on channel=0 note=64 velocity=0 time=0
note_on channel=0 note=76 velocity=0 time=0.0546875
note_on channel=0 note=86 velocity=76 time=0.009114583333333332
note_on channel=0 note=54 velocity=64 time=0
note_on channel=0 note=61 velocity=64 time=0
note_on channel=0 note=66 velocity=64 time=0
control_change channel=0 control=64 value=0 time=0.0013020833333333333
control_change channel=0 control=64 value=127 time=0.0013020833333333333
note_on channel=0 note=86 velocity=0 time=0.15234375
note_on channel=0 note=76 velocity=64 time=0.0013020833333333333
note_on channel=0 note=76 velocity=0 time=0.15494791666666666
note_on channel=0 note=81 velocity=64 time=0.0013020833333333333
note_on channel=0 note=81 velocity=0 time=0.15494791666666666
note_on channel=0 note=85 velocity=76 time=0.0013020833333333333
note_on channel=0 note=85 velocity=0 time=0.15494791666666666
note_on channel=0 note=76 velocity=64 time=0.0013020833333333333
note_on channel=0 note=76 velocity=0 time=0.15494791666666666
note_on channel=0 note=81 velocity=64 time=0.0013020833333333333
note_on channel=0 note=81 velocity=0 time=0.15494791666666666
note_on channel=0 note=85 velocity=76 time=0.0013020833333333333
note_on channel=0 note=85 velocity=0 time=0.15494791666666666
note_on channel=0 note=76 velocity=64 time=0.0013020833333333333
note_on channel=0 note=54 velocity=0 time=0.09244791666666666
note_on channel=0 note=61 velocity=0 time=0
note_on channel=0 note=66 velocity=0 time=0
note_on channel=0 note=76 velocity=0 time=0.0625
note_on channel=0 note=83 velocity=76 time=0.0013020833333333333
note_on channel=0 note=57 velocity=64 time=0
note_on channel=0 note=64 velocity=64 time=0
note_on channel=0 note=69 velocity=64 time=0
control_change channel=0 control=64 value=0 time=0.0013020833333333333
control_change channel=0 control=64 value=127 time=0.0013020833333333333
note_on channel=0 note=83 velocity=0 time=0.15234375
note_on channel=0 note=76 velocity=64 time=0.0013020833333333333
note_on channel=0 note=76 velocity=0 time=0.15494791666666666
note_on channel=0 note=81 velocity=64 time=0.0013020833333333333
note_on channel=0 note=81 velocity=0 time=0.15494791666666666
note_on channel=0 note=85 velocity=76 time=0.0013020833333333333
note_on channel=0 note=85 velocity=0 time=0.15494791666666666
note_on channel=0 note=76 velocity=64 time=0.0013020833333333333
note_on channel=0 note=76 velocity=0 time=0.15494791666666666
note_on channel=0 note=81 velocity=64 time=0.0013020833333333333
note_on channel=0 note=81 velocity=0 time=0.15494791666666666
note_on channel=0 note=81 velocity=76 time=0.0013020833333333333
note_on channel=0 note=81 velocity=0 time=0.15494791666666666
note_on channel=0 note=76 velocity=64 time=0.0013020833333333333
note_on channel=0 note=57 velocity=0 time=0.09244791666666666
note_on channel=0 note=64 velocity=0 time=0
note_on channel=0 note=69 velocity=0 time=0
note_on channel=0 note=76 velocity=0 time=0.0546875
note_on channel=0 note=81 velocity=76 time=0.009114583333333332
note_on channel=0 note=50 velocity=64 time=0
control_change channel=0 control=64 value=0 time=0.0013020833333333333
control_change channel=0 control=64 value=127 time=0.0013020833333333333
note_on channel=0 note=81 velocity=0 time=0.15234375
note_on channel=0 note=76 velocity=64 time=0.0013020833333333333
note_on channel=0 note=76 velocity=0 time=0.15494791666666666
note_on channel=0 note=85 velocity=76 time=0.0013020833333333333
note_on channel=0 note=50 velocity=0 time=0.13151041666666666
note_on channel=0 note=85 velocity=0 time=0.0234375
note_on channel=0 note=86 velocity=76 time=0.0013020833333333333
note_on channel=0 note=57 velocity=64 time=0
note_on channel=0 note=86 velocity=0 time=0.15494791666666666
note_on channel=0 note=88 velocity=76 time=0.0013020833333333333
note_on channel=0 note=88 velocity=0 time=0.15494791666666666
note_on channel=0 note=76 velocity=64 time=0.0013020833333333333
note_on channel=0 note=57 velocity=0 time=0.13151041666666666
note_on channel=0 note=76 velocity=0 time=0.0234375
note_on channel=0 note=85 velocity=64 time=0.0013020833333333333
note_on channel=0 note=62 velocity=80 time=0
note_on channel=0 note=85 velocity=0 time=0.15494791666666666
note_on channel=0 note=88 velocity=64 time=0.0013020833333333333
note_on channel=0 note=62 velocity=0 time=0.13932291666666666
note_on channel=0 note=88 velocity=0 time=0.015625
note_on channel=0 note=80 velocity=76 time=0.0013020833333333333
note_on channel=0 note=52 velocity=64 time=0
control_change channel=0 control=64 value=0 time=0.0013020833333333333
control_change channel=0 control=64 value=127 time=0.0013020833333333333
note_on channel=0 note=80 velocity=0 time=0.15234375
note_on channel=0 note=76 velocity=64 time=0.0013020833333333333
note_on channel=0 note=76 velocity=0 time=0.15494791666666666
note_on channel=0 note=80 velocity=64 time=0.0013020833333333333
note_on channel=0 note=52 velocity=0 time=0.13151041666666666
note_on channel=0 note=80 velocity=0 time=0.0234375
note_on channel=0 note=81 velocity=76 time=0.0013020833333333333
note_on channel=0 note=59 velocity=64 time=0
note_on channel=0 note=81 velocity=0 time=0.15494791666666666
note_on channel=0 note=76 velocity=64 time=0.0013020833333333333
note_on channel=0 note=76 velocity=0 time=0.15494791666666666
note_on channel=0 note=81 velocity=64 time=0.0013020833333333333
note_on channel=0 note=59 velocity=0 time=0.13151041666666666
note_on channel=0 note=81 velocity=0 time=0.0234375
note_on channel=0 note=90 velocity=76 time=0.0013020833333333333
note_on channel=0 note=64 velocity=80 time=0
note_on channel=0 note=90 velocity=0 time=0.15494791666666666
note_on channel=0 note=76 velocity=64 time=0.0013020833333333333
note_on channel=0 note=64 velocity=0 time=0.13932291666666666
note_on channel=0 note=76 velocity=0 time=0.0078125
note_on channel=0 note=88 velocity=76 time=0.009114583333333332
note_on channel=0 note=54 velocity=64 time=0
control_change channel=0 control=64 value=0 time=0.0013020833333333333
control_change channel=0 control=64 value=127 time=0.0013020833333333333
note_on channel=0 note=88 velocity=0 time=0.15234375
note_on channel=0 note=76 velocity=64 time=0.0013020833333333333
note_on channel=0 note=76 velocity=0 time=0.15494791666666666
note_on channel=0 note=81 velocity=64 time=0.0013020833333333333
note_on channel=0 note=54 velocity=0 time=0.13151041666666666
note_on channel=0 note=81 velocity=0 time=0.0234375
note_on channel=0 note=86 velocity=76 time=0.0013020833333333333
note_on channel=0 note=61 velocity=64 time=0
note_on channel=0 note=86 velocity=0 time=0.15494791666666666
note_on channel=0 note=76 velocity=64 time=0.0013020833333333333
note_on channel=0 note=76 velocity=0 time=0.15494791666666666
note_on channel=0 note=81 velocity=64 time=0.0013020833333333333
note_on channel=0 note=61 velocity=0 time=0.13151041666666666
note_on channel=0 note=81 velocity=0 time=0.0234375
note_on channel=0 note=85 velocity=76 time=0.0013020833333333333
note_on channel=0 note=66 velocity=80 time=0
note_on channel=0 note=85 velocity=0 time=0.15494791666666666
note_on channel=0 note=76 velocity=64 time=0.0013020833333333333
note_on channel=0 note=66 velocity=0 time=0.13932291666666666
note_on channel=0 note=76 velocity=0 time=0.015625
note_on channel=0 note=83 velocity=76 time=0.0013020833333333333
note_on channel=0 note=57 velocity=64 time=0
control_change channel=0 control=64 value=0 time=0.0013020833333333333
control_change channel=0 control=64 value=127 time=0.0013020833333333333
note_on channel=0 note=83 velocity=0 time=0.15234375
note_on channel=0 note=76 velocity=64 time=0.0013020833333333333
note_on channel=0 note=76 velocity=0 time=0.15494791666666666
note_on channel=0 note=81 velocity=64 time=0.0013020833333333333
note_on channel=0 note=57 velocity=0 time=0.13151041666666666
note_on channel=0 note=81 velocity=0 time=0.0234375
note_on channel=0 note=85 velocity=76 time=0.0013020833333333333
note_on channel=0 note=64 velocity=64 time=0
note_on channel=0 note=85 velocity=0 time=0.15494791666666666
note_on channel=0 note=76 velocity=64 time=0.0013020833333333333
note_on channel=0 note=76 velocity=0 time=0.15494791666666666
note_on channel=0 note=85 velocity=64 time=0.0013020833333333333
note_on channel=0 note=64 velocity=0 time=0.13151041666666666
note_on channel=0 note=85 velocity=0 time=0.0234375
note_on channel=0 note=86 velocity=76 time=0.0013020833333333333
note_on channel=0 note=69 velocity=80 time=0
note_on channel=0 note=86 velocity=0 time=0.15494791666666666
note_on channel=0 note=76 velocity=64 time=0.0013020833333333333
note_on channel=0 note=69 velocity=0 time=0.13932291666666666
note_on channel=0 note=76 velocity=0 time=0.0078125
note_on channel=0 note=85 velocity=96 time=0.009114583333333332
note_on channel=0 note=38 velocity=80 time=0
note_on channel=0 note=50 velocity=80 time=0
control_change channel=0 control=64 value=0 time=0.0013020833333333333
control_change channel=0 control=64 value=127 time=0.0013020833333333333
note_on channel=0 note=85 velocity=0 time=0.15234375
note_on channel=0 note=76 velocity=80 time=0.0013020833333333333
note_on channel=0 note=38 velocity=0 time=0.13932291666666666
note_on channel=0 note=50 velocity=0 time=0
note_on channel=0 note=76 velocity=0 time=0.015625
note_on channel=0 note=80 velocity=80 time=0.0013020833333333333
note_on channel=0 note=50 velocity=80 time=0
note_on channel=0 note=50 velocity=0 time=0.14713541666666666
note_on channel=0 note=80 velocity=0 time=0.0078125
note_on channel=0 note=81 velocity=80 time=0.0013020833333333333
note_on channel=0 note=57 velocity=80 time=0
note_on channel=0 note=62 velocity=80 time=0
note_on channel=0 note=81 velocity=0 time=0.15494791666666666
note_on channel=0 note=76 velocity=80 time=0.0013020833333333333
note_on channel=0 note=57 velocity=0 time=0.13932291666666666
note_on channel=0 note=62 velocity=0 time=0
note_on channel=0 note=76 velocity=0 time=0.015625
note_on channel=0 note=81 velocity=80 time=0.0013020833333333333
note_on channel=0 note=50 velocity=80 time=0
note_on channel=0 note=50 velocity=0 time=0.14713541666666666
note_on channel=0 note=81 velocity=0 time=0.0078125
note_on channel=0 note=88 velocity=96 time=0.0013020833333333333
note_on channel=0 note=57 velocity=80 time=0
note_on channel=0 note=62 velocity=80 time=0
note_on channel=0 note=57 velocity=0 time=0.14713541666666666
note_on channel=0 note=62 velocity=0 time=0
note_on channel=0 note=88 velocity=0 time=0.0078125
note_on channel=0 note=76 velocity=80 time=0.0013020833333333333
note_on channel=0 note=50 velocity=80 time=0
note_on channel=0 note=50 velocity=0 time=0.14713541666666666
note_on channel=0 note=76 velocity=0 time=0.0078125
note_on channel=0 note=88 velocity=96 time=0.0013020833333333333
note_on channel=0 note=40 velocity=80 time=0
note_on channel=0 note=52 velocity=80 time=0
control_change channel=0 control=64 value=0 time=0.0013020833333333333
control_change channel=0 control=64 value=127 time=0.0013020833333333333
note_on channel=0 note=88 velocity=0 time=0.15234375
note_on channel=0 note=76 velocity=80 time=0.0013020833333333333
note_on channel=0 note=40 velocity=0 time=0.13932291666666666
note_on channel=0 note=52 velocity=0 time=0
note_on channel=0 note=76 velocity=0 time=0.015625
note_on channel=0 note=80 velocity=80 time=0.0013020833333333333
note_on channel=0 note=52 velocity=80 time=0
note_on channel=0 note=52 velocity=0 time=0.14713541666666666
note_on channel=0 note=80 velocity=0 time=0.0078125
note_on channel=0 note=81 velocity=80 time=0.0013020833333333333
note_on channel=0 note=59 velocity=80 time=0
note_on channel=0 note=64 velocity=80 time=0
note_on channel=0 note=81 velocity=0 time=0.15494791666666666
note_on channel=0 note=76 velocity=80 time=0.0013020833333333333
note_on channel=0 note=59 velocity=0 time=0.13932291666666666
note_on channel=0 note=64 velocity=0 time=0
note_on channel=0 note=76 velocity=0 time=0.015625
note_on channel=0 note=81 velocity=80 time=0.0013020833333333333
note_on channel=0 note=52 velocity=80 time=0
note_on channel=0 note=52 velocity=0 time=0.14713541666666666
note_on channel=0 note=81 velocity=0 time=0.0078125
note_on channel=0 note=88 velocity=96 time=0.0013020833333333333
note_on channel=0 note=59 velocity=80 time=0
note_on channel=0 note=64 velocity=80 time=0
note_on channel=0 note=59 velocity=0 time=0.14713541666666666
note_on channel=0 note=64 velocity=0 time=0
note_on channel=0 note=88 velocity=0 time=0.0078125
note_on channel=0 note=76 velocity=80 time=0.0013020833333333333
note_on channel=0 note=52 velocity=80 time=0
note_on channel=0 note=76 velocity=0 time=0.14713541666666666
note_on channel=0 note=52 velocity=0 time=0
note_on channel=0 note=90 velocity=96 time=0.009114583333333332
note_on channel=0 note=38 velocity=80 time=0
note_on channel=0 note=50 velocity=80 time=0
control_change channel=0 control=64 value=0 time=0.0013020833333333333
control_change channel=0 control=64 value=127 time=0.0013020833333333333
note_on channel=0 note=90 velocity=0 time=0.15234375
note_on channel=0 note=76 velocity=82 time=0.0013020833333333333
note_on channel=0 note=38 velocity=0 time=0.13932291666666666
note_on channel=0 note=50 velocity=0 time=0
note_on channel=0 note=76 velocity=0 time=0.015625
note_on channel=0 note=81 velocity=84 time=0.0013020833333333333
note_on channel=0 note=50 velocity=84 time=0
note_on channel=0 note=50 velocity=0 time=0.14713541666666666
note_on channel=0 note=81 velocity=0 time=0.0078125
note_on channel=0 note=88 velocity=103 time=0.0013020833333333333
note_on channel=0 note=57 velocity=86 time=0
note_on channel=0 note=62 velocity=86 time=0
note_on channel=0 note=88 velocity=0 time=0.15494791666666666
note_on channel=0 note=76 velocity=88 time=0.0013020833333333333
note_on channel=0 note=57 velocity=0 time=0.13932291666666666
note_on channel=0 note=62 velocity=0 time=0
note_on channel=0 note=76 velocity=0 time=0.015625
note_on channel=0 note=81 velocity=90 time=0.0013020833333333333
note_on channel=0 note=50 velocity=90 time=0
note_on channel=0 note=50 velocity=0 time=0.14713541666666666
note_on channel=0 note=81 velocity=0 time=0.0078125
note_on channel=0 note=93 velocity=110 time=0.0013020833333333333
note_on channel=0 note=57 velocity=92 time=0
note_on channel=0 note=62 velocity=92 time=0
note_on channel=0 note=57 velocity=0 time=0.14713541666666666
note_on channel=0 note=62 velocity=0 time=0
note_on channel=0 note=93 velocity=0 time=0.0078125
note_on channel=0 note=76 velocity=94 time=0.0013020833333333333
note_on channel=0 note=50 velocity=94 time=0
note_on channel=0 note=50 velocity=0 time=0.14713541666666666
note_on channel=0 note=76 velocity=0 time=0.0078125
note_on channel=0 note=92 velocity=115 time=0.0013020833333333333
note_on channel=0 note=37 velocity=115 time=0
note_on channel=0 note=49 velocity=115 time=0
control_change channel=0 control=64 value=0 time=0.0013020833333333333
control_change channel=0 control=64 value=127 time=0.0013020833333333333
note_on channel=0 note=92 velocity=0 time=0.30859375
note_on channel=0 note=37 velocity=0 time=0
note_on channel=0 note=49 velocity=0 time=0
note_on channel=0 note=65 velocity=96 time=0.0013020833333333333
note_on channel=0 note=61 velocity=96 time=0
note_on channel=0 note=65 velocity=0 time=0.10286458333333333
note_on channel=0 note=61 velocity=0 time=0
note_on channel=0 note=68 velocity=96 time=0.0013020833333333333
note_on channel=0 note=56 velocity=96 time=0
note_on channel=0 note=68 velocity=0 time=0.10286458333333333
note_on channel=0 note=56 velocity=0 time=0
note_on channel=0 note=73 velocity=97 time=0.0013020833333333333
note_on channel=0 note=53 velocity=97 time=0
note_on channel=0 note=73 velocity=0 time=0.10286458333333333
note_on channel=0 note=53 velocity=0 time=0
note_on channel=0 note=77 velocity=98 time=0.0013020833333333333
note_on channel=0 note=49 velocity=98 time=0
note_on channel=0 note=77 velocity=0 time=0.10286458333333333
note_on channel=0 note=49 velocity=0 time=0
note_on channel=0 note=80 velocity=99 time=0.0013020833333333333
note_on channel=0 note=44 velocity=99 time=0
note_on channel=0 note=80 velocity=0 time=0.10286458333333333
note_on channel=0 note=44 velocity=0 time=0
note_on channel=0 note=85 velocity=99 time=0.0013020833333333333
note_on channel=0 note=41 velocity=99 time=0
note_on channel=0 note=85 velocity=0 time=0.10286458333333333
note_on channel=0 note=41 velocity=0 time=0
note_on channel=0 note=89 velocity=100 time=0.0013020833333333333
note_on channel=0 note=37 velocity=100 time=0
note_on channel=0 note=89 velocity=0 time=0.10286458333333333
note_on channel=0 note=37 velocity=0 time=0
note_on channel=0 note=92 velocity=101 time=0.0013020833333333333
note_on channel=0 note=32 velocity=101 time=0
note_on channel=0 note=92 velocity=0 time=0.10286458333333333
note_on channel=0 note=32 velocity=0 time=0
note_on channel=0 note=97 velocity=102 time=0.0013020833333333333
note_on channel=0 note=29 velocity=102 time=0
note_on channel=0 note=97 velocity=0 time=0.09765625
note_on channel=0 note=29 velocity=0 time=0
<meta message time_signature numerator=2 denominator=4 clocks_per_click=24 notated_32nd_notes_per_beat=8 time=0.006510416666666666>
note_on channel=0 note=89 velocity=122 time=0
note_on channel=0 note=92 velocity=122 time=0
note_on channel=0 note=101 velocity=122 time=0
note_on channel=0 note=25 velocity=122 time=0
note_on channel=0 note=37 velocity=122 time=0
control_change channel=0 control=64 value=0 time=0.0013020833333333333
control_change channel=0 control=64 value=127 time=0.0013020833333333333
note_on channel=0 note=25 velocity=0 time=0.30859375
note_on channel=0 note=37 velocity=0 time=0
note_on channel=0 note=37 velocity=105 time=0.0013020833333333333
note_on channel=0 note=37 velocity=0 time=0.14713541666666666
note_on channel=0 note=89 velocity=0 time=0.0078125
note_on channel=0 note=92 velocity=0 time=0
note_on channel=0 note=101 velocity=0 time=0
note_on channel=0 note=53 velocity=106 time=0.0013020833333333333
note_on channel=0 note=56 velocity=106 time=0
note_on channel=0 note=65 velocity=106 time=0
note_on channel=0 note=44 velocity=106 time=0
note_on channel=0 note=49 velocity=106 time=0
note_on channel=0 note=44 velocity=0 time=0.29557291666666663
note_on channel=0 note=49 velocity=0 time=0
note_on channel=0 note=37 velocity=108 time=0.016927083333333332
note_on channel=0 note=53 velocity=0 time=0.13151041666666666
note_on channel=0 note=56 velocity=0 time=0
note_on channel=0 note=65 velocity=0 time=0
note_on channel=0 note=37 velocity=0 time=0.015625
note_on channel=0 note=53 velocity=109 time=0.009114583333333332
note_on channel=0 note=56 velocity=109 time=0
note_on channel=0 note=61 velocity=109 time=0
note_on channel=0 note=65 velocity=109 time=0
note_on channel=0 note=49 velocity=109 time=0
note_on channel=0 note=53 velocity=0 time=0.29557291666666663
note_on channel=0 note=56 velocity=0 time=0
note_on channel=0 note=61 velocity=0 time=0
note_on channel=0 note=65 velocity=0 time=0
note_on channel=0 note=49 velocity=0 time=0
<meta message time_signature numerator=4 denominator=4 clocks_per_click=24 notated_32nd_notes_per_beat=8 time=0.016927083333333332>
note_on channel=0 note=76 velocity=127 time=0
note_on channel=0 note=81 velocity=127 time=0
note_on channel=0 note=85 velocity=127 time=0
note_on channel=0 note=88 velocity=127 time=0
note_on channel=0 note=26 velocity=127 time=0
note_on channel=0 note=38 velocity=127 time=0
control_change channel=0 control=64 value=0 time=0.0013020833333333333
note_on channel=0 note=76 velocity=0 time=0.4661458333333333
note_on channel=0 note=81 velocity=0 time=0
note_on channel=0 note=85 velocity=0 time=0
note_on channel=0 note=88 velocity=0 time=0
note_on channel=0 note=26 velocity=0 time=0
note_on channel=0 note=38 velocity=0 time=0
note_on channel=0 note=54 velocity=127 time=0.0013020833333333333
note_on channel=0 note=57 velocity=127 time=0
note_on channel=0 note=62 velocity=127 time=0
note_on channel=0 note=66 velocity=127 time=0
note_on channel=0 note=38 velocity=127 time=0
note_on channel=0 note=42 velocity=127 time=0
note_on channel=0 note=45 velocity=127 time=0
note_on channel=0 note=50 velocity=127 time=0
note_on channel=0 note=54 velocity=0 time=0.46744791666666663
note_on channel=0 note=57 velocity=0 time=0
note_on channel=0 note=62 velocity=0 time=0
note_on channel=0 note=66 velocity=0 time=0
note_on channel=0 note=38 velocity=0 time=0
note_on channel=0 note=42 velocity=0 time=0
note_on channel=0 note=45 velocity=0 time=0
note_on channel=0 note=50 velocity=0 time=0
note_on channel=0 note=76 velocity=127 time=0.3138020833333333
note_on channel=0 note=80 velocity=127 time=0
note_on channel=0 note=88 velocity=127 time=0
note_on channel=0 note=28 velocity=127 time=0
note_on channel=0 note=40 velocity=127 time=0
note_on channel=0 note=76 velocity=0 time=0.46744791666666663
note_on channel=0 note=80 velocity=0 time=0
note_on channel=0 note=88 velocity=0 time=0
note_on channel=0 note=28 velocity=0 time=0
note_on channel=0 note=40 velocity=0 time=0
note_on channel=0 note=74 velocity=112 time=0.0013020833333333333
note_on channel=0 note=86 velocity=112 time=0
note_on channel=0 note=74 velocity=0 time=0.46744791666666663
note_on channel=0 note=86 velocity=0 time=0
note_on channel=0 note=73 velocity=112 time=0.0013020833333333333
note_on channel=0 note=85 velocity=112 time=0
note_on channel=0 note=73 velocity=0 time=0.31119791666666663
note_on channel=0 note=85 velocity=0 time=0
note_on channel=0 note=71 velocity=112 time=0.0013020833333333333
note_on channel=0 note=73 velocity=112 time=0
note_on channel=0 note=83 velocity=112 time=0
note_on channel=0 note=30 velocity=115 time=0
note_on channel=0 note=42 velocity=115 time=0
control_change channel=0 control=64 value=127 time=0.0026041666666666665
note_on channel=0 note=30 velocity=0 time=0.30859375
note_on channel=0 note=42 velocity=0 time=0
note_on channel=0 note=42 velocity=96 time=0.0013020833333333333
note_on channel=0 note=42 velocity=0 time=0.14713541666666666
note_on channel=0 note=71 velocity=0 time=0.0078125
note_on channel=0 note=73 velocity=0 time=0
note_on channel=0 note=83 velocity=0 time=0
note_on channel=0 note=69 velocity=112 time=0.0013020833333333333
note_on channel=0 note=73 velocity=112 time=0
note_on channel=0 note=81 velocity=112 time=0
note_on channel=0 note=49 velocity=96 time=0
note_on channel=0 note=57 velocity=96 time=0
note_on channel=0 note=49 velocity=0 time=0.29557291666666663
note_on channel=0 note=57 velocity=0 time=0
note_on channel=0 note=42 velocity=96 time=0.016927083333333332
note_on channel=0 note=42 velocity=0 time=0.14713541666666666
note_on channel=0 note=69 velocity=0 time=0.0078125
note_on channel=0 note=73 velocity=0 time=0
note_on channel=0 note=81 velocity=0 time=0
note_on channel=0 note=71 velocity=112 time=0.0013020833333333333
note_on channel=0 note=83 velocity=112 time=0
note_on channel=0 note=49 velocity=96 time=0
note_on channel=0 note=57 velocity=96 time=0
note_on channel=0 note=49 velocity=0 time=0.14713541666666666
note_on channel=0 note=57 velocity=0 time=0
note_on channel=0 note=71 velocity=0 time=0.0078125
note_on channel=0 note=83 velocity=0 time=0
note_on channel=0 note=73 velocity=112 time=0.0013020833333333333
note_on channel=0 note=76 velocity=112 time=0
note_on channel=0 note=81 velocity=112 time=0
note_on channel=0 note=85 velocity=112 time=0
note_on channel=0 note=42 velocity=96 time=0
note_on channel=0 note=42 velocity=0 time=0.14713541666666666
note_on channel=0 note=33 velocity=115 time=0.009114583333333332
note_on channel=0 note=45 velocity=115 time=0
control_change channel=0 control=64 value=0 time=0.0013020833333333333
control_change channel=0 control=64 value=127 time=0.0013020833333333333
note_on channel=0 note=33 velocity=0 time=0.15234375
note_on channel=0 note=45 velocity=0 time=0
note_on channel=0 note=45 velocity=96 time=0.0013020833333333333
note_on channel=0 note=45 velocity=0 time=0.14713541666666666
note_on channel=0 note=52 velocity=115 time=0.009114583333333332
note_on channel=0 note=57 velocity=115 time=0
note_on channel=0 note=52 velocity=0 time=0.15494791666666666
note_on channel=0 note=57 velocity=0 time=0
note_on channel=0 note=45 velocity=96 time=0.0013020833333333333
note_on channel=0 note=73 velocity=0 time=0.11588541666666666
note_on channel=0 note=76 velocity=0 time=0
note_on channel=0 note=81 velocity=0 time=0
note_on channel=0 note=85 velocity=0 time=0
note_on channel=0 note=45 velocity=0 time=0.03125
note_on channel=0 note=52 velocity=115 time=0.009114583333333332
note_on channel=0 note=59 velocity=115 time=0
note_on channel=0 note=52 velocity=0 time=0.15494791666666666
note_on channel=0 note=59 velocity=0 time=0
note_on channel=0 note=45 velocity=96 time=0.0013020833333333333
note_on channel=0 note=45 velocity=0 time=0.14713541666666666
note_on channel=0 note=52 velocity=115 time=0.009114583333333332
note_on channel=0 note=61 velocity=115 time=0
note_on channel=0 note=52 velocity=0 time=0.31119791666666663
note_on channel=0 note=61 velocity=0 time=0
note_on channel=0 note=69 velocity=112 time=0.0013020833333333333
note_on channel=0 note=74 velocity=112 time=0
note_on channel=0 note=78 velocity=112 time=0
note_on channel=0 note=81 velocity=112 time=0
note_on channel=0 note=26 velocity=115 time=0
note_on channel=0 note=38 velocity=115 time=0
control_change channel=0 control=64 value=0 time=0.0013020833333333333
control_change channel=0 control=64 value=127 time=0.0013020833333333333
note_on channel=0 note=26 velocity=0 time=0.30859375
note_on channel=0 note=38 velocity=0 time=0
note_on channel=0 note=38 velocity=96 time=0.0013020833333333333
note_on channel=0 note=38 velocity=0 time=0.14713541666666666
note_on channel=0 note=69 velocity=0 time=0.0078125
note_on channel=0 note=74 velocity=0 time=0
note_on channel=0 note=78 velocity=0 time=0
note_on channel=0 note=81 velocity=0 time=0
note_on channel=0 note=71 velocity=112 time=0.0013020833333333333
note_on channel=0 note=83 velocity=112 time=0
note_on channel=0 note=42 velocity=96 time=0
note_on channel=0 note=45 velocity=96 time=0
note_on channel=0 note=50 velocity=96 time=0
note_on channel=0 note=42 velocity=0 time=0.29557291666666663
note_on channel=0 note=45 velocity=0 time=0
note_on channel=0 note=50 velocity=0 time=0
note_on channel=0 note=50 velocity=96 time=0.016927083333333332
note_on channel=0 note=50 velocity=0 time=0.14713541666666666
note_on channel=0 note=71 velocity=0 time=0.0078125
note_on channel=0 note=83 velocity=0 time=0
note_on channel=0 note=73 velocity=112 time=0.0013020833333333333
note_on channel=0 note=85 velocity=112 time=0
note_on channel=0 note=57 velocity=96 time=0
note_on channel=0 note=62 velocity=96 time=0
note_on channel=0 note=57 velocity=0 time=0.14713541666666666
note_on channel=0 note=62 velocity=0 time=0
note_on channel=0 note=50 velocity=96 time=0.009114583333333332
note_on channel=0 note=50 velocity=0 time=0.14713541666666666
note_on channel=0 note=73 velocity=0 time=0.0078125
note_on channel=0 note=85 velocity=0 time=0
note_on channel=0 note=71 velocity=112 time=0.0013020833333333333
note_on channel=0 note=76 velocity=112 time=0
note_on channel=0 note=80 velocity=112 time=0
note_on channel=0 note=83 velocity=112 time=0
note_on channel=0 note=28 velocity=115 time=0
note_on channel=0 note=40 velocity=115 time=0
control_change channel=0 control=64 value=0 time=0.0013020833333333333
control_change channel=0 control=64 value=127 time=0.0013020833333333333
note_on channel=0 note=71 velocity=0 time=0.30859375
note_on channel=0 note=76 velocity=0 time=0
note_on channel=0 note=80 velocity=0 time=0
note_on channel=0 note=83 velocity=0 time=0
note_on channel=0 note=28 velocity=0 time=0
note_on channel=0 note=40 velocity=0 time=0
note_on channel=0 note=64 velocity=112 time=0.0013020833333333333
note_on channel=0 note=68 velocity=112 time=0
note_on channel=0 note=71 velocity=112 time=0
note_on channel=0 note=76 velocity=112 time=0
note_on channel=0 note=40 velocity=96 time=0
note_on channel=0 note=40 velocity=0 time=0.14713541666666666
note_on channel=0 note=44 velocity=96 time=0.009114583333333332
note_on channel=0 note=47 velocity=96 time=0
note_on channel=0 note=52 velocity=96 time=0
note_on channel=0 note=64 velocity=0 time=0.15494791666666666
note_on channel=0 note=68 velocity=0 time=0
note_on channel=0 note=71 velocity=0 time=0
note_on channel=0 note=76 velocity=0 time=0
note_on channel=0 note=76 velocity=112 time=0.0013020833333333333
note_on channel=0 note=88 velocity=112 time=0
note_on channel=0 note=44 velocity=0 time=0.13932291666666666
note_on channel=0 note=47 velocity=0 time=0
note_on channel=0 note=52 velocity=0 time=0
note_on channel=0 note=52 velocity=96 time=0.016927083333333332
note_on channel=0 note=52 velocity=0 time=0.14713541666666666
note_on channel=0 note=76 velocity=0 time=0.0078125
note_on channel=0 note=88 velocity=0 time=0
note_on channel=0 note=74 velocity=112 time=0.0013020833333333333
note_on channel=0 note=86 velocity=112 time=0
note_on channel=0 note=56 velocity=96 time=0
note_on channel=0 note=59 velocity=96 time=0
note_on channel=0 note=64 velocity=96 time=0
note_on channel=0 note=56 velocity=0 time=0.14713541666666666
note_on channel=0 note=59 velocity=0 time=0
note_on channel=0 note=64 velocity=0 time=0
note_on channel=0 note=52 velocity=96 time=0.009114583333333332
note_on channel=0 note=52 velocity=0 time=0.14713541666666666
note_on channel=0 note=74 velocity=0 time=0.0078125
note_on channel=0 note=86 velocity=0 time=0
note_on channel=0 note=74 velocity=112 time=0.0013020833333333333
note_on channel=0 note=78 velocity=112 time=0
note_on channel=0 note=81 velocity=112 time=0
note_on channel=0 note=86 velocity=112 time=0
note_on channel=0 note=30 velocity=115 time=0
note_on channel=0 note=42 velocity=115 time=0
control_change channel=0 control=64 value=0 time=0.0013020833333333333
control_change channel=0 control=64 value=127 time=0.0013020833333333333
note_on channel=0 note=30 velocity=0 time=0.30859375
note_on channel=0 note=42 velocity=0 time=0
note_on channel=0 note=42 velocity=96 time=0.0013020833333333333
note_on channel=0 note=42 velocity=0 time=0.14713541666666666
note_on channel=0 note=74 velocity=0 time=0.0078125
note_on channel=0 note=78 velocity=0 time=0
note_on channel=0 note=81 velocity=0 time=0
note_on channel=0 note=86 velocity=0 time=0
note_on channel=0 note=73 velocity=112 time=0.0013020833333333333
note_on channel=0 note=78 velocity=112 time=0
note_on channel=0 note=85 velocity=112 time=0
note_on channel=0 note=49 velocity=96 time=0
note_on channel=0 note=54 velocity=96 time=0
note_on channel=0 note=49 velocity=0 time=0.29557291666666663
note_on channel=0 note=54 velocity=0 time=0
note_on channel=0 note=54 velocity=96 time=0.016927083333333332
note_on channel=0 note=54 velocity=0 time=0.14713541666666666
note_on channel=0 note=73 velocity=0 time=0.0078125
note_on channel=0 note=78 velocity=0 time=0
note_on channel=0 note=85 velocity=0 time=0
note_on channel=0 note=71 velocity=112 time=0.0013020833333333333
note_on channel=0 note=57 velocity=96 time=0
note_on channel=0 note=61 velocity=96 time=0
note_on channel=0 note=66 velocity=96 time=0
note_on channel=0 note=57 velocity=0 time=0.14713541666666666
note_on channel=0 note=61 velocity=0 time=0
note_on channel=0 note=66 velocity=0 time=0
note_on channel=0 note=71 velocity=0 time=0.0078125
note_on channel=0 note=73 velocity=112 time=0.0013020833333333333
note_on channel=0 note=54 velocity=96 time=0
note_on channel=0 note=54 velocity=0 time=0.14713541666666666
note_on channel=0 note=73 velocity=0 time=0.0078125
note_on channel=0 note=71 velocity=112 time=0.0013020833333333333
note_on channel=0 note=73 velocity=112 time=0
note_on channel=0 note=83 velocity=112 time=0
note_on channel=0 note=33 velocity=115 time=0
note_on channel=0 note=45 velocity=115 time=0
control_change channel=0 control=64 value=0 time=0.0013020833333333333
control_change channel=0 control=64 value=127 time=0.0013020833333333333
note_on channel=0 note=33 velocity=0 time=0.30859375
note_on channel=0 note=45 velocity=0 time=0
note_on channel=0 note=45 velocity=96 time=0.0013020833333333333
note_on channel=0 note=45 velocity=0 time=0.09765625
note_on channel=0 note=49 velocity=96 time=0.006510416666666666
note_on channel=0 note=49 velocity=0 time=0.09765625
note_on channel=0 note=57 velocity=96 time=0.006510416666666666
note_on channel=0 note=57 velocity=0 time=0.09765625
note_on channel=0 note=71 velocity=0 time=0.005208333333333333
note_on channel=0 note=73 velocity=0 time=0
note_on channel=0 note=83 velocity=0 time=0
note_on channel=0 note=73 velocity=112 time=0.0013020833333333333
note_on channel=0 note=85 velocity=112 time=0
note_on channel=0 note=57 velocity=96 time=0
note_on channel=0 note=57 velocity=0 time=0.09765625
note_on channel=0 note=61 velocity=96 time=0.006510416666666666
note_on channel=0 note=61 velocity=0 time=0.09765625
note_on channel=0 note=64 velocity=96 time=0.006510416666666666
note_on channel=0 note=64 velocity=0 time=0.09765625
note_on channel=0 note=73 velocity=0 time=0.005208333333333333
note_on channel=0 note=85 velocity=0 time=0
note_on channel=0 note=69 velocity=112 time=0.0013020833333333333
note_on channel=0 note=73 velocity=112 time=0
note_on channel=0 note=76 velocity=112 time=0
note_on channel=0 note=81 velocity=112 time=0
note_on channel=0 note=26 velocity=115 time=0.3125
note_on channel=0 note=38 velocity=115 time=0
control_change channel=0 control=64 value=0 time=0.0013020833333333333
control_change channel=0 control=64 value=127 time=0.0013020833333333333
note_on channel=0 note=69 velocity=0 time=0.27734375
note_on channel=0 note=73 velocity=0 time=0
note_on channel=0 note=76 velocity=0 time=0
note_on channel=0 note=81 velocity=0 time=0
note_on channel=0 note=26 velocity=0 time=0.03125
note_on channel=0 note=38 velocity=0 time=0
note_on channel=0 note=73 velocity=112 time=0.0013020833333333333
note_on channel=0 note=85 velocity=112 time=0
note_on channel=0 note=38 velocity=96 time=0
note_on channel=0 note=38 velocity=0 time=0.14713541666666666
note_on channel=0 note=73 velocity=0 time=0.0078125
note_on channel=0 note=85 velocity=0 time=0
note_on channel=0 note=74 velocity=112 time=0.0013020833333333333
note_on channel=0 note=86 velocity=112 time=0
note_on channel=0 note=42 velocity=96 time=0
note_on channel=0 note=45 velocity=96 time=0
note_on channel=0 note=50 velocity=96 time=0
note_on channel=0 note=74 velocity=0 time=0.15494791666666666
note_on channel=0 note=86 velocity=0 time=0
note_on channel=0 note=76 velocity=112 time=0.0013020833333333333
note_on channel=0 note=81 velocity=112 time=0
note_on channel=0 note=85 velocity=112 time=0
note_on channel=0 note=88 velocity=112 time=0
note_on channel=0 note=42 velocity=0 time=0.13932291666666666
note_on channel=0 note=45 velocity=0 time=0
note_on channel=0 note=50 velocity=0 time=0
note_on channel=0 note=50 velocity=96 time=0.016927083333333332
note_on channel=0 note=50 velocity=0 time=0.14713541666666666
note_on channel=0 note=57 velocity=96 time=0.009114583333333332
note_on channel=0 note=62 velocity=96 time=0
note_on channel=0 note=57 velocity=0 time=0.14713541666666666
note_on channel=0 note=62 velocity=0 time=0
note_on channel=0 note=50 velocity=96 time=0.009114583333333332
note_on channel=0 note=50 velocity=0 time=0.14713541666666666
note_on channel=0 note=76 velocity=0 time=0.0078125
note_on channel=0 note=81 velocity=0 time=0
note_on channel=0 note=85 velocity=0 time=0
note_on channel=0 note=88 velocity=0 time=0
note_on channel=0 note=68 velocity=112 time=0.0013020833333333333
note_on channel=0 note=71 velocity=112 time=0
note_on channel=0 note=76 velocity=112 time=0
note_on channel=0 note=80 velocity=112 time=0
note_on channel=0 note=28 velocity=115 time=0
note_on channel=0 note=40 velocity=115 time=0
control_change channel=0 control=64 value=0 time=0.0013020833333333333
control_change channel=0 control=64 value=127 time=0.0013020833333333333
note_on channel=0 note=28 velocity=0 time=0.30859375
note_on channel=0 note=40 velocity=0 time=0
note_on channel=0 note=40 velocity=96 time=0.0013020833333333333
note_on channel=0 note=40 velocity=0 time=0.14713541666666666
note_on channel=0 note=68 velocity=0 time=0.0078125
note_on channel=0 note=71 velocity=0 time=0
note_on channel=0 note=76 velocity=0 time=0
note_on channel=0 note=80 velocity=0 time=0
note_on channel=0 note=69 velocity=112 time=0.0013020833333333333
note_on channel=0 note=81 velocity=112 time=0
note_on channel=0 note=44 velocity=96 time=0
note_on channel=0 note=47 velocity=96 time=0
note_on channel=0 note=52 velocity=96 time=0
note_on channel=0 note=44 velocity=0 time=0.29557291666666663
note_on channel=0 note=47 velocity=0 time=0
note_on channel=0 note=52 velocity=0 time=0
note_on channel=0 note=52 velocity=96 time=0.016927083333333332
note_on channel=0 note=52 velocity=0 time=0.14713541666666666
note_on channel=0 note=69 velocity=0 time=0.0078125
note_on channel=0 note=81 velocity=0 time=0
note_on channel=0 note=78 velocity=112 time=0.0013020833333333333
note_on channel=0 note=90 velocity=112 time=0
note_on channel=0 note=59 velocity=96 time=0
note_on channel=0 note=64 velocity=96 time=0
note_on channel=0 note=59 velocity=0 time=0.14713541666666666
note_on channel=0 note=64 velocity=0 time=0
note_on channel=0 note=52 velocity=96 time=0.009114583333333332
note_on channel=0 note=52 velocity=0 time=0.14713541666666666
note_on channel=0 note=78 velocity=0 time=0.0078125
note_on channel=0 note=90 velocity=0 time=0
note_on channel=0 note=76 velocity=112 time=0.0013020833333333333
note_on channel=0 note=81 velocity=112 time=0
note_on channel=0 note=85 velocity=112 time=0
note_on channel=0 note=88 velocity=112 time=0
note_on channel=0 note=30 velocity=115 time=0
note_on channel=0 note=42 velocity=115 time=0
control_change channel=0 control=64 value=0 time=0.0013020833333333333
control_change channel=0 control=64 value=127 time=0.0013020833333333333
note_on channel=0 note=30 velocity=0 time=0.30859375
note_on channel=0 note=42 velocity=0 time=0
note_on channel=0 note=42 velocity=96 time=0.0013020833333333333
note_on channel=0 note=42 velocity=0 time=0.14713541666666666
note_on channel=0 note=76 velocity=0 time=0.0078125
note_on channel=0 note=81 velocity=0 time=0
note_on channel=0 note=85 velocity=0 time=0
note_on channel=0 note=88 velocity=0 time=0
note_on channel=0 note=74 velocity=112 time=0.0013020833333333333
note_on channel=0 note=78 velocity=112 time=0
note_on channel=0 note=81 velocity=112 time=0
note_on channel=0 note=86 velocity=112 time=0
note_on channel=0 note=49 velocity=96 time=0
note_on channel=0 note=54 velocity=96 time=0
note_on channel=0 note=49 velocity=0 time=0.29557291666666663
note_on channel=0 note=54 velocity=0 time=0
note_on channel=0 note=54 velocity=96 time=0.016927083333333332
note_on channel=0 note=54 velocity=0 time=0.14713541666666666
note_on channel=0 note=74 velocity=0 time=0.0078125
note_on channel=0 note=78 velocity=0 time=0
note_on channel=0 note=81 velocity=0 time=0
note_on channel=0 note=86 velocity=0 time=0
note_on channel=0 note=73 velocity=112 time=0.0013020833333333333
note_on channel=0 note=85 velocity=112 time=0
note_on channel=0 note=57 velocity=96 time=0
note_on channel=0 note=61 velocity=96 time=0
note_on channel=0 note=66 velocity=96 time=0
note_on channel=0 note=57 velocity=0 time=0.14713541666666666
note_on channel=0 note=61 velocity=0 time=0
note_on channel=0 note=66 velocity=0 time=0
note_on channel=0 note=54 velocity=96 time=0.009114583333333332
note_on channel=0 note=54 velocity=0 time=0.14713541666666666
note_on channel=0 note=73 velocity=0 time=0.0078125
note_on channel=0 note=85 velocity=0 time=0
note_on channel=0 note=71 velocity=112 time=0.0013020833333333333
note_on channel=0 note=73 velocity=112 time=0
note_on channel=0 note=83 velocity=112 time=0
note_on channel=0 note=33 velocity=115 time=0
note_on channel=0 note=45 velocity=115 time=0
control_change channel=0 control=64 value=0 time=0.0013020833333333333
control_change channel=0 control=64 value=127 time=0.0013020833333333333
note_on channel=0 note=33 velocity=0 time=0.30859375
note_on channel=0 note=45 velocity=0 time=0
note_on channel=0 note=45 velocity=96 time=0.0013020833333333333
note_on channel=0 note=45 velocity=0 time=0.14713541666666666
note_on channel=0 note=71 velocity=0 time=0.0078125
note_on channel=0 note=73 velocity=0 time=0
note_on channel=0 note=83 velocity=0 time=0
note_on channel=0 note=73 velocity=112 time=0.0013020833333333333
note_on channel=0 note=85 velocity=112 time=0
note_on channel=0 note=49 velocity=96 time=0
note_on channel=0 note=52 velocity=96 time=0
note_on channel=0 note=57 velocity=96 time=0
note_on channel=0 note=49 velocity=0 time=0.29557291666666663
note_on channel=0 note=52 velocity=0 time=0
note_on channel=0 note=57 velocity=0 time=0
note_on channel=0 note=57 velocity=96 time=0.016927083333333332
note_on channel=0 note=57 velocity=0 time=0.14713541666666666
note_on channel=0 note=73 velocity=0 time=0.0078125
note_on channel=0 note=85 velocity=0 time=0
note_on channel=0 note=74 velocity=112 time=0.0013020833333333333
note_on channel=0 note=86 velocity=112 time=0
note_on channel=0 note=61 velocity=96 time=0
note_on channel=0 note=64 velocity=96 time=0
note_on channel=0 note=61 velocity=0 time=0.14713541666666666
note_on channel=0 note=64 velocity=0 time=0
note_on channel=0 note=57 velocity=96 time=0.009114583333333332
note_on channel=0 note=74 velocity=0 time=0.13932291666666666
note_on channel=0 note=86 velocity=0 time=0
note_on channel=0 note=57 velocity=0 time=0.0078125
note_on channel=0 note=73 velocity=112 time=0.009114583333333332
note_on channel=0 note=76 velocity=112 time=0
note_on channel=0 note=85 velocity=112 time=0
note_on channel=0 note=26 velocity=115 time=0
note_on channel=0 note=38 velocity=115 time=0
control_change channel=0 control=64 value=0 time=0.0013020833333333333
control_change channel=0 control=64 value=127 time=0.0013020833333333333
note_on channel=0 note=26 velocity=0 time=0.30859375
note_on channel=0 note=38 velocity=0 time=0
note_on channel=0 note=38 velocity=96 time=0.0013020833333333333
note_on channel=0 note=38 velocity=0 time=0.14713541666666666
note_on channel=0 note=73 velocity=0 time=0.0078125
note_on channel=0 note=76 velocity=0 time=0
note_on channel=0 note=85 velocity=0 time=0
note_on channel=0 note=54 velocity=112 time=0.0013020833333333333
note_on channel=0 note=57 velocity=112 time=0
note_on channel=0 note=62 velocity=112 time=0
note_on channel=0 note=66 velocity=112 time=0
note_on channel=0 note=42 velocity=96 time=0
note_on channel=0 note=45 velocity=96 time=0
note_on channel=0 note=50 velocity=96 time=0
note_on channel=0 note=42 velocity=0 time=0.29557291666666663
note_on channel=0 note=45 velocity=0 time=0
note_on channel=0 note=50 velocity=0 time=0
note_on channel=0 note=50 velocity=96 time=0.016927083333333332
note_on channel=0 note=50 velocity=0 time=0.14713541666666666
note_on channel=0 note=54 velocity=0 time=0.0078125
note_on channel=0 note=57 velocity=0 time=0
note_on channel=0 note=62 velocity=0 time=0
note_on channel=0 note=66 velocity=0 time=0
note_on channel=0 note=66 velocity=112 time=0.0013020833333333333
note_on channel=0 note=69 velocity=112 time=0
note_on channel=0 note=74 velocity=112 time=0
note_on channel=0 note=78 velocity=112 time=0
note_on channel=0 note=57 velocity=96 time=0
note_on channel=0 note=64 velocity=96 time=0
note_on channel=0 note=57 velocity=0 time=0.14713541666666666
note_on channel=0 note=64 velocity=0 time=0
note_on channel=0 note=50 velocity=96 time=0.009114583333333332
note_on channel=0 note=50 velocity=0 time=0.14713541666666666
note_on channel=0 note=66 velocity=0 time=0.0078125
note_on channel=0 note=69 velocity=0 time=0
note_on channel=0 note=74 velocity=0 time=0
note_on channel=0 note=78 velocity=0 time=0
note_on channel=0 note=76 velocity=112 time=0.0013020833333333333
note_on channel=0 note=80 velocity=112 time=0
note_on channel=0 note=83 velocity=112 time=0
note_on channel=0 note=88 velocity=112 time=0
note_on channel=0 note=28 velocity=115 time=0
note_on channel=0 note=40 velocity=115 time=0
control_change channel=0 control=64 value=0 time=0.0013020833333333333
control_change channel=0 control=64 value=127 time=0.0013020833333333333
note_on channel=0 note=28 velocity=0 time=0.30859375
note_on channel=0 note=40 velocity=0 time=0
note_on channel=0 note=40 velocity=96 time=0.0013020833333333333
note_on channel=0 note=40 velocity=0 time=0.14713541666666666
note_on channel=0 note=76 velocity=0 time=0.0078125
note_on channel=0 note=80 velocity=0 time=0
note_on channel=0 note=83 velocity=0 time=0
note_on channel=0 note=88 velocity=0 time=0
note_on channel=0 note=68 velocity=112 time=0.0013020833333333333
note_on channel=0 note=71 velocity=112 time=0
note_on channel=0 note=76 velocity=112 time=0
note_on channel=0 note=80 velocity=112 time=0
note_on channel=0 note=47 velocity=96 time=0
note_on channel=0 note=52 velocity=96 time=0
note_on channel=0 note=47 velocity=0 time=0.29557291666666663
note_on channel=0 note=52 velocity=0 time=0
note_on channel=0 note=52 velocity=96 time=0.016927083333333332
note_on channel=0 note=52 velocity=0 time=0.14713541666666666
note_on channel=0 note=68 velocity=0 time=0.0078125
note_on channel=0 note=71 velocity=0 time=0
note_on channel=0 note=76 velocity=0 time=0
note_on channel=0 note=80 velocity=0 time=0
note_on channel=0 note=69 velocity=112 time=0.0013020833333333333
note_on channel=0 note=81 velocity=112 time=0
note_on channel=0 note=56 velocity=96 time=0
note_on channel=0 note=59 velocity=96 time=0
note_on channel=0 note=64 velocity=96 time=0
note_on channel=0 note=56 velocity=0 time=0.14713541666666666
note_on channel=0 note=59 velocity=0 time=0
note_on channel=0 note=64 velocity=0 time=0
note_on channel=0 note=52 velocity=96 time=0.009114583333333332
note_on channel=0 note=52 velocity=0 time=0.14713541666666666
note_on channel=0 note=69 velocity=0 time=0.0078125
note_on channel=0 note=81 velocity=0 time=0
note_on channel=0 note=78 velocity=112 time=0.0013020833333333333
note_on channel=0 note=81 velocity=112 time=0
note_on channel=0 note=86 velocity=112 time=0
note_on channel=0 note=90 velocity=112 time=0
note_on channel=0 note=26 velocity=127 time=0
note_on channel=0 note=38 velocity=127 time=0
control_change channel=0 control=64 value=0 time=0.0013020833333333333
control_change channel=0 control=64 value=127 time=0.0013020833333333333
note_on channel=0 note=26 velocity=0 time=0.30859375
note_on channel=0 note=38 velocity=0 time=0
note_on channel=0 note=38 velocity=106 time=0.0013020833333333333
note_on channel=0 note=38 velocity=0 time=0.14713541666666666
note_on channel=0 note=78 velocity=0 time=0.0078125
note_on channel=0 note=81 velocity=0 time=0
note_on channel=0 note=86 velocity=0 time=0
note_on channel=0 note=90 velocity=0 time=0
note_on channel=0 note=76 velocity=103 time=0.0013020833333333333
note_on channel=0 note=81 velocity=103 time=0
note_on channel=0 note=88 velocity=103 time=0
note_on channel=0 note=42 velocity=103 time=0
note_on channel=0 note=45 velocity=103 time=0
note_on channel=0 note=50 velocity=103 time=0
note_on channel=0 note=42 velocity=0 time=0.29557291666666663
note_on channel=0 note=45 velocity=0 time=0
note_on channel=0 note=50 velocity=0 time=0
note_on channel=0 note=50 velocity=96 time=0.016927083333333332
note_on channel=0 note=50 velocity=0 time=0.14713541666666666
note_on channel=0 note=76 velocity=0 time=0.0078125
note_on channel=0 note=81 velocity=0 time=0
note_on channel=0 note=88 velocity=0 time=0
note_on channel=0 note=81 velocity=93 time=0.0013020833333333333
note_on channel=0 note=93 velocity=93 time=0
note_on channel=0 note=50 velocity=93 time=0
note_on channel=0 note=54 velocity=93 time=0
note_on channel=0 note=57 velocity=93 time=0
note_on channel=0 note=62 velocity=93 time=0
note_on channel=0 note=50 velocity=0 time=0.29557291666666663
note_on channel=0 note=54 velocity=0 time=0
note_on channel=0 note=57 velocity=0 time=0
note_on channel=0 note=62 velocity=0 time=0
note_on channel=0 note=81 velocity=0 time=0.015625
note_on channel=0 note=93 velocity=0 time=0
note_on channel=0 note=80 velocity=87 time=0.0013020833333333333
note_on channel=0 note=83 velocity=87 time=0
note_on channel=0 note=88 velocity=87 time=0
note_on channel=0 note=92 velocity=87 time=0
note_on channel=0 note=28 velocity=104 time=0
note_on channel=0 note=40 velocity=104 time=0
control_change channel=0 control=64 value=0 time=0.0013020833333333333
control_change channel=0 control=64 value=127 time=0.0013020833333333333
note_on channel=0 note=80 velocity=0 time=0.29296875
note_on channel=0 note=83 velocity=0 time=0
note_on channel=0 note=88 velocity=0 time=0
note_on channel=0 note=92 velocity=0 time=0
note_on channel=0 note=28 velocity=0 time=0.015625
note_on channel=0 note=40 velocity=0 time=0
note_on channel=0 note=56 velocity=80 time=0.0013020833333333333
note_on channel=0 note=40 velocity=80 time=0
note_on channel=0 note=56 velocity=0 time=0.10286458333333333
note_on channel=0 note=40 velocity=0 time=0
note_on channel=0 note=59 velocity=80 time=0.0013020833333333333
note_on channel=0 note=44 velocity=80 time=0
note_on channel=0 note=59 velocity=0 time=0.10286458333333333
note_on channel=0 note=44 velocity=0 time=0
note_on channel=0 note=64 velocity=80 time=0.0013020833333333333
note_on channel=0 note=47 velocity=80 time=0
note_on channel=0 note=64 velocity=0 time=0.10286458333333333
note_on channel=0 note=47 velocity=0 time=0
note_on channel=0 note=68 velocity=80 time=0.0013020833333333333
note_on channel=0 note=52 velocity=80 time=0
note_on channel=0 note=68 velocity=0 time=0.10286458333333333
note_on channel=0 note=52 velocity=0 time=0
note_on channel=0 note=71 velocity=80 time=0.0013020833333333333
note_on channel=0 note=56 velocity=80 time=0
note_on channel=0 note=71 velocity=0 time=0.10286458333333333
note_on channel=0 note=56 velocity=0 time=0
note_on channel=0 note=76 velocity=80 time=0.0013020833333333333
note_on channel=0 note=59 velocity=80 time=0
note_on channel=0 note=76 velocity=0 time=0.10286458333333333
note_on channel=0 note=59 velocity=0 time=0
note_on channel=0 note=80 velocity=80 time=0.0013020833333333333
note_on channel=0 note=64 velocity=80 time=0
note_on channel=0 note=80 velocity=0 time=0.10286458333333333
note_on channel=0 note=64 velocity=0 time=0
note_on channel=0 note=83 velocity=80 time=0.0013020833333333333
note_on channel=0 note=68 velocity=80 time=0
note_on channel=0 note=83 velocity=0 time=0.10286458333333333
note_on channel=0 note=68 velocity=0 time=0
note_on channel=0 note=88 velocity=80 time=0.0013020833333333333
note_on channel=0 note=71 velocity=80 time=0
note_on channel=0 note=88 velocity=0 time=0.10286458333333333
note_on channel=0 note=71 velocity=0 time=0
note_on channel=0 note=92 velocity=80 time=0.0013020833333333333
note_on channel=0 note=76 velocity=80 time=0
note_on channel=0 note=92 velocity=0 time=0.10286458333333333
note_on channel=0 note=76 velocity=0 time=0
note_on channel=0 note=95 velocity=80 time=0.0013020833333333333
note_on channel=0 note=80 velocity=80 time=0
note_on channel=0 note=95 velocity=0 time=0.10286458333333333
note_on channel=0 note=80 velocity=0 time=0
note_on channel=0 note=100 velocity=80 time=0.0013020833333333333
note_on channel=0 note=83 velocity=80 time=0
note_on channel=0 note=100 velocity=0 time=0.10286458333333333
note_on channel=0 note=83 velocity=0 time=0
note_on channel=0 note=92 velocity=80 time=0.0013020833333333333
note_on channel=0 note=95 velocity=80 time=0
note_on channel=0 note=100 velocity=80 time=0
note_on channel=0 note=104 velocity=80 time=0
note_on channel=0 note=76 velocity=80 time=0
note_on channel=0 note=80 velocity=80 time=0
note_on channel=0 note=83 velocity=80 time=0
note_on channel=0 note=88 velocity=80 time=0
<meta message set_tempo tempo=1875000 time=0.3125>
note_on channel=0 note=92 velocity=0 time=5.29296875
note_on channel=0 note=95 velocity=0 time=0
note_on channel=0 note=100 velocity=0 time=0
note_on channel=0 note=104 velocity=0 time=0
note_on channel=0 note=76 velocity=0 time=0
note_on channel=0 note=80 velocity=0 time=0
note_on channel=0 note=83 velocity=0 time=0
note_on channel=0 note=88 velocity=0 time=0
<meta message set_tempo tempo=625000 time=0.328125>
<meta message set_tempo tempo=833333 time=0.0013020833333333333>
note_on channel=0 note=66 velocity=49 time=0
note_on channel=0 note=38 velocity=49 time=0
control_change channel=0 control=64 value=0 time=0.0017361104166666666
control_change channel=0 control=64 value=127 time=0.0017361104166666666
note_on channel=0 note=45 velocity=49 time=0.05902775416666666
note_on channel=0 note=50 velocity=49 time=0.06597219583333333
note_on channel=0 note=66 velocity=0 time=1.4531244187499999
note_on channel=0 note=64 velocity=49 time=0.08506941041666666
note_on channel=0 note=64 velocity=0 time=0.7899302395833333
<meta message set_tempo tempo=1000000 time=0.043402760416666665>
note_on channel=0 note=69 velocity=64 time=0
note_on channel=0 note=69 velocity=0 time=0.9479166666666666
note_on channel=0 note=45 velocity=0 time=0.04791666666666666
note_on channel=0 note=50 velocity=0 time=0
note_on channel=0 note=38 velocity=0 time=0.0020833333333333333
<meta message set_tempo tempo=1560001 time=0.0020833333333333333>
note_on channel=0 note=68 velocity=49 time=0
note_on channel=0 note=40 velocity=49 time=0
control_change channel=0 control=64 value=0 time=0.0032500020833333334
control_change channel=0 control=64 value=127 time=0.0032500020833333334
note_on channel=0 note=44 velocity=49 time=0.05525003541666667
note_on channel=0 note=47 velocity=49 time=0.06825004375
note_on channel=0 note=52 velocity=49 time=0.06825004375
<meta message set_tempo tempo=1200000 time=4.478502870833333>
note_on channel=0 note=68 velocity=0 time=0
<meta message set_tempo tempo=1428571 time=0.0025>
note_on channel=0 note=73 velocity=49 time=0
note_on channel=0 note=73 velocity=0 time=1.3541662604166667
note_on channel=0 note=44 velocity=0 time=0.06845236041666666
note_on channel=0 note=47 velocity=0 time=0
note_on channel=0 note=52 velocity=0 time=0
note_on channel=0 note=40 velocity=0 time=0.002976189583333333
note_on channel=0 note=64 velocity=49 time=0.002976189583333333
note_on channel=0 note=33 velocity=49 time=0
control_change channel=0 control=64 value=0 time=0.002976189583333333
control_change channel=0 control=64 value=127 time=0.002976189583333333
note_on channel=0 note=69 velocity=49 time=0.059523791666666666
note_on channel=0 note=37 velocity=49 time=0
note_on channel=0 note=73 velocity=49 time=0.06547617083333333
note_on channel=0 note=40 velocity=49 time=0
note_on channel=0 note=45 velocity=49 time=0.06845236041666666
note_on channel=0 note=69 velocity=0 time=2.6517849187499998
note_on channel=0 note=73 velocity=0 time=0
note_on channel=0 note=37 velocity=0 time=0
note_on channel=0 note=40 velocity=0 time=0
note_on channel=0 note=45 velocity=0 time=0
note_on channel=0 note=64 velocity=0 time=0.002976189583333333
note_on channel=0 note=33 velocity=0 time=0
<meta message set_tempo tempo=2000000 time=0.002976189583333333>
note_on channel=0 note=57 velocity=49 time=0
note_on channel=0 note=45 velocity=49 time=0
control_change channel=0 control=64 value=0 time=0.004166666666666667
control_change channel=0 control=64 value=127 time=0.004166666666666667
note_on channel=0 note=57 velocity=0 time=0.3208333333333333
note_on channel=0 note=45 velocity=0 time=0
<meta message set_tempo tempo=1578948 time=0.004166666666666667>
note_on channel=0 note=61 velocity=50 time=0
note_on channel=0 note=49 velocity=50 time=0
note_on channel=0 note=61 velocity=0 time=0.259868525
note_on channel=0 note=49 velocity=0 time=0
<meta message set_tempo tempo=1363637 time=0.003289475>
note_on channel=0 note=64 velocity=51 time=0
note_on channel=0 note=52 velocity=51 time=0
note_on channel=0 note=64 velocity=0 time=0.22443192291666667
note_on channel=0 note=52 velocity=0 time=0
<meta message set_tempo tempo=1250000 time=0.0028409104166666668>
note_on channel=0 note=69 velocity=52 time=0
note_on channel=0 note=57 velocity=52 time=0
note_on channel=0 note=69 velocity=0 time=0.20572916666666666
note_on channel=0 note=57 velocity=0 time=0
note_on channel=0 note=73 velocity=54 time=0.0026041666666666665
note_on channel=0 note=61 velocity=54 time=0
note_on channel=0 note=73 velocity=0 time=0.20572916666666666
note_on channel=0 note=61 velocity=0 time=0
note_on channel=0 note=76 velocity=55 time=0.0026041666666666665
note_on channel=0 note=64 velocity=55 time=0
note_on channel=0 note=76 velocity=0 time=0.20572916666666666
note_on channel=0 note=64 velocity=0 time=0
note_on channel=0 note=81 velocity=56 time=0.0026041666666666665
note_on channel=0 note=69 velocity=56 time=0
note_on channel=0 note=81 velocity=0 time=0.20572916666666666
note_on channel=0 note=69 velocity=0 time=0
note_on channel=0 note=85 velocity=57 time=0.0026041666666666665
note_on channel=0 note=73 velocity=57 time=0
note_on channel=0 note=85 velocity=0 time=0.20572916666666666
note_on channel=0 note=73 velocity=0 time=0
<meta message set_tempo tempo=1363637 time=0.0026041666666666665>
note_on channel=0 note=88 velocity=59 time=0
note_on channel=0 note=76 velocity=59 time=0
note_on channel=0 note=88 velocity=0 time=0.22443192291666667
note_on channel=0 note=76 velocity=0 time=0
<meta message set_tempo tempo=1578948 time=0.0028409104166666668>
note_on channel=0 note=93 velocity=60 time=0
note_on channel=0 note=81 velocity=60 time=0
note_on channel=0 note=93 velocity=0 time=0.259868525
note_on channel=0 note=81 velocity=0 time=0
<meta message set_tempo tempo=2000000 time=0.003289475>
note_on channel=0 note=97 velocity=61 time=0
note_on channel=0 note=85 velocity=61 time=0
note_on channel=0 note=97 velocity=0 time=0.32916666666666666
note_on channel=0 note=85 velocity=0 time=0
<meta message set_tempo tempo=3333333 time=0.004166666666666667>
note_on channel=0 note=100 velocity=62 time=0
note_on channel=0 note=88 velocity=62 time=0
note_on channel=0 note=100 velocity=0 time=0.52083328125
note_on channel=0 note=88 velocity=0 time=0
<meta message set_tempo tempo=967745 time=0.03472221875>
note_on channel=0 note=93 velocity=64 time=0
note_on channel=0 note=97 velocity=64 time=0
note_on channel=0 note=100 velocity=64 time=0
note_on channel=0 note=105 velocity=64 time=0
note_on channel=0 note=81 velocity=64 time=0
note_on channel=0 note=85 velocity=64 time=0
note_on channel=0 note=88 velocity=64 time=0
note_on channel=0 note=93 velocity=0 time=1.8366993645833332
note_on channel=0 note=97 velocity=0 time=0
note_on channel=0 note=100 velocity=0 time=0
note_on channel=0 note=105 velocity=0 time=0
note_on channel=0 note=81 velocity=0 time=0
note_on channel=0 note=85 velocity=0 time=0
note_on channel=0 note=88 velocity=0 time=0
<meta message set_tempo tempo=3870980 time=0.09879063541666666>
note_on channel=0 note=45 velocity=49 time=0
note_on channel=0 note=49 velocity=49 time=0
note_on channel=0 note=52 velocity=49 time=0
note_on channel=0 note=57 velocity=49 time=0
note_on channel=0 note=21 velocity=49 time=0
note_on channel=0 note=33 velocity=49 time=0
control_change channel=0 control=64 value=0 time=0.008064541666666666
note_on channel=0 note=45 velocity=0 time=7.338732916666666
note_on channel=0 note=49 velocity=0 time=0
note_on channel=0 note=52 velocity=0 time=0
note_on channel=0 note=57 velocity=0 time=0
note_on channel=0 note=21 velocity=0 time=0
note_on channel=0 note=33 velocity=0 time=0
<meta message set_tempo tempo=967745 time=0.38709799999999994>
<meta message end_of_track time=0.0020161354166666665>
1 
<meta message time_signature numerator=1 denominator=4 clocks_per_click=24 notated_32nd_notes_per_beat=8 time=0>
<meta message key_signature key='A' time=0>
<meta message set_tempo tempo=625000 time=0>
control_change channel=0 control=121 value=0 time=0
program_change channel=0 program=0 time=0
control_change channel=0 control=7 value=100 time=0
control_change channel=0 control=10 value=64 time=0
control_change channel=0 control=91 value=0 time=0
control_change channel=0 control=93 value=0 time=0
<meta message midi_port port=0 time=0>
note_on channel=0 note=66 velocity=80 time=0
<meta message key_signature key='A' time=0>
<meta message midi_port port=0 time=0>
note_on channel=0 note=66 velocity=0 time=0.15494791666666666
note_on channel=0 note=66 velocity=80 time=0.0013020833333333333
note_on channel=0 note=66 velocity=0 time=0.15494791666666666
note_on channel=0 note=68 velocity=80 time=0.0013020833333333333
note_on channel=0 note=68 velocity=0 time=0.15494791666666666
note_on channel=0 note=69 velocity=80 time=0.0013020833333333333
<meta message time_signature numerator=4 denominator=4 clocks_per_click=24 notated_32nd_notes_per_beat=8 time=0.15625>
note_on channel=0 note=42 velocity=64 time=0
note_on channel=0 note=42 velocity=0 time=0.07682291666666666
note_on channel=0 note=49 velocity=64 time=0.07942708333333333
note_on channel=0 note=49 velocity=0 time=0.07682291666666666
note_on channel=0 note=69 velocity=0 time=0.078125
note_on channel=0 note=68 velocity=80 time=0.0013020833333333333
note_on channel=0 note=42 velocity=64 time=0
note_on channel=0 note=42 velocity=0 time=0.07682291666666666
note_on channel=0 note=49 velocity=64 time=0.07942708333333333
note_on channel=0 note=49 velocity=0 time=0.07682291666666666
note_on channel=0 note=68 velocity=0 time=0.078125
note_on channel=0 note=66 velocity=80 time=0.0013020833333333333
note_on channel=0 note=42 velocity=64 time=0
note_on channel=0 note=42 velocity=0 time=0.07682291666666666
note_on channel=0 note=66 velocity=0 time=0.078125
note_on channel=0 note=64 velocity=80 time=0.0013020833333333333
note_on channel=0 note=49 velocity=64 time=0
note_on channel=0 note=49 velocity=0 time=0.07682291666666666
note_on channel=0 note=42 velocity=64 time=0.07942708333333333
note_on channel=0 note=42 velocity=0 time=0.07682291666666666
note_on channel=0 note=64 velocity=0 time=0.078125
note_on channel=0 note=66 velocity=80 time=0.0013020833333333333
note_on channel=0 note=49 velocity=64 time=0
note_on channel=0 note=49 velocity=0 time=0.07682291666666666
note_on channel=0 note=42 velocity=64 time=0.07942708333333333
note_on channel=0 note=42 velocity=0 time=0.07682291666666666
note_on channel=0 note=49 velocity=64 time=0.07942708333333333
note_on channel=0 note=49 velocity=0 time=0.07682291666666666
note_on channel=0 note=42 velocity=64 time=0.07942708333333333
note_on channel=0 note=42 velocity=0 time=0.07682291666666666
note_on channel=0 note=49 velocity=64 time=0.07942708333333333
note_on channel=0 note=49 velocity=0 time=0.07682291666666666
note_on channel=0 note=66 velocity=0 time=0.0390625
note_on channel=0 note=66 velocity=80 time=0.04036458333333333
note_on channel=0 note=42 velocity=64 time=0
note_on channel=0 note=42 velocity=0 time=0.07682291666666666
note_on channel=0 note=66 velocity=0 time=0.078125
note_on channel=0 note=68 velocity=80 time=0.0013020833333333333
note_on channel=0 note=49 velocity=64 time=0
note_on channel=0 note=49 velocity=0 time=0.07682291666666666
note_on channel=0 note=42 velocity=64 time=0.07942708333333333
note_on channel=0 note=42 velocity=0 time=0.07682291666666666
note_on channel=0 note=68 velocity=0 time=0.078125
note_on channel=0 note=69 velocity=80 time=0.0013020833333333333
note_on channel=0 note=49 velocity=64 time=0
note_on channel=0 note=49 velocity=0 time=0.07682291666666666
note_on channel=0 note=42 velocity=64 time=0.07942708333333333
note_on channel=0 note=42 velocity=0 time=0.07682291666666666
note_on channel=0 note=49 velocity=64 time=0.07942708333333333
note_on channel=0 note=49 velocity=0 time=0.07682291666666666
note_on channel=0 note=69 velocity=0 time=0.078125
note_on channel=0 note=68 velocity=80 time=0.0013020833333333333
note_on channel=0 note=42 velocity=64 time=0
note_on channel=0 note=42 velocity=0 time=0.07682291666666666
note_on channel=0 note=49 velocity=64 time=0.07942708333333333
note_on channel=0 note=49 velocity=0 time=0.07682291666666666
note_on channel=0 note=68 velocity=0 time=0.078125
note_on channel=0 note=66 velocity=80 time=0.0013020833333333333
note_on channel=0 note=42 velocity=64 time=0
note_on channel=0 note=42 velocity=0 time=0.07682291666666666
note_on channel=0 note=66 velocity=0 time=0.078125
note_on channel=0 note=64 velocity=80 time=0.0013020833333333333
note_on channel=0 note=49 velocity=64 time=0
note_on channel=0 note=49 velocity=0 time=0.07682291666666666
note_on channel=0 note=42 velocity=64 time=0.07942708333333333
note_on channel=0 note=42 velocity=0 time=0.07682291666666666
note_on channel=0 note=64 velocity=0 time=0.078125
note_on channel=0 note=66 velocity=80 time=0.0013020833333333333
note_on channel=0 note=49 velocity=64 time=0
note_on channel=0 note=49 velocity=0 time=0.07682291666666666
note_on channel=0 note=42 velocity=64 time=0.07942708333333333
note_on channel=0 note=42 velocity=0 time=0.07682291666666666
note_on channel=0 note=49 velocity=64 time=0.07942708333333333
note_on channel=0 note=49 velocity=0 time=0.07682291666666666
note_on channel=0 note=66 velocity=0 time=0.078125
note_on channel=0 note=64 velocity=80 time=0.0013020833333333333
note_on channel=0 note=42 velocity=64 time=0
note_on channel=0 note=42 velocity=0 time=0.07682291666666666
note_on channel=0 note=49 velocity=64 time=0.07942708333333333
note_on channel=0 note=49 velocity=0 time=0.07682291666666666
note_on channel=0 note=64 velocity=0 time=0.078125
note_on channel=0 note=61 velocity=80 time=0.0013020833333333333
note_on channel=0 note=40 velocity=64 time=0
note_on channel=0 note=40 velocity=0 time=0.07682291666666666
note_on channel=0 note=61 velocity=0 time=0.078125
note_on channel=0 note=64 velocity=80 time=0.0013020833333333333
note_on channel=0 note=47 velocity=64 time=0
note_on channel=0 note=47 velocity=0 time=0.07682291666666666
note_on channel=0 note=40 velocity=64 time=0.07942708333333333
note_on channel=0 note=40 velocity=0 time=0.07682291666666666
note_on channel=0 note=64 velocity=0 time=0.078125
note_on channel=0 note=64 velocity=80 time=0.0013020833333333333
note_on channel=0 note=47 velocity=64 time=0
note_on channel=0 note=47 velocity=0 time=0.07682291666666666
note_on channel=0 note=38 velocity=64 time=0.07942708333333333
note_on channel=0 note=38 velocity=0 time=0.07682291666666666
note_on channel=0 note=45 velocity=64 time=0.07942708333333333
note_on channel=0 note=45 velocity=0 time=0.07682291666666666
note_on channel=0 note=38 velocity=64 time=0.07942708333333333
note_on channel=0 note=38 velocity=0 time=0.07682291666666666
note_on channel=0 note=45 velocity=64 time=0.07942708333333333
note_on channel=0 note=45 velocity=0 time=0.07682291666666666
note_on channel=0 note=64 velocity=0 time=0.0390625
note_on channel=0 note=61 velocity=80 time=0.04036458333333333
note_on channel=0 note=38 velocity=64 time=0
note_on channel=0 note=38 velocity=0 time=0.07682291666666666
note_on channel=0 note=61 velocity=0 time=0.078125
note_on channel=0 note=64 velocity=80 time=0.0013020833333333333
note_on channel=0 note=45 velocity=64 time=0
note_on channel=0 note=45 velocity=0 time=0.07682291666666666
note_on channel=0 note=38 velocity=64 time=0.07942708333333333
note_on channel=0 note=38 velocity=0 time=0.07682291666666666
note_on channel=0 note=64 velocity=0 time=0.078125
note_on channel=0 note=64 velocity=80 time=0.0013020833333333333
note_on channel=0 note=45 velocity=64 time=0
note_on channel=0 note=45 velocity=0 time=0.07682291666666666
note_on channel=0 note=38 velocity=64 time=0.07942708333333333
note_on channel=0 note=38 velocity=0 time=0.07682291666666666
note_on channel=0 note=45 velocity=64 time=0.07942708333333333
note_on channel=0 note=45 velocity=0 time=0.07682291666666666
note_on channel=0 note=38 velocity=64 time=0.07942708333333333
note_on channel=0 note=38 velocity=0 time=0.07682291666666666
note_on channel=0 note=45 velocity=64 time=0.07942708333333333
note_on channel=0 note=45 velocity=0 time=0.07682291666666666
note_on channel=0 note=64 velocity=0 time=0.078125
note_on channel=0 note=61 velocity=80 time=0.0013020833333333333
note_on channel=0 note=38 velocity=64 time=0
note_on channel=0 note=38 velocity=0 time=0.07682291666666666
note_on channel=0 note=61 velocity=0 time=0.078125
note_on channel=0 note=64 velocity=80 time=0.0013020833333333333
note_on channel=0 note=45 velocity=64 time=0
note_on channel=0 note=45 velocity=0 time=0.07682291666666666
note_on channel=0 note=38 velocity=64 time=0.07942708333333333
note_on channel=0 note=38 velocity=0 time=0.07682291666666666
note_on channel=0 note=64 velocity=0 time=0.078125
note_on channel=0 note=64 velocity=80 time=0.0013020833333333333
note_on channel=0 note=45 velocity=64 time=0
note_on channel=0 note=45 velocity=0 time=0.07682291666666666
note_on channel=0 note=38 velocity=64 time=0.07942708333333333
note_on channel=0 note=38 velocity=0 time=0.07682291666666666
note_on channel=0 note=45 velocity=64 time=0.07942708333333333
note_on channel=0 note=45 velocity=0 time=0.07682291666666666
note_on channel=0 note=64 velocity=0 time=0.078125
note_on channel=0 note=61 velocity=80 time=0.0013020833333333333
note_on channel=0 note=38 velocity=64 time=0
note_on channel=0 note=38 velocity=0 time=0.07682291666666666
note_on channel=0 note=45 velocity=64 time=0.07942708333333333
note_on channel=0 note=45 velocity=0 time=0.07682291666666666
note_on channel=0 note=61 velocity=0 time=0.078125
note_on channel=0 note=66 velocity=80 time=0.0013020833333333333
note_on channel=0 note=38 velocity=64 time=0
note_on channel=0 note=38 velocity=0 time=0.07682291666666666
note_on channel=0 note=66 velocity=0 time=0.078125
note_on channel=0 note=64 velocity=80 time=0.0013020833333333333
note_on channel=0 note=45 velocity=64 time=0
note_on channel=0 note=45 velocity=0 time=0.07682291666666666
note_on channel=0 note=38 velocity=64 time=0.07942708333333333
note_on channel=0 note=38 velocity=0 time=0.07682291666666666
note_on channel=0 note=64 velocity=0 time=0.078125
note_on channel=0 note=64 velocity=80 time=0.0013020833333333333
note_on channel=0 note=45 velocity=64 time=0
note_on channel=0 note=45 velocity=0 time=0.07682291666666666
note_on channel=0 note=40 velocity=64 time=0.07942708333333333
note_on channel=0 note=40 velocity=0 time=0.07682291666666666
note_on channel=0 note=47 velocity=64 time=0.07942708333333333
note_on channel=0 note=47 velocity=0 time=0.07682291666666666
note_on channel=0 note=64 velocity=0 time=0.078125
note_on channel=0 note=61 velocity=80 time=0.0013020833333333333
note_on channel=0 note=40 velocity=64 time=0
note_on channel=0 note=40 velocity=0 time=0.07682291666666666
note_on channel=0 note=47 velocity=64 time=0.07942708333333333
note_on channel=0 note=47 velocity=0 time=0.07682291666666666
note_on channel=0 note=61 velocity=0 time=0.0625
note_on channel=0 note=66 velocity=80 time=0.016927083333333332
note_on channel=0 note=78 velocity=80 time=0
note_on channel=0 note=40 velocity=80 time=0
note_on channel=0 note=40 velocity=0 time=0.07682291666666666
note_on channel=0 note=66 velocity=0 time=0.078125
note_on channel=0 note=78 velocity=0 time=0
note_on channel=0 note=68 velocity=84 time=0.0013020833333333333
note_on channel=0 note=80 velocity=84 time=0
note_on channel=0 note=47 velocity=84 time=0
note_on channel=0 note=47 velocity=0 time=0.07682291666666666
note_on channel=0 note=40 velocity=88 time=0.07942708333333333
note_on channel=0 note=40 velocity=0 time=0.07682291666666666
note_on channel=0 note=68 velocity=0 time=0.078125
note_on channel=0 note=80 velocity=0 time=0
note_on channel=0 note=69 velocity=92 time=0.0013020833333333333
note_on channel=0 note=73 velocity=92 time=0
note_on channel=0 note=81 velocity=92 time=0
note_on channel=0 note=47 velocity=92 time=0
note_on channel=0 note=47 velocity=0 time=0.07682291666666666
note_on channel=0 note=42 velocity=80 time=0.07942708333333333
control_change channel=0 control=64 value=127 time=0.0026041666666666665
note_on channel=0 note=42 velocity=0 time=0.14453125
note_on channel=0 note=49 velocity=80 time=0.009114583333333332
note_on channel=0 note=54 velocity=80 time=0
note_on channel=0 note=49 velocity=0 time=0.14713541666666666
note_on channel=0 note=54 velocity=0 time=0
note_on channel=0 note=42 velocity=80 time=0.009114583333333332
note_on channel=0 note=42 velocity=0 time=0.14713541666666666
note_on channel=0 note=49 velocity=80 time=0.009114583333333332
note_on channel=0 note=54 velocity=80 time=0
note_on channel=0 note=49 velocity=0 time=0.14713541666666666
note_on channel=0 note=54 velocity=0 time=0
note_on channel=0 note=69 velocity=0 time=0.0078125
note_on channel=0 note=73 velocity=0 time=0
note_on channel=0 note=81 velocity=0 time=0
note_on channel=0 note=66 velocity=96 time=0.0013020833333333333
note_on channel=0 note=78 velocity=96 time=0
note_on channel=0 note=42 velocity=80 time=0
note_on channel=0 note=42 velocity=0 time=0.14713541666666666
note_on channel=0 note=66 velocity=0 time=0.0078125
note_on channel=0 note=78 velocity=0 time=0
note_on channel=0 note=73 velocity=96 time=0.0013020833333333333
note_on channel=0 note=85 velocity=96 time=0
note_on channel=0 note=49 velocity=80 time=0
note_on channel=0 note=54 velocity=80 time=0
note_on channel=0 note=49 velocity=0 time=0.14713541666666666
note_on channel=0 note=54 velocity=0 time=0
note_on channel=0 note=42 velocity=80 time=0.009114583333333332
note_on channel=0 note=42 velocity=0 time=0.14713541666666666
note_on channel=0 note=73 velocity=0 time=0.0078125
note_on channel=0 note=85 velocity=0 time=0
note_on channel=0 note=69 velocity=96 time=0.0013020833333333333
note_on channel=0 note=73 velocity=96 time=0
note_on channel=0 note=81 velocity=96 time=0
note_on channel=0 note=49 velocity=80 time=0
note_on channel=0 note=54 velocity=80 time=0
note_on channel=0 note=49 velocity=0 time=0.14713541666666666
note_on channel=0 note=54 velocity=0 time=0
note_on channel=0 note=42 velocity=80 time=0.009114583333333332
control_change channel=0 control=64 value=0 time=0.0013020833333333333
control_change channel=0 control=64 value=127 time=0.0013020833333333333
note_on channel=0 note=42 velocity=0 time=0.14453125
note_on channel=0 note=49 velocity=80 time=0.009114583333333332
note_on channel=0 note=54 velocity=80 time=0
note_on channel=0 note=49 velocity=0 time=0.14713541666666666
note_on channel=0 note=54 velocity=0 time=0
note_on channel=0 note=42 velocity=80 time=0.009114583333333332
note_on channel=0 note=42 velocity=0 time=0.14713541666666666
note_on channel=0 note=49 velocity=80 time=0.009114583333333332
note_on channel=0 note=54 velocity=80 time=0
note_on channel=0 note=69 velocity=0 time=0.11588541666666666
note_on channel=0 note=73 velocity=0 time=0
note_on channel=0 note=81 velocity=0 time=0
note_on channel=0 note=49 velocity=0 time=0.03125
note_on channel=0 note=54 velocity=0 time=0
note_on channel=0 note=66 velocity=96 time=0.009114583333333332
note_on channel=0 note=78 velocity=96 time=0
note_on channel=0 note=42 velocity=80 time=0
note_on channel=0 note=42 velocity=0 time=0.14713541666666666
note_on channel=0 note=66 velocity=0 time=0.0078125
note_on channel=0 note=78 velocity=0 time=0
note_on channel=0 note=68 velocity=96 time=0.0013020833333333333
note_on channel=0 note=80 velocity=96 time=0
note_on channel=0 note=49 velocity=80 time=0
note_on channel=0 note=54 velocity=80 time=0
note_on channel=0 note=49 velocity=0 time=0.14713541666666666
note_on channel=0 note=54 velocity=0 time=0
note_on channel=0 note=42 velocity=80 time=0.009114583333333332
note_on channel=0 note=42 velocity=0 time=0.14713541666666666
note_on channel=0 note=68 velocity=0 time=0.0078125
note_on channel=0 note=80 velocity=0 time=0
note_on channel=0 note=69 velocity=96 time=0.0013020833333333333
note_on channel=0 note=73 velocity=96 time=0
note_on channel=0 note=81 velocity=96 time=0
note_on channel=0 note=49 velocity=80 time=0
note_on channel=0 note=54 velocity=80 time=0
note_on channel=0 note=49 velocity=0 time=0.14713541666666666
note_on channel=0 note=54 velocity=0 time=0
note_on channel=0 note=42 velocity=80 time=0.009114583333333332
control_change channel=0 control=64 value=0 time=0.0013020833333333333
control_change channel=0 control=64 value=127 time=0.0013020833333333333
note_on channel=0 note=42 velocity=0 time=0.14453125
note_on channel=0 note=49 velocity=80 time=0.009114583333333332
note_on channel=0 note=54 velocity=80 time=0
note_on channel=0 note=49 velocity=0 time=0.14713541666666666
note_on channel=0 note=54 velocity=0 time=0
note_on channel=0 note=69 velocity=0 time=0.0078125
note_on channel=0 note=73 velocity=0 time=0
note_on channel=0 note=81 velocity=0 time=0
note_on channel=0 note=66 velocity=96 time=0.0013020833333333333
note_on channel=0 note=78 velocity=96 time=0
note_on channel=0 note=42 velocity=80 time=0
note_on channel=0 note=42 velocity=0 time=0.14713541666666666
note_on channel=0 note=49 velocity=80 time=0.009114583333333332
note_on channel=0 note=54 velocity=80 time=0
note_on channel=0 note=49 velocity=0 time=0.14713541666666666
note_on channel=0 note=54 velocity=0 time=0
note_on channel=0 note=66 velocity=0 time=0.0078125
note_on channel=0 note=78 velocity=0 time=0
note_on channel=0 note=69 velocity=96 time=0.0013020833333333333
note_on channel=0 note=73 velocity=96 time=0
note_on channel=0 note=81 velocity=96 time=0
note_on channel=0 note=42 velocity=80 time=0
note_on channel=0 note=42 velocity=0 time=0.14713541666666666
note_on channel=0 note=69 velocity=0 time=0.0078125
note_on channel=0 note=73 velocity=0 time=0
note_on channel=0 note=81 velocity=0 time=0
note_on channel=0 note=71 velocity=96 time=0.0013020833333333333
note_on channel=0 note=83 velocity=96 time=0
note_on channel=0 note=49 velocity=80 time=0
note_on channel=0 note=54 velocity=80 time=0
note_on channel=0 note=49 velocity=0 time=0.14713541666666666
note_on channel=0 note=54 velocity=0 time=0
note_on channel=0 note=42 velocity=80 time=0.009114583333333332
note_on channel=0 note=42 velocity=0 time=0.14713541666666666
note_on channel=0 note=71 velocity=0 time=0.0078125
note_on channel=0 note=83 velocity=0 time=0
note_on channel=0 note=69 velocity=96 time=0.0013020833333333333
note_on channel=0 note=73 velocity=96 time=0
note_on channel=0 note=81 velocity=96 time=0
note_on channel=0 note=49 velocity=80 time=0
note_on channel=0 note=54 velocity=80 time=0
note_on channel=0 note=49 velocity=0 time=0.14713541666666666
note_on channel=0 note=54 velocity=0 time=0
note_on channel=0 note=42 velocity=80 time=0.009114583333333332
control_change channel=0 control=64 value=0 time=0.0013020833333333333
control_change channel=0 control=64 value=127 time=0.0013020833333333333
note_on channel=0 note=42 velocity=0 time=0.14453125
note_on channel=0 note=49 velocity=80 time=0.009114583333333332
note_on channel=0 note=54 velocity=80 time=0
note_on channel=0 note=49 velocity=0 time=0.14713541666666666
note_on channel=0 note=54 velocity=0 time=0
note_on channel=0 note=69 velocity=0 time=0.0078125
note_on channel=0 note=73 velocity=0 time=0
note_on channel=0 note=81 velocity=0 time=0
note_on channel=0 note=66 velocity=96 time=0.0013020833333333333
note_on channel=0 note=78 velocity=96 time=0
note_on channel=0 note=42 velocity=80 time=0
note_on channel=0 note=42 velocity=0 time=0.14713541666666666
note_on channel=0 note=49 velocity=80 time=0.009114583333333332
note_on channel=0 note=54 velocity=80 time=0
note_on channel=0 note=66 velocity=0 time=0.13932291666666666
note_on channel=0 note=78 velocity=0 time=0
note_on channel=0 note=49 velocity=0 time=0.0078125
note_on channel=0 note=54 velocity=0 time=0
note_on channel=0 note=66 velocity=96 time=0.009114583333333332
note_on channel=0 note=78 velocity=96 time=0
note_on channel=0 note=40 velocity=80 time=0
control_change channel=0 control=64 value=0 time=0.0013020833333333333
control_change channel=0 control=64 value=127 time=0.0013020833333333333
note_on channel=0 note=40 velocity=0 time=0.14453125
note_on channel=0 note=66 velocity=0 time=0.0078125
note_on channel=0 note=78 velocity=0 time=0
note_on channel=0 note=64 velocity=96 time=0.0013020833333333333
note_on channel=0 note=76 velocity=96 time=0
note_on channel=0 note=47 velocity=80 time=0
note_on channel=0 note=52 velocity=80 time=0
note_on channel=0 note=47 velocity=0 time=0.14713541666666666
note_on channel=0 note=52 velocity=0 time=0
note_on channel=0 note=40 velocity=80 time=0.009114583333333332
note_on channel=0 note=40 velocity=0 time=0.14713541666666666
note_on channel=0 note=64 velocity=0 time=0.0078125
note_on channel=0 note=76 velocity=0 time=0
note_on channel=0 note=66 velocity=96 time=0.0013020833333333333
note_on channel=0 note=69 velocity=96 time=0
note_on channel=0 note=78 velocity=96 time=0
note_on channel=0 note=47 velocity=80 time=0
note_on channel=0 note=52 velocity=80 time=0
note_on channel=0 note=47 velocity=0 time=0.14713541666666666
note_on channel=0 note=52 velocity=0 time=0
note_on channel=0 note=38 velocity=80 time=0.009114583333333332
control_change channel=0 control=64 value=0 time=0.0013020833333333333
control_change channel=0 control=64 value=127 time=0.0013020833333333333
note_on channel=0 note=38 velocity=0 time=0.14453125
note_on channel=0 note=45 velocity=80 time=0.009114583333333332
note_on channel=0 note=50 velocity=80 time=0
note_on channel=0 note=45 velocity=0 time=0.14713541666666666
note_on channel=0 note=50 velocity=0 time=0
note_on channel=0 note=38 velocity=80 time=0.009114583333333332
note_on channel=0 note=38 velocity=0 time=0.14713541666666666
note_on channel=0 note=45 velocity=80 time=0.009114583333333332
note_on channel=0 note=50 velocity=80 time=0
note_on channel=0 note=45 velocity=0 time=0.14713541666666666
note_on channel=0 note=50 velocity=0 time=0
note_on channel=0 note=66 velocity=0 time=0.0078125
note_on channel=0 note=69 velocity=0 time=0
note_on channel=0 note=78 velocity=0 time=0
note_on channel=0 note=66 velocity=96 time=0.0013020833333333333
note_on channel=0 note=78 velocity=96 time=0
note_on channel=0 note=38 velocity=80 time=0
note_on channel=0 note=38 velocity=0 time=0.14713541666666666
note_on channel=0 note=66 velocity=0 time=0.0078125
note_on channel=0 note=78 velocity=0 time=0
note_on channel=0 note=64 velocity=96 time=0.0013020833333333333
note_on channel=0 note=76 velocity=96 time=0
note_on channel=0 note=45 velocity=80 time=0
note_on channel=0 note=50 velocity=80 time=0
note_on channel=0 note=45 velocity=0 time=0.14713541666666666
note_on channel=0 note=50 velocity=0 time=0
note_on channel=0 note=38 velocity=80 time=0.009114583333333332
note_on channel=0 note=38 velocity=0 time=0.14713541666666666
note_on channel=0 note=64 velocity=0 time=0.0078125
note_on channel=0 note=76 velocity=0 time=0
note_on channel=0 note=66 velocity=96 time=0.0013020833333333333
note_on channel=0 note=69 velocity=96 time=0
note_on channel=0 note=78 velocity=96 time=0
note_on channel=0 note=45 velocity=80 time=0
note_on channel=0 note=50 velocity=80 time=0
note_on channel=0 note=45 velocity=0 time=0.14713541666666666
note_on channel=0 note=50 velocity=0 time=0
note_on channel=0 note=38 velocity=80 time=0.009114583333333332
control_change channel=0 control=64 value=0 time=0.0013020833333333333
control_change channel=0 control=64 value=127 time=0.0013020833333333333
note_on channel=0 note=38 velocity=0 time=0.14453125
note_on channel=0 note=45 velocity=80 time=0.009114583333333332
note_on channel=0 note=50 velocity=80 time=0
note_on channel=0 note=45 velocity=0 time=0.14713541666666666
note_on channel=0 note=50 velocity=0 time=0
note_on channel=0 note=38 velocity=80 time=0.009114583333333332
note_on channel=0 note=38 velocity=0 time=0.14713541666666666
note_on channel=0 note=45 velocity=80 time=0.009114583333333332
note_on channel=0 note=50 velocity=80 time=0
note_on channel=0 note=66 velocity=0 time=0.11588541666666666
note_on channel=0 note=69 velocity=0 time=0
note_on channel=0 note=78 velocity=0 time=0
note_on channel=0 note=45 velocity=0 time=0.03125
note_on channel=0 note=50 velocity=0 time=0
note_on channel=0 note=66 velocity=96 time=0.009114583333333332
note_on channel=0 note=69 velocity=96 time=0
note_on channel=0 note=78 velocity=96 time=0
note_on channel=0 note=38 velocity=80 time=0
note_on channel=0 note=38 velocity=0 time=0.14713541666666666
note_on channel=0 note=66 velocity=0 time=0.0078125
note_on channel=0 note=69 velocity=0 time=0
note_on channel=0 note=78 velocity=0 time=0
note_on channel=0 note=64 velocity=96 time=0.0013020833333333333
note_on channel=0 note=76 velocity=96 time=0
note_on channel=0 note=45 velocity=80 time=0
note_on channel=0 note=50 velocity=80 time=0
note_on channel=0 note=45 velocity=0 time=0.14713541666666666
note_on channel=0 note=50 velocity=0 time=0
note_on channel=0 note=38 velocity=80 time=0.009114583333333332
note_on channel=0 note=38 velocity=0 time=0.14713541666666666
note_on channel=0 note=64 velocity=0 time=0.0078125
note_on channel=0 note=76 velocity=0 time=0
note_on channel=0 note=66 velocity=96 time=0.0013020833333333333
note_on channel=0 note=69 velocity=96 time=0
note_on channel=0 note=78 velocity=96 time=0
note_on channel=0 note=45 velocity=80 time=0
note_on channel=0 note=50 velocity=80 time=0
note_on channel=0 note=45 velocity=0 time=0.14713541666666666
note_on channel=0 note=50 velocity=0 time=0
note_on channel=0 note=38 velocity=80 time=0.009114583333333332
control_change channel=0 control=64 value=0 time=0.0013020833333333333
control_change channel=0 control=64 value=127 time=0.0013020833333333333
note_on channel=0 note=38 velocity=0 time=0.14453125
note_on channel=0 note=45 velocity=80 time=0.009114583333333332
note_on channel=0 note=50 velocity=80 time=0
note_on channel=0 note=45 velocity=0 time=0.14713541666666666
note_on channel=0 note=50 velocity=0 time=0
note_on channel=0 note=38 velocity=80 time=0.009114583333333332
note_on channel=0 note=38 velocity=0 time=0.14713541666666666
note_on channel=0 note=45 velocity=80 time=0.009114583333333332
note_on channel=0 note=50 velocity=80 time=0
note_on channel=0 note=45 velocity=0 time=0.14713541666666666
note_on channel=0 note=50 velocity=0 time=0
note_on channel=0 note=66 velocity=0 time=0.0078125
note_on channel=0 note=69 velocity=0 time=0
note_on channel=0 note=78 velocity=0 time=0
note_on channel=0 note=69 velocity=96 time=0.0013020833333333333
note_on channel=0 note=81 velocity=96 time=0
note_on channel=0 note=38 velocity=96 time=0
note_on channel=0 note=38 velocity=0 time=0.14713541666666666
note_on channel=0 note=45 velocity=97 time=0.009114583333333332
note_on channel=0 note=50 velocity=97 time=0
note_on channel=0 note=45 velocity=0 time=0.14713541666666666
note_on channel=0 note=50 velocity=0 time=0
note_on channel=0 note=38 velocity=98 time=0.009114583333333332
note_on channel=0 note=38 velocity=0 time=0.14713541666666666
note_on channel=0 note=45 velocity=100 time=0.009114583333333332
note_on channel=0 note=50 velocity=100 time=0
note_on channel=0 note=45 velocity=0 time=0.14713541666666666
note_on channel=0 note=50 velocity=0 time=0
note_on channel=0 note=69 velocity=0 time=0.0078125
note_on channel=0 note=81 velocity=0 time=0
note_on channel=0 note=69 velocity=101 time=0.0013020833333333333
note_on channel=0 note=76 velocity=101 time=0
note_on channel=0 note=81 velocity=101 time=0
note_on channel=0 note=40 velocity=101 time=0
control_change channel=0 control=64 value=0 time=0.0013020833333333333
control_change channel=0 control=64 value=127 time=0.0013020833333333333
note_on channel=0 note=40 velocity=0 time=0.14453125
note_on channel=0 note=47 velocity=102 time=0.009114583333333332
note_on channel=0 note=52 velocity=102 time=0
note_on channel=0 note=47 velocity=0 time=0.14713541666666666
note_on channel=0 note=52 velocity=0 time=0
note_on channel=0 note=40 velocity=104 time=0.009114583333333332
note_on channel=0 note=40 velocity=0 time=0.14713541666666666
note_on channel=0 note=47 velocity=105 time=0.009114583333333332
note_on channel=0 note=52 velocity=105 time=0
note_on channel=0 note=47 velocity=0 time=0.14713541666666666
note_on channel=0 note=52 velocity=0 time=0
note_on channel=0 note=69 velocity=0 time=0.0078125
note_on channel=0 note=76 velocity=0 time=0
note_on channel=0 note=81 velocity=0 time=0
note_on channel=0 note=71 velocity=106 time=0.0013020833333333333
note_on channel=0 note=76 velocity=106 time=0
note_on channel=0 note=80 velocity=106 time=0
note_on channel=0 note=83 velocity=106 time=0
note_on channel=0 note=28 velocity=106 time=0
control_change channel=0 control=64 value=0 time=0.0013020833333333333
control_change channel=0 control=64 value=127 time=0.0013020833333333333
note_on channel=0 note=28 velocity=0 time=0.14453125
note_on channel=0 note=40 velocity=108 time=0.009114583333333332
note_on channel=0 note=40 velocity=0 time=0.14713541666666666
note_on channel=0 note=71 velocity=0 time=0.0078125
note_on channel=0 note=76 velocity=0 time=0
note_on channel=0 note=80 velocity=0 time=0
note_on channel=0 note=83 velocity=0 time=0
note_on channel=0 note=73 velocity=109 time=0.0013020833333333333
note_on channel=0 note=85 velocity=109 time=0
note_on channel=0 note=28 velocity=109 time=0
note_on channel=0 note=28 velocity=0 time=0.07291666666666666
note_on channel=0 note=40 velocity=110 time=0.005208333333333333
note_on channel=0 note=40 velocity=0 time=0.07291666666666666
note_on channel=0 note=28 velocity=110 time=0.005208333333333333
note_on channel=0 note=28 velocity=0 time=0.07291666666666666
note_on channel=0 note=40 velocity=111 time=0.005208333333333333
note_on channel=0 note=73 velocity=0 time=0.061197916666666664
note_on channel=0 note=85 velocity=0 time=0
note_on channel=0 note=40 velocity=0 time=0.01171875
note_on channel=0 note=69 velocity=127 time=0.005208333333333333
note_on channel=0 note=73 velocity=127 time=0
note_on channel=0 note=81 velocity=127 time=0
note_on channel=0 note=30 velocity=96 time=0
note_on channel=0 note=42 velocity=96 time=0
control_change channel=0 control=64 value=0 time=0.0013020833333333333
control_change channel=0 control=64 value=127 time=0.0013020833333333333
note_on channel=0 note=69 velocity=0 time=0.15234375
note_on channel=0 note=73 velocity=0 time=0
note_on channel=0 note=81 velocity=0 time=0
note_on channel=0 note=68 velocity=112 time=0.0013020833333333333
note_on channel=0 note=80 velocity=112 time=0
note_on channel=0 note=30 velocity=0 time=0.13932291666666666
note_on channel=0 note=42 velocity=0 time=0
note_on channel=0 note=68 velocity=0 time=0.015625
note_on channel=0 note=80 velocity=0 time=0
note_on channel=0 note=64 velocity=112 time=0.0013020833333333333
note_on channel=0 note=76 velocity=112 time=0
note_on channel=0 note=42 velocity=96 time=0
note_on channel=0 note=42 velocity=0 time=0.14713541666666666
note_on channel=0 note=64 velocity=0 time=0.0078125
note_on channel=0 note=76 velocity=0 time=0
note_on channel=0 note=61 velocity=112 time=0.0013020833333333333
note_on channel=0 note=73 velocity=112 time=0
note_on channel=0 note=49 velocity=96 time=0
note_on channel=0 note=54 velocity=96 time=0
note_on channel=0 note=49 velocity=0 time=0.14713541666666666
note_on channel=0 note=54 velocity=0 time=0
note_on channel=0 note=61 velocity=0 time=0.0078125
note_on channel=0 note=73 velocity=0 time=0
note_on channel=0 note=64 velocity=112 time=0.0013020833333333333
note_on channel=0 note=76 velocity=112 time=0
note_on channel=0 note=42 velocity=96 time=0
note_on channel=0 note=42 velocity=0 time=0.14713541666666666
note_on channel=0 note=64 velocity=0 time=0.0078125
note_on channel=0 note=76 velocity=0 time=0
note_on channel=0 note=66 velocity=112 time=0.0013020833333333333
note_on channel=0 note=78 velocity=112 time=0
note_on channel=0 note=49 velocity=96 time=0
note_on channel=0 note=54 velocity=96 time=0
note_on channel=0 note=49 velocity=0 time=0.14713541666666666
note_on channel=0 note=54 velocity=0 time=0
note_on channel=0 note=66 velocity=0 time=0.0078125
note_on channel=0 note=78 velocity=0 time=0
note_on channel=0 note=69 velocity=127 time=0.0013020833333333333
note_on channel=0 note=81 velocity=127 time=0
note_on channel=0 note=42 velocity=96 time=0
note_on channel=0 note=42 velocity=0 time=0.14713541666666666
note_on channel=0 note=69 velocity=0 time=0.0078125
note_on channel=0 note=81 velocity=0 time=0
note_on channel=0 note=68 velocity=112 time=0.0013020833333333333
note_on channel=0 note=80 velocity=112 time=0
note_on channel=0 note=49 velocity=96 time=0
note_on channel=0 note=54 velocity=96 time=0
note_on channel=0 note=49 velocity=0 time=0.14713541666666666
note_on channel=0 note=54 velocity=0 time=0
note_on channel=0 note=68 velocity=0 time=0.0078125
note_on channel=0 note=80 velocity=0 time=0
note_on channel=0 note=64 velocity=112 time=0.0013020833333333333
note_on channel=0 note=76 velocity=112 time=0
note_on channel=0 note=42 velocity=96 time=0
control_change channel=0 control=64 value=0 time=0.0013020833333333333
control_change channel=0 control=64 value=127 time=0.0013020833333333333
note_on channel=0 note=42 velocity=0 time=0.14453125
note_on channel=0 note=64 velocity=0 time=0.0078125
note_on channel=0 note=76 velocity=0 time=0
note_on channel=0 note=71 velocity=127 time=0.0013020833333333333
note_on channel=0 note=83 velocity=127 time=0
note_on channel=0 note=49 velocity=96 time=0
note_on channel=0 note=54 velocity=96 time=0
note_on channel=0 note=49 velocity=0 time=0.14713541666666666
note_on channel=0 note=54 velocity=0 time=0
note_on channel=0 note=71 velocity=0 time=0.0078125
note_on channel=0 note=83 velocity=0 time=0
note_on channel=0 note=69 velocity=112 time=0.0013020833333333333
note_on channel=0 note=81 velocity=112 time=0
note_on channel=0 note=42 velocity=96 time=0
note_on channel=0 note=42 velocity=0 time=0.14713541666666666
note_on channel=0 note=69 velocity=0 time=0.0078125
note_on channel=0 note=81 velocity=0 time=0
note_on channel=0 note=68 velocity=112 time=0.0013020833333333333
note_on channel=0 note=80 velocity=112 time=0
note_on channel=0 note=49 velocity=96 time=0
note_on channel=0 note=54 velocity=96 time=0
note_on channel=0 note=49 velocity=0 time=0.14713541666666666
note_on channel=0 note=54 velocity=0 time=0
note_on channel=0 note=68 velocity=0 time=0.0078125
note_on channel=0 note=80 velocity=0 time=0
note_on channel=0 note=69 velocity=127 time=0.0013020833333333333
note_on channel=0 note=81 velocity=127 time=0
note_on channel=0 note=42 velocity=96 time=0
note_on channel=0 note=42 velocity=0 time=0.14713541666666666
note_on channel=0 note=69 velocity=0 time=0.0078125
note_on channel=0 note=81 velocity=0 time=0
note_on channel=0 note=68 velocity=112 time=0.0013020833333333333
note_on channel=0 note=80 velocity=112 time=0
note_on channel=0 note=49 velocity=96 time=0
note_on channel=0 note=54 velocity=96 time=0
note_on channel=0 note=49 velocity=0 time=0.14713541666666666
note_on channel=0 note=54 velocity=0 time=0
note_on channel=0 note=68 velocity=0 time=0.0078125
note_on channel=0 note=80 velocity=0 time=0
note_on channel=0 note=64 velocity=112 time=0.0013020833333333333
note_on channel=0 note=76 velocity=112 time=0
note_on channel=0 note=42 velocity=96 time=0
note_on channel=0 note=42 velocity=0 time=0.14713541666666666
note_on channel=0 note=64 velocity=0 time=0.0078125
note_on channel=0 note=76 velocity=0 time=0
note_on channel=0 note=66 velocity=112 time=0.0013020833333333333
note_on channel=0 note=78 velocity=112 time=0
note_on channel=0 note=49 velocity=96 time=0
note_on channel=0 note=54 velocity=96 time=0
note_on channel=0 note=66 velocity=0 time=0.14713541666666666
note_on channel=0 note=78 velocity=0 time=0
note_on channel=0 note=49 velocity=0 time=0
note_on channel=0 note=54 velocity=0 time=0
note_on channel=0 note=69 velocity=127 time=0.009114583333333332
note_on channel=0 note=81 velocity=127 time=0
note_on channel=0 note=42 velocity=96 time=0
control_change channel=0 control=64 value=0 time=0.0013020833333333333
control_change channel=0 control=64 value=127 time=0.0013020833333333333
note_on channel=0 note=42 velocity=0 time=0.14453125
note_on channel=0 note=69 velocity=0 time=0.0078125
note_on channel=0 note=81 velocity=0 time=0
note_on channel=0 note=68 velocity=112 time=0.0013020833333333333
note_on channel=0 note=80 velocity=112 time=0
note_on channel=0 note=49 velocity=96 time=0
note_on channel=0 note=54 velocity=96 time=0
note_on channel=0 note=49 velocity=0 time=0.14713541666666666
note_on channel=0 note=54 velocity=0 time=0
note_on channel=0 note=68 velocity=0 time=0.0078125
note_on channel=0 note=80 velocity=0 time=0
note_on channel=0 note=64 velocity=112 time=0.0013020833333333333
note_on channel=0 note=76 velocity=112 time=0
note_on channel=0 note=42 velocity=96 time=0
note_on channel=0 note=42 velocity=0 time=0.14713541666666666
note_on channel=0 note=64 velocity=0 time=0.0078125
note_on channel=0 note=76 velocity=0 time=0
note_on channel=0 note=61 velocity=112 time=0.0013020833333333333
note_on channel=0 note=73 velocity=112 time=0
note_on channel=0 note=49 velocity=96 time=0
note_on channel=0 note=54 velocity=96 time=0
note_on channel=0 note=49 velocity=0 time=0.14713541666666666
note_on channel=0 note=54 velocity=0 time=0
note_on channel=0 note=61 velocity=0 time=0.0078125
note_on channel=0 note=73 velocity=0 time=0
note_on channel=0 note=64 velocity=112 time=0.0013020833333333333
note_on channel=0 note=76 velocity=112 time=0
note_on channel=0 note=42 velocity=96 time=0
note_on channel=0 note=42 velocity=0 time=0.14713541666666666
note_on channel=0 note=64 velocity=0 time=0.0078125
note_on channel=0 note=76 velocity=0 time=0
note_on channel=0 note=66 velocity=112 time=0.0013020833333333333
note_on channel=0 note=78 velocity=112 time=0
note_on channel=0 note=49 velocity=96 time=0
note_on channel=0 note=54 velocity=96 time=0
note_on channel=0 note=49 velocity=0 time=0.14713541666666666
note_on channel=0 note=54 velocity=0 time=0
note_on channel=0 note=66 velocity=0 time=0.0078125
note_on channel=0 note=78 velocity=0 time=0
note_on channel=0 note=69 velocity=127 time=0.0013020833333333333
note_on channel=0 note=81 velocity=127 time=0
note_on channel=0 note=42 velocity=96 time=0
note_on channel=0 note=42 velocity=0 time=0.14713541666666666
note_on channel=0 note=69 velocity=0 time=0.0078125
note_on channel=0 note=81 velocity=0 time=0
note_on channel=0 note=68 velocity=112 time=0.0013020833333333333
note_on channel=0 note=80 velocity=112 time=0
note_on channel=0 note=49 velocity=96 time=0
note_on channel=0 note=54 velocity=96 time=0
note_on channel=0 note=49 velocity=0 time=0.14713541666666666
note_on channel=0 note=54 velocity=0 time=0
note_on channel=0 note=68 velocity=0 time=0.0078125
note_on channel=0 note=80 velocity=0 time=0
note_on channel=0 note=64 velocity=112 time=0.0013020833333333333
note_on channel=0 note=76 velocity=112 time=0
note_on channel=0 note=42 velocity=96 time=0
control_change channel=0 control=64 value=0 time=0.0013020833333333333
control_change channel=0 control=64 value=127 time=0.0013020833333333333
note_on channel=0 note=42 velocity=0 time=0.14453125
note_on channel=0 note=64 velocity=0 time=0.0078125
note_on channel=0 note=76 velocity=0 time=0
note_on channel=0 note=71 velocity=127 time=0.0013020833333333333
note_on channel=0 note=83 velocity=127 time=0
note_on channel=0 note=49 velocity=96 time=0
note_on channel=0 note=54 velocity=96 time=0
note_on channel=0 note=49 velocity=0 time=0.14713541666666666
note_on channel=0 note=54 velocity=0 time=0
note_on channel=0 note=71 velocity=0 time=0.0078125
note_on channel=0 note=83 velocity=0 time=0
note_on channel=0 note=69 velocity=112 time=0.0013020833333333333
note_on channel=0 note=81 velocity=112 time=0
note_on channel=0 note=42 velocity=96 time=0
note_on channel=0 note=42 velocity=0 time=0.14713541666666666
note_on channel=0 note=69 velocity=0 time=0.0078125
note_on channel=0 note=81 velocity=0 time=0
note_on channel=0 note=68 velocity=112 time=0.0013020833333333333
note_on channel=0 note=80 velocity=112 time=0
note_on channel=0 note=49 velocity=96 time=0
note_on channel=0 note=54 velocity=96 time=0
note_on channel=0 note=49 velocity=0 time=0.14713541666666666
note_on channel=0 note=54 velocity=0 time=0
note_on channel=0 note=68 velocity=0 time=0.0078125
note_on channel=0 note=80 velocity=0 time=0
note_on channel=0 note=69 velocity=127 time=0.0013020833333333333
note_on channel=0 note=81 velocity=127 time=0
note_on channel=0 note=42 velocity=96 time=0
note_on channel=0 note=42 velocity=0 time=0.14713541666666666
note_on channel=0 note=69 velocity=0 time=0.0078125
note_on channel=0 note=81 velocity=0 time=0
note_on channel=0 note=68 velocity=112 time=0.0013020833333333333
note_on channel=0 note=80 velocity=112 time=0
note_on channel=0 note=49 velocity=96 time=0
note_on channel=0 note=54 velocity=96 time=0
note_on channel=0 note=49 velocity=0 time=0.14713541666666666
note_on channel=0 note=54 velocity=0 time=0
note_on channel=0 note=68 velocity=0 time=0.0078125
note_on channel=0 note=80 velocity=0 time=0
note_on channel=0 note=64 velocity=112 time=0.0013020833333333333
note_on channel=0 note=76 velocity=112 time=0
note_on channel=0 note=40 velocity=96 time=0
control_change channel=0 control=64 value=0 time=0.0013020833333333333
control_change channel=0 control=64 value=127 time=0.0013020833333333333
note_on channel=0 note=40 velocity=0 time=0.14453125
note_on channel=0 note=64 velocity=0 time=0.0078125
note_on channel=0 note=76 velocity=0 time=0
note_on channel=0 note=66 velocity=112 time=0.0013020833333333333
note_on channel=0 note=78 velocity=112 time=0
note_on channel=0 note=47 velocity=96 time=0
note_on channel=0 note=52 velocity=96 time=0
note_on channel=0 note=66 velocity=0 time=0.14713541666666666
note_on channel=0 note=78 velocity=0 time=0
note_on channel=0 note=47 velocity=0 time=0
note_on channel=0 note=52 velocity=0 time=0
note_on channel=0 note=69 velocity=127 time=0.009114583333333332
note_on channel=0 note=81 velocity=127 time=0
note_on channel=0 note=38 velocity=96 time=0
control_change channel=0 control=64 value=0 time=0.0013020833333333333
control_change channel=0 control=64 value=127 time=0.0013020833333333333
note_on channel=0 note=38 velocity=0 time=0.14453125
note_on channel=0 note=69 velocity=0 time=0.0078125
note_on channel=0 note=81 velocity=0 time=0
note_on channel=0 note=68 velocity=112 time=0.0013020833333333333
note_on channel=0 note=80 velocity=112 time=0
note_on channel=0 note=45 velocity=96 time=0
note_on channel=0 note=50 velocity=96 time=0
note_on channel=0 note=45 velocity=0 time=0.14713541666666666
note_on channel=0 note=50 velocity=0 time=0
note_on channel=0 note=68 velocity=0 time=0.0078125
note_on channel=0 note=80 velocity=0 time=0
note_on channel=0 note=64 velocity=112 time=0.0013020833333333333
note_on channel=0 note=76 velocity=112 time=0
note_on channel=0 note=38 velocity=96 time=0
note_on channel=0 note=38 velocity=0 time=0.14713541666666666
note_on channel=0 note=64 velocity=0 time=0.0078125
note_on channel=0 note=76 velocity=0 time=0
note_on channel=0 note=61 velocity=112 time=0.0013020833333333333
note_on channel=0 note=73 velocity=112 time=0
note_on channel=0 note=45 velocity=96 time=0
note_on channel=0 note=50 velocity=96 time=0
note_on channel=0 note=45 velocity=0 time=0.14713541666666666
note_on channel=0 note=50 velocity=0 time=0
note_on channel=0 note=61 velocity=0 time=0.0078125
note_on channel=0 note=73 velocity=0 time=0
note_on channel=0 note=64 velocity=112 time=0.0013020833333333333
note_on channel=0 note=76 velocity=112 time=0
note_on channel=0 note=38 velocity=96 time=0
note_on channel=0 note=38 velocity=0 time=0.14713541666666666
note_on channel=0 note=64 velocity=0 time=0.0078125
note_on channel=0 note=76 velocity=0 time=0
note_on channel=0 note=66 velocity=112 time=0.0013020833333333333
note_on channel=0 note=78 velocity=112 time=0
note_on channel=0 note=45 velocity=96 time=0
note_on channel=0 note=50 velocity=96 time=0
note_on channel=0 note=45 velocity=0 time=0.14713541666666666
note_on channel=0 note=50 velocity=0 time=0
note_on channel=0 note=66 velocity=0 time=0.0078125
note_on channel=0 note=78 velocity=0 time=0
note_on channel=0 note=69 velocity=127 time=0.0013020833333333333
note_on channel=0 note=81 velocity=127 time=0
note_on channel=0 note=38 velocity=96 time=0
note_on channel=0 note=38 velocity=0 time=0.14713541666666666
note_on channel=0 note=69 velocity=0 time=0.0078125
note_on channel=0 note=81 velocity=0 time=0
note_on channel=0 note=68 velocity=112 time=0.0013020833333333333
note_on channel=0 note=80 velocity=112 time=0
note_on channel=0 note=45 velocity=96 time=0
note_on channel=0 note=50 velocity=96 time=0
note_on channel=0 note=45 velocity=0 time=0.14713541666666666
note_on channel=0 note=50 velocity=0 time=0
note_on channel=0 note=68 velocity=0 time=0.0078125
note_on channel=0 note=80 velocity=0 time=0
note_on channel=0 note=64 velocity=112 time=0.0013020833333333333
note_on channel=0 note=76 velocity=112 time=0
note_on channel=0 note=38 velocity=96 time=0
control_change channel=0 control=64 value=0 time=0.0013020833333333333
control_change channel=0 control=64 value=127 time=0.0013020833333333333
note_on channel=0 note=38 velocity=0 time=0.14453125
note_on channel=0 note=64 velocity=0 time=0.0078125
note_on channel=0 note=76 velocity=0 time=0
note_on channel=0 note=71 velocity=127 time=0.0013020833333333333
note_on channel=0 note=83 velocity=127 time=0
note_on channel=0 note=45 velocity=96 time=0
note_on channel=0 note=50 velocity=96 time=0
note_on channel=0 note=45 velocity=0 time=0.14713541666666666
note_on channel=0 note=50 velocity=0 time=0
note_on channel=0 note=71 velocity=0 time=0.0078125
note_on channel=0 note=83 velocity=0 time=0
note_on channel=0 note=69 velocity=112 time=0.0013020833333333333
note_on channel=0 note=81 velocity=112 time=0
note_on channel=0 note=38 velocity=96 time=0
note_on channel=0 note=38 velocity=0 time=0.14713541666666666
note_on channel=0 note=69 velocity=0 time=0.0078125
note_on channel=0 note=81 velocity=0 time=0
note_on channel=0 note=68 velocity=112 time=0.0013020833333333333
note_on channel=0 note=80 velocity=112 time=0
note_on channel=0 note=45 velocity=96 time=0
note_on channel=0 note=50 velocity=96 time=0
note_on channel=0 note=45 velocity=0 time=0.14713541666666666
note_on channel=0 note=50 velocity=0 time=0
note_on channel=0 note=68 velocity=0 time=0.0078125
note_on channel=0 note=80 velocity=0 time=0
note_on channel=0 note=69 velocity=127 time=0.0013020833333333333
note_on channel=0 note=81 velocity=127 time=0
note_on channel=0 note=38 velocity=96 time=0
note_on channel=0 note=38 velocity=0 time=0.14713541666666666
note_on channel=0 note=69 velocity=0 time=0.0078125
note_on channel=0 note=81 velocity=0 time=0
note_on channel=0 note=68 velocity=112 time=0.0013020833333333333
note_on channel=0 note=80 velocity=112 time=0
note_on channel=0 note=45 velocity=96 time=0
note_on channel=0 note=50 velocity=96 time=0
note_on channel=0 note=45 velocity=0 time=0.14713541666666666
note_on channel=0 note=50 velocity=0 time=0
note_on channel=0 note=68 velocity=0 time=0.0078125
note_on channel=0 note=80 velocity=0 time=0
note_on channel=0 note=64 velocity=112 time=0.0013020833333333333
note_on channel=0 note=76 velocity=112 time=0
note_on channel=0 note=38 velocity=96 time=0
note_on channel=0 note=38 velocity=0 time=0.14713541666666666
note_on channel=0 note=64 velocity=0 time=0.0078125
note_on channel=0 note=76 velocity=0 time=0
note_on channel=0 note=66 velocity=112 time=0.0013020833333333333
note_on channel=0 note=78 velocity=112 time=0
note_on channel=0 note=45 velocity=96 time=0
note_on channel=0 note=50 velocity=96 time=0
note_on channel=0 note=66 velocity=0 time=0.14713541666666666
note_on channel=0 note=78 velocity=0 time=0
note_on channel=0 note=45 velocity=0 time=0
note_on channel=0 note=50 velocity=0 time=0
<meta message time_signature numerator=3 denominator=4 clocks_per_click=24 notated_32nd_notes_per_beat=8 time=0.009114583333333332>
note_on channel=0 note=69 velocity=127 time=0
note_on channel=0 note=81 velocity=127 time=0
note_on channel=0 note=40 velocity=96 time=0
control_change channel=0 control=64 value=0 time=0.0013020833333333333
control_change channel=0 control=64 value=127 time=0.0013020833333333333
note_on channel=0 note=40 velocity=0 time=0.14453125
note_on channel=0 note=69 velocity=0 time=0.0078125
note_on channel=0 note=81 velocity=0 time=0
note_on channel=0 note=68 velocity=112 time=0.0013020833333333333
note_on channel=0 note=80 velocity=112 time=0
note_on channel=0 note=47 velocity=96 time=0
note_on channel=0 note=52 velocity=96 time=0
note_on channel=0 note=47 velocity=0 time=0.14713541666666666
note_on channel=0 note=52 velocity=0 time=0
note_on channel=0 note=68 velocity=0 time=0.0078125
note_on channel=0 note=80 velocity=0 time=0
note_on channel=0 note=64 velocity=112 time=0.0013020833333333333
note_on channel=0 note=76 velocity=112 time=0
note_on channel=0 note=40 velocity=96 time=0
note_on channel=0 note=40 velocity=0 time=0.14713541666666666
note_on channel=0 note=64 velocity=0 time=0.0078125
note_on channel=0 note=76 velocity=0 time=0
note_on channel=0 note=61 velocity=112 time=0.0013020833333333333
note_on channel=0 note=73 velocity=112 time=0
note_on channel=0 note=47 velocity=96 time=0
note_on channel=0 note=52 velocity=96 time=0
note_on channel=0 note=47 velocity=0 time=0.14713541666666666
note_on channel=0 note=52 velocity=0 time=0
note_on channel=0 note=61 velocity=0 time=0.0078125
note_on channel=0 note=73 velocity=0 time=0
note_on channel=0 note=64 velocity=112 time=0.0013020833333333333
note_on channel=0 note=76 velocity=112 time=0
note_on channel=0 note=40 velocity=96 time=0
note_on channel=0 note=40 velocity=0 time=0.14713541666666666
note_on channel=0 note=64 velocity=0 time=0.0078125
note_on channel=0 note=76 velocity=0 time=0
note_on channel=0 note=66 velocity=112 time=0.0013020833333333333
note_on channel=0 note=78 velocity=112 time=0
note_on channel=0 note=47 velocity=96 time=0
note_on channel=0 note=52 velocity=96 time=0
note_on channel=0 note=47 velocity=0 time=0.14713541666666666
note_on channel=0 note=52 velocity=0 time=0
note_on channel=0 note=66 velocity=0 time=0.0078125
note_on channel=0 note=78 velocity=0 time=0
note_on channel=0 note=69 velocity=127 time=0.0013020833333333333
note_on channel=0 note=81 velocity=127 time=0
note_on channel=0 note=40 velocity=96 time=0
note_on channel=0 note=40 velocity=0 time=0.14713541666666666
note_on channel=0 note=69 velocity=0 time=0.0078125
note_on channel=0 note=81 velocity=0 time=0
note_on channel=0 note=68 velocity=112 time=0.0013020833333333333
note_on channel=0 note=80 velocity=112 time=0
note_on channel=0 note=47 velocity=96 time=0
note_on channel=0 note=52 velocity=96 time=0
note_on channel=0 note=47 velocity=0 time=0.14713541666666666
note_on channel=0 note=52 velocity=0 time=0
note_on channel=0 note=68 velocity=0 time=0.0078125
note_on channel=0 note=80 velocity=0 time=0
note_on channel=0 note=64 velocity=112 time=0.0013020833333333333
note_on channel=0 note=76 velocity=112 time=0
note_on channel=0 note=40 velocity=96 time=0
control_change channel=0 control=64 value=0 time=0.0013020833333333333
control_change channel=0 control=64 value=127 time=0.0013020833333333333
note_on channel=0 note=40 velocity=0 time=0.14453125
note_on channel=0 note=64 velocity=0 time=0.0078125
note_on channel=0 note=76 velocity=0 time=0
note_on channel=0 note=71 velocity=127 time=0.0013020833333333333
note_on channel=0 note=83 velocity=127 time=0
note_on channel=0 note=47 velocity=96 time=0
note_on channel=0 note=52 velocity=96 time=0
note_on channel=0 note=47 velocity=0 time=0.14713541666666666
note_on channel=0 note=52 velocity=0 time=0
note_on channel=0 note=71 velocity=0 time=0.0078125
note_on channel=0 note=83 velocity=0 time=0
note_on channel=0 note=69 velocity=112 time=0.0013020833333333333
note_on channel=0 note=81 velocity=112 time=0
note_on channel=0 note=40 velocity=96 time=0
note_on channel=0 note=47 velocity=96 time=0
note_on channel=0 note=52 velocity=96 time=0
note_on channel=0 note=69 velocity=0 time=0.29557291666666663
note_on channel=0 note=81 velocity=0 time=0
note_on channel=0 note=40 velocity=0 time=0
note_on channel=0 note=47 velocity=0 time=0
note_on channel=0 note=52 velocity=0 time=0
<meta message time_signature numerator=3 denominator=8 clocks_per_click=24 notated_32nd_notes_per_beat=8 time=0.016927083333333332>
note_on channel=0 note=66 velocity=112 time=0
note_on channel=0 note=78 velocity=112 time=0
control_change channel=0 control=64 value=0 time=0.0013020833333333333
control_change channel=0 control=64 value=127 time=0.0013020833333333333
note_on channel=0 note=66 velocity=0 time=0.30859375
note_on channel=0 note=78 velocity=0 time=0
note_on channel=0 note=66 velocity=106 time=0.0013020833333333333
note_on channel=0 note=78 velocity=106 time=0
note_on channel=0 note=66 velocity=0 time=0.15494791666666666
note_on channel=0 note=78 velocity=0 time=0
note_on channel=0 note=68 velocity=103 time=0.0013020833333333333
note_on channel=0 note=80 velocity=103 time=0
note_on channel=0 note=68 velocity=0 time=0.31119791666666663
note_on channel=0 note=80 velocity=0 time=0
note_on channel=0 note=69 velocity=96 time=0.0013020833333333333
note_on channel=0 note=73 velocity=96 time=0
note_on channel=0 note=78 velocity=96 time=0
note_on channel=0 note=81 velocity=96 time=0
<meta message time_signature numerator=4 denominator=4 clocks_per_click=24 notated_32nd_notes_per_beat=8 time=0.15625>
note_on channel=0 note=30 velocity=115 time=0
note_on channel=0 note=42 velocity=115 time=0
control_change channel=0 control=64 value=0 time=0.0013020833333333333
control_change channel=0 control=64 value=127 time=0.0013020833333333333
note_on channel=0 note=69 velocity=0 time=0.30859375
note_on channel=0 note=73 velocity=0 time=0
note_on channel=0 note=78 velocity=0 time=0
note_on channel=0 note=81 velocity=0 time=0
note_on channel=0 note=30 velocity=0 time=0
note_on channel=0 note=42 velocity=0 time=0
note_on channel=0 note=68 velocity=96 time=0.0013020833333333333
note_on channel=0 note=80 velocity=96 time=0
note_on channel=0 note=42 velocity=80 time=0
note_on channel=0 note=42 velocity=0 time=0.14713541666666666
note_on channel=0 note=49 velocity=80 time=0.009114583333333332
note_on channel=0 note=54 velocity=80 time=0
note_on channel=0 note=49 velocity=0 time=0.14713541666666666
note_on channel=0 note=54 velocity=0 time=0
note_on channel=0 note=68 velocity=0 time=0.0078125
note_on channel=0 note=80 velocity=0 time=0
note_on channel=0 note=66 velocity=96 time=0.0013020833333333333
note_on channel=0 note=78 velocity=96 time=0
note_on channel=0 note=42 velocity=80 time=0
note_on channel=0 note=42 velocity=0 time=0.14713541666666666
note_on channel=0 note=66 velocity=0 time=0.0078125
note_on channel=0 note=78 velocity=0 time=0
note_on channel=0 note=64 velocity=96 time=0.0013020833333333333
note_on channel=0 note=76 velocity=96 time=0
note_on channel=0 note=49 velocity=80 time=0
note_on channel=0 note=54 velocity=80 time=0
note_on channel=0 note=49 velocity=0 time=0.14713541666666666
note_on channel=0 note=54 velocity=0 time=0
note_on channel=0 note=42 velocity=80 time=0.009114583333333332
note_on channel=0 note=42 velocity=0 time=0.14713541666666666
note_on channel=0 note=64 velocity=0 time=0.0078125
note_on channel=0 note=76 velocity=0 time=0
note_on channel=0 note=66 velocity=96 time=0.0013020833333333333
note_on channel=0 note=69 velocity=96 time=0
note_on channel=0 note=73 velocity=96 time=0
note_on channel=0 note=78 velocity=96 time=0
note_on channel=0 note=49 velocity=80 time=0
note_on channel=0 note=54 velocity=80 time=0
note_on channel=0 note=49 velocity=0 time=0.14713541666666666
note_on channel=0 note=54 velocity=0 time=0
note_on channel=0 note=42 velocity=80 time=0.009114583333333332
control_change channel=0 control=64 value=0 time=0.0013020833333333333
control_change channel=0 control=64 value=127 time=0.0013020833333333333
note_on channel=0 note=42 velocity=0 time=0.14453125
note_on channel=0 note=49 velocity=80 time=0.009114583333333332
note_on channel=0 note=54 velocity=80 time=0
note_on channel=0 note=49 velocity=0 time=0.14713541666666666
note_on channel=0 note=54 velocity=0 time=0
note_on channel=0 note=42 velocity=80 time=0.009114583333333332
note_on channel=0 note=42 velocity=0 time=0.14713541666666666
note_on channel=0 note=49 velocity=80 time=0.009114583333333332
note_on channel=0 note=54 velocity=80 time=0
note_on channel=0 note=66 velocity=0 time=0.11588541666666666
note_on channel=0 note=69 velocity=0 time=0
note_on channel=0 note=73 velocity=0 time=0
note_on channel=0 note=78 velocity=0 time=0
note_on channel=0 note=49 velocity=0 time=0.03125
note_on channel=0 note=54 velocity=0 time=0
note_on channel=0 note=66 velocity=96 time=0.009114583333333332
note_on channel=0 note=69 velocity=96 time=0
note_on channel=0 note=73 velocity=96 time=0
note_on channel=0 note=78 velocity=96 time=0
note_on channel=0 note=42 velocity=80 time=0
note_on channel=0 note=42 velocity=0 time=0.14713541666666666
note_on channel=0 note=66 velocity=0 time=0.0078125
note_on channel=0 note=69 velocity=0 time=0
note_on channel=0 note=73 velocity=0 time=0
note_on channel=0 note=78 velocity=0 time=0
note_on channel=0 note=68 velocity=96 time=0.0013020833333333333
note_on channel=0 note=80 velocity=96 time=0
note_on channel=0 note=49 velocity=80 time=0
note_on channel=0 note=54 velocity=80 time=0
note_on channel=0 note=49 velocity=0 time=0.14713541666666666
note_on channel=0 note=54 velocity=0 time=0
note_on channel=0 note=42 velocity=80 time=0.009114583333333332
note_on channel=0 note=42 velocity=0 time=0.14713541666666666
note_on channel=0 note=68 velocity=0 time=0.0078125
note_on channel=0 note=80 velocity=0 time=0
note_on channel=0 note=69 velocity=96 time=0.0013020833333333333
note_on channel=0 note=73 velocity=96 time=0
note_on channel=0 note=78 velocity=96 time=0
note_on channel=0 note=81 velocity=96 time=0
note_on channel=0 note=49 velocity=80 time=0
note_on channel=0 note=54 velocity=80 time=0
note_on channel=0 note=49 velocity=0 time=0.14713541666666666
note_on channel=0 note=54 velocity=0 time=0
note_on channel=0 note=42 velocity=80 time=0.009114583333333332
control_change channel=0 control=64 value=0 time=0.0013020833333333333
control_change channel=0 control=64 value=127 time=0.0013020833333333333
note_on channel=0 note=42 velocity=0 time=0.14453125
note_on channel=0 note=49 velocity=80 time=0.009114583333333332
note_on channel=0 note=54 velocity=80 time=0
note_on channel=0 note=49 velocity=0 time=0.14713541666666666
note_on channel=0 note=54 velocity=0 time=0
note_on channel=0 note=69 velocity=0 time=0.0078125
note_on channel=0 note=73 velocity=0 time=0
note_on channel=0 note=78 velocity=0 time=0
note_on channel=0 note=81 velocity=0 time=0
note_on channel=0 note=68 velocity=96 time=0.0013020833333333333
note_on channel=0 note=80 velocity=96 time=0
note_on channel=0 note=42 velocity=80 time=0
note_on channel=0 note=42 velocity=0 time=0.14713541666666666
note_on channel=0 note=49 velocity=80 time=0.009114583333333332
note_on channel=0 note=54 velocity=80 time=0
note_on channel=0 note=49 velocity=0 time=0.14713541666666666
note_on channel=0 note=54 velocity=0 time=0
note_on channel=0 note=68 velocity=0 time=0.0078125
note_on channel=0 note=80 velocity=0 time=0
note_on channel=0 note=66 velocity=96 time=0.0013020833333333333
note_on channel=0 note=78 velocity=96 time=0
note_on channel=0 note=42 velocity=80 time=0
note_on channel=0 note=42 velocity=0 time=0.14713541666666666
note_on channel=0 note=66 velocity=0 time=0.0078125
note_on channel=0 note=78 velocity=0 time=0
note_on channel=0 note=64 velocity=96 time=0.0013020833333333333
note_on channel=0 note=76 velocity=96 time=0
note_on channel=0 note=49 velocity=80 time=0
note_on channel=0 note=54 velocity=80 time=0
note_on channel=0 note=49 velocity=0 time=0.14713541666666666
note_on channel=0 note=54 velocity=0 time=0
note_on channel=0 note=42 velocity=80 time=0.009114583333333332
note_on channel=0 note=42 velocity=0 time=0.14713541666666666
note_on channel=0 note=64 velocity=0 time=0.0078125
note_on channel=0 note=76 velocity=0 time=0
note_on channel=0 note=66 velocity=96 time=0.0013020833333333333
note_on channel=0 note=69 velocity=96 time=0
note_on channel=0 note=73 velocity=96 time=0
note_on channel=0 note=78 velocity=96 time=0
note_on channel=0 note=49 velocity=80 time=0
note_on channel=0 note=54 velocity=80 time=0
note_on channel=0 note=49 velocity=0 time=0.14713541666666666
note_on channel=0 note=54 velocity=0 time=0
note_on channel=0 note=42 velocity=80 time=0.009114583333333332
control_change channel=0 control=64 value=0 time=0.0013020833333333333
control_change channel=0 control=64 value=127 time=0.0013020833333333333
note_on channel=0 note=42 velocity=0 time=0.14453125
note_on channel=0 note=49 velocity=80 time=0.009114583333333332
note_on channel=0 note=54 velocity=80 time=0
note_on channel=0 note=49 velocity=0 time=0.14713541666666666
note_on channel=0 note=54 velocity=0 time=0
note_on channel=0 note=66 velocity=0 time=0.0078125
note_on channel=0 note=69 velocity=0 time=0
note_on channel=0 note=73 velocity=0 time=0
note_on channel=0 note=78 velocity=0 time=0
note_on channel=0 note=64 velocity=96 time=0.0013020833333333333
note_on channel=0 note=76 velocity=96 time=0
note_on channel=0 note=42 velocity=80 time=0
note_on channel=0 note=42 velocity=0 time=0.14713541666666666
note_on channel=0 note=49 velocity=80 time=0.009114583333333332
note_on channel=0 note=54 velocity=80 time=0
note_on channel=0 note=64 velocity=0 time=0.13932291666666666
note_on channel=0 note=76 velocity=0 time=0
note_on channel=0 note=49 velocity=0 time=0.0078125
note_on channel=0 note=54 velocity=0 time=0
note_on channel=0 note=61 velocity=96 time=0.009114583333333332
note_on channel=0 note=73 velocity=96 time=0
note_on channel=0 note=40 velocity=80 time=0
control_change channel=0 control=64 value=0 time=0.0013020833333333333
control_change channel=0 control=64 value=127 time=0.0013020833333333333
note_on channel=0 note=40 velocity=0 time=0.14453125
note_on channel=0 note=61 velocity=0 time=0.0078125
note_on channel=0 note=73 velocity=0 time=0
note_on channel=0 note=64 velocity=96 time=0.0013020833333333333
note_on channel=0 note=76 velocity=96 time=0
note_on channel=0 note=47 velocity=80 time=0
note_on channel=0 note=52 velocity=80 time=0
note_on channel=0 note=47 velocity=0 time=0.14713541666666666
note_on channel=0 note=52 velocity=0 time=0
note_on channel=0 note=40 velocity=80 time=0.009114583333333332
note_on channel=0 note=40 velocity=0 time=0.14713541666666666
note_on channel=0 note=64 velocity=0 time=0.0078125
note_on channel=0 note=76 velocity=0 time=0
note_on channel=0 note=64 velocity=96 time=0.0013020833333333333
note_on channel=0 note=69 velocity=96 time=0
note_on channel=0 note=76 velocity=96 time=0
note_on channel=0 note=47 velocity=80 time=0
note_on channel=0 note=52 velocity=80 time=0
note_on channel=0 note=47 velocity=0 time=0.14713541666666666
note_on channel=0 note=52 velocity=0 time=0
note_on channel=0 note=38 velocity=80 time=0.009114583333333332
control_change channel=0 control=64 value=0 time=0.0013020833333333333
control_change channel=0 control=64 value=127 time=0.0013020833333333333
note_on channel=0 note=38 velocity=0 time=0.14453125
note_on channel=0 note=45 velocity=80 time=0.009114583333333332
note_on channel=0 note=50 velocity=80 time=0
note_on channel=0 note=45 velocity=0 time=0.14713541666666666
note_on channel=0 note=50 velocity=0 time=0
note_on channel=0 note=38 velocity=80 time=0.009114583333333332
note_on channel=0 note=38 velocity=0 time=0.14713541666666666
note_on channel=0 note=45 velocity=80 time=0.009114583333333332
note_on channel=0 note=50 velocity=80 time=0
note_on channel=0 note=45 velocity=0 time=0.14713541666666666
note_on channel=0 note=50 velocity=0 time=0
note_on channel=0 note=64 velocity=0 time=0.0078125
note_on channel=0 note=69 velocity=0 time=0
note_on channel=0 note=76 velocity=0 time=0
note_on channel=0 note=61 velocity=96 time=0.0013020833333333333
note_on channel=0 note=73 velocity=96 time=0
note_on channel=0 note=38 velocity=80 time=0
note_on channel=0 note=38 velocity=0 time=0.14713541666666666
note_on channel=0 note=61 velocity=0 time=0.0078125
note_on channel=0 note=73 velocity=0 time=0
note_on channel=0 note=64 velocity=96 time=0.0013020833333333333
note_on channel=0 note=76 velocity=96 time=0
note_on channel=0 note=45 velocity=80 time=0
note_on channel=0 note=50 velocity=80 time=0
note_on channel=0 note=45 velocity=0 time=0.14713541666666666
note_on channel=0 note=50 velocity=0 time=0
note_on channel=0 note=38 velocity=80 time=0.009114583333333332
note_on channel=0 note=38 velocity=0 time=0.14713541666666666
note_on channel=0 note=64 velocity=0 time=0.0078125
note_on channel=0 note=76 velocity=0 time=0
note_on channel=0 note=64 velocity=96 time=0.0013020833333333333
note_on channel=0 note=69 velocity=96 time=0
note_on channel=0 note=76 velocity=96 time=0
note_on channel=0 note=45 velocity=80 time=0
note_on channel=0 note=50 velocity=80 time=0
note_on channel=0 note=45 velocity=0 time=0.14713541666666666
note_on channel=0 note=50 velocity=0 time=0
note_on channel=0 note=38 velocity=80 time=0.009114583333333332
control_change channel=0 control=64 value=0 time=0.0013020833333333333
control_change channel=0 control=64 value=127 time=0.0013020833333333333
note_on channel=0 note=38 velocity=0 time=0.14453125
note_on channel=0 note=45 velocity=80 time=0.009114583333333332
note_on channel=0 note=50 velocity=80 time=0
note_on channel=0 note=45 velocity=0 time=0.14713541666666666
note_on channel=0 note=50 velocity=0 time=0
note_on channel=0 note=38 velocity=80 time=0.009114583333333332
note_on channel=0 note=38 velocity=0 time=0.14713541666666666
note_on channel=0 note=45 velocity=80 time=0.009114583333333332
note_on channel=0 note=50 velocity=80 time=0
note_on channel=0 note=64 velocity=0 time=0.11588541666666666
note_on channel=0 note=69 velocity=0 time=0
note_on channel=0 note=76 velocity=0 time=0
note_on channel=0 note=45 velocity=0 time=0.03125
note_on channel=0 note=50 velocity=0 time=0
note_on channel=0 note=61 velocity=96 time=0.009114583333333332
note_on channel=0 note=73 velocity=96 time=0
note_on channel=0 note=38 velocity=80 time=0
note_on channel=0 note=38 velocity=0 time=0.14713541666666666
note_on channel=0 note=61 velocity=0 time=0.0078125
note_on channel=0 note=73 velocity=0 time=0
note_on channel=0 note=64 velocity=96 time=0.0013020833333333333
note_on channel=0 note=76 velocity=96 time=0
note_on channel=0 note=45 velocity=80 time=0
note_on channel=0 note=50 velocity=80 time=0
note_on channel=0 note=45 velocity=0 time=0.14713541666666666
note_on channel=0 note=50 velocity=0 time=0
note_on channel=0 note=38 velocity=80 time=0.009114583333333332
note_on channel=0 note=38 velocity=0 time=0.14713541666666666
note_on channel=0 note=64 velocity=0 time=0.0078125
note_on channel=0 note=76 velocity=0 time=0
note_on channel=0 note=64 velocity=96 time=0.0013020833333333333
note_on channel=0 note=69 velocity=96 time=0
note_on channel=0 note=76 velocity=96 time=0
note_on channel=0 note=45 velocity=80 time=0
note_on channel=0 note=50 velocity=80 time=0
note_on channel=0 note=45 velocity=0 time=0.14713541666666666
note_on channel=0 note=50 velocity=0 time=0
note_on channel=0 note=38 velocity=80 time=0.009114583333333332
control_change channel=0 control=64 value=0 time=0.0013020833333333333
control_change channel=0 control=64 value=127 time=0.0013020833333333333
note_on channel=0 note=38 velocity=0 time=0.14453125
note_on channel=0 note=45 velocity=80 time=0.009114583333333332
note_on channel=0 note=50 velocity=80 time=0
note_on channel=0 note=45 velocity=0 time=0.14713541666666666
note_on channel=0 note=50 velocity=0 time=0
note_on channel=0 note=64 velocity=0 time=0.0078125
note_on channel=0 note=69 velocity=0 time=0
note_on channel=0 note=76 velocity=0 time=0
note_on channel=0 note=61 velocity=96 time=0.0013020833333333333
note_on channel=0 note=73 velocity=96 time=0
note_on channel=0 note=38 velocity=80 time=0
note_on channel=0 note=38 velocity=0 time=0.14713541666666666
note_on channel=0 note=45 velocity=80 time=0.009114583333333332
note_on channel=0 note=50 velocity=80 time=0
note_on channel=0 note=45 velocity=0 time=0.14713541666666666
note_on channel=0 note=50 velocity=0 time=0
note_on channel=0 note=61 velocity=0 time=0.0078125
note_on channel=0 note=73 velocity=0 time=0
note_on channel=0 note=66 velocity=96 time=0.0013020833333333333
note_on channel=0 note=78 velocity=96 time=0
note_on channel=0 note=38 velocity=80 time=0
note_on channel=0 note=38 velocity=0 time=0.14713541666666666
note_on channel=0 note=66 velocity=0 time=0.0078125
note_on channel=0 note=78 velocity=0 time=0
note_on channel=0 note=64 velocity=96 time=0.0013020833333333333
note_on channel=0 note=76 velocity=96 time=0
note_on channel=0 note=45 velocity=80 time=0
note_on channel=0 note=50 velocity=80 time=0
note_on channel=0 note=45 velocity=0 time=0.14713541666666666
note_on channel=0 note=50 velocity=0 time=0
note_on channel=0 note=38 velocity=80 time=0.009114583333333332
note_on channel=0 note=38 velocity=0 time=0.14713541666666666
note_on channel=0 note=64 velocity=0 time=0.0078125
note_on channel=0 note=76 velocity=0 time=0
note_on channel=0 note=64 velocity=96 time=0.0013020833333333333
note_on channel=0 note=68 velocity=96 time=0
note_on channel=0 note=71 velocity=96 time=0
note_on channel=0 note=76 velocity=96 time=0
note_on channel=0 note=45 velocity=80 time=0
note_on channel=0 note=50 velocity=80 time=0
note_on channel=0 note=45 velocity=0 time=0.14713541666666666
note_on channel=0 note=50 velocity=0 time=0
note_on channel=0 note=40 velocity=80 time=0.009114583333333332
control_change channel=0 control=64 value=0 time=0.0013020833333333333
control_change channel=0 control=64 value=127 time=0.0013020833333333333
note_on channel=0 note=40 velocity=0 time=0.14453125
note_on channel=0 note=47 velocity=80 time=0.009114583333333332
note_on channel=0 note=52 velocity=80 time=0
note_on channel=0 note=47 velocity=0 time=0.14713541666666666
note_on channel=0 note=52 velocity=0 time=0
note_on channel=0 note=64 velocity=0 time=0.0078125
note_on channel=0 note=68 velocity=0 time=0
note_on channel=0 note=71 velocity=0 time=0
note_on channel=0 note=76 velocity=0 time=0
note_on channel=0 note=61 velocity=96 time=0.0013020833333333333
note_on channel=0 note=73 velocity=96 time=0
note_on channel=0 note=40 velocity=80 time=0
note_on channel=0 note=40 velocity=0 time=0.14713541666666666
note_on channel=0 note=47 velocity=80 time=0.009114583333333332
note_on channel=0 note=52 velocity=80 time=0
note_on channel=0 note=61 velocity=0 time=0.13932291666666666
note_on channel=0 note=73 velocity=0 time=0
note_on channel=0 note=47 velocity=0 time=0.0078125
note_on channel=0 note=52 velocity=0 time=0
note_on channel=0 note=66 velocity=96 time=0.009114583333333332
note_on channel=0 note=78 velocity=96 time=0
note_on channel=0 note=40 velocity=80 time=0
note_on channel=0 note=40 velocity=0 time=0.14713541666666666
note_on channel=0 note=66 velocity=0 time=0.0078125
note_on channel=0 note=78 velocity=0 time=0
note_on channel=0 note=68 velocity=96 time=0.0013020833333333333
note_on channel=0 note=80 velocity=96 time=0
note_on channel=0 note=47 velocity=80 time=0
note_on channel=0 note=52 velocity=80 time=0
note_on channel=0 note=47 velocity=0 time=0.14713541666666666
note_on channel=0 note=52 velocity=0 time=0
note_on channel=0 note=40 velocity=80 time=0.009114583333333332
note_on channel=0 note=40 velocity=0 time=0.14713541666666666
note_on channel=0 note=68 velocity=0 time=0.0078125
note_on channel=0 note=80 velocity=0 time=0
note_on channel=0 note=69 velocity=96 time=0.0013020833333333333
note_on channel=0 note=73 velocity=96 time=0
note_on channel=0 note=78 velocity=96 time=0
note_on channel=0 note=81 velocity=96 time=0
note_on channel=0 note=47 velocity=80 time=0
note_on channel=0 note=52 velocity=80 time=0
note_on channel=0 note=47 velocity=0 time=0.14713541666666666
note_on channel=0 note=52 velocity=0 time=0
note_on channel=0 note=30 velocity=115 time=0.009114583333333332
note_on channel=0 note=42 velocity=115 time=0
control_change channel=0 control=64 value=0 time=0.0013020833333333333
control_change channel=0 control=64 value=127 time=0.0013020833333333333
note_on channel=0 note=30 velocity=0 time=0.30859375
note_on channel=0 note=42 velocity=0 time=0
note_on channel=0 note=42 velocity=96 time=0.0013020833333333333
note_on channel=0 note=42 velocity=0 time=0.14713541666666666
note_on channel=0 note=49 velocity=96 time=0.009114583333333332
note_on channel=0 note=57 velocity=96 time=0
note_on channel=0 note=49 velocity=0 time=0.14713541666666666
note_on channel=0 note=57 velocity=0 time=0
note_on channel=0 note=69 velocity=0 time=0.0078125
note_on channel=0 note=73 velocity=0 time=0
note_on channel=0 note=78 velocity=0 time=0
note_on channel=0 note=81 velocity=0 time=0
note_on channel=0 note=66 velocity=96 time=0.0013020833333333333
note_on channel=0 note=78 velocity=96 time=0
note_on channel=0 note=42 velocity=96 time=0
note_on channel=0 note=42 velocity=0 time=0.14713541666666666
note_on channel=0 note=66 velocity=0 time=0.0078125
note_on channel=0 note=78 velocity=0 time=0
note_on channel=0 note=73 velocity=96 time=0.0013020833333333333
note_on channel=0 note=85 velocity=96 time=0
note_on channel=0 note=49 velocity=96 time=0
note_on channel=0 note=57 velocity=96 time=0
note_on channel=0 note=49 velocity=0 time=0.14713541666666666
note_on channel=0 note=57 velocity=0 time=0
note_on channel=0 note=42 velocity=96 time=0.009114583333333332
note_on channel=0 note=42 velocity=0 time=0.14713541666666666
note_on channel=0 note=73 velocity=0 time=0.0078125
note_on channel=0 note=85 velocity=0 time=0
note_on channel=0 note=69 velocity=96 time=0.0013020833333333333
note_on channel=0 note=73 velocity=96 time=0
note_on channel=0 note=78 velocity=96 time=0
note_on channel=0 note=81 velocity=96 time=0
note_on channel=0 note=49 velocity=96 time=0
note_on channel=0 note=57 velocity=96 time=0
note_on channel=0 note=49 velocity=0 time=0.14713541666666666
note_on channel=0 note=57 velocity=0 time=0
note_on channel=0 note=42 velocity=96 time=0.009114583333333332
control_change channel=0 control=64 value=0 time=0.0013020833333333333
control_change channel=0 control=64 value=127 time=0.0013020833333333333
note_on channel=0 note=42 velocity=0 time=0.14453125
note_on channel=0 note=49 velocity=96 time=0.009114583333333332
note_on channel=0 note=57 velocity=96 time=0
note_on channel=0 note=49 velocity=0 time=0.14713541666666666
note_on channel=0 note=57 velocity=0 time=0
note_on channel=0 note=42 velocity=96 time=0.009114583333333332
note_on channel=0 note=42 velocity=0 time=0.14713541666666666
note_on channel=0 note=49 velocity=96 time=0.009114583333333332
note_on channel=0 note=57 velocity=96 time=0
note_on channel=0 note=69 velocity=0 time=0.11588541666666666
note_on channel=0 note=73 velocity=0 time=0
note_on channel=0 note=78 velocity=0 time=0
note_on channel=0 note=81 velocity=0 time=0
note_on channel=0 note=49 velocity=0 time=0.03125
note_on channel=0 note=57 velocity=0 time=0
note_on channel=0 note=66 velocity=96 time=0.009114583333333332
note_on channel=0 note=78 velocity=96 time=0
note_on channel=0 note=42 velocity=96 time=0
note_on channel=0 note=42 velocity=0 time=0.14713541666666666
note_on channel=0 note=66 velocity=0 time=0.0078125
note_on channel=0 note=78 velocity=0 time=0
note_on channel=0 note=68 velocity=96 time=0.0013020833333333333
note_on channel=0 note=80 velocity=96 time=0
note_on channel=0 note=49 velocity=96 time=0
note_on channel=0 note=57 velocity=96 time=0
note_on channel=0 note=49 velocity=0 time=0.14713541666666666
note_on channel=0 note=57 velocity=0 time=0
note_on channel=0 note=42 velocity=96 time=0.009114583333333332
note_on channel=0 note=42 velocity=0 time=0.14713541666666666
note_on channel=0 note=68 velocity=0 time=0.0078125
note_on channel=0 note=80 velocity=0 time=0
note_on channel=0 note=69 velocity=96 time=0.0013020833333333333
note_on channel=0 note=74 velocity=96 time=0
note_on channel=0 note=78 velocity=96 time=0
note_on channel=0 note=81 velocity=96 time=0
note_on channel=0 note=49 velocity=96 time=0
note_on channel=0 note=57 velocity=96 time=0
note_on channel=0 note=49 velocity=0 time=0.14713541666666666
note_on channel=0 note=57 velocity=0 time=0
note_on channel=0 note=26 velocity=115 time=0.009114583333333332
note_on channel=0 note=38 velocity=115 time=0
control_change channel=0 control=64 value=0 time=0.0013020833333333333
control_change channel=0 control=64 value=127 time=0.0013020833333333333
note_on channel=0 note=69 velocity=0 time=0.30859375
note_on channel=0 note=74 velocity=0 time=0
note_on channel=0 note=78 velocity=0 time=0
note_on channel=0 note=81 velocity=0 time=0
note_on channel=0 note=26 velocity=0 time=0
note_on channel=0 note=38 velocity=0 time=0
note_on channel=0 note=66 velocity=96 time=0.0013020833333333333
note_on channel=0 note=78 velocity=96 time=0
note_on channel=0 note=38 velocity=96 time=0
note_on channel=0 note=38 velocity=0 time=0.14713541666666666
note_on channel=0 note=45 velocity=96 time=0.009114583333333332
note_on channel=0 note=54 velocity=96 time=0
note_on channel=0 note=45 velocity=0 time=0.14713541666666666
note_on channel=0 note=54 velocity=0 time=0
note_on channel=0 note=66 velocity=0 time=0.0078125
note_on channel=0 note=78 velocity=0 time=0
note_on channel=0 note=69 velocity=96 time=0.0013020833333333333
note_on channel=0 note=74 velocity=96 time=0
note_on channel=0 note=78 velocity=96 time=0
note_on channel=0 note=81 velocity=96 time=0
note_on channel=0 note=38 velocity=96 time=0
note_on channel=0 note=38 velocity=0 time=0.14713541666666666
note_on channel=0 note=69 velocity=0 time=0.0078125
note_on channel=0 note=74 velocity=0 time=0
note_on channel=0 note=78 velocity=0 time=0
note_on channel=0 note=81 velocity=0 time=0
note_on channel=0 note=71 velocity=96 time=0.0013020833333333333
note_on channel=0 note=83 velocity=96 time=0
note_on channel=0 note=45 velocity=96 time=0
note_on channel=0 note=54 velocity=96 time=0
note_on channel=0 note=45 velocity=0 time=0.14713541666666666
note_on channel=0 note=54 velocity=0 time=0
note_on channel=0 note=38 velocity=96 time=0.009114583333333332
note_on channel=0 note=38 velocity=0 time=0.14713541666666666
note_on channel=0 note=71 velocity=0 time=0.0078125
note_on channel=0 note=83 velocity=0 time=0
note_on channel=0 note=73 velocity=96 time=0.0013020833333333333
note_on channel=0 note=85 velocity=96 time=0
note_on channel=0 note=45 velocity=96 time=0
note_on channel=0 note=54 velocity=96 time=0
note_on channel=0 note=45 velocity=0 time=0.14713541666666666
note_on channel=0 note=54 velocity=0 time=0
note_on channel=0 note=38 velocity=96 time=0.009114583333333332
control_change channel=0 control=64 value=0 time=0.0013020833333333333
control_change channel=0 control=64 value=127 time=0.0013020833333333333
note_on channel=0 note=38 velocity=0 time=0.14453125
note_on channel=0 note=45 velocity=96 time=0.009114583333333332
note_on channel=0 note=54 velocity=96 time=0
note_on channel=0 note=45 velocity=0 time=0.14713541666666666
note_on channel=0 note=54 velocity=0 time=0
note_on channel=0 note=38 velocity=96 time=0.009114583333333332
note_on channel=0 note=38 velocity=0 time=0.14713541666666666
note_on channel=0 note=45 velocity=96 time=0.009114583333333332
note_on channel=0 note=54 velocity=96 time=0
note_on channel=0 note=45 velocity=0 time=0.14713541666666666
note_on channel=0 note=54 velocity=0 time=0
note_on channel=0 note=38 velocity=96 time=0.009114583333333332
note_on channel=0 note=38 velocity=0 time=0.14713541666666666
note_on channel=0 note=45 velocity=96 time=0.009114583333333332
note_on channel=0 note=54 velocity=96 time=0
note_on channel=0 note=45 velocity=0 time=0.14713541666666666
note_on channel=0 note=54 velocity=0 time=0
note_on channel=0 note=73 velocity=0 time=0.0078125
note_on channel=0 note=85 velocity=0 time=0
note_on channel=0 note=69 velocity=96 time=0.0013020833333333333
note_on channel=0 note=74 velocity=96 time=0
note_on channel=0 note=78 velocity=96 time=0
note_on channel=0 note=81 velocity=96 time=0
note_on channel=0 note=38 velocity=96 time=0
note_on channel=0 note=38 velocity=0 time=0.14713541666666666
note_on channel=0 note=45 velocity=96 time=0.009114583333333332
note_on channel=0 note=54 velocity=96 time=0
note_on channel=0 note=45 velocity=0 time=0.14713541666666666
note_on channel=0 note=54 velocity=0 time=0
note_on channel=0 note=33 velocity=115 time=0.009114583333333332
note_on channel=0 note=45 velocity=115 time=0
control_change channel=0 control=64 value=0 time=0.0013020833333333333
control_change channel=0 control=64 value=127 time=0.0013020833333333333
note_on channel=0 note=69 velocity=0 time=0.27734375
note_on channel=0 note=74 velocity=0 time=0
note_on channel=0 note=78 velocity=0 time=0
note_on channel=0 note=81 velocity=0 time=0
note_on channel=0 note=33 velocity=0 time=0.03125
note_on channel=0 note=45 velocity=0 time=0
note_on channel=0 note=69 velocity=96 time=0.0013020833333333333
note_on channel=0 note=73 velocity=96 time=0
note_on channel=0 note=76 velocity=96 time=0
note_on channel=0 note=81 velocity=96 time=0
note_on channel=0 note=45 velocity=96 time=0
note_on channel=0 note=45 velocity=0 time=0.14713541666666666
note_on channel=0 note=52 velocity=96 time=0.009114583333333332
note_on channel=0 note=61 velocity=96 time=0
note_on channel=0 note=52 velocity=0 time=0.14713541666666666
note_on channel=0 note=61 velocity=0 time=0
note_on channel=0 note=69 velocity=0 time=0.0078125
note_on channel=0 note=73 velocity=0 time=0
note_on channel=0 note=76 velocity=0 time=0
note_on channel=0 note=81 velocity=0 time=0
note_on channel=0 note=76 velocity=96 time=0.0013020833333333333
note_on channel=0 note=81 velocity=96 time=0
note_on channel=0 note=88 velocity=96 time=0
note_on channel=0 note=45 velocity=96 time=0
note_on channel=0 note=45 velocity=0 time=0.14713541666666666
note_on channel=0 note=52 velocity=96 time=0.009114583333333332
note_on channel=0 note=61 velocity=96 time=0
note_on channel=0 note=52 velocity=0 time=0.14713541666666666
note_on channel=0 note=61 velocity=0 time=0
note_on channel=0 note=76 velocity=0 time=0.0078125
note_on channel=0 note=81 velocity=0 time=0
note_on channel=0 note=88 velocity=0 time=0
note_on channel=0 note=78 velocity=96 time=0.0013020833333333333
note_on channel=0 note=90 velocity=96 time=0
note_on channel=0 note=45 velocity=96 time=0
note_on channel=0 note=45 velocity=0 time=0.14713541666666666
note_on channel=0 note=52 velocity=96 time=0.009114583333333332
note_on channel=0 note=61 velocity=96 time=0
note_on channel=0 note=52 velocity=0 time=0.14713541666666666
note_on channel=0 note=61 velocity=0 time=0
note_on channel=0 note=78 velocity=0 time=0.0078125
note_on channel=0 note=90 velocity=0 time=0
note_on channel=0 note=76 velocity=96 time=0.0013020833333333333
note_on channel=0 note=81 velocity=96 time=0
note_on channel=0 note=85 velocity=96 time=0
note_on channel=0 note=88 velocity=96 time=0
note_on channel=0 note=45 velocity=96 time=0
control_change channel=0 control=64 value=0 time=0.0013020833333333333
control_change channel=0 control=64 value=127 time=0.0013020833333333333
note_on channel=0 note=45 velocity=0 time=0.14453125
note_on channel=0 note=52 velocity=96 time=0.009114583333333332
note_on channel=0 note=61 velocity=96 time=0
note_on channel=0 note=52 velocity=0 time=0.14713541666666666
note_on channel=0 note=61 velocity=0 time=0
note_on channel=0 note=45 velocity=96 time=0.009114583333333332
note_on channel=0 note=45 velocity=0 time=0.14713541666666666
note_on channel=0 note=76 velocity=0 time=0.0078125
note_on channel=0 note=81 velocity=0 time=0
note_on channel=0 note=85 velocity=0 time=0
note_on channel=0 note=88 velocity=0 time=0
note_on channel=0 note=69 velocity=96 time=0.0013020833333333333
note_on channel=0 note=73 velocity=96 time=0
note_on channel=0 note=81 velocity=96 time=0
note_on channel=0 note=52 velocity=96 time=0
note_on channel=0 note=61 velocity=96 time=0
note_on channel=0 note=52 velocity=0 time=0.14713541666666666
note_on channel=0 note=61 velocity=0 time=0
note_on channel=0 note=45 velocity=96 time=0.009114583333333332
note_on channel=0 note=45 velocity=0 time=0.14713541666666666
note_on channel=0 note=52 velocity=96 time=0.009114583333333332
note_on channel=0 note=61 velocity=96 time=0
note_on channel=0 note=52 velocity=0 time=0.14713541666666666
note_on channel=0 note=61 velocity=0 time=0
note_on channel=0 note=69 velocity=0 time=0.0078125
note_on channel=0 note=73 velocity=0 time=0
note_on channel=0 note=81 velocity=0 time=0
note_on channel=0 note=73 velocity=96 time=0.0013020833333333333
note_on channel=0 note=85 velocity=96 time=0
note_on channel=0 note=45 velocity=96 time=0
note_on channel=0 note=45 velocity=0 time=0.14713541666666666
note_on channel=0 note=52 velocity=96 time=0.009114583333333332
note_on channel=0 note=61 velocity=96 time=0
note_on channel=0 note=52 velocity=0 time=0.14713541666666666
note_on channel=0 note=61 velocity=0 time=0
note_on channel=0 note=73 velocity=0 time=0.0078125
note_on channel=0 note=85 velocity=0 time=0
note_on channel=0 note=71 velocity=96 time=0.0013020833333333333
note_on channel=0 note=76 velocity=96 time=0
note_on channel=0 note=80 velocity=96 time=0
note_on channel=0 note=83 velocity=96 time=0
note_on channel=0 note=28 velocity=115 time=0
note_on channel=0 note=40 velocity=115 time=0
control_change channel=0 control=64 value=0 time=0.0013020833333333333
control_change channel=0 control=64 value=127 time=0.0013020833333333333
note_on channel=0 note=28 velocity=0 time=0.30859375
note_on channel=0 note=40 velocity=0 time=0
note_on channel=0 note=40 velocity=96 time=0.0013020833333333333
note_on channel=0 note=40 velocity=0 time=0.14713541666666666
note_on channel=0 note=71 velocity=0 time=0.0078125
note_on channel=0 note=76 velocity=0 time=0
note_on channel=0 note=80 velocity=0 time=0
note_on channel=0 note=83 velocity=0 time=0
note_on channel=0 note=56 velocity=96 time=0.0013020833333333333
note_on channel=0 note=59 velocity=96 time=0
note_on channel=0 note=64 velocity=96 time=0
note_on channel=0 note=68 velocity=96 time=0
note_on channel=0 note=44 velocity=96 time=0
note_on channel=0 note=47 velocity=96 time=0
note_on channel=0 note=52 velocity=96 time=0
note_on channel=0 note=56 velocity=0 time=0.31119791666666663
note_on channel=0 note=59 velocity=0 time=0
note_on channel=0 note=64 velocity=0 time=0
note_on channel=0 note=68 velocity=0 time=0
note_on channel=0 note=69 velocity=96 time=0.0013020833333333333
note_on channel=0 note=81 velocity=96 time=0
note_on channel=0 note=44 velocity=0 time=0.13151041666666666
note_on channel=0 note=47 velocity=0 time=0
note_on channel=0 note=52 velocity=0 time=0
note_on channel=0 note=69 velocity=0 time=0.0234375
note_on channel=0 note=81 velocity=0 time=0
note_on channel=0 note=68 velocity=96 time=0.0013020833333333333
note_on channel=0 note=80 velocity=96 time=0
note_on channel=0 note=52 velocity=96 time=0
note_on channel=0 note=56 velocity=96 time=0
note_on channel=0 note=59 velocity=96 time=0
note_on channel=0 note=64 velocity=96 time=0
note_on channel=0 note=52 velocity=0 time=0.29557291666666663
note_on channel=0 note=56 velocity=0 time=0
note_on channel=0 note=59 velocity=0 time=0
note_on channel=0 note=64 velocity=0 time=0
note_on channel=0 note=68 velocity=0 time=0.015625
note_on channel=0 note=80 velocity=0 time=0
note_on channel=0 note=71 velocity=96 time=0.0013020833333333333
note_on channel=0 note=73 velocity=96 time=0
note_on channel=0 note=77 velocity=96 time=0
note_on channel=0 note=83 velocity=96 time=0
note_on channel=0 note=25 velocity=115 time=0
note_on channel=0 note=37 velocity=115 time=0
control_change channel=0 control=64 value=0 time=0.0013020833333333333
control_change channel=0 control=64 value=127 time=0.0013020833333333333
note_on channel=0 note=25 velocity=0 time=0.30859375
note_on channel=0 note=37 velocity=0 time=0
note_on channel=0 note=37 velocity=92 time=0.0013020833333333333
note_on channel=0 note=37 velocity=0 time=0.15494791666666666
note_on channel=0 note=41 velocity=90 time=0.0013020833333333333
note_on channel=0 note=71 velocity=0 time=0.15494791666666666
note_on channel=0 note=73 velocity=0 time=0
note_on channel=0 note=77 velocity=0 time=0
note_on channel=0 note=83 velocity=0 time=0
note_on channel=0 note=41 velocity=0 time=0
note_on channel=0 note=73 velocity=88 time=0.0013020833333333333
note_on channel=0 note=85 velocity=88 time=0
note_on channel=0 note=44 velocity=88 time=0
note_on channel=0 note=44 velocity=0 time=0.15494791666666666
note_on channel=0 note=49 velocity=86 time=0.0013020833333333333
note_on channel=0 note=49 velocity=0 time=0.15494791666666666
note_on channel=0 note=51 velocity=84 time=0.0013020833333333333
note_on channel=0 note=51 velocity=0 time=0.15494791666666666
note_on channel=0 note=53 velocity=82 time=0.0013020833333333333
note_on channel=0 note=73 velocity=0 time=0.12369791666666666
note_on channel=0 note=85 velocity=0 time=0
note_on channel=0 note=53 velocity=0 time=0.0234375
note_on channel=0 note=26 velocity=96 time=0.009114583333333332
note_on channel=0 note=38 velocity=96 time=0
control_change channel=0 control=64 value=0 time=0.0013020833333333333
control_change channel=0 control=64 value=127 time=0.0013020833333333333
note_on channel=0 note=26 velocity=0 time=0.30859375
note_on channel=0 note=38 velocity=0 time=0
note_on channel=0 note=66 velocity=80 time=0.0013020833333333333
note_on channel=0 note=38 velocity=80 time=0
note_on channel=0 note=38 velocity=0 time=0.15494791666666666
note_on channel=0 note=42 velocity=80 time=0.0013020833333333333
note_on channel=0 note=66 velocity=0 time=0.15494791666666666
note_on channel=0 note=42 velocity=0 time=0
note_on channel=0 note=66 velocity=80 time=0.0013020833333333333
note_on channel=0 note=45 velocity=80 time=0
note_on channel=0 note=45 velocity=0 time=0.15494791666666666
note_on channel=0 note=50 velocity=80 time=0.0013020833333333333
note_on channel=0 note=66 velocity=0 time=0.15494791666666666
note_on channel=0 note=50 velocity=0 time=0
note_on channel=0 note=64 velocity=80 time=0.0013020833333333333
note_on channel=0 note=54 velocity=80 time=0
note_on channel=0 note=54 velocity=0 time=0.15494791666666666
note_on channel=0 note=57 velocity=80 time=0.0013020833333333333
note_on channel=0 note=64 velocity=0 time=0.15494791666666666
note_on channel=0 note=57 velocity=0 time=0
note_on channel=0 note=66 velocity=80 time=0.0013020833333333333
note_on channel=0 note=62 velocity=80 time=0
note_on channel=0 note=62 velocity=0 time=0.15494791666666666
note_on channel=0 note=57 velocity=80 time=0.0013020833333333333
note_on channel=0 note=57 velocity=0 time=0.15494791666666666
note_on channel=0 note=54 velocity=80 time=0.0013020833333333333
note_on channel=0 note=66 velocity=0 time=0.15494791666666666
note_on channel=0 note=54 velocity=0 time=0
note_on channel=0 note=66 velocity=80 time=0.0013020833333333333
note_on channel=0 note=50 velocity=80 time=0
note_on channel=0 note=50 velocity=0 time=0.15494791666666666
note_on channel=0 note=45 velocity=80 time=0.0013020833333333333
note_on channel=0 note=45 velocity=0 time=0.15494791666666666
note_on channel=0 note=42 velocity=80 time=0.0013020833333333333
note_on channel=0 note=66 velocity=0 time=0.15494791666666666
note_on channel=0 note=42 velocity=0 time=0
note_on channel=0 note=69 velocity=80 time=0.0013020833333333333
note_on channel=0 note=38 velocity=80 time=0
note_on channel=0 note=38 velocity=0 time=0.29557291666666663
note_on channel=0 note=69 velocity=0 time=0.015625
note_on channel=0 note=68 velocity=80 time=0.0013020833333333333
note_on channel=0 note=28 velocity=96 time=0
note_on channel=0 note=40 velocity=96 time=0
control_change channel=0 control=64 value=0 time=0.0013020833333333333
control_change channel=0 control=64 value=127 time=0.0013020833333333333
note_on channel=0 note=28 velocity=0 time=0.30859375
note_on channel=0 note=40 velocity=0 time=0
note_on channel=0 note=40 velocity=80 time=0.0013020833333333333
note_on channel=0 note=68 velocity=0 time=0.15494791666666666
note_on channel=0 note=40 velocity=0 time=0
note_on channel=0 note=66 velocity=80 time=0.0013020833333333333
note_on channel=0 note=44 velocity=80 time=0
note_on channel=0 note=66 velocity=0 time=0.15494791666666666
note_on channel=0 note=44 velocity=0 time=0
note_on channel=0 note=64 velocity=80 time=0.0013020833333333333
note_on channel=0 note=47 velocity=80 time=0
note_on channel=0 note=47 velocity=0 time=0.15494791666666666
note_on channel=0 note=52 velocity=80 time=0.0013020833333333333
note_on channel=0 note=64 velocity=0 time=0.13932291666666666
note_on channel=0 note=52 velocity=0 time=0.015625
note_on channel=0 note=56 velocity=80 time=0.0013020833333333333
note_on channel=0 note=56 velocity=0 time=0.15494791666666666
note_on channel=0 note=59 velocity=80 time=0.0013020833333333333
note_on channel=0 note=59 velocity=0 time=0.15494791666666666
note_on channel=0 note=80 velocity=80 time=0.0013020833333333333
note_on channel=0 note=64 velocity=80 time=0
note_on channel=0 note=64 velocity=0 time=0.15494791666666666
note_on channel=0 note=59 velocity=80 time=0.0013020833333333333
note_on channel=0 note=59 velocity=0 time=0.15494791666666666
note_on channel=0 note=56 velocity=80 time=0.0013020833333333333
note_on channel=0 note=80 velocity=0 time=0.15494791666666666
note_on channel=0 note=56 velocity=0 time=0
note_on channel=0 note=78 velocity=80 time=0.0013020833333333333
note_on channel=0 note=52 velocity=80 time=0
note_on channel=0 note=78 velocity=0 time=0.15494791666666666
note_on channel=0 note=52 velocity=0 time=0
note_on channel=0 note=76 velocity=80 time=0.0013020833333333333
note_on channel=0 note=47 velocity=80 time=0
note_on channel=0 note=47 velocity=0 time=0.15494791666666666
note_on channel=0 note=44 velocity=80 time=0.0013020833333333333
note_on channel=0 note=76 velocity=0 time=0.15494791666666666
note_on channel=0 note=44 velocity=0 time=0
note_on channel=0 note=64 velocity=80 time=0.0013020833333333333
note_on channel=0 note=76 velocity=80 time=0
note_on channel=0 note=40 velocity=80 time=0
note_on channel=0 note=40 velocity=0 time=0.29557291666666663
note_on channel=0 note=64 velocity=0 time=0.015625
note_on channel=0 note=76 velocity=0 time=0
note_on channel=0 note=66 velocity=80 time=0.0013020833333333333
note_on channel=0 note=69 velocity=80 time=0
note_on channel=0 note=74 velocity=80 time=0
note_on channel=0 note=78 velocity=80 time=0
note_on channel=0 note=26 velocity=96 time=0
note_on channel=0 note=38 velocity=96 time=0
control_change channel=0 control=64 value=0 time=0.0013020833333333333
control_change channel=0 control=64 value=127 time=0.0013020833333333333
note_on channel=0 note=26 velocity=0 time=0.09244791666666666
note_on channel=0 note=38 velocity=0 time=0
note_on channel=0 note=38 velocity=81 time=0.0013020833333333333
note_on channel=0 note=38 velocity=0 time=0.08984375
note_on channel=0 note=42 velocity=82 time=0.006510416666666666
note_on channel=0 note=42 velocity=0 time=0.08984375
note_on channel=0 note=45 velocity=83 time=0.006510416666666666
note_on channel=0 note=45 velocity=0 time=0.08984375
note_on channel=0 note=50 velocity=84 time=0.005208333333333333
note_on channel=0 note=66 velocity=0 time=0.08333333333333333
note_on channel=0 note=69 velocity=0 time=0
note_on channel=0 note=74 velocity=0 time=0
note_on channel=0 note=78 velocity=0 time=0
note_on channel=0 note=64 velocity=86 time=0.0013020833333333333
note_on channel=0 note=76 velocity=86 time=0
note_on channel=0 note=50 velocity=0 time=0.005208333333333333
note_on channel=0 note=54 velocity=86 time=0.006510416666666666
note_on channel=0 note=54 velocity=0 time=0.08984375
note_on channel=0 note=57 velocity=87 time=0.006510416666666666
note_on channel=0 note=57 velocity=0 time=0.08984375
note_on channel=0 note=62 velocity=88 time=0.006510416666666666
note_on channel=0 note=62 velocity=0 time=0.08984375
note_on channel=0 note=57 velocity=89 time=0.006510416666666666
note_on channel=0 note=57 velocity=0 time=0.08984375
note_on channel=0 note=54 velocity=91 time=0.006510416666666666
note_on channel=0 note=64 velocity=0 time=0.0703125
note_on channel=0 note=76 velocity=0 time=0
note_on channel=0 note=69 velocity=92 time=0.0013020833333333333
note_on channel=0 note=81 velocity=92 time=0
note_on channel=0 note=54 velocity=0 time=0.018229166666666664
note_on channel=0 note=50 velocity=92 time=0.005208333333333333
note_on channel=0 note=50 velocity=0 time=0.08984375
note_on channel=0 note=45 velocity=93 time=0.006510416666666666
note_on channel=0 note=45 velocity=0 time=0.08984375
note_on channel=0 note=42 velocity=94 time=0.006510416666666666
note_on channel=0 note=69 velocity=0 time=0.07942708333333333
note_on channel=0 note=81 velocity=0 time=0
note_on channel=0 note=42 velocity=0 time=0.010416666666666666
note_on channel=0 note=68 velocity=96 time=0.006510416666666666
note_on channel=0 note=71 velocity=96 time=0
note_on channel=0 note=76 velocity=96 time=0
note_on channel=0 note=80 velocity=96 time=0
note_on channel=0 note=28 velocity=115 time=0
note_on channel=0 note=40 velocity=115 time=0
control_change channel=0 control=64 value=0 time=0.0013020833333333333
control_change channel=0 control=64 value=127 time=0.0013020833333333333
note_on channel=0 note=68 velocity=0 time=0.15234375
note_on channel=0 note=71 velocity=0 time=0
note_on channel=0 note=76 velocity=0 time=0
note_on channel=0 note=80 velocity=0 time=0
note_on channel=0 note=28 velocity=0 time=0
note_on channel=0 note=40 velocity=0 time=0
note_on channel=0 note=68 velocity=98 time=0.0013020833333333333
note_on channel=0 note=52 velocity=98 time=0
note_on channel=0 note=68 velocity=0 time=0.07682291666666666
note_on channel=0 note=52 velocity=0 time=0
note_on channel=0 note=71 velocity=99 time=0.0013020833333333333
note_on channel=0 note=47 velocity=99 time=0
note_on channel=0 note=71 velocity=0 time=0.07682291666666666
note_on channel=0 note=47 velocity=0 time=0
note_on channel=0 note=76 velocity=100 time=0.0013020833333333333
note_on channel=0 note=44 velocity=100 time=0
note_on channel=0 note=76 velocity=0 time=0.07682291666666666
note_on channel=0 note=44 velocity=0 time=0
note_on channel=0 note=80 velocity=101 time=0.0013020833333333333
note_on channel=0 note=40 velocity=101 time=0
note_on channel=0 note=80 velocity=0 time=0.07682291666666666
note_on channel=0 note=40 velocity=0 time=0
note_on channel=0 note=83 velocity=102 time=0.0013020833333333333
note_on channel=0 note=35 velocity=102 time=0
note_on channel=0 note=83 velocity=0 time=0.07682291666666666
note_on channel=0 note=35 velocity=0 time=0
note_on channel=0 note=88 velocity=103 time=0.0013020833333333333
note_on channel=0 note=32 velocity=103 time=0
note_on channel=0 note=88 velocity=0 time=0.07682291666666666
note_on channel=0 note=32 velocity=0 time=0
note_on channel=0 note=80 velocity=104 time=0.0013020833333333333
note_on channel=0 note=92 velocity=104 time=0
note_on channel=0 note=28 velocity=104 time=0
note_on channel=0 note=40 velocity=104 time=0
note_on channel=0 note=80 velocity=0 time=0.5924479166666666
note_on channel=0 note=92 velocity=0 time=0
note_on channel=0 note=28 velocity=0 time=0
note_on channel=0 note=40 velocity=0 time=0
note_on channel=0 note=76 velocity=127 time=0.03255208333333333
note_on channel=0 note=81 velocity=127 time=0
note_on channel=0 note=88 velocity=127 time=0
note_on channel=0 note=26 velocity=115 time=0
note_on channel=0 note=38 velocity=115 time=0
control_change channel=0 control=64 value=0 time=0.0013020833333333333
control_change channel=0 control=64 value=127 time=0.0013020833333333333
note_on channel=0 note=26 velocity=0 time=0.30859375
note_on channel=0 note=38 velocity=0 time=0
note_on channel=0 note=38 velocity=96 time=0.0013020833333333333
note_on channel=0 note=38 velocity=0 time=0.14713541666666666
note_on channel=0 note=76 velocity=0 time=0.0078125
note_on channel=0 note=81 velocity=0 time=0
note_on channel=0 note=88 velocity=0 time=0
note_on channel=0 note=54 velocity=112 time=0.0013020833333333333
note_on channel=0 note=57 velocity=112 time=0
note_on channel=0 note=62 velocity=112 time=0
note_on channel=0 note=66 velocity=112 time=0
note_on channel=0 note=42 velocity=96 time=0
note_on channel=0 note=45 velocity=96 time=0
note_on channel=0 note=50 velocity=96 time=0
note_on channel=0 note=42 velocity=0 time=0.29557291666666663
note_on channel=0 note=45 velocity=0 time=0
note_on channel=0 note=50 velocity=0 time=0
note_on channel=0 note=50 velocity=96 time=0.016927083333333332
note_on channel=0 note=50 velocity=0 time=0.14713541666666666
note_on channel=0 note=54 velocity=0 time=0.0078125
note_on channel=0 note=57 velocity=0 time=0
note_on channel=0 note=62 velocity=0 time=0
note_on channel=0 note=66 velocity=0 time=0
note_on channel=0 note=66 velocity=112 time=0.0013020833333333333
note_on channel=0 note=69 velocity=112 time=0
note_on channel=0 note=74 velocity=112 time=0
note_on channel=0 note=78 velocity=112 time=0
note_on channel=0 note=50 velocity=96 time=0
note_on channel=0 note=54 velocity=96 time=0
note_on channel=0 note=57 velocity=96 time=0
note_on channel=0 note=62 velocity=96 time=0
note_on channel=0 note=50 velocity=0 time=0.29557291666666663
note_on channel=0 note=54 velocity=0 time=0
note_on channel=0 note=57 velocity=0 time=0
note_on channel=0 note=62 velocity=0 time=0
note_on channel=0 note=66 velocity=0 time=0.015625
note_on channel=0 note=69 velocity=0 time=0
note_on channel=0 note=74 velocity=0 time=0
note_on channel=0 note=78 velocity=0 time=0
note_on channel=0 note=76 velocity=112 time=0.0013020833333333333
note_on channel=0 note=80 velocity=112 time=0
note_on channel=0 note=83 velocity=112 time=0
note_on channel=0 note=88 velocity=112 time=0
note_on channel=0 note=28 velocity=115 time=0
note_on channel=0 note=40 velocity=115 time=0
control_change channel=0 control=64 value=0 time=0.0013020833333333333
control_change channel=0 control=64 value=127 time=0.0013020833333333333
note_on channel=0 note=28 velocity=0 time=0.30859375
note_on channel=0 note=40 velocity=0 time=0
note_on channel=0 note=40 velocity=96 time=0.0013020833333333333
note_on channel=0 note=40 velocity=0 time=0.14713541666666666
note_on channel=0 note=76 velocity=0 time=0.0078125
note_on channel=0 note=80 velocity=0 time=0
note_on channel=0 note=83 velocity=0 time=0
note_on channel=0 note=88 velocity=0 time=0
note_on channel=0 note=74 velocity=112 time=0.0013020833333333333
note_on channel=0 note=80 velocity=112 time=0
note_on channel=0 note=83 velocity=112 time=0
note_on channel=0 note=86 velocity=112 time=0
note_on channel=0 note=44 velocity=96 time=0
note_on channel=0 note=47 velocity=96 time=0
note_on channel=0 note=52 velocity=96 time=0
note_on channel=0 note=44 velocity=0 time=0.29557291666666663
note_on channel=0 note=47 velocity=0 time=0
note_on channel=0 note=52 velocity=0 time=0
note_on channel=0 note=52 velocity=96 time=0.016927083333333332
note_on channel=0 note=52 velocity=0 time=0.14713541666666666
note_on channel=0 note=74 velocity=0 time=0.0078125
note_on channel=0 note=80 velocity=0 time=0
note_on channel=0 note=83 velocity=0 time=0
note_on channel=0 note=86 velocity=0 time=0
note_on channel=0 note=73 velocity=112 time=0.0013020833333333333
note_on channel=0 note=85 velocity=112 time=0
note_on channel=0 note=56 velocity=96 time=0
note_on channel=0 note=59 velocity=96 time=0
note_on channel=0 note=64 velocity=96 time=0
note_on channel=0 note=56 velocity=0 time=0.14713541666666666
note_on channel=0 note=59 velocity=0 time=0
note_on channel=0 note=64 velocity=0 time=0
note_on channel=0 note=52 velocity=96 time=0.009114583333333332
note_on channel=0 note=52 velocity=0 time=0.14713541666666666
note_on channel=0 note=73 velocity=0 time=0.0078125
note_on channel=0 note=85 velocity=0 time=0
note_on channel=0 note=71 velocity=112 time=0.0013020833333333333
note_on channel=0 note=73 velocity=112 time=0
note_on channel=0 note=78 velocity=112 time=0
note_on channel=0 note=83 velocity=112 time=0
note_on channel=0 note=30 velocity=115 time=0
note_on channel=0 note=42 velocity=115 time=0
control_change channel=0 control=64 value=0 time=0.0013020833333333333
control_change channel=0 control=64 value=127 time=0.0013020833333333333
note_on channel=0 note=30 velocity=0 time=0.30859375
note_on channel=0 note=42 velocity=0 time=0
note_on channel=0 note=42 velocity=96 time=0.0013020833333333333
note_on channel=0 note=42 velocity=0 time=0.14713541666666666
note_on channel=0 note=71 velocity=0 time=0.0078125
note_on channel=0 note=73 velocity=0 time=0
note_on channel=0 note=78 velocity=0 time=0
note_on channel=0 note=83 velocity=0 time=0
note_on channel=0 note=69 velocity=112 time=0.0013020833333333333
note_on channel=0 note=73 velocity=112 time=0
note_on channel=0 note=76 velocity=112 time=0
note_on channel=0 note=81 velocity=112 time=0
note_on channel=0 note=49 velocity=96 time=0
note_on channel=0 note=54 velocity=96 time=0
note_on channel=0 note=49 velocity=0 time=0.29557291666666663
note_on channel=0 note=54 velocity=0 time=0
note_on channel=0 note=54 velocity=96 time=0.016927083333333332
note_on channel=0 note=54 velocity=0 time=0.14713541666666666
note_on channel=0 note=69 velocity=0 time=0.0078125
note_on channel=0 note=73 velocity=0 time=0
note_on channel=0 note=76 velocity=0 time=0
note_on channel=0 note=81 velocity=0 time=0
note_on channel=0 note=71 velocity=112 time=0.0013020833333333333
note_on channel=0 note=83 velocity=112 time=0
note_on channel=0 note=54 velocity=96 time=0
note_on channel=0 note=61 velocity=96 time=0
note_on channel=0 note=66 velocity=96 time=0
note_on channel=0 note=71 velocity=0 time=0.15494791666666666
note_on channel=0 note=83 velocity=0 time=0
note_on channel=0 note=73 velocity=112 time=0.0013020833333333333
note_on channel=0 note=76 velocity=112 time=0
note_on channel=0 note=81 velocity=112 time=0
note_on channel=0 note=85 velocity=112 time=0
note_on channel=0 note=54 velocity=0 time=0.13932291666666666
note_on channel=0 note=61 velocity=0 time=0
note_on channel=0 note=66 velocity=0 time=0
note_on channel=0 note=33 velocity=115 time=0.016927083333333332
note_on channel=0 note=45 velocity=115 time=0
control_change channel=0 control=64 value=0 time=0.0013020833333333333
control_change channel=0 control=64 value=127 time=0.0013020833333333333
note_on channel=0 note=33 velocity=0 time=0.30859375
note_on channel=0 note=45 velocity=0 time=0
note_on channel=0 note=45 velocity=96 time=0.0013020833333333333
note_on channel=0 note=45 velocity=0 time=0.14713541666666666
note_on channel=0 note=49 velocity=96 time=0.009114583333333332
note_on channel=0 note=52 velocity=96 time=0
note_on channel=0 note=57 velocity=96 time=0
note_on channel=0 note=73 velocity=0 time=0.26432291666666663
note_on channel=0 note=76 velocity=0 time=0
note_on channel=0 note=81 velocity=0 time=0
note_on channel=0 note=85 velocity=0 time=0
note_on channel=0 note=49 velocity=0 time=0.03125
note_on channel=0 note=52 velocity=0 time=0
note_on channel=0 note=57 velocity=0 time=0
note_on channel=0 note=57 velocity=96 time=0.016927083333333332
note_on channel=0 note=57 velocity=0 time=0.14713541666666666
note_on channel=0 note=66 velocity=112 time=0.009114583333333332
note_on channel=0 note=78 velocity=112 time=0
note_on channel=0 note=61 velocity=96 time=0
note_on channel=0 note=64 velocity=96 time=0
note_on channel=0 note=61 velocity=0 time=0.14713541666666666
note_on channel=0 note=64 velocity=0 time=0
note_on channel=0 note=66 velocity=0 time=0.0078125
note_on channel=0 note=78 velocity=0 time=0
note_on channel=0 note=68 velocity=112 time=0.0013020833333333333
note_on channel=0 note=80 velocity=112 time=0
note_on channel=0 note=57 velocity=96 time=0
note_on channel=0 note=57 velocity=0 time=0.14713541666666666
note_on channel=0 note=68 velocity=0 time=0.0078125
note_on channel=0 note=80 velocity=0 time=0
note_on channel=0 note=69 velocity=112 time=0.0013020833333333333
note_on channel=0 note=74 velocity=112 time=0
note_on channel=0 note=78 velocity=112 time=0
note_on channel=0 note=81 velocity=112 time=0
note_on channel=0 note=26 velocity=115 time=0
note_on channel=0 note=38 velocity=115 time=0
control_change channel=0 control=64 value=0 time=0.0013020833333333333
control_change channel=0 control=64 value=127 time=0.0013020833333333333
note_on channel=0 note=26 velocity=0 time=0.30859375
note_on channel=0 note=38 velocity=0 time=0
note_on channel=0 note=38 velocity=96 time=0.0013020833333333333
note_on channel=0 note=38 velocity=0 time=0.14713541666666666
note_on channel=0 note=69 velocity=0 time=0.0078125
note_on channel=0 note=74 velocity=0 time=0
note_on channel=0 note=78 velocity=0 time=0
note_on channel=0 note=81 velocity=0 time=0
note_on channel=0 note=71 velocity=112 time=0.0013020833333333333
note_on channel=0 note=83 velocity=112 time=0
note_on channel=0 note=42 velocity=96 time=0
note_on channel=0 note=45 velocity=96 time=0
note_on channel=0 note=50 velocity=96 time=0
note_on channel=0 note=42 velocity=0 time=0.29557291666666663
note_on channel=0 note=45 velocity=0 time=0
note_on channel=0 note=50 velocity=0 time=0
note_on channel=0 note=50 velocity=96 time=0.016927083333333332
note_on channel=0 note=50 velocity=0 time=0.14713541666666666
note_on channel=0 note=71 velocity=0 time=0.0078125
note_on channel=0 note=83 velocity=0 time=0
note_on channel=0 note=73 velocity=112 time=0.0013020833333333333
note_on channel=0 note=85 velocity=112 time=0
note_on channel=0 note=57 velocity=96 time=0
note_on channel=0 note=62 velocity=96 time=0
note_on channel=0 note=57 velocity=0 time=0.14713541666666666
note_on channel=0 note=62 velocity=0 time=0
note_on channel=0 note=50 velocity=96 time=0.009114583333333332
note_on channel=0 note=50 velocity=0 time=0.14713541666666666
note_on channel=0 note=73 velocity=0 time=0.0078125
note_on channel=0 note=85 velocity=0 time=0
note_on channel=0 note=71 velocity=112 time=0.0013020833333333333
note_on channel=0 note=76 velocity=112 time=0
note_on channel=0 note=80 velocity=112 time=0
note_on channel=0 note=83 velocity=112 time=0
note_on channel=0 note=28 velocity=115 time=0
note_on channel=0 note=40 velocity=115 time=0
control_change channel=0 control=64 value=0 time=0.0013020833333333333
control_change channel=0 control=64 value=127 time=0.0013020833333333333
note_on channel=0 note=71 velocity=0 time=0.30859375
note_on channel=0 note=76 velocity=0 time=0
note_on channel=0 note=80 velocity=0 time=0
note_on channel=0 note=83 velocity=0 time=0
note_on channel=0 note=28 velocity=0 time=0
note_on channel=0 note=40 velocity=0 time=0
note_on channel=0 note=64 velocity=112 time=0.0013020833333333333
note_on channel=0 note=68 velocity=112 time=0
note_on channel=0 note=71 velocity=112 time=0
note_on channel=0 note=76 velocity=112 time=0
note_on channel=0 note=40 velocity=96 time=0
note_on channel=0 note=40 velocity=0 time=0.14713541666666666
note_on channel=0 note=44 velocity=96 time=0.009114583333333332
note_on channel=0 note=47 velocity=96 time=0
note_on channel=0 note=52 velocity=96 time=0
note_on channel=0 note=64 velocity=0 time=0.15494791666666666
note_on channel=0 note=68 velocity=0 time=0
note_on channel=0 note=71 velocity=0 time=0
note_on channel=0 note=76 velocity=0 time=0
note_on channel=0 note=76 velocity=112 time=0.0013020833333333333
note_on channel=0 note=88 velocity=112 time=0
note_on channel=0 note=44 velocity=0 time=0.13932291666666666
note_on channel=0 note=47 velocity=0 time=0
note_on channel=0 note=52 velocity=0 time=0
note_on channel=0 note=52 velocity=96 time=0.016927083333333332
note_on channel=0 note=52 velocity=0 time=0.14713541666666666
note_on channel=0 note=76 velocity=0 time=0.0078125
note_on channel=0 note=88 velocity=0 time=0
note_on channel=0 note=74 velocity=112 time=0.0013020833333333333
note_on channel=0 note=86 velocity=112 time=0
note_on channel=0 note=59 velocity=96 time=0
note_on channel=0 note=64 velocity=96 time=0
note_on channel=0 note=59 velocity=0 time=0.14713541666666666
note_on channel=0 note=64 velocity=0 time=0
note_on channel=0 note=52 velocity=96 time=0.009114583333333332
note_on channel=0 note=52 velocity=0 time=0.14713541666666666
note_on channel=0 note=74 velocity=0 time=0.0078125
note_on channel=0 note=86 velocity=0 time=0
note_on channel=0 note=74 velocity=112 time=0.0013020833333333333
note_on channel=0 note=78 velocity=112 time=0
note_on channel=0 note=81 velocity=112 time=0
note_on channel=0 note=86 velocity=112 time=0
note_on channel=0 note=30 velocity=115 time=0
note_on channel=0 note=42 velocity=115 time=0
control_change channel=0 control=64 value=0 time=0.0013020833333333333
control_change channel=0 control=64 value=127 time=0.0013020833333333333
note_on channel=0 note=30 velocity=0 time=0.30859375
note_on channel=0 note=42 velocity=0 time=0
note_on channel=0 note=42 velocity=96 time=0.0013020833333333333
note_on channel=0 note=42 velocity=0 time=0.14713541666666666
note_on channel=0 note=74 velocity=0 time=0.0078125
note_on channel=0 note=78 velocity=0 time=0
note_on channel=0 note=81 velocity=0 time=0
note_on channel=0 note=86 velocity=0 time=0
note_on channel=0 note=73 velocity=112 time=0.0013020833333333333
note_on channel=0 note=78 velocity=112 time=0
note_on channel=0 note=85 velocity=112 time=0
note_on channel=0 note=45 velocity=96 time=0
note_on channel=0 note=49 velocity=96 time=0
note_on channel=0 note=54 velocity=96 time=0
note_on channel=0 note=45 velocity=0 time=0.29557291666666663
note_on channel=0 note=49 velocity=0 time=0
note_on channel=0 note=54 velocity=0 time=0
note_on channel=0 note=54 velocity=96 time=0.016927083333333332
note_on channel=0 note=54 velocity=0 time=0.14713541666666666
note_on channel=0 note=57 velocity=96 time=0.009114583333333332
note_on channel=0 note=61 velocity=96 time=0
note_on channel=0 note=66 velocity=96 time=0
note_on channel=0 note=57 velocity=0 time=0.14713541666666666
note_on channel=0 note=61 velocity=0 time=0
note_on channel=0 note=66 velocity=0 time=0
note_on channel=0 note=73 velocity=0 time=0.0078125
note_on channel=0 note=78 velocity=0 time=0
note_on channel=0 note=85 velocity=0 time=0
note_on channel=0 note=54 velocity=96 time=0.0013020833333333333
note_on channel=0 note=54 velocity=0 time=0.14713541666666666
note_on channel=0 note=71 velocity=112 time=0.009114583333333332
note_on channel=0 note=73 velocity=112 time=0
note_on channel=0 note=83 velocity=112 time=0
note_on channel=0 note=33 velocity=115 time=0
note_on channel=0 note=45 velocity=115 time=0
control_change channel=0 control=64 value=0 time=0.0013020833333333333
control_change channel=0 control=64 value=127 time=0.0013020833333333333
note_on channel=0 note=33 velocity=0 time=0.30859375
note_on channel=0 note=45 velocity=0 time=0
note_on channel=0 note=45 velocity=96 time=0.0013020833333333333
note_on channel=0 note=45 velocity=0 time=0.09765625
note_on channel=0 note=49 velocity=96 time=0.006510416666666666
note_on channel=0 note=49 velocity=0 time=0.09765625
note_on channel=0 note=57 velocity=96 time=0.006510416666666666
note_on channel=0 note=57 velocity=0 time=0.09765625
note_on channel=0 note=71 velocity=0 time=0.005208333333333333
note_on channel=0 note=73 velocity=0 time=0
note_on channel=0 note=83 velocity=0 time=0
note_on channel=0 note=73 velocity=112 time=0.0013020833333333333
note_on channel=0 note=85 velocity=112 time=0
note_on channel=0 note=57 velocity=96 time=0
note_on channel=0 note=57 velocity=0 time=0.09765625
note_on channel=0 note=61 velocity=96 time=0.006510416666666666
note_on channel=0 note=61 velocity=0 time=0.09765625
note_on channel=0 note=64 velocity=96 time=0.006510416666666666
note_on channel=0 note=64 velocity=0 time=0.09765625
note_on channel=0 note=73 velocity=0 time=0.005208333333333333
note_on channel=0 note=85 velocity=0 time=0
note_on channel=0 note=69 velocity=112 time=0.0013020833333333333
note_on channel=0 note=73 velocity=112 time=0
note_on channel=0 note=76 velocity=112 time=0
note_on channel=0 note=81 velocity=112 time=0
note_on channel=0 note=69 velocity=0 time=0.29557291666666663
note_on channel=0 note=73 velocity=0 time=0
note_on channel=0 note=76 velocity=0 time=0
note_on channel=0 note=81 velocity=0 time=0
note_on channel=0 note=26 velocity=115 time=0.016927083333333332
note_on channel=0 note=38 velocity=115 time=0
control_change channel=0 control=64 value=0 time=0.0013020833333333333
control_change channel=0 control=64 value=127 time=0.0013020833333333333
note_on channel=0 note=26 velocity=0 time=0.30859375
note_on channel=0 note=38 velocity=0 time=0
note_on channel=0 note=73 velocity=112 time=0.0013020833333333333
note_on channel=0 note=85 velocity=112 time=0
note_on channel=0 note=38 velocity=96 time=0
note_on channel=0 note=38 velocity=0 time=0.14713541666666666
note_on channel=0 note=73 velocity=0 time=0.0078125
note_on channel=0 note=85 velocity=0 time=0
note_on channel=0 note=74 velocity=112 time=0.0013020833333333333
note_on channel=0 note=86 velocity=112 time=0
note_on channel=0 note=42 velocity=96 time=0
note_on channel=0 note=45 velocity=96 time=0
note_on channel=0 note=50 velocity=96 time=0
note_on channel=0 note=74 velocity=0 time=0.15494791666666666
note_on channel=0 note=86 velocity=0 time=0
note_on channel=0 note=76 velocity=112 time=0.0013020833333333333
note_on channel=0 note=81 velocity=112 time=0
note_on channel=0 note=85 velocity=112 time=0
note_on channel=0 note=88 velocity=112 time=0
note_on channel=0 note=42 velocity=0 time=0.13932291666666666
note_on channel=0 note=45 velocity=0 time=0
note_on channel=0 note=50 velocity=0 time=0
note_on channel=0 note=50 velocity=96 time=0.016927083333333332
note_on channel=0 note=50 velocity=0 time=0.14713541666666666
note_on channel=0 note=57 velocity=96 time=0.009114583333333332
note_on channel=0 note=62 velocity=96 time=0
note_on channel=0 note=57 velocity=0 time=0.14713541666666666
note_on channel=0 note=62 velocity=0 time=0
note_on channel=0 note=50 velocity=96 time=0.009114583333333332
note_on channel=0 note=50 velocity=0 time=0.14713541666666666
note_on channel=0 note=76 velocity=0 time=0.0078125
note_on channel=0 note=81 velocity=0 time=0
note_on channel=0 note=85 velocity=0 time=0
note_on channel=0 note=88 velocity=0 time=0
note_on channel=0 note=68 velocity=112 time=0.0013020833333333333
note_on channel=0 note=71 velocity=112 time=0
note_on channel=0 note=76 velocity=112 time=0
note_on channel=0 note=80 velocity=112 time=0
note_on channel=0 note=28 velocity=115 time=0
note_on channel=0 note=40 velocity=115 time=0
control_change channel=0 control=64 value=0 time=0.0013020833333333333
control_change channel=0 control=64 value=127 time=0.0013020833333333333
note_on channel=0 note=28 velocity=0 time=0.30859375
note_on channel=0 note=40 velocity=0 time=0
note_on channel=0 note=40 velocity=96 time=0.0013020833333333333
note_on channel=0 note=40 velocity=0 time=0.14713541666666666
note_on channel=0 note=68 velocity=0 time=0.0078125
note_on channel=0 note=71 velocity=0 time=0
note_on channel=0 note=76 velocity=0 time=0
note_on channel=0 note=80 velocity=0 time=0
note_on channel=0 note=69 velocity=112 time=0.0013020833333333333
note_on channel=0 note=81 velocity=112 time=0
note_on channel=0 note=44 velocity=96 time=0
note_on channel=0 note=47 velocity=96 time=0
note_on channel=0 note=52 velocity=96 time=0
note_on channel=0 note=44 velocity=0 time=0.29557291666666663
note_on channel=0 note=47 velocity=0 time=0
note_on channel=0 note=52 velocity=0 time=0
note_on channel=0 note=52 velocity=96 time=0.016927083333333332
note_on channel=0 note=52 velocity=0 time=0.14713541666666666
note_on channel=0 note=69 velocity=0 time=0.0078125
note_on channel=0 note=81 velocity=0 time=0
note_on channel=0 note=78 velocity=112 time=0.0013020833333333333
note_on channel=0 note=90 velocity=112 time=0
note_on channel=0 note=59 velocity=96 time=0
note_on channel=0 note=64 velocity=96 time=0
note_on channel=0 note=59 velocity=0 time=0.14713541666666666
note_on channel=0 note=64 velocity=0 time=0
note_on channel=0 note=52 velocity=96 time=0.009114583333333332
note_on channel=0 note=52 velocity=0 time=0.14713541666666666
note_on channel=0 note=78 velocity=0 time=0.0078125
note_on channel=0 note=90 velocity=0 time=0
note_on channel=0 note=76 velocity=112 time=0.0013020833333333333
note_on channel=0 note=81 velocity=112 time=0
note_on channel=0 note=85 velocity=112 time=0
note_on channel=0 note=88 velocity=112 time=0
note_on channel=0 note=30 velocity=115 time=0
note_on channel=0 note=42 velocity=115 time=0
control_change channel=0 control=64 value=0 time=0.0013020833333333333
control_change channel=0 control=64 value=127 time=0.0013020833333333333
note_on channel=0 note=30 velocity=0 time=0.30859375
note_on channel=0 note=42 velocity=0 time=0
note_on channel=0 note=42 velocity=96 time=0.0013020833333333333
note_on channel=0 note=42 velocity=0 time=0.14713541666666666
note_on channel=0 note=76 velocity=0 time=0.0078125
note_on channel=0 note=81 velocity=0 time=0
note_on channel=0 note=85 velocity=0 time=0
note_on channel=0 note=88 velocity=0 time=0
note_on channel=0 note=74 velocity=112 time=0.0013020833333333333
note_on channel=0 note=78 velocity=112 time=0
note_on channel=0 note=81 velocity=112 time=0
note_on channel=0 note=86 velocity=112 time=0
note_on channel=0 note=49 velocity=96 time=0
note_on channel=0 note=54 velocity=96 time=0
note_on channel=0 note=49 velocity=0 time=0.29557291666666663
note_on channel=0 note=54 velocity=0 time=0
note_on channel=0 note=54 velocity=96 time=0.016927083333333332
note_on channel=0 note=54 velocity=0 time=0.14713541666666666
note_on channel=0 note=74 velocity=0 time=0.0078125
note_on channel=0 note=78 velocity=0 time=0
note_on channel=0 note=81 velocity=0 time=0
note_on channel=0 note=86 velocity=0 time=0
note_on channel=0 note=73 velocity=112 time=0.0013020833333333333
note_on channel=0 note=85 velocity=112 time=0
note_on channel=0 note=57 velocity=96 time=0
note_on channel=0 note=61 velocity=96 time=0
note_on channel=0 note=66 velocity=96 time=0
note_on channel=0 note=57 velocity=0 time=0.14713541666666666
note_on channel=0 note=61 velocity=0 time=0
note_on channel=0 note=66 velocity=0 time=0
note_on channel=0 note=54 velocity=96 time=0.009114583333333332
note_on channel=0 note=54 velocity=0 time=0.14713541666666666
note_on channel=0 note=73 velocity=0 time=0.0078125
note_on channel=0 note=85 velocity=0 time=0
note_on channel=0 note=71 velocity=112 time=0.0013020833333333333
note_on channel=0 note=73 velocity=112 time=0
note_on channel=0 note=83 velocity=112 time=0
note_on channel=0 note=33 velocity=115 time=0
note_on channel=0 note=45 velocity=115 time=0
control_change channel=0 control=64 value=0 time=0.0013020833333333333
control_change channel=0 control=64 value=127 time=0.0013020833333333333
note_on channel=0 note=33 velocity=0 time=0.30859375
note_on channel=0 note=45 velocity=0 time=0
note_on channel=0 note=45 velocity=96 time=0.0013020833333333333
note_on channel=0 note=45 velocity=0 time=0.14713541666666666
note_on channel=0 note=71 velocity=0 time=0.0078125
note_on channel=0 note=73 velocity=0 time=0
note_on channel=0 note=83 velocity=0 time=0
note_on channel=0 note=73 velocity=112 time=0.0013020833333333333
note_on channel=0 note=85 velocity=112 time=0
note_on channel=0 note=49 velocity=96 time=0
note_on channel=0 note=52 velocity=96 time=0
note_on channel=0 note=57 velocity=96 time=0
note_on channel=0 note=49 velocity=0 time=0.29557291666666663
note_on channel=0 note=52 velocity=0 time=0
note_on channel=0 note=57 velocity=0 time=0
note_on channel=0 note=57 velocity=96 time=0.016927083333333332
note_on channel=0 note=57 velocity=0 time=0.14713541666666666
note_on channel=0 note=73 velocity=0 time=0.0078125
note_on channel=0 note=85 velocity=0 time=0
note_on channel=0 note=74 velocity=112 time=0.0013020833333333333
note_on channel=0 note=86 velocity=112 time=0
note_on channel=0 note=61 velocity=96 time=0
note_on channel=0 note=64 velocity=96 time=0
note_on channel=0 note=61 velocity=0 time=0.14713541666666666
note_on channel=0 note=64 velocity=0 time=0
note_on channel=0 note=57 velocity=96 time=0.009114583333333332
note_on channel=0 note=74 velocity=0 time=0.13932291666666666
note_on channel=0 note=86 velocity=0 time=0
note_on channel=0 note=57 velocity=0 time=0.0078125
note_on channel=0 note=73 velocity=112 time=0.009114583333333332
note_on channel=0 note=76 velocity=112 time=0
note_on channel=0 note=85 velocity=112 time=0
note_on channel=0 note=26 velocity=115 time=0
note_on channel=0 note=38 velocity=115 time=0
control_change channel=0 control=64 value=0 time=0.0013020833333333333
control_change channel=0 control=64 value=127 time=0.0013020833333333333
note_on channel=0 note=26 velocity=0 time=0.30859375
note_on channel=0 note=38 velocity=0 time=0
note_on channel=0 note=38 velocity=96 time=0.0013020833333333333
note_on channel=0 note=38 velocity=0 time=0.14713541666666666
note_on channel=0 note=73 velocity=0 time=0.0078125
note_on channel=0 note=76 velocity=0 time=0
note_on channel=0 note=85 velocity=0 time=0
note_on channel=0 note=54 velocity=112 time=0.0013020833333333333
note_on channel=0 note=57 velocity=112 time=0
note_on channel=0 note=62 velocity=112 time=0
note_on channel=0 note=66 velocity=112 time=0
note_on channel=0 note=42 velocity=96 time=0
note_on channel=0 note=45 velocity=96 time=0
note_on channel=0 note=50 velocity=96 time=0
note_on channel=0 note=42 velocity=0 time=0.29557291666666663
note_on channel=0 note=45 velocity=0 time=0
note_on channel=0 note=50 velocity=0 time=0
note_on channel=0 note=50 velocity=96 time=0.016927083333333332
note_on channel=0 note=50 velocity=0 time=0.14713541666666666
note_on channel=0 note=54 velocity=0 time=0.0078125
note_on channel=0 note=57 velocity=0 time=0
note_on channel=0 note=62 velocity=0 time=0
note_on channel=0 note=66 velocity=0 time=0
note_on channel=0 note=66 velocity=112 time=0.0013020833333333333
note_on channel=0 note=69 velocity=112 time=0
note_on channel=0 note=74 velocity=112 time=0
note_on channel=0 note=78 velocity=112 time=0
note_on channel=0 note=57 velocity=96 time=0
note_on channel=0 note=64 velocity=96 time=0
note_on channel=0 note=57 velocity=0 time=0.14713541666666666
note_on channel=0 note=64 velocity=0 time=0
note_on channel=0 note=50 velocity=96 time=0.009114583333333332
note_on channel=0 note=50 velocity=0 time=0.14713541666666666
note_on channel=0 note=66 velocity=0 time=0.0078125
note_on channel=0 note=69 velocity=0 time=0
note_on channel=0 note=74 velocity=0 time=0
note_on channel=0 note=78 velocity=0 time=0
note_on channel=0 note=76 velocity=112 time=0.0013020833333333333
note_on channel=0 note=80 velocity=112 time=0
note_on channel=0 note=83 velocity=112 time=0
note_on channel=0 note=88 velocity=112 time=0
note_on channel=0 note=28 velocity=115 time=0
note_on channel=0 note=40 velocity=115 time=0
control_change channel=0 control=64 value=0 time=0.0013020833333333333
control_change channel=0 control=64 value=127 time=0.0013020833333333333
note_on channel=0 note=28 velocity=0 time=0.30859375
note_on channel=0 note=40 velocity=0 time=0
note_on channel=0 note=40 velocity=96 time=0.0013020833333333333
note_on channel=0 note=40 velocity=0 time=0.14713541666666666
note_on channel=0 note=76 velocity=0 time=0.0078125
note_on channel=0 note=80 velocity=0 time=0
note_on channel=0 note=83 velocity=0 time=0
note_on channel=0 note=88 velocity=0 time=0
note_on channel=0 note=68 velocity=112 time=0.0013020833333333333
note_on channel=0 note=71 velocity=112 time=0
note_on channel=0 note=76 velocity=112 time=0
note_on channel=0 note=80 velocity=112 time=0
note_on channel=0 note=47 velocity=96 time=0
note_on channel=0 note=52 velocity=96 time=0
note_on channel=0 note=47 velocity=0 time=0.29557291666666663
note_on channel=0 note=52 velocity=0 time=0
note_on channel=0 note=52 velocity=96 time=0.016927083333333332
note_on channel=0 note=52 velocity=0 time=0.14713541666666666
note_on channel=0 note=68 velocity=0 time=0.0078125
note_on channel=0 note=71 velocity=0 time=0
note_on channel=0 note=76 velocity=0 time=0
note_on channel=0 note=80 velocity=0 time=0
note_on channel=0 note=69 velocity=112 time=0.0013020833333333333
note_on channel=0 note=81 velocity=112 time=0
note_on channel=0 note=56 velocity=96 time=0
note_on channel=0 note=59 velocity=96 time=0
note_on channel=0 note=64 velocity=96 time=0
note_on channel=0 note=56 velocity=0 time=0.14713541666666666
note_on channel=0 note=59 velocity=0 time=0
note_on channel=0 note=64 velocity=0 time=0
note_on channel=0 note=52 velocity=96 time=0.009114583333333332
note_on channel=0 note=52 velocity=0 time=0.14713541666666666
note_on channel=0 note=69 velocity=0 time=0.0078125
note_on channel=0 note=81 velocity=0 time=0
note_on channel=0 note=78 velocity=112 time=0.0013020833333333333
note_on channel=0 note=81 velocity=112 time=0
note_on channel=0 note=86 velocity=112 time=0
note_on channel=0 note=90 velocity=112 time=0
note_on channel=0 note=26 velocity=115 time=0
note_on channel=0 note=38 velocity=115 time=0
control_change channel=0 control=64 value=0 time=0.0013020833333333333
control_change channel=0 control=64 value=127 time=0.0013020833333333333
note_on channel=0 note=26 velocity=0 time=0.30859375
note_on channel=0 note=38 velocity=0 time=0
note_on channel=0 note=38 velocity=96 time=0.0013020833333333333
note_on channel=0 note=38 velocity=0 time=0.14713541666666666
note_on channel=0 note=78 velocity=0 time=0.0078125
note_on channel=0 note=81 velocity=0 time=0
note_on channel=0 note=86 velocity=0 time=0
note_on channel=0 note=90 velocity=0 time=0
note_on channel=0 note=76 velocity=112 time=0.0013020833333333333
note_on channel=0 note=81 velocity=112 time=0
note_on channel=0 note=88 velocity=112 time=0
note_on channel=0 note=42 velocity=96 time=0
note_on channel=0 note=45 velocity=96 time=0
note_on channel=0 note=50 velocity=96 time=0
note_on channel=0 note=42 velocity=0 time=0.29557291666666663
note_on channel=0 note=45 velocity=0 time=0
note_on channel=0 note=50 velocity=0 time=0
note_on channel=0 note=50 velocity=96 time=0.016927083333333332
note_on channel=0 note=50 velocity=0 time=0.14713541666666666
note_on channel=0 note=76 velocity=0 time=0.0078125
note_on channel=0 note=81 velocity=0 time=0
note_on channel=0 note=88 velocity=0 time=0
note_on channel=0 note=81 velocity=112 time=0.0013020833333333333
note_on channel=0 note=93 velocity=112 time=0
note_on channel=0 note=50 velocity=96 time=0
note_on channel=0 note=54 velocity=96 time=0
note_on channel=0 note=57 velocity=96 time=0
note_on channel=0 note=62 velocity=96 time=0
note_on channel=0 note=50 velocity=0 time=0.29557291666666663
note_on channel=0 note=54 velocity=0 time=0
note_on channel=0 note=57 velocity=0 time=0
note_on channel=0 note=62 velocity=0 time=0
note_on channel=0 note=81 velocity=0 time=0.015625
note_on channel=0 note=93 velocity=0 time=0
note_on channel=0 note=80 velocity=112 time=0.0013020833333333333
note_on channel=0 note=85 velocity=112 time=0
note_on channel=0 note=89 velocity=112 time=0
note_on channel=0 note=92 velocity=112 time=0
note_on channel=0 note=25 velocity=115 time=0
note_on channel=0 note=37 velocity=115 time=0
control_change channel=0 control=64 value=0 time=0.0013020833333333333
control_change channel=0 control=64 value=127 time=0.0013020833333333333
note_on channel=0 note=80 velocity=0 time=0.29296875
note_on channel=0 note=85 velocity=0 time=0
note_on channel=0 note=89 velocity=0 time=0
note_on channel=0 note=92 velocity=0 time=0
note_on channel=0 note=25 velocity=0 time=0.015625
note_on channel=0 note=37 velocity=0 time=0
note_on channel=0 note=53 velocity=112 time=0.0013020833333333333
note_on channel=0 note=37 velocity=96 time=0
note_on channel=0 note=53 velocity=0 time=0.10286458333333333
note_on channel=0 note=37 velocity=0 time=0
note_on channel=0 note=56 velocity=112 time=0.0013020833333333333
note_on channel=0 note=41 velocity=96 time=0
note_on channel=0 note=56 velocity=0 time=0.10286458333333333
note_on channel=0 note=41 velocity=0 time=0
note_on channel=0 note=61 velocity=112 time=0.0013020833333333333
note_on channel=0 note=44 velocity=96 time=0
note_on channel=0 note=61 velocity=0 time=0.10286458333333333
note_on channel=0 note=44 velocity=0 time=0
note_on channel=0 note=65 velocity=112 time=0.0013020833333333333
note_on channel=0 note=49 velocity=96 time=0
note_on channel=0 note=65 velocity=0 time=0.10286458333333333
note_on channel=0 note=49 velocity=0 time=0
note_on channel=0 note=68 velocity=112 time=0.0013020833333333333
note_on channel=0 note=53 velocity=96 time=0
note_on channel=0 note=68 velocity=0 time=0.10286458333333333
note_on channel=0 note=53 velocity=0 time=0
note_on channel=0 note=73 velocity=112 time=0.0013020833333333333
note_on channel=0 note=56 velocity=96 time=0
note_on channel=0 note=73 velocity=0 time=0.10286458333333333
note_on channel=0 note=56 velocity=0 time=0
note_on channel=0 note=77 velocity=112 time=0.0013020833333333333
note_on channel=0 note=61 velocity=96 time=0
note_on channel=0 note=77 velocity=0 time=0.10286458333333333
note_on channel=0 note=61 velocity=0 time=0
note_on channel=0 note=80 velocity=112 time=0.0013020833333333333
note_on channel=0 note=65 velocity=96 time=0
note_on channel=0 note=80 velocity=0 time=0.10286458333333333
note_on channel=0 note=65 velocity=0 time=0
note_on channel=0 note=85 velocity=112 time=0.0013020833333333333
note_on channel=0 note=68 velocity=96 time=0
note_on channel=0 note=85 velocity=0 time=0.10286458333333333
note_on channel=0 note=68 velocity=0 time=0
note_on channel=0 note=89 velocity=112 time=0.0013020833333333333
note_on channel=0 note=73 velocity=96 time=0
note_on channel=0 note=89 velocity=0 time=0.10286458333333333
note_on channel=0 note=73 velocity=0 time=0
note_on channel=0 note=92 velocity=112 time=0.0013020833333333333
note_on channel=0 note=77 velocity=96 time=0
note_on channel=0 note=92 velocity=0 time=0.10286458333333333
note_on channel=0 note=77 velocity=0 time=0
note_on channel=0 note=97 velocity=112 time=0.0013020833333333333
note_on channel=0 note=80 velocity=96 time=0
note_on channel=0 note=97 velocity=0 time=0.10286458333333333
note_on channel=0 note=80 velocity=0 time=0
note_on channel=0 note=89 velocity=112 time=0.0013020833333333333
note_on channel=0 note=92 velocity=112 time=0
note_on channel=0 note=97 velocity=112 time=0
note_on channel=0 note=101 velocity=112 time=0
note_on channel=0 note=77 velocity=96 time=0
note_on channel=0 note=80 velocity=96 time=0
note_on channel=0 note=85 velocity=96 time=0
note_on channel=0 note=89 velocity=0 time=2.0768229166666665
note_on channel=0 note=92 velocity=0 time=0
note_on channel=0 note=97 velocity=0 time=0
note_on channel=0 note=101 velocity=0 time=0
note_on channel=0 note=77 velocity=0 time=0
note_on channel=0 note=80 velocity=0 time=0
note_on channel=0 note=85 velocity=0 time=0
note_on channel=0 note=88 velocity=76 time=0.11067708333333333
note_on channel=0 note=50 velocity=64 time=0
note_on channel=0 note=57 velocity=64 time=0
note_on channel=0 note=62 velocity=64 time=0
control_change channel=0 control=64 value=0 time=0.0013020833333333333
control_change channel=0 control=64 value=127 time=0.0013020833333333333
note_on channel=0 note=88 velocity=0 time=0.15234375
note_on channel=0 note=76 velocity=64 time=0.0013020833333333333
note_on channel=0 note=76 velocity=0 time=0.15494791666666666
note_on channel=0 note=81 velocity=64 time=0.0013020833333333333
note_on channel=0 note=81 velocity=0 time=0.15494791666666666
note_on channel=0 note=88 velocity=76 time=0.0013020833333333333
note_on channel=0 note=88 velocity=0 time=0.15494791666666666
note_on channel=0 note=76 velocity=64 time=0.0013020833333333333
note_on channel=0 note=76 velocity=0 time=0.15494791666666666
note_on channel=0 note=81 velocity=64 time=0.0013020833333333333
note_on channel=0 note=81 velocity=0 time=0.15494791666666666
note_on channel=0 note=88 velocity=76 time=0.0013020833333333333
note_on channel=0 note=88 velocity=0 time=0.15494791666666666
note_on channel=0 note=76 velocity=64 time=0.0013020833333333333
note_on channel=0 note=50 velocity=0 time=0.09244791666666666
note_on channel=0 note=57 velocity=0 time=0
note_on channel=0 note=62 velocity=0 time=0
note_on channel=0 note=76 velocity=0 time=0.0625
note_on channel=0 note=88 velocity=76 time=0.0013020833333333333
note_on channel=0 note=52 velocity=64 time=0
note_on channel=0 note=59 velocity=64 time=0
note_on channel=0 note=64 velocity=64 time=0
control_change channel=0 control=64 value=0 time=0.0013020833333333333
control_change channel=0 control=64 value=127 time=0.0013020833333333333
note_on channel=0 note=88 velocity=0 time=0.15234375
note_on channel=0 note=76 velocity=64 time=0.0013020833333333333
note_on channel=0 note=76 velocity=0 time=0.15494791666666666
note_on channel=0 note=81 velocity=64 time=0.0013020833333333333
note_on channel=0 note=81 velocity=0 time=0.15494791666666666
note_on channel=0 note=86 velocity=76 time=0.0013020833333333333
note_on channel=0 note=86 velocity=0 time=0.15494791666666666
note_on channel=0 note=76 velocity=64 time=0.0013020833333333333
note_on channel=0 note=76 velocity=0 time=0.15494791666666666
note_on channel=0 note=81 velocity=64 time=0.0013020833333333333
note_on channel=0 note=81 velocity=0 time=0.15494791666666666
note_on channel=0 note=85 velocity=76 time=0.0013020833333333333
note_on channel=0 note=85 velocity=0 time=0.15494791666666666
note_on channel=0 note=76 velocity=64 time=0.0013020833333333333
note_on channel=0 note=52 velocity=0 time=0.09244791666666666
note_on channel=0 note=59 velocity=0 time=0
note_on channel=0 note=64 velocity=0 time=0
note_on channel=0 note=76 velocity=0 time=0.0546875
note_on channel=0 note=83 velocity=76 time=0.009114583333333332
note_on channel=0 note=54 velocity=64 time=0
note_on channel=0 note=61 velocity=64 time=0
note_on channel=0 note=66 velocity=64 time=0
control_change channel=0 control=64 value=0 time=0.0013020833333333333
control_change channel=0 control=64 value=127 time=0.0013020833333333333
note_on channel=0 note=83 velocity=0 time=0.15234375
note_on channel=0 note=76 velocity=64 time=0.0013020833333333333
note_on channel=0 note=76 velocity=0 time=0.15494791666666666
note_on channel=0 note=80 velocity=64 time=0.0013020833333333333
note_on channel=0 note=80 velocity=0 time=0.15494791666666666
note_on channel=0 note=81 velocity=76 time=0.0013020833333333333
note_on channel=0 note=81 velocity=0 time=0.15494791666666666
note_on channel=0 note=76 velocity=64 time=0.0013020833333333333
note_on channel=0 note=76 velocity=0 time=0.15494791666666666
note_on channel=0 note=81 velocity=64 time=0.0013020833333333333
note_on channel=0 note=81 velocity=0 time=0.15494791666666666
note_on channel=0 note=83 velocity=76 time=0.0013020833333333333
note_on channel=0 note=83 velocity=0 time=0.15494791666666666
note_on channel=0 note=76 velocity=64 time=0.0013020833333333333
note_on channel=0 note=54 velocity=0 time=0.09244791666666666
note_on channel=0 note=61 velocity=0 time=0
note_on channel=0 note=66 velocity=0 time=0
note_on channel=0 note=76 velocity=0 time=0.0625
note_on channel=0 note=85 velocity=76 time=0.0013020833333333333
note_on channel=0 note=57 velocity=64 time=0
note_on channel=0 note=64 velocity=64 time=0
note_on channel=0 note=69 velocity=64 time=0
control_change channel=0 control=64 value=0 time=0.0013020833333333333
control_change channel=0 control=64 value=127 time=0.0013020833333333333
note_on channel=0 note=85 velocity=0 time=0.15234375
note_on channel=0 note=76 velocity=64 time=0.0013020833333333333
note_on channel=0 note=76 velocity=0 time=0.15494791666666666
note_on channel=0 note=81 velocity=64 time=0.0013020833333333333
note_on channel=0 note=81 velocity=0 time=0.15494791666666666
note_on channel=0 note=85 velocity=76 time=0.0013020833333333333
note_on channel=0 note=85 velocity=0 time=0.15494791666666666
note_on channel=0 note=76 velocity=64 time=0.0013020833333333333
note_on channel=0 note=76 velocity=0 time=0.15494791666666666
note_on channel=0 note=81 velocity=64 time=0.0013020833333333333
note_on channel=0 note=81 velocity=0 time=0.15494791666666666
note_on channel=0 note=83 velocity=76 time=0.0013020833333333333
note_on channel=0 note=83 velocity=0 time=0.15494791666666666
note_on channel=0 note=80 velocity=64 time=0.0013020833333333333
note_on channel=0 note=57 velocity=0 time=0.09244791666666666
note_on channel=0 note=64 velocity=0 time=0
note_on channel=0 note=69 velocity=0 time=0
note_on channel=0 note=80 velocity=0 time=0.0546875
note_on channel=0 note=81 velocity=76 time=0.009114583333333332
note_on channel=0 note=50 velocity=64 time=0
note_on channel=0 note=57 velocity=64 time=0
note_on channel=0 note=62 velocity=64 time=0
control_change channel=0 control=64 value=0 time=0.0013020833333333333
control_change channel=0 control=64 value=127 time=0.0013020833333333333
note_on channel=0 note=81 velocity=0 time=0.15234375
note_on channel=0 note=76 velocity=64 time=0.0013020833333333333
note_on channel=0 note=76 velocity=0 time=0.15494791666666666
note_on channel=0 note=81 velocity=64 time=0.0013020833333333333
note_on channel=0 note=81 velocity=0 time=0.15494791666666666
note_on channel=0 note=83 velocity=76 time=0.0013020833333333333
note_on channel=0 note=83 velocity=0 time=0.15494791666666666
note_on channel=0 note=76 velocity=64 time=0.0013020833333333333
note_on channel=0 note=76 velocity=0 time=0.15494791666666666
note_on channel=0 note=81 velocity=64 time=0.0013020833333333333
note_on channel=0 note=81 velocity=0 time=0.15494791666666666
note_on channel=0 note=85 velocity=76 time=0.0013020833333333333
note_on channel=0 note=85 velocity=0 time=0.15494791666666666
note_on channel=0 note=76 velocity=64 time=0.0013020833333333333
note_on channel=0 note=50 velocity=0 time=0.09244791666666666
note_on channel=0 note=57 velocity=0 time=0
note_on channel=0 note=62 velocity=0 time=0
note_on channel=0 note=76 velocity=0 time=0.0625
note_on channel=0 note=83 velocity=76 time=0.0013020833333333333
note_on channel=0 note=52 velocity=64 time=0
note_on channel=0 note=59 velocity=64 time=0
note_on channel=0 note=64 velocity=64 time=0
control_change channel=0 control=64 value=0 time=0.0013020833333333333
control_change channel=0 control=64 value=127 time=0.0013020833333333333
note_on channel=0 note=83 velocity=0 time=0.15234375
note_on channel=0 note=76 velocity=64 time=0.0013020833333333333
note_on channel=0 note=76 velocity=0 time=0.15494791666666666
note_on channel=0 note=80 velocity=64 time=0.0013020833333333333
note_on channel=0 note=80 velocity=0 time=0.15494791666666666
note_on channel=0 note=81 velocity=64 time=0.0013020833333333333
note_on channel=0 note=81 velocity=0 time=0.15494791666666666
note_on channel=0 note=88 velocity=76 time=0.0013020833333333333
note_on channel=0 note=88 velocity=0 time=0.15494791666666666
note_on channel=0 note=76 velocity=64 time=0.0013020833333333333
note_on channel=0 note=76 velocity=0 time=0.15494791666666666
note_on channel=0 note=86 velocity=76 time=0.0013020833333333333
note_on channel=0 note=86 velocity=0 time=0.15494791666666666
note_on channel=0 note=76 velocity=64 time=0.0013020833333333333
note_on channel=0 note=52 velocity=0 time=0.09244791666666666
note_on channel=0 note=59 velocity=0 time=0
note_on channel=0 note=64 velocity=0 time=0
note_on channel=0 note=76 velocity=0 time=0.0546875
note_on channel=0 note=86 velocity=76 time=0.009114583333333332
note_on channel=0 note=54 velocity=64 time=0
note_on channel=0 note=61 velocity=64 time=0
note_on channel=0 note=66 velocity=64 time=0
control_change channel=0 control=64 value=0 time=0.0013020833333333333
control_change channel=0 control=64 value=127 time=0.0013020833333333333
note_on channel=0 note=86 velocity=0 time=0.15234375
note_on channel=0 note=76 velocity=64 time=0.0013020833333333333
note_on channel=0 note=76 velocity=0 time=0.15494791666666666
note_on channel=0 note=81 velocity=64 time=0.0013020833333333333
note_on channel=0 note=81 velocity=0 time=0.15494791666666666
note_on channel=0 note=85 velocity=76 time=0.0013020833333333333
note_on channel=0 note=85 velocity=0 time=0.15494791666666666
note_on channel=0 note=76 velocity=64 time=0.0013020833333333333
note_on channel=0 note=76 velocity=0 time=0.15494791666666666
note_on channel=0 note=81 velocity=64 time=0.0013020833333333333
note_on channel=0 note=81 velocity=0 time=0.15494791666666666
note_on channel=0 note=85 velocity=76 time=0.0013020833333333333
note_on channel=0 note=85 velocity=0 time=0.15494791666666666
note_on channel=0 note=76 velocity=64 time=0.0013020833333333333
note_on channel=0 note=54 velocity=0 time=0.09244791666666666
note_on channel=0 note=61 velocity=0 time=0
note_on channel=0 note=66 velocity=0 time=0
note_on channel=0 note=76 velocity=0 time=0.0625
note_on channel=0 note=83 velocity=76 time=0.0013020833333333333
note_on channel=0 note=57 velocity=64 time=0
note_on channel=0 note=64 velocity=64 time=0
note_on channel=0 note=69 velocity=64 time=0
control_change channel=0 control=64 value=0 time=0.0013020833333333333
control_change channel=0 control=64 value=127 time=0.0013020833333333333
note_on channel=0 note=83 velocity=0 time=0.15234375
note_on channel=0 note=76 velocity=64 time=0.0013020833333333333
note_on channel=0 note=76 velocity=0 time=0.15494791666666666
note_on channel=0 note=81 velocity=64 time=0.0013020833333333333
note_on channel=0 note=81 velocity=0 time=0.15494791666666666
note_on channel=0 note=85 velocity=76 time=0.0013020833333333333
note_on channel=0 note=85 velocity=0 time=0.15494791666666666
note_on channel=0 note=76 velocity=64 time=0.0013020833333333333
note_on channel=0 note=76 velocity=0 time=0.15494791666666666
note_on channel=0 note=81 velocity=64 time=0.0013020833333333333
note_on channel=0 note=81 velocity=0 time=0.15494791666666666
note_on channel=0 note=81 velocity=76 time=0.0013020833333333333
note_on channel=0 note=81 velocity=0 time=0.15494791666666666
note_on channel=0 note=76 velocity=64 time=0.0013020833333333333
note_on channel=0 note=57 velocity=0 time=0.09244791666666666
note_on channel=0 note=64 velocity=0 time=0
note_on channel=0 note=69 velocity=0 time=0
note_on channel=0 note=76 velocity=0 time=0.0546875
note_on channel=0 note=81 velocity=76 time=0.009114583333333332
note_on channel=0 note=50 velocity=64 time=0
control_change channel=0 control=64 value=0 time=0.0013020833333333333
control_change channel=0 control=64 value=127 time=0.0013020833333333333
note_on channel=0 note=81 velocity=0 time=0.15234375
note_on channel=0 note=76 velocity=64 time=0.0013020833333333333
note_on channel=0 note=76 velocity=0 time=0.15494791666666666
note_on channel=0 note=85 velocity=76 time=0.0013020833333333333
note_on channel=0 note=50 velocity=0 time=0.13151041666666666
note_on channel=0 note=85 velocity=0 time=0.0234375
note_on channel=0 note=86 velocity=76 time=0.0013020833333333333
note_on channel=0 note=57 velocity=64 time=0
note_on channel=0 note=86 velocity=0 time=0.15494791666666666
note_on channel=0 note=88 velocity=76 time=0.0013020833333333333
note_on channel=0 note=88 velocity=0 time=0.15494791666666666
note_on channel=0 note=76 velocity=64 time=0.0013020833333333333
note_on channel=0 note=57 velocity=0 time=0.13151041666666666
note_on channel=0 note=76 velocity=0 time=0.0234375
note_on channel=0 note=85 velocity=64 time=0.0013020833333333333
note_on channel=0 note=62 velocity=80 time=0
note_on channel=0 note=85 velocity=0 time=0.15494791666666666
note_on channel=0 note=88 velocity=64 time=0.0013020833333333333
note_on channel=0 note=62 velocity=0 time=0.13932291666666666
note_on channel=0 note=88 velocity=0 time=0.015625
note_on channel=0 note=80 velocity=76 time=0.0013020833333333333
note_on channel=0 note=52 velocity=64 time=0
control_change channel=0 control=64 value=0 time=0.0013020833333333333
control_change channel=0 control=64 value=127 time=0.0013020833333333333
note_on channel=0 note=80 velocity=0 time=0.15234375
note_on channel=0 note=76 velocity=64 time=0.0013020833333333333
note_on channel=0 note=76 velocity=0 time=0.15494791666666666
note_on channel=0 note=80 velocity=64 time=0.0013020833333333333
note_on channel=0 note=52 velocity=0 time=0.13151041666666666
note_on channel=0 note=80 velocity=0 time=0.0234375
note_on channel=0 note=81 velocity=76 time=0.0013020833333333333
note_on channel=0 note=59 velocity=64 time=0
note_on channel=0 note=81 velocity=0 time=0.15494791666666666
note_on channel=0 note=76 velocity=64 time=0.0013020833333333333
note_on channel=0 note=76 velocity=0 time=0.15494791666666666
note_on channel=0 note=81 velocity=64 time=0.0013020833333333333
note_on channel=0 note=59 velocity=0 time=0.13151041666666666
note_on channel=0 note=81 velocity=0 time=0.0234375
note_on channel=0 note=90 velocity=76 time=0.0013020833333333333
note_on channel=0 note=64 velocity=80 time=0
note_on channel=0 note=90 velocity=0 time=0.15494791666666666
note_on channel=0 note=76 velocity=64 time=0.0013020833333333333
note_on channel=0 note=64 velocity=0 time=0.13932291666666666
note_on channel=0 note=76 velocity=0 time=0.0078125
note_on channel=0 note=88 velocity=76 time=0.009114583333333332
note_on channel=0 note=54 velocity=64 time=0
control_change channel=0 control=64 value=0 time=0.0013020833333333333
control_change channel=0 control=64 value=127 time=0.0013020833333333333
note_on channel=0 note=88 velocity=0 time=0.15234375
note_on channel=0 note=76 velocity=64 time=0.0013020833333333333
note_on channel=0 note=76 velocity=0 time=0.15494791666666666
note_on channel=0 note=81 velocity=64 time=0.0013020833333333333
note_on channel=0 note=54 velocity=0 time=0.13151041666666666
note_on channel=0 note=81 velocity=0 time=0.0234375
note_on channel=0 note=86 velocity=76 time=0.0013020833333333333
note_on channel=0 note=61 velocity=64 time=0
note_on channel=0 note=86 velocity=0 time=0.15494791666666666
note_on channel=0 note=76 velocity=64 time=0.0013020833333333333
note_on channel=0 note=76 velocity=0 time=0.15494791666666666
note_on channel=0 note=81 velocity=64 time=0.0013020833333333333
note_on channel=0 note=61 velocity=0 time=0.13151041666666666
note_on channel=0 note=81 velocity=0 time=0.0234375
note_on channel=0 note=85 velocity=76 time=0.0013020833333333333
note_on channel=0 note=66 velocity=80 time=0
note_on channel=0 note=85 velocity=0 time=0.15494791666666666
note_on channel=0 note=76 velocity=64 time=0.0013020833333333333
note_on channel=0 note=66 velocity=0 time=0.13932291666666666
note_on channel=0 note=76 velocity=0 time=0.015625
note_on channel=0 note=83 velocity=76 time=0.0013020833333333333
note_on channel=0 note=57 velocity=64 time=0
control_change channel=0 control=64 value=0 time=0.0013020833333333333
control_change channel=0 control=64 value=127 time=0.0013020833333333333
note_on channel=0 note=83 velocity=0 time=0.15234375
note_on channel=0 note=76 velocity=64 time=0.0013020833333333333
note_on channel=0 note=76 velocity=0 time=0.15494791666666666
note_on channel=0 note=81 velocity=64 time=0.0013020833333333333
note_on channel=0 note=57 velocity=0 time=0.13151041666666666
note_on channel=0 note=81 velocity=0 time=0.0234375
note_on channel=0 note=85 velocity=76 time=0.0013020833333333333
note_on channel=0 note=64 velocity=64 time=0
note_on channel=0 note=85 velocity=0 time=0.15494791666666666
note_on channel=0 note=76 velocity=64 time=0.0013020833333333333
note_on channel=0 note=76 velocity=0 time=0.15494791666666666
note_on channel=0 note=85 velocity=64 time=0.0013020833333333333
note_on channel=0 note=64 velocity=0 time=0.13151041666666666
note_on channel=0 note=85 velocity=0 time=0.0234375
note_on channel=0 note=86 velocity=76 time=0.0013020833333333333
note_on channel=0 note=69 velocity=80 time=0
note_on channel=0 note=86 velocity=0 time=0.15494791666666666
note_on channel=0 note=76 velocity=64 time=0.0013020833333333333
note_on channel=0 note=69 velocity=0 time=0.13932291666666666
note_on channel=0 note=76 velocity=0 time=0.0078125
note_on channel=0 note=85 velocity=96 time=0.009114583333333332
note_on channel=0 note=38 velocity=80 time=0
note_on channel=0 note=50 velocity=80 time=0
control_change channel=0 control=64 value=0 time=0.0013020833333333333
control_change channel=0 control=64 value=127 time=0.0013020833333333333
note_on channel=0 note=85 velocity=0 time=0.15234375
note_on channel=0 note=76 velocity=80 time=0.0013020833333333333
note_on channel=0 note=38 velocity=0 time=0.13932291666666666
note_on channel=0 note=50 velocity=0 time=0
note_on channel=0 note=76 velocity=0 time=0.015625
note_on channel=0 note=80 velocity=80 time=0.0013020833333333333
note_on channel=0 note=50 velocity=80 time=0
note_on channel=0 note=50 velocity=0 time=0.14713541666666666
note_on channel=0 note=80 velocity=0 time=0.0078125
note_on channel=0 note=81 velocity=80 time=0.0013020833333333333
note_on channel=0 note=57 velocity=80 time=0
note_on channel=0 note=62 velocity=80 time=0
note_on channel=0 note=81 velocity=0 time=0.15494791666666666
note_on channel=0 note=76 velocity=80 time=0.0013020833333333333
note_on channel=0 note=57 velocity=0 time=0.13932291666666666
note_on channel=0 note=62 velocity=0 time=0
note_on channel=0 note=76 velocity=0 time=0.015625
note_on channel=0 note=81 velocity=80 time=0.0013020833333333333
note_on channel=0 note=50 velocity=80 time=0
note_on channel=0 note=50 velocity=0 time=0.14713541666666666
note_on channel=0 note=81 velocity=0 time=0.0078125
note_on channel=0 note=88 velocity=96 time=0.0013020833333333333
note_on channel=0 note=57 velocity=80 time=0
note_on channel=0 note=62 velocity=80 time=0
note_on channel=0 note=57 velocity=0 time=0.14713541666666666
note_on channel=0 note=62 velocity=0 time=0
note_on channel=0 note=88 velocity=0 time=0.0078125
note_on channel=0 note=76 velocity=80 time=0.0013020833333333333
note_on channel=0 note=50 velocity=80 time=0
note_on channel=0 note=50 velocity=0 time=0.14713541666666666
note_on channel=0 note=76 velocity=0 time=0.0078125
note_on channel=0 note=88 velocity=96 time=0.0013020833333333333
note_on channel=0 note=40 velocity=80 time=0
note_on channel=0 note=52 velocity=80 time=0
control_change channel=0 control=64 value=0 time=0.0013020833333333333
control_change channel=0 control=64 value=127 time=0.0013020833333333333
note_on channel=0 note=88 velocity=0 time=0.15234375
note_on channel=0 note=76 velocity=80 time=0.0013020833333333333
note_on channel=0 note=40 velocity=0 time=0.13932291666666666
note_on channel=0 note=52 velocity=0 time=0
note_on channel=0 note=76 velocity=0 time=0.015625
note_on channel=0 note=80 velocity=80 time=0.0013020833333333333
note_on channel=0 note=52 velocity=80 time=0
note_on channel=0 note=52 velocity=0 time=0.14713541666666666
note_on channel=0 note=80 velocity=0 time=0.0078125
note_on channel=0 note=81 velocity=80 time=0.0013020833333333333
note_on channel=0 note=59 velocity=80 time=0
note_on channel=0 note=64 velocity=80 time=0
note_on channel=0 note=81 velocity=0 time=0.15494791666666666
note_on channel=0 note=76 velocity=80 time=0.0013020833333333333
note_on channel=0 note=59 velocity=0 time=0.13932291666666666
note_on channel=0 note=64 velocity=0 time=0
note_on channel=0 note=76 velocity=0 time=0.015625
note_on channel=0 note=81 velocity=80 time=0.0013020833333333333
note_on channel=0 note=52 velocity=80 time=0
note_on channel=0 note=52 velocity=0 time=0.14713541666666666
note_on channel=0 note=81 velocity=0 time=0.0078125
note_on channel=0 note=88 velocity=96 time=0.0013020833333333333
note_on channel=0 note=59 velocity=80 time=0
note_on channel=0 note=64 velocity=80 time=0
note_on channel=0 note=59 velocity=0 time=0.14713541666666666
note_on channel=0 note=64 velocity=0 time=0
note_on channel=0 note=88 velocity=0 time=0.0078125
note_on channel=0 note=76 velocity=80 time=0.0013020833333333333
note_on channel=0 note=52 velocity=80 time=0
note_on channel=0 note=76 velocity=0 time=0.14713541666666666
note_on channel=0 note=52 velocity=0 time=0
note_on channel=0 note=90 velocity=96 time=0.009114583333333332
note_on channel=0 note=38 velocity=80 time=0
note_on channel=0 note=50 velocity=80 time=0
control_change channel=0 control=64 value=0 time=0.0013020833333333333
control_change channel=0 control=64 value=127 time=0.0013020833333333333
note_on channel=0 note=90 velocity=0 time=0.15234375
note_on channel=0 note=76 velocity=82 time=0.0013020833333333333
note_on channel=0 note=38 velocity=0 time=0.13932291666666666
note_on channel=0 note=50 velocity=0 time=0
note_on channel=0 note=76 velocity=0 time=0.015625
note_on channel=0 note=81 velocity=84 time=0.0013020833333333333
note_on channel=0 note=50 velocity=84 time=0
note_on channel=0 note=50 velocity=0 time=0.14713541666666666
note_on channel=0 note=81 velocity=0 time=0.0078125
note_on channel=0 note=88 velocity=103 time=0.0013020833333333333
note_on channel=0 note=57 velocity=86 time=0
note_on channel=0 note=62 velocity=86 time=0
note_on channel=0 note=88 velocity=0 time=0.15494791666666666
note_on channel=0 note=76 velocity=88 time=0.0013020833333333333
note_on channel=0 note=57 velocity=0 time=0.13932291666666666
note_on channel=0 note=62 velocity=0 time=0
note_on channel=0 note=76 velocity=0 time=0.015625
note_on channel=0 note=81 velocity=90 time=0.0013020833333333333
note_on channel=0 note=50 velocity=90 time=0
note_on channel=0 note=50 velocity=0 time=0.14713541666666666
note_on channel=0 note=81 velocity=0 time=0.0078125
note_on channel=0 note=93 velocity=110 time=0.0013020833333333333
note_on channel=0 note=57 velocity=92 time=0
note_on channel=0 note=62 velocity=92 time=0
note_on channel=0 note=57 velocity=0 time=0.14713541666666666
note_on channel=0 note=62 velocity=0 time=0
note_on channel=0 note=93 velocity=0 time=0.0078125
note_on channel=0 note=76 velocity=94 time=0.0013020833333333333
note_on channel=0 note=50 velocity=94 time=0
note_on channel=0 note=50 velocity=0 time=0.14713541666666666
note_on channel=0 note=76 velocity=0 time=0.0078125
note_on channel=0 note=92 velocity=115 time=0.0013020833333333333
note_on channel=0 note=37 velocity=115 time=0
note_on channel=0 note=49 velocity=115 time=0
control_change channel=0 control=64 value=0 time=0.0013020833333333333
control_change channel=0 control=64 value=127 time=0.0013020833333333333
note_on channel=0 note=92 velocity=0 time=0.30859375
note_on channel=0 note=37 velocity=0 time=0
note_on channel=0 note=49 velocity=0 time=0
note_on channel=0 note=65 velocity=96 time=0.0013020833333333333
note_on channel=0 note=61 velocity=96 time=0
note_on channel=0 note=65 velocity=0 time=0.10286458333333333
note_on channel=0 note=61 velocity=0 time=0
note_on channel=0 note=68 velocity=96 time=0.0013020833333333333
note_on channel=0 note=56 velocity=96 time=0
note_on channel=0 note=68 velocity=0 time=0.10286458333333333
note_on channel=0 note=56 velocity=0 time=0
note_on channel=0 note=73 velocity=97 time=0.0013020833333333333
note_on channel=0 note=53 velocity=97 time=0
note_on channel=0 note=73 velocity=0 time=0.10286458333333333
note_on channel=0 note=53 velocity=0 time=0
note_on channel=0 note=77 velocity=98 time=0.0013020833333333333
note_on channel=0 note=49 velocity=98 time=0
note_on channel=0 note=77 velocity=0 time=0.10286458333333333
note_on channel=0 note=49 velocity=0 time=0
note_on channel=0 note=80 velocity=99 time=0.0013020833333333333
note_on channel=0 note=44 velocity=99 time=0
note_on channel=0 note=80 velocity=0 time=0.10286458333333333
note_on channel=0 note=44 velocity=0 time=0
note_on channel=0 note=85 velocity=99 time=0.0013020833333333333
note_on channel=0 note=41 velocity=99 time=0
note_on channel=0 note=85 velocity=0 time=0.10286458333333333
note_on channel=0 note=41 velocity=0 time=0
note_on channel=0 note=89 velocity=100 time=0.0013020833333333333
note_on channel=0 note=37 velocity=100 time=0
note_on channel=0 note=89 velocity=0 time=0.10286458333333333
note_on channel=0 note=37 velocity=0 time=0
note_on channel=0 note=92 velocity=101 time=0.0013020833333333333
note_on channel=0 note=32 velocity=101 time=0
note_on channel=0 note=92 velocity=0 time=0.10286458333333333
note_on channel=0 note=32 velocity=0 time=0
note_on channel=0 note=97 velocity=102 time=0.0013020833333333333
note_on channel=0 note=29 velocity=102 time=0
note_on channel=0 note=97 velocity=0 time=0.09765625
note_on channel=0 note=29 velocity=0 time=0
<meta message time_signature numerator=2 denominator=4 clocks_per_click=24 notated_32nd_notes_per_beat=8 time=0.006510416666666666>
note_on channel=0 note=89 velocity=122 time=0
note_on channel=0 note=92 velocity=122 time=0
note_on channel=0 note=101 velocity=122 time=0
note_on channel=0 note=25 velocity=122 time=0
note_on channel=0 note=37 velocity=122 time=0
control_change channel=0 control=64 value=0 time=0.0013020833333333333
control_change channel=0 control=64 value=127 time=0.0013020833333333333
note_on channel=0 note=25 velocity=0 time=0.30859375
note_on channel=0 note=37 velocity=0 time=0
note_on channel=0 note=37 velocity=105 time=0.0013020833333333333
note_on channel=0 note=37 velocity=0 time=0.14713541666666666
note_on channel=0 note=89 velocity=0 time=0.0078125
note_on channel=0 note=92 velocity=0 time=0
note_on channel=0 note=101 velocity=0 time=0
note_on channel=0 note=53 velocity=106 time=0.0013020833333333333
note_on channel=0 note=56 velocity=106 time=0
note_on channel=0 note=65 velocity=106 time=0
note_on channel=0 note=44 velocity=106 time=0
note_on channel=0 note=49 velocity=106 time=0
note_on channel=0 note=44 velocity=0 time=0.29557291666666663
note_on channel=0 note=49 velocity=0 time=0
note_on channel=0 note=37 velocity=108 time=0.016927083333333332
note_on channel=0 note=53 velocity=0 time=0.13151041666666666
note_on channel=0 note=56 velocity=0 time=0
note_on channel=0 note=65 velocity=0 time=0
note_on channel=0 note=37 velocity=0 time=0.015625
note_on channel=0 note=53 velocity=109 time=0.009114583333333332
note_on channel=0 note=56 velocity=109 time=0
note_on channel=0 note=61 velocity=109 time=0
note_on channel=0 note=65 velocity=109 time=0
note_on channel=0 note=49 velocity=109 time=0
note_on channel=0 note=53 velocity=0 time=0.29557291666666663
note_on channel=0 note=56 velocity=0 time=0
note_on channel=0 note=61 velocity=0 time=0
note_on channel=0 note=65 velocity=0 time=0
note_on channel=0 note=49 velocity=0 time=0
<meta message time_signature numerator=4 denominator=4 clocks_per_click=24 notated_32nd_notes_per_beat=8 time=0.016927083333333332>
note_on channel=0 note=76 velocity=127 time=0
note_on channel=0 note=81 velocity=127 time=0
note_on channel=0 note=85 velocity=127 time=0
note_on channel=0 note=88 velocity=127 time=0
note_on channel=0 note=26 velocity=127 time=0
note_on channel=0 note=38 velocity=127 time=0
control_change channel=0 control=64 value=0 time=0.0013020833333333333
note_on channel=0 note=76 velocity=0 time=0.4661458333333333
note_on channel=0 note=81 velocity=0 time=0
note_on channel=0 note=85 velocity=0 time=0
note_on channel=0 note=88 velocity=0 time=0
note_on channel=0 note=26 velocity=0 time=0
note_on channel=0 note=38 velocity=0 time=0
note_on channel=0 note=54 velocity=127 time=0.0013020833333333333
note_on channel=0 note=57 velocity=127 time=0
note_on channel=0 note=62 velocity=127 time=0
note_on channel=0 note=66 velocity=127 time=0
note_on channel=0 note=38 velocity=127 time=0
note_on channel=0 note=42 velocity=127 time=0
note_on channel=0 note=45 velocity=127 time=0
note_on channel=0 note=50 velocity=127 time=0
note_on channel=0 note=54 velocity=0 time=0.46744791666666663
note_on channel=0 note=57 velocity=0 time=0
note_on channel=0 note=62 velocity=0 time=0
note_on channel=0 note=66 velocity=0 time=0
note_on channel=0 note=38 velocity=0 time=0
note_on channel=0 note=42 velocity=0 time=0
note_on channel=0 note=45 velocity=0 time=0
note_on channel=0 note=50 velocity=0 time=0
note_on channel=0 note=76 velocity=127 time=0.3138020833333333
note_on channel=0 note=80 velocity=127 time=0
note_on channel=0 note=88 velocity=127 time=0
note_on channel=0 note=28 velocity=127 time=0
note_on channel=0 note=40 velocity=127 time=0
note_on channel=0 note=76 velocity=0 time=0.46744791666666663
note_on channel=0 note=80 velocity=0 time=0
note_on channel=0 note=88 velocity=0 time=0
note_on channel=0 note=28 velocity=0 time=0
note_on channel=0 note=40 velocity=0 time=0
note_on channel=0 note=74 velocity=112 time=0.0013020833333333333
note_on channel=0 note=86 velocity=112 time=0
note_on channel=0 note=74 velocity=0 time=0.46744791666666663
note_on channel=0 note=86 velocity=0 time=0
note_on channel=0 note=73 velocity=112 time=0.0013020833333333333
note_on channel=0 note=85 velocity=112 time=0
note_on channel=0 note=73 velocity=0 time=0.31119791666666663
note_on channel=0 note=85 velocity=0 time=0
note_on channel=0 note=71 velocity=112 time=0.0013020833333333333
note_on channel=0 note=73 velocity=112 time=0
note_on channel=0 note=83 velocity=112 time=0
note_on channel=0 note=30 velocity=115 time=0
note_on channel=0 note=42 velocity=115 time=0
control_change channel=0 control=64 value=127 time=0.0026041666666666665
note_on channel=0 note=30 velocity=0 time=0.30859375
note_on channel=0 note=42 velocity=0 time=0
note_on channel=0 note=42 velocity=96 time=0.0013020833333333333
note_on channel=0 note=42 velocity=0 time=0.14713541666666666
note_on channel=0 note=71 velocity=0 time=0.0078125
note_on channel=0 note=73 velocity=0 time=0
note_on channel=0 note=83 velocity=0 time=0
note_on channel=0 note=69 velocity=112 time=0.0013020833333333333
note_on channel=0 note=73 velocity=112 time=0
note_on channel=0 note=81 velocity=112 time=0
note_on channel=0 note=49 velocity=96 time=0
note_on channel=0 note=57 velocity=96 time=0
note_on channel=0 note=49 velocity=0 time=0.29557291666666663
note_on channel=0 note=57 velocity=0 time=0
note_on channel=0 note=42 velocity=96 time=0.016927083333333332
note_on channel=0 note=42 velocity=0 time=0.14713541666666666
note_on channel=0 note=69 velocity=0 time=0.0078125
note_on channel=0 note=73 velocity=0 time=0
note_on channel=0 note=81 velocity=0 time=0
note_on channel=0 note=71 velocity=112 time=0.0013020833333333333
note_on channel=0 note=83 velocity=112 time=0
note_on channel=0 note=49 velocity=96 time=0
note_on channel=0 note=57 velocity=96 time=0
note_on channel=0 note=49 velocity=0 time=0.14713541666666666
note_on channel=0 note=57 velocity=0 time=0
note_on channel=0 note=71 velocity=0 time=0.0078125
note_on channel=0 note=83 velocity=0 time=0
note_on channel=0 note=73 velocity=112 time=0.0013020833333333333
note_on channel=0 note=76 velocity=112 time=0
note_on channel=0 note=81 velocity=112 time=0
note_on channel=0 note=85 velocity=112 time=0
note_on channel=0 note=42 velocity=96 time=0
note_on channel=0 note=42 velocity=0 time=0.14713541666666666
note_on channel=0 note=33 velocity=115 time=0.009114583333333332
note_on channel=0 note=45 velocity=115 time=0
control_change channel=0 control=64 value=0 time=0.0013020833333333333
control_change channel=0 control=64 value=127 time=0.0013020833333333333
note_on channel=0 note=33 velocity=0 time=0.15234375
note_on channel=0 note=45 velocity=0 time=0
note_on channel=0 note=45 velocity=96 time=0.0013020833333333333
note_on channel=0 note=45 velocity=0 time=0.14713541666666666
note_on channel=0 note=52 velocity=115 time=0.009114583333333332
note_on channel=0 note=57 velocity=115 time=0
note_on channel=0 note=52 velocity=0 time=0.15494791666666666
note_on channel=0 note=57 velocity=0 time=0
note_on channel=0 note=45 velocity=96 time=0.0013020833333333333
note_on channel=0 note=73 velocity=0 time=0.11588541666666666
note_on channel=0 note=76 velocity=0 time=0
note_on channel=0 note=81 velocity=0 time=0
note_on channel=0 note=85 velocity=0 time=0
note_on channel=0 note=45 velocity=0 time=0.03125
note_on channel=0 note=52 velocity=115 time=0.009114583333333332
note_on channel=0 note=59 velocity=115 time=0
note_on channel=0 note=52 velocity=0 time=0.15494791666666666
note_on channel=0 note=59 velocity=0 time=0
note_on channel=0 note=45 velocity=96 time=0.0013020833333333333
note_on channel=0 note=45 velocity=0 time=0.14713541666666666
note_on channel=0 note=52 velocity=115 time=0.009114583333333332
note_on channel=0 note=61 velocity=115 time=0
note_on channel=0 note=52 velocity=0 time=0.31119791666666663
note_on channel=0 note=61 velocity=0 time=0
note_on channel=0 note=69 velocity=112 time=0.0013020833333333333
note_on channel=0 note=74 velocity=112 time=0
note_on channel=0 note=78 velocity=112 time=0
note_on channel=0 note=81 velocity=112 time=0
note_on channel=0 note=26 velocity=115 time=0
note_on channel=0 note=38 velocity=115 time=0
control_change channel=0 control=64 value=0 time=0.0013020833333333333
control_change channel=0 control=64 value=127 time=0.0013020833333333333
note_on channel=0 note=26 velocity=0 time=0.30859375
note_on channel=0 note=38 velocity=0 time=0
note_on channel=0 note=38 velocity=96 time=0.0013020833333333333
note_on channel=0 note=38 velocity=0 time=0.14713541666666666
note_on channel=0 note=69 velocity=0 time=0.0078125
note_on channel=0 note=74 velocity=0 time=0
note_on channel=0 note=78 velocity=0 time=0
note_on channel=0 note=81 velocity=0 time=0
note_on channel=0 note=71 velocity=112 time=0.0013020833333333333
note_on channel=0 note=83 velocity=112 time=0
note_on channel=0 note=42 velocity=96 time=0
note_on channel=0 note=45 velocity=96 time=0
note_on channel=0 note=50 velocity=96 time=0
note_on channel=0 note=42 velocity=0 time=0.29557291666666663
note_on channel=0 note=45 velocity=0 time=0
note_on channel=0 note=50 velocity=0 time=0
note_on channel=0 note=50 velocity=96 time=0.016927083333333332
note_on channel=0 note=50 velocity=0 time=0.14713541666666666
note_on channel=0 note=71 velocity=0 time=0.0078125
note_on channel=0 note=83 velocity=0 time=0
note_on channel=0 note=73 velocity=112 time=0.0013020833333333333
note_on channel=0 note=85 velocity=112 time=0
note_on channel=0 note=57 velocity=96 time=0
note_on channel=0 note=62 velocity=96 time=0
note_on channel=0 note=57 velocity=0 time=0.14713541666666666
note_on channel=0 note=62 velocity=0 time=0
note_on channel=0 note=50 velocity=96 time=0.009114583333333332
note_on channel=0 note=50 velocity=0 time=0.14713541666666666
note_on channel=0 note=73 velocity=0 time=0.0078125
note_on channel=0 note=85 velocity=0 time=0
note_on channel=0 note=71 velocity=112 time=0.0013020833333333333
note_on channel=0 note=76 velocity=112 time=0
note_on channel=0 note=80 velocity=112 time=0
note_on channel=0 note=83 velocity=112 time=0
note_on channel=0 note=28 velocity=115 time=0
note_on channel=0 note=40 velocity=115 time=0
control_change channel=0 control=64 value=0 time=0.0013020833333333333
control_change channel=0 control=64 value=127 time=0.0013020833333333333
note_on channel=0 note=71 velocity=0 time=0.30859375
note_on channel=0 note=76 velocity=0 time=0
note_on channel=0 note=80 velocity=0 time=0
note_on channel=0 note=83 velocity=0 time=0
note_on channel=0 note=28 velocity=0 time=0
note_on channel=0 note=40 velocity=0 time=0
note_on channel=0 note=64 velocity=112 time=0.0013020833333333333
note_on channel=0 note=68 velocity=112 time=0
note_on channel=0 note=71 velocity=112 time=0
note_on channel=0 note=76 velocity=112 time=0
note_on channel=0 note=40 velocity=96 time=0
note_on channel=0 note=40 velocity=0 time=0.14713541666666666
note_on channel=0 note=44 velocity=96 time=0.009114583333333332
note_on channel=0 note=47 velocity=96 time=0
note_on channel=0 note=52 velocity=96 time=0
note_on channel=0 note=64 velocity=0 time=0.15494791666666666
note_on channel=0 note=68 velocity=0 time=0
note_on channel=0 note=71 velocity=0 time=0
note_on channel=0 note=76 velocity=0 time=0
note_on channel=0 note=76 velocity=112 time=0.0013020833333333333
note_on channel=0 note=88 velocity=112 time=0
note_on channel=0 note=44 velocity=0 time=0.13932291666666666
note_on channel=0 note=47 velocity=0 time=0
note_on channel=0 note=52 velocity=0 time=0
note_on channel=0 note=52 velocity=96 time=0.016927083333333332
note_on channel=0 note=52 velocity=0 time=0.14713541666666666
note_on channel=0 note=76 velocity=0 time=0.0078125
note_on channel=0 note=88 velocity=0 time=0
note_on channel=0 note=74 velocity=112 time=0.0013020833333333333
note_on channel=0 note=86 velocity=112 time=0
note_on channel=0 note=56 velocity=96 time=0
note_on channel=0 note=59 velocity=96 time=0
note_on channel=0 note=64 velocity=96 time=0
note_on channel=0 note=56 velocity=0 time=0.14713541666666666
note_on channel=0 note=59 velocity=0 time=0
note_on channel=0 note=64 velocity=0 time=0
note_on channel=0 note=52 velocity=96 time=0.009114583333333332
note_on channel=0 note=52 velocity=0 time=0.14713541666666666
note_on channel=0 note=74 velocity=0 time=0.0078125
note_on channel=0 note=86 velocity=0 time=0
note_on channel=0 note=74 velocity=112 time=0.0013020833333333333
note_on channel=0 note=78 velocity=112 time=0
note_on channel=0 note=81 velocity=112 time=0
note_on channel=0 note=86 velocity=112 time=0
note_on channel=0 note=30 velocity=115 time=0
note_on channel=0 note=42 velocity=115 time=0
control_change channel=0 control=64 value=0 time=0.0013020833333333333
control_change channel=0 control=64 value=127 time=0.0013020833333333333
note_on channel=0 note=30 velocity=0 time=0.30859375
note_on channel=0 note=42 velocity=0 time=0
note_on channel=0 note=42 velocity=96 time=0.0013020833333333333
note_on channel=0 note=42 velocity=0 time=0.14713541666666666
note_on channel=0 note=74 velocity=0 time=0.0078125
note_on channel=0 note=78 velocity=0 time=0
note_on channel=0 note=81 velocity=0 time=0
note_on channel=0 note=86 velocity=0 time=0
note_on channel=0 note=73 velocity=112 time=0.0013020833333333333
note_on channel=0 note=78 velocity=112 time=0
note_on channel=0 note=85 velocity=112 time=0
note_on channel=0 note=49 velocity=96 time=0
note_on channel=0 note=54 velocity=96 time=0
note_on channel=0 note=49 velocity=0 time=0.29557291666666663
note_on channel=0 note=54 velocity=0 time=0
note_on channel=0 note=54 velocity=96 time=0.016927083333333332
note_on channel=0 note=54 velocity=0 time=0.14713541666666666
note_on channel=0 note=73 velocity=0 time=0.0078125
note_on channel=0 note=78 velocity=0 time=0
note_on channel=0 note=85 velocity=0 time=0
note_on channel=0 note=71 velocity=112 time=0.0013020833333333333
note_on channel=0 note=57 velocity=96 time=0
note_on channel=0 note=61 velocity=96 time=0
note_on channel=0 note=66 velocity=96 time=0
note_on channel=0 note=57 velocity=0 time=0.14713541666666666
note_on channel=0 note=61 velocity=0 time=0
note_on channel=0 note=66 velocity=0 time=0
note_on channel=0 note=71 velocity=0 time=0.0078125
note_on channel=0 note=73 velocity=112 time=0.0013020833333333333
note_on channel=0 note=54 velocity=96 time=0
note_on channel=0 note=54 velocity=0 time=0.14713541666666666
note_on channel=0 note=73 velocity=0 time=0.0078125
note_on channel=0 note=71 velocity=112 time=0.0013020833333333333
note_on channel=0 note=73 velocity=112 time=0
note_on channel=0 note=83 velocity=112 time=0
note_on channel=0 note=33 velocity=115 time=0
note_on channel=0 note=45 velocity=115 time=0
control_change channel=0 control=64 value=0 time=0.0013020833333333333
control_change channel=0 control=64 value=127 time=0.0013020833333333333
note_on channel=0 note=33 velocity=0 time=0.30859375
note_on channel=0 note=45 velocity=0 time=0
note_on channel=0 note=45 velocity=96 time=0.0013020833333333333
note_on channel=0 note=45 velocity=0 time=0.09765625
note_on channel=0 note=49 velocity=96 time=0.006510416666666666
note_on channel=0 note=49 velocity=0 time=0.09765625
note_on channel=0 note=57 velocity=96 time=0.006510416666666666
note_on channel=0 note=57 velocity=0 time=0.09765625
note_on channel=0 note=71 velocity=0 time=0.005208333333333333
note_on channel=0 note=73 velocity=0 time=0
note_on channel=0 note=83 velocity=0 time=0
note_on channel=0 note=73 velocity=112 time=0.0013020833333333333
note_on channel=0 note=85 velocity=112 time=0
note_on channel=0 note=57 velocity=96 time=0
note_on channel=0 note=57 velocity=0 time=0.09765625
note_on channel=0 note=61 velocity=96 time=0.006510416666666666
note_on channel=0 note=61 velocity=0 time=0.09765625
note_on channel=0 note=64 velocity=96 time=0.006510416666666666
note_on channel=0 note=64 velocity=0 time=0.09765625
note_on channel=0 note=73 velocity=0 time=0.005208333333333333
note_on channel=0 note=85 velocity=0 time=0
note_on channel=0 note=69 velocity=112 time=0.0013020833333333333
note_on channel=0 note=73 velocity=112 time=0
note_on channel=0 note=76 velocity=112 time=0
note_on channel=0 note=81 velocity=112 time=0
note_on channel=0 note=26 velocity=115 time=0.3125
note_on channel=0 note=38 velocity=115 time=0
control_change channel=0 control=64 value=0 time=0.0013020833333333333
control_change channel=0 control=64 value=127 time=0.0013020833333333333
note_on channel=0 note=69 velocity=0 time=0.27734375
note_on channel=0 note=73 velocity=0 time=0
note_on channel=0 note=76 velocity=0 time=0
note_on channel=0 note=81 velocity=0 time=0
note_on channel=0 note=26 velocity=0 time=0.03125
note_on channel=0 note=38 velocity=0 time=0
note_on channel=0 note=73 velocity=112 time=0.0013020833333333333
note_on channel=0 note=85 velocity=112 time=0
note_on channel=0 note=38 velocity=96 time=0
note_on channel=0 note=38 velocity=0 time=0.14713541666666666
note_on channel=0 note=73 velocity=0 time=0.0078125
note_on channel=0 note=85 velocity=0 time=0
note_on channel=0 note=74 velocity=112 time=0.0013020833333333333
note_on channel=0 note=86 velocity=112 time=0
note_on channel=0 note=42 velocity=96 time=0
note_on channel=0 note=45 velocity=96 time=0
note_on channel=0 note=50 velocity=96 time=0
note_on channel=0 note=74 velocity=0 time=0.15494791666666666
note_on channel=0 note=86 velocity=0 time=0
note_on channel=0 note=76 velocity=112 time=0.0013020833333333333
note_on channel=0 note=81 velocity=112 time=0
note_on channel=0 note=85 velocity=112 time=0
note_on channel=0 note=88 velocity=112 time=0
note_on channel=0 note=42 velocity=0 time=0.13932291666666666
note_on channel=0 note=45 velocity=0 time=0
note_on channel=0 note=50 velocity=0 time=0
note_on channel=0 note=50 velocity=96 time=0.016927083333333332
note_on channel=0 note=50 velocity=0 time=0.14713541666666666
note_on channel=0 note=57 velocity=96 time=0.009114583333333332
note_on channel=0 note=62 velocity=96 time=0
note_on channel=0 note=57 velocity=0 time=0.14713541666666666
note_on channel=0 note=62 velocity=0 time=0
note_on channel=0 note=50 velocity=96 time=0.009114583333333332
note_on channel=0 note=50 velocity=0 time=0.14713541666666666
note_on channel=0 note=76 velocity=0 time=0.0078125
note_on channel=0 note=81 velocity=0 time=0
note_on channel=0 note=85 velocity=0 time=0
note_on channel=0 note=88 velocity=0 time=0
note_on channel=0 note=68 velocity=112 time=0.0013020833333333333
note_on channel=0 note=71 velocity=112 time=0
note_on channel=0 note=76 velocity=112 time=0
note_on channel=0 note=80 velocity=112 time=0
note_on channel=0 note=28 velocity=115 time=0
note_on channel=0 note=40 velocity=115 time=0
control_change channel=0 control=64 value=0 time=0.0013020833333333333
control_change channel=0 control=64 value=127 time=0.0013020833333333333
note_on channel=0 note=28 velocity=0 time=0.30859375
note_on channel=0 note=40 velocity=0 time=0
note_on channel=0 note=40 velocity=96 time=0.0013020833333333333
note_on channel=0 note=40 velocity=0 time=0.14713541666666666
note_on channel=0 note=68 velocity=0 time=0.0078125
note_on channel=0 note=71 velocity=0 time=0
note_on channel=0 note=76 velocity=0 time=0
note_on channel=0 note=80 velocity=0 time=0
note_on channel=0 note=69 velocity=112 time=0.0013020833333333333
note_on channel=0 note=81 velocity=112 time=0
note_on channel=0 note=44 velocity=96 time=0
note_on channel=0 note=47 velocity=96 time=0
note_on channel=0 note=52 velocity=96 time=0
note_on channel=0 note=44 velocity=0 time=0.29557291666666663
note_on channel=0 note=47 velocity=0 time=0
note_on channel=0 note=52 velocity=0 time=0
note_on channel=0 note=52 velocity=96 time=0.016927083333333332
note_on channel=0 note=52 velocity=0 time=0.14713541666666666
note_on channel=0 note=69 velocity=0 time=0.0078125
note_on channel=0 note=81 velocity=0 time=0
note_on channel=0 note=78 velocity=112 time=0.0013020833333333333
note_on channel=0 note=90 velocity=112 time=0
note_on channel=0 note=59 velocity=96 time=0
note_on channel=0 note=64 velocity=96 time=0
note_on channel=0 note=59 velocity=0 time=0.14713541666666666
note_on channel=0 note=64 velocity=0 time=0
note_on channel=0 note=52 velocity=96 time=0.009114583333333332
note_on channel=0 note=52 velocity=0 time=0.14713541666666666
note_on channel=0 note=78 velocity=0 time=0.0078125
note_on channel=0 note=90 velocity=0 time=0
note_on channel=0 note=76 velocity=112 time=0.0013020833333333333
note_on channel=0 note=81 velocity=112 time=0
note_on channel=0 note=85 velocity=112 time=0
note_on channel=0 note=88 velocity=112 time=0
note_on channel=0 note=30 velocity=115 time=0
note_on channel=0 note=42 velocity=115 time=0
control_change channel=0 control=64 value=0 time=0.0013020833333333333
control_change channel=0 control=64 value=127 time=0.0013020833333333333
note_on channel=0 note=30 velocity=0 time=0.30859375
note_on channel=0 note=42 velocity=0 time=0
note_on channel=0 note=42 velocity=96 time=0.0013020833333333333
note_on channel=0 note=42 velocity=0 time=0.14713541666666666
note_on channel=0 note=76 velocity=0 time=0.0078125
note_on channel=0 note=81 velocity=0 time=0
note_on channel=0 note=85 velocity=0 time=0
note_on channel=0 note=88 velocity=0 time=0
note_on channel=0 note=74 velocity=112 time=0.0013020833333333333
note_on channel=0 note=78 velocity=112 time=0
note_on channel=0 note=81 velocity=112 time=0
note_on channel=0 note=86 velocity=112 time=0
note_on channel=0 note=49 velocity=96 time=0
note_on channel=0 note=54 velocity=96 time=0
note_on channel=0 note=49 velocity=0 time=0.29557291666666663
note_on channel=0 note=54 velocity=0 time=0
note_on channel=0 note=54 velocity=96 time=0.016927083333333332
note_on channel=0 note=54 velocity=0 time=0.14713541666666666
note_on channel=0 note=74 velocity=0 time=0.0078125
note_on channel=0 note=78 velocity=0 time=0
note_on channel=0 note=81 velocity=0 time=0
note_on channel=0 note=86 velocity=0 time=0
note_on channel=0 note=73 velocity=112 time=0.0013020833333333333
note_on channel=0 note=85 velocity=112 time=0
note_on channel=0 note=57 velocity=96 time=0
note_on channel=0 note=61 velocity=96 time=0
note_on channel=0 note=66 velocity=96 time=0
note_on channel=0 note=57 velocity=0 time=0.14713541666666666
note_on channel=0 note=61 velocity=0 time=0
note_on channel=0 note=66 velocity=0 time=0
note_on channel=0 note=54 velocity=96 time=0.009114583333333332
note_on channel=0 note=54 velocity=0 time=0.14713541666666666
note_on channel=0 note=73 velocity=0 time=0.0078125
note_on channel=0 note=85 velocity=0 time=0
note_on channel=0 note=71 velocity=112 time=0.0013020833333333333
note_on channel=0 note=73 velocity=112 time=0
note_on channel=0 note=83 velocity=112 time=0
note_on channel=0 note=33 velocity=115 time=0
note_on channel=0 note=45 velocity=115 time=0
control_change channel=0 control=64 value=0 time=0.0013020833333333333
control_change channel=0 control=64 value=127 time=0.0013020833333333333
note_on channel=0 note=33 velocity=0 time=0.30859375
note_on channel=0 note=45 velocity=0 time=0
note_on channel=0 note=45 velocity=96 time=0.0013020833333333333
note_on channel=0 note=45 velocity=0 time=0.14713541666666666
note_on channel=0 note=71 velocity=0 time=0.0078125
note_on channel=0 note=73 velocity=0 time=0
note_on channel=0 note=83 velocity=0 time=0
note_on channel=0 note=73 velocity=112 time=0.0013020833333333333
note_on channel=0 note=85 velocity=112 time=0
note_on channel=0 note=49 velocity=96 time=0
note_on channel=0 note=52 velocity=96 time=0
note_on channel=0 note=57 velocity=96 time=0
note_on channel=0 note=49 velocity=0 time=0.29557291666666663
note_on channel=0 note=52 velocity=0 time=0
note_on channel=0 note=57 velocity=0 time=0
note_on channel=0 note=57 velocity=96 time=0.016927083333333332
note_on channel=0 note=57 velocity=0 time=0.14713541666666666
note_on channel=0 note=73 velocity=0 time=0.0078125
note_on channel=0 note=85 velocity=0 time=0
note_on channel=0 note=74 velocity=112 time=0.0013020833333333333
note_on channel=0 note=86 velocity=112 time=0
note_on channel=0 note=61 velocity=96 time=0
note_on channel=0 note=64 velocity=96 time=0
note_on channel=0 note=61 velocity=0 time=0.14713541666666666
note_on channel=0 note=64 velocity=0 time=0
note_on channel=0 note=57 velocity=96 time=0.009114583333333332
note_on channel=0 note=74 velocity=0 time=0.13932291666666666
note_on channel=0 note=86 velocity=0 time=0
note_on channel=0 note=57 velocity=0 time=0.0078125
note_on channel=0 note=73 velocity=112 time=0.009114583333333332
note_on channel=0 note=76 velocity=112 time=0
note_on channel=0 note=85 velocity=112 time=0
note_on channel=0 note=26 velocity=115 time=0
note_on channel=0 note=38 velocity=115 time=0
control_change channel=0 control=64 value=0 time=0.0013020833333333333
control_change channel=0 control=64 value=127 time=0.0013020833333333333
note_on channel=0 note=26 velocity=0 time=0.30859375
note_on channel=0 note=38 velocity=0 time=0
note_on channel=0 note=38 velocity=96 time=0.0013020833333333333
note_on channel=0 note=38 velocity=0 time=0.14713541666666666
note_on channel=0 note=73 velocity=0 time=0.0078125
note_on channel=0 note=76 velocity=0 time=0
note_on channel=0 note=85 velocity=0 time=0
note_on channel=0 note=54 velocity=112 time=0.0013020833333333333
note_on channel=0 note=57 velocity=112 time=0
note_on channel=0 note=62 velocity=112 time=0
note_on channel=0 note=66 velocity=112 time=0
note_on channel=0 note=42 velocity=96 time=0
note_on channel=0 note=45 velocity=96 time=0
note_on channel=0 note=50 velocity=96 time=0
note_on channel=0 note=42 velocity=0 time=0.29557291666666663
note_on channel=0 note=45 velocity=0 time=0
note_on channel=0 note=50 velocity=0 time=0
note_on channel=0 note=50 velocity=96 time=0.016927083333333332
note_on channel=0 note=50 velocity=0 time=0.14713541666666666
note_on channel=0 note=54 velocity=0 time=0.0078125
note_on channel=0 note=57 velocity=0 time=0
note_on channel=0 note=62 velocity=0 time=0
note_on channel=0 note=66 velocity=0 time=0
note_on channel=0 note=66 velocity=112 time=0.0013020833333333333
note_on channel=0 note=69 velocity=112 time=0
note_on channel=0 note=74 velocity=112 time=0
note_on channel=0 note=78 velocity=112 time=0
note_on channel=0 note=57 velocity=96 time=0
note_on channel=0 note=64 velocity=96 time=0
note_on channel=0 note=57 velocity=0 time=0.14713541666666666
note_on channel=0 note=64 velocity=0 time=0
note_on channel=0 note=50 velocity=96 time=0.009114583333333332
note_on channel=0 note=50 velocity=0 time=0.14713541666666666
note_on channel=0 note=66 velocity=0 time=0.0078125
note_on channel=0 note=69 velocity=0 time=0
note_on channel=0 note=74 velocity=0 time=0
note_on channel=0 note=78 velocity=0 time=0
note_on channel=0 note=76 velocity=112 time=0.0013020833333333333
note_on channel=0 note=80 velocity=112 time=0
note_on channel=0 note=83 velocity=112 time=0
note_on channel=0 note=88 velocity=112 time=0
note_on channel=0 note=28 velocity=115 time=0
note_on channel=0 note=40 velocity=115 time=0
control_change channel=0 control=64 value=0 time=0.0013020833333333333
control_change channel=0 control=64 value=127 time=0.0013020833333333333
note_on channel=0 note=28 velocity=0 time=0.30859375
note_on channel=0 note=40 velocity=0 time=0
note_on channel=0 note=40 velocity=96 time=0.0013020833333333333
note_on channel=0 note=40 velocity=0 time=0.14713541666666666
note_on channel=0 note=76 velocity=0 time=0.0078125
note_on channel=0 note=80 velocity=0 time=0
note_on channel=0 note=83 velocity=0 time=0
note_on channel=0 note=88 velocity=0 time=0
note_on channel=0 note=68 velocity=112 time=0.0013020833333333333
note_on channel=0 note=71 velocity=112 time=0
note_on channel=0 note=76 velocity=112 time=0
note_on channel=0 note=80 velocity=112 time=0
note_on channel=0 note=47 velocity=96 time=0
note_on channel=0 note=52 velocity=96 time=0
note_on channel=0 note=47 velocity=0 time=0.29557291666666663
note_on channel=0 note=52 velocity=0 time=0
note_on channel=0 note=52 velocity=96 time=0.016927083333333332
note_on channel=0 note=52 velocity=0 time=0.14713541666666666
note_on channel=0 note=68 velocity=0 time=0.0078125
note_on channel=0 note=71 velocity=0 time=0
note_on channel=0 note=76 velocity=0 time=0
note_on channel=0 note=80 velocity=0 time=0
note_on channel=0 note=69 velocity=112 time=0.0013020833333333333
note_on channel=0 note=81 velocity=112 time=0
note_on channel=0 note=56 velocity=96 time=0
note_on channel=0 note=59 velocity=96 time=0
note_on channel=0 note=64 velocity=96 time=0
note_on channel=0 note=56 velocity=0 time=0.14713541666666666
note_on channel=0 note=59 velocity=0 time=0
note_on channel=0 note=64 velocity=0 time=0
note_on channel=0 note=52 velocity=96 time=0.009114583333333332
note_on channel=0 note=52 velocity=0 time=0.14713541666666666
note_on channel=0 note=69 velocity=0 time=0.0078125
note_on channel=0 note=81 velocity=0 time=0
note_on channel=0 note=78 velocity=112 time=0.0013020833333333333
note_on channel=0 note=81 velocity=112 time=0
note_on channel=0 note=86 velocity=112 time=0
note_on channel=0 note=90 velocity=112 time=0
note_on channel=0 note=26 velocity=127 time=0
note_on channel=0 note=38 velocity=127 time=0
control_change channel=0 control=64 value=0 time=0.0013020833333333333
control_change channel=0 control=64 value=127 time=0.0013020833333333333
note_on channel=0 note=26 velocity=0 time=0.30859375
note_on channel=0 note=38 velocity=0 time=0
note_on channel=0 note=38 velocity=106 time=0.0013020833333333333
note_on channel=0 note=38 velocity=0 time=0.14713541666666666
note_on channel=0 note=78 velocity=0 time=0.0078125
note_on channel=0 note=81 velocity=0 time=0
note_on channel=0 note=86 velocity=0 time=0
note_on channel=0 note=90 velocity=0 time=0
note_on channel=0 note=76 velocity=103 time=0.0013020833333333333
note_on channel=0 note=81 velocity=103 time=0
note_on channel=0 note=88 velocity=103 time=0
note_on channel=0 note=42 velocity=103 time=0
note_on channel=0 note=45 velocity=103 time=0
note_on channel=0 note=50 velocity=103 time=0
note_on channel=0 note=42 velocity=0 time=0.29557291666666663
note_on channel=0 note=45 velocity=0 time=0
note_on channel=0 note=50 velocity=0 time=0
note_on channel=0 note=50 velocity=96 time=0.016927083333333332
note_on channel=0 note=50 velocity=0 time=0.14713541666666666
note_on channel=0 note=76 velocity=0 time=0.0078125
note_on channel=0 note=81 velocity=0 time=0
note_on channel=0 note=88 velocity=0 time=0
note_on channel=0 note=81 velocity=93 time=0.0013020833333333333
note_on channel=0 note=93 velocity=93 time=0
note_on channel=0 note=50 velocity=93 time=0
note_on channel=0 note=54 velocity=93 time=0
note_on channel=0 note=57 velocity=93 time=0
note_on channel=0 note=62 velocity=93 time=0
note_on channel=0 note=50 velocity=0 time=0.29557291666666663
note_on channel=0 note=54 velocity=0 time=0
note_on channel=0 note=57 velocity=0 time=0
note_on channel=0 note=62 velocity=0 time=0
note_on channel=0 note=81 velocity=0 time=0.015625
note_on channel=0 note=93 velocity=0 time=0
note_on channel=0 note=80 velocity=87 time=0.0013020833333333333
note_on channel=0 note=83 velocity=87 time=0
note_on channel=0 note=88 velocity=87 time=0
note_on channel=0 note=92 velocity=87 time=0
note_on channel=0 note=28 velocity=104 time=0
note_on channel=0 note=40 velocity=104 time=0
control_change channel=0 control=64 value=0 time=0.0013020833333333333
control_change channel=0 control=64 value=127 time=0.0013020833333333333
note_on channel=0 note=80 velocity=0 time=0.29296875
note_on channel=0 note=83 velocity=0 time=0
note_on channel=0 note=88 velocity=0 time=0
note_on channel=0 note=92 velocity=0 time=0
note_on channel=0 note=28 velocity=0 time=0.015625
note_on channel=0 note=40 velocity=0 time=0
note_on channel=0 note=56 velocity=80 time=0.0013020833333333333
note_on channel=0 note=40 velocity=80 time=0
note_on channel=0 note=56 velocity=0 time=0.10286458333333333
note_on channel=0 note=40 velocity=0 time=0
note_on channel=0 note=59 velocity=80 time=0.0013020833333333333
note_on channel=0 note=44 velocity=80 time=0
note_on channel=0 note=59 velocity=0 time=0.10286458333333333
note_on channel=0 note=44 velocity=0 time=0
note_on channel=0 note=64 velocity=80 time=0.0013020833333333333
note_on channel=0 note=47 velocity=80 time=0
note_on channel=0 note=64 velocity=0 time=0.10286458333333333
note_on channel=0 note=47 velocity=0 time=0
note_on channel=0 note=68 velocity=80 time=0.0013020833333333333
note_on channel=0 note=52 velocity=80 time=0
note_on channel=0 note=68 velocity=0 time=0.10286458333333333
note_on channel=0 note=52 velocity=0 time=0
note_on channel=0 note=71 velocity=80 time=0.0013020833333333333
note_on channel=0 note=56 velocity=80 time=0
note_on channel=0 note=71 velocity=0 time=0.10286458333333333
note_on channel=0 note=56 velocity=0 time=0
note_on channel=0 note=76 velocity=80 time=0.0013020833333333333
note_on channel=0 note=59 velocity=80 time=0
note_on channel=0 note=76 velocity=0 time=0.10286458333333333
note_on channel=0 note=59 velocity=0 time=0
note_on channel=0 note=80 velocity=80 time=0.0013020833333333333
note_on channel=0 note=64 velocity=80 time=0
note_on channel=0 note=80 velocity=0 time=0.10286458333333333
note_on channel=0 note=64 velocity=0 time=0
note_on channel=0 note=83 velocity=80 time=0.0013020833333333333
note_on channel=0 note=68 velocity=80 time=0
note_on channel=0 note=83 velocity=0 time=0.10286458333333333
note_on channel=0 note=68 velocity=0 time=0
note_on channel=0 note=88 velocity=80 time=0.0013020833333333333
note_on channel=0 note=71 velocity=80 time=0
note_on channel=0 note=88 velocity=0 time=0.10286458333333333
note_on channel=0 note=71 velocity=0 time=0
note_on channel=0 note=92 velocity=80 time=0.0013020833333333333
note_on channel=0 note=76 velocity=80 time=0
note_on channel=0 note=92 velocity=0 time=0.10286458333333333
note_on channel=0 note=76 velocity=0 time=0
note_on channel=0 note=95 velocity=80 time=0.0013020833333333333
note_on channel=0 note=80 velocity=80 time=0
note_on channel=0 note=95 velocity=0 time=0.10286458333333333
note_on channel=0 note=80 velocity=0 time=0
note_on channel=0 note=100 velocity=80 time=0.0013020833333333333
note_on channel=0 note=83 velocity=80 time=0
note_on channel=0 note=100 velocity=0 time=0.10286458333333333
note_on channel=0 note=83 velocity=0 time=0
note_on channel=0 note=92 velocity=80 time=0.0013020833333333333
note_on channel=0 note=95 velocity=80 time=0
note_on channel=0 note=100 velocity=80 time=0
note_on channel=0 note=104 velocity=80 time=0
note_on channel=0 note=76 velocity=80 time=0
note_on channel=0 note=80 velocity=80 time=0
note_on channel=0 note=83 velocity=80 time=0
note_on channel=0 note=88 velocity=80 time=0
<meta message set_tempo tempo=1875000 time=0.3125>
note_on channel=0 note=92 velocity=0 time=5.29296875
note_on channel=0 note=95 velocity=0 time=0
note_on channel=0 note=100 velocity=0 time=0
note_on channel=0 note=104 velocity=0 time=0
note_on channel=0 note=76 velocity=0 time=0
note_on channel=0 note=80 velocity=0 time=0
note_on channel=0 note=83 velocity=0 time=0
note_on channel=0 note=88 velocity=0 time=0
<meta message set_tempo tempo=625000 time=0.328125>
<meta message set_tempo tempo=833333 time=0.0013020833333333333>
note_on channel=0 note=66 velocity=49 time=0
note_on channel=0 note=38 velocity=49 time=0
control_change channel=0 control=64 value=0 time=0.0017361104166666666
control_change channel=0 control=64 value=127 time=0.0017361104166666666
note_on channel=0 note=45 velocity=49 time=0.05902775416666666
note_on channel=0 note=50 velocity=49 time=0.06597219583333333
note_on channel=0 note=66 velocity=0 time=1.4531244187499999
note_on channel=0 note=64 velocity=49 time=0.08506941041666666
note_on channel=0 note=64 velocity=0 time=0.7899302395833333
<meta message set_tempo tempo=1000000 time=0.043402760416666665>
note_on channel=0 note=69 velocity=64 time=0
note_on channel=0 note=69 velocity=0 time=0.9479166666666666
note_on channel=0 note=45 velocity=0 time=0.04791666666666666
note_on channel=0 note=50 velocity=0 time=0
note_on channel=0 note=38 velocity=0 time=0.0020833333333333333
<meta message set_tempo tempo=1560001 time=0.0020833333333333333>
note_on channel=0 note=68 velocity=49 time=0
note_on channel=0 note=40 velocity=49 time=0
control_change channel=0 control=64 value=0 time=0.0032500020833333334
control_change channel=0 control=64 value=127 time=0.0032500020833333334
note_on channel=0 note=44 velocity=49 time=0.05525003541666667
note_on channel=0 note=47 velocity=49 time=0.06825004375
note_on channel=0 note=52 velocity=49 time=0.06825004375
<meta message set_tempo tempo=1200000 time=4.478502870833333>
note_on channel=0 note=68 velocity=0 time=0
<meta message set_tempo tempo=1428571 time=0.0025>
note_on channel=0 note=73 velocity=49 time=0
note_on channel=0 note=73 velocity=0 time=1.3541662604166667
note_on channel=0 note=44 velocity=0 time=0.06845236041666666
note_on channel=0 note=47 velocity=0 time=0
note_on channel=0 note=52 velocity=0 time=0
note_on channel=0 note=40 velocity=0 time=0.002976189583333333
note_on channel=0 note=64 velocity=49 time=0.002976189583333333
note_on channel=0 note=33 velocity=49 time=0
control_change channel=0 control=64 value=0 time=0.002976189583333333
control_change channel=0 control=64 value=127 time=0.002976189583333333
note_on channel=0 note=69 velocity=49 time=0.059523791666666666
note_on channel=0 note=37 velocity=49 time=0
note_on channel=0 note=73 velocity=49 time=0.06547617083333333
note_on channel=0 note=40 velocity=49 time=0
note_on channel=0 note=45 velocity=49 time=0.06845236041666666
note_on channel=0 note=69 velocity=0 time=2.6517849187499998
note_on channel=0 note=73 velocity=0 time=0
note_on channel=0 note=37 velocity=0 time=0
note_on channel=0 note=40 velocity=0 time=0
note_on channel=0 note=45 velocity=0 time=0
note_on channel=0 note=64 velocity=0 time=0.002976189583333333
note_on channel=0 note=33 velocity=0 time=0
<meta message set_tempo tempo=2000000 time=0.002976189583333333>
note_on channel=0 note=57 velocity=49 time=0
note_on channel=0 note=45 velocity=49 time=0
control_change channel=0 control=64 value=0 time=0.004166666666666667
control_change channel=0 control=64 value=127 time=0.004166666666666667
note_on channel=0 note=57 velocity=0 time=0.3208333333333333
note_on channel=0 note=45 velocity=0 time=0
<meta message set_tempo tempo=1578948 time=0.004166666666666667>
note_on channel=0 note=61 velocity=50 time=0
note_on channel=0 note=49 velocity=50 time=0
note_on channel=0 note=61 velocity=0 time=0.259868525
note_on channel=0 note=49 velocity=0 time=0
<meta message set_tempo tempo=1363637 time=0.003289475>
note_on channel=0 note=64 velocity=51 time=0
note_on channel=0 note=52 velocity=51 time=0
note_on channel=0 note=64 velocity=0 time=0.22443192291666667
note_on channel=0 note=52 velocity=0 time=0
<meta message set_tempo tempo=1250000 time=0.0028409104166666668>
note_on channel=0 note=69 velocity=52 time=0
note_on channel=0 note=57 velocity=52 time=0
note_on channel=0 note=69 velocity=0 time=0.20572916666666666
note_on channel=0 note=57 velocity=0 time=0
note_on channel=0 note=73 velocity=54 time=0.0026041666666666665
note_on channel=0 note=61 velocity=54 time=0
note_on channel=0 note=73 velocity=0 time=0.20572916666666666
note_on channel=0 note=61 velocity=0 time=0
note_on channel=0 note=76 velocity=55 time=0.0026041666666666665
note_on channel=0 note=64 velocity=55 time=0
note_on channel=0 note=76 velocity=0 time=0.20572916666666666
note_on channel=0 note=64 velocity=0 time=0
note_on channel=0 note=81 velocity=56 time=0.0026041666666666665
note_on channel=0 note=69 velocity=56 time=0
note_on channel=0 note=81 velocity=0 time=0.20572916666666666
note_on channel=0 note=69 velocity=0 time=0
note_on channel=0 note=85 velocity=57 time=0.0026041666666666665
note_on channel=0 note=73 velocity=57 time=0
note_on channel=0 note=85 velocity=0 time=0.20572916666666666
note_on channel=0 note=73 velocity=0 time=0
<meta message set_tempo tempo=1363637 time=0.0026041666666666665>
note_on channel=0 note=88 velocity=59 time=0
note_on channel=0 note=76 velocity=59 time=0
note_on channel=0 note=88 velocity=0 time=0.22443192291666667
note_on channel=0 note=76 velocity=0 time=0
<meta message set_tempo tempo=1578948 time=0.0028409104166666668>
note_on channel=0 note=93 velocity=60 time=0
note_on channel=0 note=81 velocity=60 time=0
note_on channel=0 note=93 velocity=0 time=0.259868525
note_on channel=0 note=81 velocity=0 time=0
<meta message set_tempo tempo=2000000 time=0.003289475>
note_on channel=0 note=97 velocity=61 time=0
note_on channel=0 note=85 velocity=61 time=0
note_on channel=0 note=97 velocity=0 time=0.32916666666666666
note_on channel=0 note=85 velocity=0 time=0
<meta message set_tempo tempo=3333333 time=0.004166666666666667>
note_on channel=0 note=100 velocity=62 time=0
note_on channel=0 note=88 velocity=62 time=0
note_on channel=0 note=100 velocity=0 time=0.52083328125
note_on channel=0 note=88 velocity=0 time=0
<meta message set_tempo tempo=967745 time=0.03472221875>
note_on channel=0 note=93 velocity=64 time=0
note_on channel=0 note=97 velocity=64 time=0
note_on channel=0 note=100 velocity=64 time=0
note_on channel=0 note=105 velocity=64 time=0
note_on channel=0 note=81 velocity=64 time=0
note_on channel=0 note=85 velocity=64 time=0
note_on channel=0 note=88 velocity=64 time=0
note_on channel=0 note=93 velocity=0 time=1.8366993645833332
note_on channel=0 note=97 velocity=0 time=0
note_on channel=0 note=100 velocity=0 time=0
note_on channel=0 note=105 velocity=0 time=0
note_on channel=0 note=81 velocity=0 time=0
note_on channel=0 note=85 velocity=0 time=0
note_on channel=0 note=88 velocity=0 time=0
<meta message set_tempo tempo=3870980 time=0.09879063541666666>
note_on channel=0 note=45 velocity=49 time=0
note_on channel=0 note=49 velocity=49 time=0
note_on channel=0 note=52 velocity=49 time=0
note_on channel=0 note=57 velocity=49 time=0
note_on channel=0 note=21 velocity=49 time=0
note_on channel=0 note=33 velocity=49 time=0
control_change channel=0 control=64 value=0 time=0.008064541666666666
note_on channel=0 note=45 velocity=0 time=7.338732916666666
note_on channel=0 note=49 velocity=0 time=0
note_on channel=0 note=52 velocity=0 time=0
note_on channel=0 note=57 velocity=0 time=0
note_on channel=0 note=21 velocity=0 time=0
note_on channel=0 note=33 velocity=0 time=0
<meta message set_tempo tempo=967745 time=0.38709799999999994>
<meta message end_of_track time=0.0020161354166666665>
went past
